<svg width="13" height="8" viewBox="0 0 13 8" fill="none" xmlns="http://www.w3.org/2000/svg">
<path d="M12.4719 3.75587C12.3598 3.60247 9.68803 0 6.27574 0C2.86345 0 0.191598 3.60247 0.0795886 3.75572C-0.0266109 3.90124 -0.0266109 4.09861 0.0795886 4.24413C0.191598 4.39753 2.86345 8 6.27574 8C9.68803 8 12.3598 4.3975 12.4719 4.24426C12.5782 4.09876 12.5782 3.90124 12.4719 3.75587ZM6.27574 7.17242C3.76223 7.17242 1.58526 4.78138 0.94083 3.99972C1.58443 3.21737 3.75683 0.827582 6.27574 0.827582C8.78913 0.827582 10.966 3.2182 11.6107 4.00028C10.9671 4.78261 8.79465 7.17242 6.27574 7.17242Z" fill="#2B7BFB"/>
<path d="M6.27575 1.51733C4.90678 1.51733 3.79298 2.63113 3.79298 4.0001C3.79298 5.36908 4.90678 6.48287 6.27575 6.48287C7.64473 6.48287 8.75852 5.36908 8.75852 4.0001C8.75852 2.63113 7.64473 1.51733 6.27575 1.51733ZM6.27575 5.65527C5.36306 5.65527 4.62059 4.91278 4.62059 4.0001C4.62059 3.08743 5.36308 2.34494 6.27575 2.34494C7.18843 2.34494 7.93092 3.08743 7.93092 4.0001C7.93092 4.91278 7.18845 5.65527 6.27575 5.65527Z" fill="#2B7BFB"/>
</svg>
