<svg width="22" height="20" viewBox="0 0 22 20" fill="none" xmlns="http://www.w3.org/2000/svg">
<path d="M21.7879 0.778451C21.6607 0.49737 21.4593 0.275748 21.2154 0.156829C21.0458 0.0703425 20.8549 0.0270996 20.6429 0.0270996C20.5899 0.0270996 20.5369 0.0325049 20.4785 0.0379103C20.3089 0.0541265 20.1287 0.0973702 19.9272 0.16764C17.4357 1.00007 14.9441 1.8271 12.4472 2.65953C8.86891 3.84872 5.2906 5.04332 1.70698 6.23791C1.18746 6.42169 0.747464 6.75142 0.471801 7.16223C0.185536 7.57845 0.0371028 8.10278 0.042404 8.68115L0.106018 12.5947C0.132524 14.4271 0.15903 16.2541 0.185536 18.0866C0.196139 18.6974 0.33397 19.1514 0.604332 19.4866C0.800476 19.7298 1.08144 19.892 1.39421 19.9406C1.47903 19.9568 1.56385 19.9622 1.65397 19.9622C1.88192 19.9622 2.13108 19.9136 2.39084 19.8163C5.97445 18.573 9.55276 17.3298 13.1364 16.0866L20.4626 13.546C20.8443 13.4109 21.3585 13.1352 21.6342 12.6109C21.9417 12.0379 21.9417 11.3676 21.9417 10.7839C21.9576 7.86494 21.9735 4.94061 21.9894 2.02169C21.9947 1.6325 21.9735 1.18926 21.7879 0.778451Z" fill="white"/>
<path d="M20.4998 0.248628C20.7118 0.227007 20.9292 0.248628 21.12 0.345925C21.3321 0.454033 21.4964 0.643223 21.5918 0.864844C21.7509 1.2216 21.7774 1.62701 21.7721 2.0162C21.7562 4.93511 21.7403 7.85944 21.7244 10.7784C21.7244 11.3621 21.7244 11.9784 21.4434 12.5027C21.226 12.9189 20.8125 13.1892 20.3885 13.3405C14.361 15.4324 8.33881 17.5189 2.31134 19.6108C2.03038 19.7189 1.72291 19.7784 1.42604 19.7297C1.17158 19.6865 0.927728 19.5513 0.763391 19.3513C0.477126 19 0.402909 18.5297 0.392307 18.0865C0.344596 14.9513 0.302186 11.8108 0.254475 8.67566C0.249174 8.18917 0.3658 7.68647 0.646764 7.28647C0.917126 6.88647 1.33062 6.59998 1.78122 6.44322C7.8511 4.4216 13.921 2.39998 19.9909 0.378358C20.1605 0.313493 20.3248 0.264845 20.4998 0.248628ZM17.1388 2.51349C17.1547 5.2162 17.1918 7.9189 17.213 10.6216C17.2077 10.6432 17.2342 10.6648 17.2554 10.6486C18.215 10.3189 19.1745 9.98917 20.134 9.65403C20.1499 9.64863 20.1605 9.63782 20.1605 9.6216C20.1711 6.9189 20.1817 4.21079 20.1923 1.50809C20.1976 1.48106 20.1817 1.44863 20.1499 1.46484C19.148 1.8162 18.1407 2.16214 17.1388 2.51349ZM16.6988 2.64322C15.734 2.97836 14.7692 3.30809 13.8044 3.64322C13.7938 3.64863 13.7832 3.65403 13.7832 3.66484C13.7832 4.56214 13.7885 5.45944 13.7885 6.35674C13.7885 6.38917 13.815 6.40539 13.8309 6.43241C14.8063 7.70809 15.7764 8.98917 16.7518 10.2648C16.7624 10.2919 16.8048 10.2757 16.7995 10.2486C16.7783 7.7243 16.7624 5.20539 16.7412 2.68106C16.7518 2.64863 16.7253 2.62701 16.6988 2.64322ZM10.454 4.8162C10.4381 4.8216 10.4275 4.83782 10.4275 4.85403C10.4381 5.70268 10.4434 6.55133 10.454 7.39457C10.454 7.40538 10.454 7.4216 10.4646 7.43241C10.9523 8.08647 11.4347 8.74592 11.9224 9.39998C11.4506 9.56755 10.9735 9.73512 10.5017 9.90268C10.4858 9.90809 10.4858 9.9243 10.4858 9.94052C10.4911 10.454 10.4964 10.9621 10.5017 11.4757C10.4964 11.4973 10.5229 11.5189 10.5388 11.5081C11.3181 11.2378 12.1027 10.9675 12.8819 10.6973C13.1682 11.0757 13.4492 11.4594 13.7301 11.8432C13.7407 11.8594 13.7566 11.8594 13.7672 11.854C14.7374 11.5135 15.7128 11.1784 16.6829 10.8432C16.6935 10.8108 16.6617 10.7892 16.6458 10.7621C15.0342 8.64863 13.4227 6.53511 11.8164 4.4216C11.8005 4.39998 11.7846 4.36214 11.7475 4.37295C11.3181 4.5189 10.8834 4.67025 10.454 4.8162ZM10.0034 4.98376C9.05448 5.30809 8.11086 5.63782 7.16195 5.96755C7.13544 5.97295 7.13544 5.99998 7.14074 6.0216C7.16725 6.98917 7.18315 7.95133 7.21496 8.9189C8.16387 10.1621 9.12339 11.4 10.0776 12.6432C10.0882 12.6648 10.1306 12.6648 10.1306 12.6324C10.1041 10.0919 10.0776 7.54593 10.0511 5.00539C10.0458 4.97836 10.0193 4.97295 10.0034 4.98376ZM4.69158 6.83782C3.69496 7.18376 2.69833 7.5243 1.6964 7.87025C1.6752 7.87566 1.6699 7.89187 1.6752 7.90809C1.6911 10.6054 1.71231 13.3027 1.73351 16C1.73351 16.027 1.76532 16.027 1.78122 16.0162C2.74604 15.6811 3.71616 15.3513 4.68098 15.0162C4.71809 15.0054 4.69689 14.9513 4.70749 14.9243C4.71809 12.2378 4.72869 9.54593 4.73929 6.85944C4.73399 6.83782 4.70749 6.82701 4.69158 6.83782ZM5.12628 6.88647C5.12098 6.89187 5.11568 6.90268 5.11568 6.91349C5.11038 8.47565 5.10508 10.0432 5.09978 11.6054C5.09978 11.627 5.12098 11.6432 5.13158 11.6648C5.75182 12.4865 6.36676 13.3081 6.98701 14.1297C7.00291 14.1513 7.01881 14.1892 7.05062 14.173C8.01544 13.8432 8.97496 13.5081 9.93978 13.173C9.96628 13.1675 9.97158 13.1351 9.95568 13.1189C8.36002 11.0432 6.76436 8.96755 5.17399 6.89728C5.15809 6.88106 5.14219 6.87565 5.12628 6.88647ZM19.5138 10.6702C19.4819 10.6757 19.4978 10.7081 19.5032 10.7243C19.6887 11.2757 19.8636 11.827 20.0492 12.3784C20.3301 12.2919 20.6058 12.1892 20.8815 12.0973C20.8815 12.027 20.8444 11.9513 20.8179 11.8865C20.6058 11.9513 20.3991 12.0324 20.187 12.0973C20.1287 11.9189 20.0704 11.7405 20.0121 11.5621C20.1817 11.5027 20.346 11.4486 20.5157 11.3892C20.5422 11.3297 20.4892 11.227 20.4574 11.173C20.2877 11.227 20.1128 11.2919 19.9432 11.3459C19.8848 11.1675 19.8265 10.9892 19.7682 10.8108C19.975 10.7405 20.187 10.6648 20.3938 10.5946C20.3832 10.5243 20.3566 10.4486 20.3248 10.3892C20.0545 10.4811 19.7894 10.5838 19.5138 10.6702ZM18.586 10.9838C18.4323 11.0378 18.2786 11.0919 18.1248 11.1405C18.093 11.1459 18.1142 11.1838 18.1195 11.2C18.3051 11.7513 18.48 12.3135 18.6762 12.8594C18.7451 12.8378 18.8087 12.8162 18.8776 12.7892C18.8034 12.5405 18.7133 12.2919 18.6338 12.0432C18.6709 12.0216 18.7186 12.0108 18.761 12C18.9306 12.2108 19.095 12.4324 19.2699 12.6432C19.3494 12.6432 19.4342 12.6 19.5085 12.5675C19.3388 12.3297 19.148 12.1081 18.973 11.8757C19.2222 11.6486 19.1586 11.1892 18.8564 11.0432C18.7716 11 18.6762 10.9567 18.586 10.9838ZM16.7518 11.6216C16.7253 11.627 16.7306 11.654 16.7359 11.6702C16.9268 12.2216 17.0964 12.7838 17.2925 13.3297C17.5682 13.2324 17.8492 13.1459 18.1248 13.0378C18.1089 12.9675 18.093 12.8865 18.0506 12.8324C17.8439 12.8973 17.6371 12.9784 17.4251 13.0432C17.3668 12.8648 17.3085 12.6865 17.2501 12.5081C17.4198 12.4486 17.5947 12.3946 17.7644 12.3297C17.7591 12.2594 17.7272 12.1838 17.7007 12.1243C17.5258 12.173 17.3562 12.2432 17.1812 12.2973C17.1229 12.1189 17.0646 11.9405 17.0063 11.7621C17.213 11.6919 17.4251 11.6216 17.6318 11.5459C17.6265 11.4757 17.5947 11.4054 17.5682 11.3405C17.2925 11.427 17.0275 11.5297 16.7518 11.6216ZM15.7764 11.9513C15.5538 12.0162 15.4212 12.2811 15.4901 12.5027C15.5909 12.8054 15.6863 13.1027 15.787 13.4C15.8612 13.6216 16.1263 13.7459 16.3436 13.6594C16.5663 13.5892 16.7094 13.3135 16.614 13.0973C16.5451 13.1135 16.4762 13.1351 16.4125 13.1621C16.4391 13.2811 16.3754 13.427 16.2482 13.454C16.1475 13.4757 16.0203 13.427 15.9938 13.3243C15.8983 13.0378 15.8029 12.7513 15.7075 12.4648C15.6757 12.373 15.7022 12.2486 15.787 12.1946C15.9036 12.1135 16.068 12.173 16.121 12.3027C16.1899 12.2973 16.2588 12.2594 16.3277 12.2378C16.2694 12.0054 15.9938 11.8757 15.7764 11.9513ZM14.5942 12.3567C14.7056 12.7297 14.8381 13.0919 14.9547 13.4648C14.6897 13.1459 14.4299 12.8216 14.1595 12.5081C14.0959 12.5351 14.0111 12.5405 13.9634 12.5892C14.1489 13.1567 14.3292 13.7243 14.5306 14.2865C14.5995 14.2648 14.6631 14.2432 14.7321 14.2162C14.6207 13.8486 14.4882 13.4811 14.3716 13.1135C14.6366 13.427 14.8911 13.7459 15.1562 14.0594C15.2198 14.0486 15.3099 14.027 15.3576 13.9838C15.1668 13.4162 14.9918 12.8432 14.7904 12.2865C14.7268 12.3081 14.6578 12.3297 14.5942 12.3567ZM12.5798 13.054C12.5957 13.1243 12.6169 13.2 12.6487 13.2594C12.7547 13.2378 12.8554 13.1892 12.9615 13.1621C13.1046 13.5892 13.2424 14.0162 13.3856 14.4432C13.2848 14.4811 13.1788 14.5135 13.0781 14.5513C13.094 14.6216 13.1152 14.6919 13.147 14.7567C13.4227 14.6703 13.7036 14.573 13.974 14.4703C13.9634 14.4 13.9369 14.3243 13.9051 14.2648C13.7991 14.2865 13.6983 14.3351 13.5923 14.3675C13.4492 13.9405 13.3113 13.5135 13.1682 13.0865C13.2689 13.0486 13.3803 13.0216 13.4757 12.973C13.4651 12.9027 13.4386 12.8324 13.4068 12.7675C13.1311 12.8594 12.8554 12.9567 12.5798 13.054ZM11.8588 13.3027C11.9012 13.6594 11.9542 14.0162 11.9966 14.3784C11.9807 14.3892 11.9595 14.3946 11.9542 14.373C11.7899 14.0811 11.6309 13.7946 11.4718 13.5027C11.4347 13.3838 11.3075 13.4973 11.228 13.5081C11.228 13.5297 11.2386 13.5459 11.2492 13.5621C11.5354 14.0757 11.8164 14.5892 12.108 15.1027C12.1716 15.0973 12.2564 15.0703 12.3041 15.0324C12.2246 14.4324 12.1504 13.827 12.0656 13.227C11.9966 13.2486 11.9171 13.2648 11.8588 13.3027ZM7.36869 14.8378C7.14604 14.9027 7.00821 15.173 7.08243 15.4C7.13014 15.5135 7.19905 15.627 7.31038 15.6757C7.51182 15.7675 7.71857 15.854 7.92002 15.9459C8.04194 16.027 8.03664 16.2324 7.91472 16.3081C7.80869 16.4054 7.62845 16.3351 7.58074 16.2054C7.51183 16.2216 7.44291 16.2486 7.37929 16.2757C7.43231 16.4811 7.66026 16.6108 7.8617 16.5784C8.06315 16.5513 8.22749 16.3675 8.23809 16.1675C8.24869 15.9946 8.16387 15.8054 7.99954 15.7351C7.79809 15.6432 7.59664 15.5567 7.3952 15.4703C7.28387 15.4108 7.25207 15.254 7.32628 15.1513C7.4005 15.027 7.59134 15.0162 7.67616 15.1297C7.70267 15.1513 7.70797 15.2216 7.75568 15.1946C7.80869 15.1675 7.88291 15.1675 7.92532 15.1243C7.8564 14.8865 7.58604 14.7567 7.36869 14.8378ZM6.39327 15.173C6.33496 15.2 6.26074 15.2054 6.20773 15.2432C6.34556 15.6757 6.49399 16.1081 6.63182 16.5405C6.65833 16.6432 6.60002 16.7675 6.4993 16.8C6.39857 16.8432 6.26604 16.8 6.21833 16.7027C6.0699 16.2648 5.93207 15.827 5.77833 15.3946C5.72002 15.3838 5.6564 15.4324 5.59809 15.4432C5.56628 15.4486 5.57689 15.4811 5.58219 15.5027C5.72532 15.9243 5.86315 16.3513 6.00098 16.773C6.0752 16.9892 6.33496 17.0973 6.5364 17.027C6.76436 16.9621 6.90219 16.6973 6.83327 16.4703C6.69544 16.0432 6.55231 15.6162 6.40917 15.1892C6.41447 15.1784 6.40387 15.1675 6.39327 15.173ZM4.23038 15.9189C4.22508 15.9838 4.26749 16.0594 4.28869 16.1297C4.39472 16.1135 4.49544 16.0594 4.60146 16.027C4.7711 16.5243 4.92484 17.0324 5.10508 17.5243C5.16869 17.5027 5.23761 17.4811 5.30652 17.454C5.15279 16.9513 4.97785 16.454 4.81881 15.9513C4.91954 15.9135 5.02556 15.8811 5.12628 15.8432C5.11038 15.773 5.09448 15.6919 5.05207 15.6324C4.7764 15.7243 4.50604 15.8216 4.23038 15.9189ZM3.40339 16.2162C3.48291 16.8162 3.55182 17.427 3.64195 18.0216C3.70556 18 3.77447 17.9784 3.83809 17.9513C3.85399 17.8757 3.81158 17.7946 3.82219 17.7243C3.92821 17.6811 4.03954 17.6432 4.15086 17.6108C4.19857 17.6648 4.21978 17.7405 4.26749 17.8C4.3311 17.7892 4.39472 17.7567 4.45303 17.7405C4.47423 17.7351 4.46893 17.7135 4.45833 17.6973C4.16676 17.1838 3.8858 16.6648 3.59423 16.1513C3.53592 16.1567 3.4617 16.1892 3.40339 16.2162ZM2.34315 16.5675C2.45448 16.9405 2.58701 17.3027 2.70363 17.6757C2.43857 17.3621 2.17881 17.0378 1.91375 16.7243C1.85014 16.7405 1.76002 16.7567 1.71231 16.8C1.89785 17.3675 2.07809 17.9405 2.27954 18.4973C2.34845 18.4757 2.41207 18.454 2.48098 18.427C2.36966 18.0594 2.23713 17.6919 2.1205 17.3243C2.38556 17.6378 2.64002 17.9621 2.91038 18.2757C2.97929 18.2648 3.04821 18.2378 3.11713 18.2054C2.92628 17.6378 2.74604 17.0648 2.5499 16.4973C2.47568 16.5189 2.41207 16.5405 2.34315 16.5675Z" fill="black"/>
<path d="M18.5595 11.2325C18.6921 11.1946 18.8405 11.2865 18.8829 11.4162C18.9306 11.546 18.867 11.7027 18.7451 11.7568C18.6815 11.7838 18.6178 11.8 18.5595 11.8217C18.5012 11.6433 18.4429 11.4649 18.3846 11.2865C18.4376 11.2703 18.4959 11.2487 18.5595 11.2325Z" fill="#161511"/>
<path d="M3.71619 16.8702C3.75329 16.8486 3.7639 16.9027 3.7798 16.9243C3.86462 17.0865 3.96534 17.2378 4.03956 17.4054C3.96004 17.4432 3.87522 17.4702 3.7957 17.4919C3.7639 17.2865 3.73209 17.0756 3.71619 16.8702Z" fill="#161511"/>
<path d="M17.1388 2.51341C18.1407 2.16206 19.148 1.81611 20.1499 1.47017C20.1817 1.45395 20.1976 1.48638 20.1923 1.51341C20.1817 4.21611 20.1711 6.92422 20.1605 9.62693C20.1605 9.64314 20.1446 9.65395 20.134 9.65936C19.1745 9.98909 18.2149 10.3242 17.2554 10.654C17.2342 10.6648 17.2077 10.6485 17.213 10.6269C17.1918 7.91882 17.1547 5.21611 17.1388 2.51341Z" fill="#FFED00"/>
<path d="M16.6988 2.64304C16.7253 2.62682 16.7518 2.64844 16.7465 2.67547C16.7677 5.19979 16.7836 7.71871 16.8048 10.243C16.8101 10.2701 16.7677 10.2863 16.7571 10.2593C15.7817 8.98358 14.8116 7.7025 13.8362 6.42682C13.8202 6.4052 13.7937 6.38358 13.7937 6.35115C13.7937 5.45385 13.7831 4.55655 13.7884 3.65925C13.7884 3.64844 13.8043 3.64304 13.8096 3.63763C14.7692 3.3079 15.734 2.97277 16.6988 2.64304Z" fill="#FFED00"/>
<path d="M10.454 4.81615C10.8834 4.67021 11.3181 4.52426 11.7475 4.37831C11.7793 4.3621 11.7952 4.40534 11.8164 4.42696C13.4279 6.54048 15.0342 8.65399 16.6458 10.7675C16.6617 10.7945 16.6935 10.8162 16.6829 10.8486C15.7128 11.1891 14.7373 11.5243 13.7672 11.8594C13.7513 11.8648 13.7354 11.8648 13.7301 11.8486C13.4491 11.4702 13.1682 11.0864 12.8819 10.7026C12.1026 10.9729 11.3181 11.2432 10.5388 11.5134C10.5176 11.5243 10.4964 11.5026 10.5017 11.481C10.4964 10.9675 10.4911 10.4594 10.4858 9.94588C10.4858 9.92967 10.4858 9.91345 10.5017 9.90804C10.9735 9.74048 11.4506 9.57291 11.9224 9.40534C11.44 8.74588 10.9523 8.09183 10.4646 7.43777C10.4593 7.42696 10.454 7.41075 10.454 7.39994C10.4434 6.55129 10.4381 5.70264 10.4275 4.85939C10.4275 4.83777 10.4381 4.81615 10.454 4.81615Z" fill="#FFED00"/>
<path d="M10.0034 4.98373C10.0193 4.97292 10.0458 4.98373 10.0458 5.00535C10.0723 7.5459 10.0988 10.0918 10.1253 12.6324C10.1253 12.6594 10.0829 12.6648 10.0723 12.6432C9.11809 11.3999 8.16388 10.1621 7.20966 8.91887C7.17785 7.95671 7.16195 6.98914 7.13544 6.02157C7.13544 5.99995 7.13014 5.97292 7.15665 5.96752C8.11086 5.63779 9.05448 5.30806 10.0034 4.98373Z" fill="#FFED00"/>
<path d="M4.69158 6.83764C4.71278 6.82683 4.73929 6.83764 4.73399 6.86467C4.72339 9.55115 4.71278 12.243 4.70218 14.9295C4.69688 14.962 4.71808 15.0106 4.67567 15.0214C3.71086 15.3566 2.74073 15.6863 1.77592 16.0214C1.76001 16.0322 1.7282 16.0268 1.7282 16.0052C1.707 13.3079 1.6911 10.6106 1.66989 7.91331C1.66989 7.8971 1.67519 7.87548 1.6911 7.87548C2.69302 7.52413 3.69495 7.17818 4.69158 6.83764Z" fill="#FFED00"/>
<path d="M5.12629 6.88648C5.14219 6.87567 5.1581 6.88108 5.1687 6.8973C6.76436 8.97297 8.36002 11.0486 9.95039 13.1189C9.97159 13.1351 9.96099 13.1676 9.93448 13.173C8.96966 13.5081 8.01014 13.8378 7.04532 14.173C7.01352 14.1892 6.99761 14.1513 6.98171 14.1297C6.36147 13.3081 5.74653 12.4865 5.12629 11.6649C5.11569 11.6486 5.09448 11.6324 5.09448 11.6054C5.09978 10.0432 5.11039 8.47567 5.11039 6.91351C5.11569 6.9027 5.12099 6.89729 5.12629 6.88648Z" fill="#FFED00"/>
<path d="M9.74894 13.6648C10.0511 13.6486 10.3586 13.735 10.6024 13.9134C10.8304 14.0756 11.0053 14.308 11.1007 14.5729C11.2174 14.8918 11.2068 15.2594 11.0742 15.5729C10.8781 16.0594 10.3851 16.4053 9.86557 16.4107C9.5634 16.4215 9.25593 16.3188 9.01737 16.1296C8.79472 15.9567 8.62509 15.7134 8.54557 15.4377C8.45545 15.1404 8.47135 14.8107 8.58267 14.5242C8.76292 14.0431 9.24002 13.6918 9.74894 13.6648ZM9.72243 13.7404C9.39906 13.7675 9.08629 13.9296 8.87424 14.1783C8.6728 14.4107 8.55617 14.7242 8.55617 15.0377C8.55617 15.335 8.65689 15.6269 8.83713 15.8539C9.01207 16.0756 9.26123 16.2377 9.53689 16.308C9.84966 16.3837 10.1942 16.335 10.4699 16.1675C10.6979 16.0323 10.8834 15.8269 10.9894 15.5837C11.1273 15.281 11.1432 14.9188 11.0371 14.6053C10.947 14.3458 10.7721 14.1134 10.5441 13.9567C10.3056 13.7945 10.0087 13.7134 9.72243 13.7404Z" fill="white"/>
<path d="M9.73305 13.935C9.73305 13.8755 9.79667 13.8269 9.85498 13.8377C9.90269 13.8431 9.94511 13.8917 9.9398 13.9458C9.9239 13.9458 9.908 13.9458 9.88679 13.9458C9.88679 13.8863 9.79667 13.8701 9.78077 13.9296C9.77546 14.0107 9.77546 14.0917 9.78077 14.1728C9.79137 14.2323 9.88679 14.2161 9.88149 14.1566C9.86559 14.1566 9.84968 14.1566 9.82848 14.1566C9.82848 14.1404 9.82848 14.1188 9.82848 14.1026C9.86028 14.1026 9.89739 14.1026 9.9345 14.1026C9.9398 14.1566 9.9345 14.2215 9.88149 14.2539C9.81787 14.2917 9.73305 14.2431 9.72775 14.1728C9.73305 14.0917 9.73305 14.0161 9.73305 13.935Z" fill="white"/>
<path d="M9.34073 13.9458C9.40434 13.9188 9.47326 13.8971 9.53687 13.8701C9.54748 13.8863 9.54747 13.9025 9.55808 13.9188C9.53157 13.9296 9.51037 13.935 9.48386 13.9458C9.52097 14.0485 9.55278 14.1458 9.58988 14.2485C9.61639 14.2377 9.6376 14.2269 9.6641 14.2215C9.6694 14.2377 9.6747 14.2539 9.68001 14.2701C9.61639 14.2971 9.54748 14.3188 9.48386 14.3404C9.47326 14.3242 9.47326 14.308 9.46266 14.2917C9.48916 14.2809 9.51037 14.2755 9.53687 14.2647C9.49976 14.162 9.46796 14.0647 9.43085 13.962C9.40434 13.9728 9.38314 13.9836 9.35663 13.989C9.35133 13.9782 9.34603 13.962 9.34073 13.9458Z" fill="white"/>
<path d="M9.98749 14.2756C10.0564 14.1513 10.1306 14.0215 10.1995 13.8972C10.2154 13.9026 10.2313 13.908 10.2472 13.9134C10.226 14.0594 10.2101 14.1999 10.1836 14.3459C10.1677 14.3405 10.1518 14.3351 10.1359 14.3296C10.1359 14.3134 10.1412 14.2918 10.1412 14.2756C10.1147 14.2648 10.0882 14.254 10.0617 14.2486C10.0511 14.2864 10.0246 14.2972 9.98749 14.2756ZM10.1041 14.1783C10.0829 14.2053 10.1359 14.2053 10.1518 14.2161C10.1571 14.1675 10.1783 14.1134 10.1677 14.0648C10.1465 14.1026 10.1253 14.1405 10.1041 14.1783Z" fill="white"/>
<path d="M10.2419 14.3566C10.3268 14.2484 10.4116 14.1403 10.4964 14.0322C10.5123 14.043 10.5282 14.0593 10.5441 14.0701C10.5388 14.1025 10.5335 14.1349 10.5335 14.162C10.56 14.1511 10.5918 14.1403 10.6183 14.1295C10.6342 14.1403 10.6501 14.1566 10.666 14.1674C10.5812 14.2809 10.4911 14.3944 10.401 14.5025C10.3851 14.4917 10.3745 14.4809 10.3586 14.4701C10.4275 14.3836 10.4964 14.2971 10.56 14.2106C10.5282 14.2214 10.4964 14.2376 10.4646 14.2484C10.4699 14.216 10.4752 14.1782 10.4805 14.1457C10.4116 14.2322 10.348 14.3187 10.2738 14.4052C10.2578 14.389 10.2207 14.3728 10.2419 14.3566Z" fill="white"/>
<path d="M9.01208 14.173C9.0651 14.1243 9.12341 14.0811 9.17642 14.0378C9.18702 14.0487 9.19763 14.0649 9.20823 14.0811C9.18702 14.0973 9.16582 14.1135 9.14461 14.1297C9.22413 14.227 9.29835 14.3243 9.37787 14.4216C9.36726 14.4378 9.35136 14.4432 9.34076 14.4541C9.26124 14.3568 9.18702 14.2595 9.10751 14.1622C9.0863 14.1784 9.0651 14.1946 9.04389 14.2108C9.03329 14.2 9.02799 14.1838 9.01208 14.173Z" fill="white"/>
<path d="M10.7509 14.3459C10.7668 14.3351 10.7827 14.3297 10.7933 14.3188C10.8304 14.3783 10.8675 14.4378 10.9046 14.5026C10.8887 14.5134 10.8781 14.5188 10.8622 14.5297C10.8463 14.508 10.8357 14.4864 10.8198 14.4594C10.7297 14.5134 10.6396 14.5729 10.5494 14.627C10.56 14.6486 10.5759 14.6702 10.5918 14.6972C10.5759 14.708 10.56 14.7188 10.5494 14.7243C10.5123 14.6648 10.4752 14.6053 10.4381 14.5405C10.454 14.5297 10.4646 14.5188 10.4805 14.5134C10.4964 14.5351 10.507 14.5567 10.5229 14.5783C10.6131 14.5243 10.7032 14.4648 10.7933 14.4107C10.7774 14.3945 10.7615 14.3729 10.7509 14.3459Z" fill="white"/>
<path d="M8.81592 14.4324C8.82122 14.4162 8.83712 14.4 8.84773 14.3892C8.94845 14.4594 9.04917 14.5351 9.14989 14.6054C9.1817 14.5621 9.20821 14.5189 9.24001 14.4756C9.25592 14.4865 9.27182 14.4973 9.28242 14.5081C9.24002 14.5675 9.20291 14.627 9.1605 14.6811C9.04387 14.5946 8.93254 14.5135 8.81592 14.4324Z" fill="white"/>
<path d="M8.72583 14.6162C8.82656 14.6432 8.93258 14.6757 9.0333 14.7027C9.08631 14.7189 9.12342 14.7784 9.10752 14.8324C9.09692 14.8865 9.0386 14.9243 8.99089 14.9135C8.88487 14.8865 8.77885 14.854 8.67282 14.8216C8.67282 14.8054 8.68342 14.7892 8.68342 14.773C8.78945 14.8 8.89547 14.8324 9.00149 14.8595C9.05451 14.8649 9.07571 14.7838 9.028 14.7568C8.92198 14.7243 8.81595 14.6973 8.70993 14.6649C8.71523 14.6486 8.72053 14.6324 8.72583 14.6162Z" fill="white"/>
<path d="M10.5653 14.7838C10.7031 14.7567 10.841 14.7243 10.9788 14.6973C10.9841 14.7135 10.9841 14.7297 10.9894 14.7459C10.9099 14.8 10.8251 14.854 10.7455 14.9081C10.8357 14.8919 10.9205 14.8702 11.0106 14.854C11.0159 14.8702 11.0159 14.8865 11.0212 14.9081C10.8834 14.9351 10.7455 14.9675 10.6077 14.9946C10.6077 14.9783 10.6024 14.9621 10.5971 14.9459C10.6766 14.8919 10.7614 14.8378 10.841 14.7838C10.7508 14.8 10.666 14.8216 10.5759 14.8378C10.5706 14.8162 10.5706 14.8 10.5653 14.7838Z" fill="white"/>
<path d="M9.41498 14.7891C9.4839 14.7891 9.55281 14.7891 9.62173 14.7891C9.63233 14.8053 9.62173 14.8269 9.62703 14.8431C9.60053 14.8431 9.57402 14.8431 9.54751 14.8431C9.54751 14.9674 9.54751 15.0918 9.54751 15.2161C9.53161 15.2215 9.51041 15.2161 9.4945 15.2161C9.4945 15.0918 9.4945 14.9674 9.4945 14.8377C9.468 14.8377 9.44149 14.8377 9.41498 14.8377C9.41498 14.8269 9.40968 14.8053 9.41498 14.7891Z" fill="white"/>
<path d="M9.70123 14.7891C9.71714 14.7891 9.73834 14.7891 9.75424 14.7891C9.75424 14.8539 9.75424 14.9134 9.75424 14.9783C9.79135 14.9783 9.82316 14.9783 9.86027 14.9783C9.86027 14.9134 9.86027 14.8539 9.86027 14.7891C9.87617 14.7891 9.89738 14.7891 9.91328 14.7891C9.91328 14.9296 9.91328 15.0755 9.91328 15.2161C9.89738 15.2161 9.87617 15.2161 9.86027 15.2161C9.86027 15.1512 9.86027 15.0918 9.86027 15.0269C9.82316 15.0269 9.79135 15.0269 9.75424 15.0269C9.75424 15.0918 9.75424 15.1512 9.75424 15.2161C9.73834 15.2161 9.71714 15.2161 9.70123 15.2161C9.70123 15.0755 9.70123 14.935 9.70123 14.7891Z" fill="white"/>
<path d="M9.99811 14.8053C9.99811 14.7999 9.99811 14.7891 10.0087 14.7891C10.0776 14.7891 10.1465 14.7891 10.2155 14.7891C10.2155 14.8053 10.2208 14.8269 10.2155 14.8431C10.1624 14.8431 10.1094 14.8431 10.0564 14.8431C10.0564 14.8864 10.0564 14.935 10.0564 14.9783C10.0988 14.9783 10.1465 14.9783 10.189 14.9783C10.189 14.9945 10.189 15.0107 10.189 15.0323C10.1465 15.0323 10.0988 15.0323 10.0564 15.0323C10.0564 15.0755 10.0564 15.1188 10.0564 15.1674C10.1094 15.1674 10.1624 15.1674 10.2155 15.1674C10.2155 15.1837 10.2155 15.1999 10.2155 15.2215C10.1465 15.2215 10.0723 15.2215 10.0034 15.2215C9.99811 15.081 9.99811 14.9404 9.99811 14.8053Z" fill="white"/>
<path d="M8.65161 15.0268C8.78944 15.016 8.93257 15.0052 9.07041 14.9944C9.07571 15.0106 9.07571 15.0322 9.07571 15.0484C8.96968 15.0538 8.85836 15.0647 8.75233 15.0755C8.78414 15.0917 8.81595 15.1079 8.84245 15.1241C8.81595 15.1457 8.78414 15.162 8.75764 15.1836C8.86366 15.1728 8.97498 15.1674 9.08101 15.1565C9.08101 15.1728 9.08631 15.1944 9.08631 15.2106C8.94848 15.2214 8.80535 15.2322 8.66751 15.243C8.66751 15.2214 8.66221 15.1998 8.66221 15.1836C8.68872 15.1674 8.70992 15.1511 8.73643 15.1295C8.70992 15.1187 8.68342 15.1025 8.65161 15.0917C8.65691 15.0701 8.65161 15.0484 8.65161 15.0268Z" fill="white"/>
<path d="M10.6077 15.2268C10.56 15.162 10.6183 15.0593 10.6979 15.0647C10.7774 15.0755 10.8516 15.0863 10.9311 15.0971C10.9947 15.1079 11.0318 15.1836 11.0053 15.243C10.9894 15.2863 10.9364 15.3187 10.894 15.3079C10.8993 15.2917 10.8993 15.2755 10.8993 15.2593C10.9576 15.2701 10.9841 15.1728 10.9258 15.1566C10.8463 15.1457 10.7668 15.1295 10.6926 15.1241C10.6343 15.1295 10.6343 15.2214 10.6926 15.2268C10.6979 15.2106 10.6979 15.189 10.7032 15.1728C10.7191 15.1728 10.7403 15.1782 10.7562 15.1782C10.7509 15.216 10.7456 15.2484 10.7403 15.2863C10.6873 15.2809 10.6342 15.2755 10.6077 15.2268Z" fill="white"/>
<path d="M9.26653 15.4214C9.28243 15.4052 9.29834 15.389 9.31424 15.3782C9.37255 15.443 9.43617 15.5133 9.49448 15.5782C9.47858 15.5944 9.46267 15.6106 9.44677 15.6214C9.42557 15.5944 9.40436 15.5728 9.37785 15.5457C9.26123 15.6539 9.1446 15.762 9.02797 15.8701C9.01207 15.8539 8.99087 15.8376 8.98557 15.816C9.10219 15.7079 9.21882 15.5998 9.33014 15.4917C9.31424 15.4701 9.28773 15.4484 9.26653 15.4214Z" fill="white"/>
<path d="M8.95378 15.4107C9.028 15.3728 9.07571 15.4972 9.00149 15.5242C8.92727 15.5566 8.87956 15.4377 8.95378 15.4107Z" fill="white"/>
<path d="M10.666 15.4107C10.7403 15.3728 10.788 15.4972 10.7138 15.5242C10.6448 15.5566 10.5971 15.4377 10.666 15.4107Z" fill="white"/>
<path d="M10.2897 15.4647C10.3056 15.4431 10.3268 15.4269 10.3427 15.4106C10.4646 15.5404 10.5919 15.6701 10.7138 15.8052C10.7085 15.8269 10.682 15.8377 10.6714 15.8539C10.5706 15.7566 10.4805 15.6485 10.3798 15.5512C10.3904 15.5944 10.401 15.6377 10.4116 15.6809C10.3692 15.6701 10.3268 15.6539 10.2844 15.6431C10.3798 15.7458 10.4752 15.8485 10.5707 15.9512C10.56 15.9674 10.5388 15.989 10.5229 15.9998C10.401 15.8701 10.2738 15.735 10.1519 15.6052C10.1678 15.589 10.1837 15.5674 10.2049 15.5566C10.242 15.562 10.2791 15.5782 10.3215 15.589C10.3109 15.5404 10.3003 15.5025 10.2897 15.4647Z" fill="white"/>
<path d="M9.53691 15.6106C9.62173 15.6322 9.71185 15.6646 9.79667 15.6917C9.79137 15.7133 9.78607 15.7349 9.78077 15.7565C9.71716 15.7349 9.65354 15.7133 9.58462 15.6971C9.56872 15.7511 9.55282 15.8052 9.53691 15.8592C9.58993 15.8755 9.64294 15.8917 9.69595 15.9079C9.69595 15.9295 9.68535 15.9511 9.68005 15.9728C9.62703 15.9619 9.57402 15.9403 9.52101 15.9241C9.50511 15.9782 9.4892 16.0322 9.4733 16.0863C9.53691 16.1079 9.60053 16.1241 9.66414 16.1457C9.65884 16.1674 9.65354 16.189 9.64294 16.2106C9.55812 16.189 9.468 16.1565 9.38318 16.1295C9.43089 15.9565 9.4839 15.7836 9.53691 15.6106Z" fill="white"/>
<path d="M9.9451 15.6649C9.9663 15.6595 9.98751 15.6487 10.0087 15.6541C10.0829 15.8216 10.1571 15.9892 10.2261 16.1622C10.2049 16.1676 10.1837 16.173 10.1624 16.173C10.1518 16.1568 10.1465 16.1351 10.1359 16.1135C10.0988 16.1189 10.067 16.1297 10.0299 16.1351C10.0299 16.1568 10.0352 16.1784 10.0299 16.2C10.0087 16.2108 9.98751 16.2108 9.9663 16.2162C9.9557 16.0378 9.9504 15.8487 9.9451 15.6649ZM10.0193 15.8865C10.0246 15.946 10.0193 16.0054 10.0246 16.0649C10.0511 16.0595 10.0776 16.0541 10.1041 16.0433C10.0776 15.9892 10.0564 15.9297 10.0299 15.8757C10.0246 15.8703 10.014 15.8811 10.0193 15.8865Z" fill="white"/>
</svg>
