<svg width="20" height="20" viewBox="0 0 20 20" fill="none" xmlns="http://www.w3.org/2000/svg">
<g clip-path="url(#clip0)">
<path d="M19.955 4.74054C19.9513 4.78554 19.9475 4.83053 19.94 4.87177C19.8388 7.0315 19.0589 9.01501 17.8065 10.6123C17.8215 10.4098 17.829 10.2036 17.829 9.99738C17.829 9.32622 17.7465 8.67755 17.5853 8.05513C18.1402 7.87515 18.6727 7.65393 19.1826 7.38396C18.6427 7.55644 18.0802 7.68392 17.5066 7.76641C16.7679 5.27672 14.8256 3.30072 12.351 2.52457C10.5737 0.957264 8.23772 0.00488281 5.67679 0.00488281C5.36183 0.00488281 5.04687 0.0198809 4.73941 0.0498772C4.7844 0.0536267 4.8294 0.0573763 4.87064 0.0648753C7.03037 0.162363 9.00637 0.942266 10.6037 2.18711C10.4049 2.17211 10.2025 2.16461 10 2.16461C9.32508 2.16461 8.67267 2.25085 8.04649 2.40833C7.87027 1.8609 7.64529 1.33222 7.38283 0.82603C7.55531 1.36221 7.68279 1.91714 7.76153 2.48707C5.26809 3.22948 3.29584 5.17924 2.51968 7.65768C0.952381 9.4387 0 11.7747 0 14.3356C0 14.6506 0.0149981 14.9655 0.0449944 15.273C0.0487439 15.228 0.0524934 15.183 0.0599925 15.1417C0.16123 12.982 0.941132 10.9985 2.18973 9.40496C2.17473 9.59993 2.16723 9.79866 2.16723 9.99738C2.16723 10.6723 2.25347 11.3247 2.41095 11.9471C1.85602 12.1271 1.31983 12.3521 0.809899 12.6183C1.35358 12.4458 1.91601 12.3146 2.49344 12.2359C3.2321 14.7143 5.1631 16.6791 7.62655 17.4627C9.40757 19.0413 11.7548 19.9974 14.3232 19.9974C14.6382 19.9974 14.9531 19.9824 15.2606 19.9524C15.2156 19.9486 15.1706 19.9449 15.1294 19.9374C12.9659 19.8362 10.9824 19.0525 9.38508 17.8039C9.5913 17.8189 9.79752 17.8302 10.0075 17.8302C10.6787 17.8302 11.3311 17.7439 11.9573 17.5864C12.1372 18.1414 12.3585 18.6775 12.6284 19.1875C12.4559 18.6476 12.3285 18.0851 12.246 17.5077C14.7169 16.7653 16.6854 14.8305 17.4691 12.3633C19.0439 10.5823 20 8.23885 20 5.67417C19.9963 5.35921 19.9813 5.048 19.955 4.74054ZM17.3303 7.78891C16.9291 7.83765 16.5204 7.8639 16.108 7.8639C15.913 7.8639 15.7218 7.8564 15.5306 7.8489C15.5156 7.78141 15.4968 7.71392 15.4818 7.64268C15.4818 7.63893 15.4781 7.63518 15.4781 7.62768C15.4593 7.55269 15.4368 7.47395 15.4181 7.39896C15.4181 7.39521 15.4181 7.39521 15.4181 7.39146C15.3956 7.31272 15.3731 7.23773 15.3506 7.15899C14.8406 5.49045 13.9108 4.00563 12.6847 2.82453C14.9081 3.65693 16.6404 5.49795 17.3303 7.78891ZM8.24897 5.72292C8.26397 5.71167 8.27896 5.70042 8.29021 5.68542C8.33146 5.65168 8.37645 5.61418 8.4177 5.58044C8.42145 5.57669 8.4252 5.57669 8.4252 5.57294C8.54893 5.4717 8.67642 5.37421 8.8039 5.28047C8.81515 5.27297 8.8264 5.26173 8.83764 5.25423C8.95388 5.16799 9.07386 5.0855 9.19385 5.00676C9.21635 4.99176 9.23884 4.97676 9.26134 4.96176C9.29509 4.93927 9.32883 4.92052 9.35883 4.89802C9.38883 4.87927 9.41882 4.86053 9.44882 4.84178C9.49006 4.81553 9.52756 4.79303 9.5688 4.77054C9.61005 4.74429 9.65129 4.72179 9.69629 4.69555C9.72253 4.68055 9.74878 4.66555 9.77128 4.65055C9.81252 4.62806 9.85002 4.60556 9.89126 4.58306C9.91376 4.57181 9.93251 4.56056 9.955 4.54931C10.015 4.51557 10.075 4.48557 10.135 4.45183C10.15 4.44433 10.1687 4.43683 10.1837 4.42558C10.2325 4.39933 10.285 4.37684 10.3337 4.35059C10.3525 4.34309 10.3712 4.33184 10.39 4.32434C10.4537 4.29435 10.5174 4.26435 10.5849 4.23435C10.4237 4.22686 10.2662 4.22311 10.105 4.22311C10.0187 4.22311 9.93251 4.22311 9.84627 4.22686C9.81252 4.22686 9.77503 4.23061 9.74128 4.23061C9.68879 4.23061 9.64004 4.23435 9.5913 4.2381C9.54631 4.24185 9.50131 4.2456 9.45257 4.2456C9.41507 4.24935 9.37383 4.24935 9.33633 4.2531C9.28384 4.25685 9.23135 4.2606 9.17885 4.2681C9.14886 4.27185 9.11886 4.27185 9.08511 4.2756C9.02512 4.2831 8.96888 4.28685 8.90889 4.29435C8.88264 4.2981 8.86014 4.2981 8.8339 4.30185C8.77015 4.30934 8.70641 4.32059 8.64642 4.32809C8.62767 4.33184 8.60892 4.33184 8.58643 4.33559C8.54518 4.34309 8.50394 4.34684 8.46269 4.35434C8.39895 3.74692 8.27147 3.15449 8.09899 2.58081C8.70641 2.42708 9.34383 2.34459 10 2.34459C10.2887 2.34459 10.5737 2.35959 10.8549 2.39333C12.1035 3.4357 13.0971 4.77054 13.7308 6.29285C13.6633 6.29285 13.5995 6.2891 13.5321 6.2891C12.6472 6.2891 11.7923 6.40158 10.9749 6.61531C10.7199 6.34534 10.4499 6.08662 10.1687 5.84665C10.3937 6.10912 10.6037 6.38284 10.7986 6.66405C9.56505 7.00901 8.42895 7.58269 7.43157 8.33634C7.41282 8.09637 7.40532 7.85265 7.40532 7.60518C7.40532 7.21523 7.42782 6.82903 7.47282 6.45033C7.79153 6.77279 8.08399 7.11774 8.35771 7.48145C8.66142 7.30522 8.97638 7.14399 9.30259 7.00151C8.98763 6.54781 8.63142 6.12037 8.24897 5.72292ZM11.3048 7.4702C11.9535 8.62506 12.381 9.92239 12.5309 11.2985C11.3723 11.9509 10.0712 12.3783 8.68766 12.5283C8.04274 11.3735 7.6153 10.0761 7.46532 8.70005C8.62392 8.05138 9.92126 7.62018 11.3048 7.4702ZM7.78403 2.66705C7.83277 3.072 7.85902 3.4882 7.85902 3.9044C7.85902 4.09937 7.85152 4.2906 7.84402 4.48182C7.77653 4.49682 7.70904 4.51557 7.63779 4.53057C7.63405 4.53057 7.6303 4.53432 7.6228 4.53432C7.54781 4.55306 7.46907 4.57556 7.39408 4.59431C7.39033 4.59431 7.39033 4.59431 7.38658 4.59431C7.30784 4.61681 7.23285 4.6393 7.15411 4.6618C5.48556 5.17174 4.00075 6.10162 2.81965 7.32772C3.64829 5.1005 5.48931 3.36071 7.78403 2.66705ZM2.34346 9.99738C2.34346 9.71242 2.35846 9.4312 2.38845 9.15374C3.42707 7.9089 4.7619 6.91527 6.28421 6.28535C6.28421 6.35284 6.28046 6.41658 6.28046 6.48407C6.28046 7.36521 6.39295 8.22011 6.60667 9.0375C6.33671 9.28872 6.08549 9.55494 5.84552 9.83615C6.10424 9.61493 6.3742 9.40871 6.65542 9.21373C7.00037 10.4436 7.5703 11.5759 8.32021 12.5696C8.08024 12.5883 7.83277 12.5958 7.58905 12.5958C7.1991 12.5958 6.8129 12.5733 6.4342 12.5283C6.75666 12.2096 7.10161 11.9171 7.46532 11.6434C7.28909 11.3397 7.12786 11.0248 6.98538 10.6985C6.53168 11.0135 6.10424 11.366 5.70679 11.7522C5.69554 11.7372 5.68054 11.7259 5.66929 11.7109C5.63555 11.6697 5.59805 11.6247 5.5643 11.5834C5.56055 11.5797 5.56055 11.5759 5.55681 11.5759C5.45557 11.4522 5.35808 11.3247 5.26434 11.1972C5.25684 11.186 5.24559 11.1747 5.23809 11.1635C5.15186 11.0473 5.06937 10.9273 4.99063 10.8073C4.97563 10.7848 4.96063 10.7623 4.94563 10.7398C4.92313 10.706 4.90439 10.6723 4.88189 10.6423C4.86314 10.6123 4.84439 10.5823 4.82565 10.5523C4.7994 10.5111 4.7769 10.4736 4.75441 10.4323C4.72816 10.3911 4.70566 10.3498 4.67941 10.3048C4.66442 10.2786 4.64942 10.2524 4.63442 10.2299C4.61192 10.1886 4.58943 10.1511 4.56693 10.1099C4.55568 10.0874 4.54443 10.0686 4.53318 10.0461C4.49944 9.98614 4.46944 9.92614 4.4357 9.86615C4.4282 9.85115 4.4207 9.8324 4.40945 9.81741C4.3832 9.76866 4.3607 9.71617 4.33446 9.66743C4.32696 9.64868 4.31571 9.62993 4.30821 9.61118C4.27821 9.54744 4.24822 9.4837 4.21822 9.41621C4.21072 9.57744 4.20697 9.73492 4.20697 9.89615C4.20697 9.98239 4.20697 10.0686 4.21072 10.1549C4.21072 10.1886 4.21447 10.2261 4.21447 10.2599C4.21447 10.3123 4.21822 10.3611 4.22197 10.4098C4.22572 10.4548 4.22947 10.4998 4.22947 10.5486C4.23322 10.5861 4.23322 10.6273 4.23697 10.6648C4.24072 10.7173 4.24447 10.7698 4.25197 10.8223C4.25572 10.8523 4.25572 10.8823 4.25947 10.916C4.26697 10.976 4.27072 11.0323 4.27821 11.0922C4.28196 11.1185 4.28196 11.141 4.28571 11.1672C4.29321 11.231 4.30446 11.2947 4.31196 11.3547C4.31571 11.3735 4.31571 11.3922 4.31946 11.4147C4.32696 11.456 4.33071 11.4972 4.33821 11.5384C3.73453 11.6059 3.14586 11.7297 2.57593 11.9021C2.42595 11.2872 2.34346 10.6498 2.34346 9.99738ZM6.43045 12.5208C6.43045 12.5208 6.43045 12.5246 6.43045 12.5208C6.43045 12.5246 6.43045 12.5208 6.43045 12.5208ZM2.66967 12.2134C3.06712 12.1646 3.47582 12.1421 3.88826 12.1421C4.08324 12.1421 4.27447 12.1496 4.46569 12.1571C4.48069 12.2246 4.49944 12.2921 4.51444 12.3633C4.51444 12.3671 4.51819 12.3708 4.51819 12.3783C4.53693 12.4533 4.55943 12.5321 4.57818 12.6071C4.57818 12.6108 4.57818 12.6108 4.57818 12.6146C4.60067 12.6933 4.62317 12.7683 4.64567 12.847C5.15186 14.5081 6.07424 15.9854 7.29284 17.1627C5.08061 16.3228 3.35958 14.4931 2.66967 12.2134ZM11.7473 14.2868C11.7323 14.2981 11.721 14.3131 11.706 14.3243C11.6648 14.3581 11.6198 14.3956 11.5786 14.4293C11.5748 14.4331 11.5711 14.4331 11.5711 14.4368C11.4473 14.5381 11.3198 14.6356 11.1924 14.7293C11.1811 14.7368 11.1699 14.748 11.1586 14.7555C11.0424 14.8418 10.9224 14.9243 10.8024 15.003C10.7799 15.018 10.7574 15.033 10.7349 15.048C10.7012 15.0705 10.6674 15.0892 10.6374 15.1117C10.6074 15.1305 10.5774 15.1492 10.5474 15.168C10.5062 15.1942 10.4687 15.2167 10.4274 15.2392C10.3862 15.2655 10.345 15.288 10.3 15.3142C10.2737 15.3292 10.2475 15.3442 10.225 15.3592C10.1837 15.3817 10.1462 15.4042 10.105 15.4267C10.0825 15.438 10.0637 15.4492 10.0412 15.4605C9.98125 15.4942 9.92126 15.5242 9.86127 15.5579C9.84627 15.5654 9.82752 15.5729 9.81252 15.5842C9.76378 15.6104 9.71129 15.6329 9.66254 15.6592C9.6438 15.6667 9.62505 15.6779 9.6063 15.6854C9.54256 15.7154 9.47882 15.7454 9.41132 15.7754C9.57255 15.7829 9.73003 15.7867 9.89126 15.7867C9.9775 15.7867 10.0637 15.7867 10.15 15.7829C10.1837 15.7829 10.2212 15.7792 10.255 15.7792C10.3075 15.7792 10.3562 15.7754 10.4049 15.7717C10.4499 15.7679 10.4949 15.7642 10.5437 15.7642C10.5812 15.7604 10.6224 15.7604 10.6599 15.7567C10.7124 15.7529 10.7649 15.7492 10.8174 15.7417C10.8474 15.7379 10.8774 15.7379 10.9111 15.7342C10.9711 15.7267 11.0274 15.7229 11.0874 15.7154C11.1136 15.7117 11.1361 15.7117 11.1624 15.7079C11.2261 15.7004 11.2898 15.6892 11.3498 15.6817C11.3686 15.6779 11.3873 15.6779 11.4098 15.6742C11.4511 15.6667 11.4923 15.6629 11.5336 15.6554C11.601 16.2629 11.7248 16.8515 11.8973 17.4177C11.2898 17.5714 10.6562 17.6539 10.0037 17.6539C9.70754 17.6539 9.41882 17.6352 9.13011 17.6052C7.88901 16.5666 6.89914 15.2355 6.26922 13.7169C6.33671 13.7169 6.40045 13.7207 6.46794 13.7207C7.34908 13.7207 8.20397 13.6082 9.02137 13.3945C9.27634 13.6682 9.55006 13.9269 9.83502 14.1744C9.61005 13.9119 9.39633 13.6344 9.20135 13.3495C10.4349 13.0045 11.5748 12.4271 12.5722 11.6734C12.5909 11.9171 12.5984 12.1646 12.5984 12.4121C12.5984 12.802 12.5759 13.1882 12.5309 13.5669C12.2122 13.2445 11.9198 12.8995 11.646 12.5358C11.3423 12.712 11.0274 12.8733 10.7012 13.0158C11.0124 13.4657 11.3648 13.8931 11.7473 14.2868ZM12.2122 17.3277C12.1635 16.9265 12.1372 16.5216 12.1372 16.1091C12.1372 15.9141 12.1447 15.7229 12.1522 15.5317C12.2197 15.5167 12.2872 15.4979 12.3585 15.4829C12.3622 15.4829 12.366 15.4792 12.3735 15.4792C12.4484 15.4605 12.5272 15.438 12.6022 15.4192C12.6059 15.4192 12.6059 15.4192 12.6097 15.4192C12.6884 15.3967 12.7634 15.3742 12.8421 15.3517C14.5069 14.8455 15.988 13.9194 17.1654 12.697C16.3292 14.9093 14.4957 16.6378 12.2122 17.3277ZM17.604 10.8635C16.5654 12.1084 15.2306 13.0982 13.712 13.7282C13.712 13.6607 13.7158 13.5969 13.7158 13.5294C13.7158 12.6446 13.5995 11.7859 13.3858 10.9685C13.6558 10.7173 13.907 10.4511 14.147 10.1699C13.8883 10.3911 13.6183 10.5973 13.3371 10.7923C12.9921 9.56244 12.4184 8.43008 11.6685 7.43645C11.9123 7.41771 12.156 7.41021 12.4034 7.41021C12.7934 7.41021 13.1796 7.4327 13.5583 7.4777C13.2358 7.79641 12.8909 8.08887 12.5272 8.36259C12.7034 8.6663 12.8646 8.98126 13.0071 9.30747C13.4608 8.99251 13.8883 8.6363 14.2857 8.25385C14.297 8.26885 14.3082 8.28385 14.3232 8.2951C14.357 8.33634 14.3944 8.38134 14.4282 8.42258C14.4319 8.42633 14.4319 8.43008 14.4357 8.43008C14.5369 8.55381 14.6344 8.6813 14.7282 8.80878C14.7357 8.82003 14.7469 8.83128 14.7544 8.84253C14.8406 8.95876 14.9231 9.07875 15.0019 9.19873C15.0169 9.22123 15.0319 9.24373 15.0469 9.26623C15.0694 9.29997 15.0881 9.33372 15.1106 9.36371C15.1294 9.39371 15.1481 9.42371 15.1669 9.4537C15.1931 9.49495 15.2156 9.53244 15.2381 9.57369C15.2643 9.61493 15.2868 9.65618 15.3131 9.70117C15.3281 9.72742 15.3431 9.75366 15.3581 9.77616C15.3806 9.81741 15.4031 9.8549 15.4256 9.89615C15.4368 9.91864 15.4481 9.93739 15.4593 9.95989C15.4931 10.0199 15.5231 10.0799 15.5568 10.1399C15.5643 10.1549 15.5718 10.1736 15.5831 10.1886C15.6093 10.2374 15.6318 10.2898 15.658 10.3386C15.6655 10.3573 15.6768 10.3761 15.6843 10.3948C15.7143 10.4586 15.7443 10.5223 15.7743 10.5898C15.7818 10.4286 15.7855 10.2711 15.7855 10.1099C15.7855 10.0236 15.7855 9.93739 15.7818 9.85115C15.7818 9.81741 15.778 9.77991 15.778 9.74617C15.778 9.69367 15.7743 9.64493 15.7705 9.59618C15.7668 9.55119 15.763 9.5062 15.763 9.45745C15.7593 9.41996 15.7593 9.37871 15.7555 9.34122C15.7518 9.28872 15.748 9.23623 15.7405 9.18374C15.7368 9.15374 15.7368 9.12374 15.733 9.09C15.7255 9.03 15.7218 8.97376 15.7143 8.91377C15.7105 8.88752 15.7105 8.86503 15.7068 8.83878C15.6993 8.77504 15.688 8.71129 15.6805 8.6513C15.6768 8.63255 15.6768 8.61381 15.673 8.59131C15.6655 8.55007 15.6618 8.50882 15.6543 8.46758C16.2617 8.40008 16.8504 8.27635 17.4203 8.10387C17.5741 8.70755 17.6565 9.34122 17.6565 9.99363C17.6528 10.2898 17.6378 10.5786 17.604 10.8635Z" fill="#A88B65"/>
</g>
<defs>
<clipPath id="clip0">
<rect width="20" height="20" fill="white"/>
</clipPath>
</defs>
</svg>
