<svg width="40" height="49" viewBox="0 0 40 49" fill="none" xmlns="http://www.w3.org/2000/svg">
<path d="M34.9731 40.5764C34.6372 40.3966 34.2817 40.2605 33.9302 40.1166C32.6076 39.5749 31.2499 39.1389 29.8672 38.7796C29.7576 38.7511 29.6475 38.7224 29.5309 38.7536C28.6994 38.9757 27.8821 39.2381 27.1262 39.658C26.639 39.9286 26.1645 40.2222 25.6809 40.4996C24.3633 41.2553 23.0316 41.9845 21.6458 42.61C20.5974 43.0831 19.5271 43.496 18.4084 43.7741C17.4039 44.0239 16.3843 44.1532 15.3494 44.1617C13.9437 44.1733 12.569 43.9835 11.2368 43.5228C10.0677 43.1184 9.00164 42.5345 8.07849 41.7031C7.88789 41.5313 7.70492 41.3515 7.53319 41.1612C7.46852 41.0895 7.41603 41.0777 7.32806 41.1228C6.451 41.5719 5.59537 42.0567 4.78454 42.6183C4.73519 42.6525 4.69323 42.7046 4.60691 42.7054C4.58227 42.5753 4.60734 42.4472 4.6166 42.321C4.65734 41.7646 4.70249 41.2085 4.74687 40.6524C4.79715 40.0224 4.84879 39.3924 4.89872 38.7623C4.95 38.115 4.99979 37.4677 5.0505 36.8204C5.10292 36.1503 5.1557 35.4803 5.20819 34.8102C5.2584 34.1687 5.30791 33.5271 5.35855 32.8855C5.4119 32.21 5.4666 31.5345 5.52023 30.859C5.55719 30.3937 5.59345 29.9281 5.62977 29.4627C5.65463 29.1448 5.67878 28.8269 5.70413 28.5091C5.7119 28.4115 5.70192 28.3185 5.67051 28.2238C5.5542 27.873 5.44487 27.5199 5.33191 27.1679C5.27949 27.0048 5.27721 27.0037 5.14993 27.1125C4.27927 27.8565 3.66439 28.769 3.34117 29.8718C3.10819 30.6668 3.04644 31.4813 3.06909 32.3053C3.08568 32.9097 3.16517 33.5076 3.2542 34.1045C3.27771 34.2621 3.3052 34.419 3.32963 34.5764C3.33397 34.6043 3.33511 34.6333 3.33312 34.6615C3.33048 34.6988 3.30969 34.7252 3.27244 34.7344C3.23426 34.7438 3.20534 34.7268 3.18675 34.6946C3.17265 34.6701 3.16033 34.6441 3.15135 34.6174C2.95677 34.035 2.73497 33.461 2.59138 32.8627C2.40484 32.0852 2.29038 31.2984 2.31311 30.4959C2.31389 30.4689 2.31318 30.4418 2.31318 30.4152C2.25584 30.4073 2.25534 30.4491 2.24281 30.4768C1.87372 31.2931 1.56866 32.1306 1.40947 33.0158C1.32771 33.4703 1.28526 33.9293 1.25349 34.3896C1.2485 34.4616 1.28091 34.5726 1.1614 34.5748C1.05997 34.5766 1.0693 34.4729 1.05905 34.4045C0.949786 33.6776 0.854203 32.9499 0.879274 32.2114C0.936254 30.5342 1.50591 29.0582 2.58853 27.7749C3.09836 27.1705 3.66275 26.6287 4.30741 26.1704C4.44195 26.0748 4.57066 25.9709 4.70071 25.8692C4.85171 25.7511 4.85121 25.7502 4.78946 25.5744C4.74046 25.4349 4.69017 25.2958 4.64195 25.156C4.58077 24.9787 4.58561 24.9693 4.76104 24.8863C5.01417 24.7667 5.28234 24.6909 5.55128 24.6182C6.01268 24.4934 6.47984 24.3937 6.94972 24.3067C7.09174 24.2804 7.22073 24.232 7.34302 24.1526C7.80135 23.8549 8.2614 23.5602 8.70826 23.2451C8.94965 23.075 9.09993 22.8594 9.13647 22.5599C9.17999 22.2039 9.23654 21.8494 9.26439 21.4917C9.27757 21.3227 9.25947 21.3023 9.0886 21.3057C8.62728 21.3149 8.20705 21.4631 7.81539 21.698C7.42771 21.9305 7.11709 22.2446 6.86766 22.6193C6.71937 22.842 6.64331 23.0917 6.62707 23.3573C6.61624 23.5333 6.62023 23.7102 6.61774 23.8868C6.61702 23.9378 6.6037 23.995 6.54309 23.9494C6.26617 23.7413 5.93533 23.7385 5.6156 23.7002C5.2708 23.659 4.92343 23.6426 4.57635 23.6276C4.4495 23.6221 4.35962 23.6556 4.30883 23.7849C4.03832 24.4737 3.77529 25.1645 3.6359 25.8951C3.5963 26.1029 3.57229 26.3115 3.57892 26.5232C3.58013 26.561 3.59494 26.6064 3.54672 26.6281C3.501 26.6486 3.47265 26.6141 3.44309 26.5883C2.7688 26.0008 2.08576 25.4229 1.46887 24.773C1.25249 24.5451 1.05677 24.3017 0.915741 24.0179C0.790171 23.7652 0.743946 23.5003 0.792023 23.222C0.817379 23.0752 0.782977 22.9386 0.734188 22.8045C0.570727 22.355 0.436538 21.8969 0.321367 21.4329C0.318661 21.4219 0.313105 21.4115 0.31047 21.4006C0.179914 20.8615 0.397365 20.493 0.937465 20.3377C1.12073 20.285 1.20285 20.1862 1.21909 19.9974C1.22151 19.9691 1.2198 19.9404 1.22108 19.912C1.23348 19.6236 1.30712 19.5159 1.58269 19.4226C2.01888 19.2748 2.45242 19.1206 2.88091 18.9518C3.426 18.7372 3.96076 18.4992 4.49395 18.257C4.7109 18.1585 4.84836 18.0095 4.92365 17.7818C5.09074 17.2766 5.33462 16.8075 5.63048 16.3656C6.03255 15.7651 6.56439 15.3307 7.2505 15.0887C7.56667 14.9773 7.87792 14.8521 8.19145 14.7331C8.27286 14.7022 8.34067 14.6518 8.40135 14.5902C8.81061 14.1746 9.30021 13.8968 9.86225 13.7471C10.0231 13.7042 10.1479 13.614 10.2608 13.497C10.9132 12.8202 11.5753 12.153 12.2626 11.5114C12.7957 11.0138 13.331 10.5186 13.9054 10.0681C14.0892 9.92392 14.2791 9.78831 14.4788 9.6668C14.5616 9.61644 14.6485 9.57513 14.7383 9.53845C14.8922 9.47563 15.0276 9.49315 15.142 9.61901C15.2338 9.72 15.233 9.74536 15.363 9.60611C16.0199 8.90234 16.6789 8.20035 17.3343 7.49515C18.3157 6.43931 19.2716 5.36082 20.1996 4.25761C20.3796 4.04365 20.3821 4.04408 20.5255 4.27748C20.7526 4.64707 20.9506 5.0304 21.0765 5.44771C21.0845 5.47435 21.0866 5.50433 21.1165 5.52186C21.1559 5.53005 21.174 5.49871 21.1947 5.47328C22.0562 4.41573 22.8457 3.31025 23.4543 2.08418C23.7283 1.53232 23.9502 0.960815 24.1028 0.363165C24.1084 0.341157 24.1167 0.319789 24.1225 0.297781C24.1366 0.244718 24.1613 0.201983 24.2229 0.197638C24.2954 0.192439 24.3192 0.242439 24.3386 0.299775C24.4443 0.612453 24.5359 0.92912 24.6065 1.25163C24.8932 2.56188 24.7323 3.83019 24.2477 5.06794C24.1398 5.34365 24.0136 5.6111 23.8831 5.87663C23.8535 5.93696 23.8249 5.99785 23.7954 6.05932C23.851 6.09422 23.8747 6.04878 23.9044 6.02983C24.6939 5.52556 25.5187 5.09657 26.4253 4.84066C26.7724 4.74265 27.1264 4.6918 27.4869 4.69215C27.5718 4.69223 27.6576 4.70248 27.7414 4.71701C27.8896 4.74258 27.9202 4.79294 27.8887 4.94337C27.8686 5.03902 27.8261 5.12613 27.7796 5.21089C27.6005 5.53717 27.3826 5.83503 27.1236 6.1027C27.1 6.12713 27.077 6.15227 27.0558 6.17869C27.0495 6.18653 27.0502 6.20006 27.0479 6.21096C27.0962 6.24123 27.1355 6.20562 27.1763 6.19144C28.9258 5.58218 30.7199 5.14714 32.5407 4.81537C32.6861 4.78888 32.8303 4.75583 32.9756 4.72848C33.0314 4.71794 33.0887 4.70782 33.1449 4.70982C33.2376 4.71317 33.2761 4.77862 33.2379 4.8616C33.2214 4.89743 33.1958 4.92912 33.1736 4.96224C32.7547 5.5871 32.2297 6.11616 31.6724 6.61488C31.4178 6.84272 31.1538 7.0601 30.8942 7.28225C30.8848 7.31872 30.8939 7.33546 30.9338 7.31922C31.7803 6.96238 32.6565 6.73888 33.5803 6.72442C34.0962 6.7163 34.6019 6.78204 35.0986 6.92029C35.1477 6.93396 35.1969 6.94942 35.2432 6.9705C35.3478 7.01822 35.3685 7.07072 35.3152 7.17356C35.2279 7.34215 35.1047 7.48418 34.967 7.61345C34.6909 7.87271 34.3733 8.07193 34.0405 8.24906C33.9957 8.27292 33.9524 8.29978 33.9098 8.32741C33.9024 8.33218 33.9019 8.34778 33.8941 8.37057C35.8386 8.78617 37.6216 9.58517 39.3113 10.6305C39.2494 10.7127 39.1717 10.7165 39.1041 10.7326C38.6615 10.8383 38.2098 10.8996 37.7677 11.0093C37.5084 11.0737 37.2464 11.1271 36.9858 11.1866C36.9477 11.1954 36.911 11.2108 36.8742 11.223C36.8792 11.2986 36.9412 11.2967 36.9852 11.3147C37.5499 11.5459 38.0949 11.8144 38.5947 12.1675C38.9644 12.4286 39.3019 12.7238 39.5636 13.0975C39.7382 13.3469 39.8734 13.6144 39.9305 13.9167C39.9645 14.0971 39.9374 14.15 39.7613 14.21C39.5104 14.2956 39.2516 14.3221 38.987 14.3046C38.7774 14.2908 38.5717 14.25 38.3716 14.2126C38.328 14.2687 38.3694 14.2973 38.3883 14.3267C39.0431 15.3486 39.3945 16.4719 39.5187 17.6736C39.5657 18.1276 39.5918 18.5816 39.5727 19.0377C39.568 19.1513 39.5589 19.2653 39.5423 19.3777C39.5264 19.4852 39.4765 19.5142 39.3744 19.4789C39.3103 19.4568 39.2503 19.4225 39.1894 19.3917C38.8054 19.1975 38.471 18.9325 38.143 18.6582C38.0218 18.5568 37.9053 18.4484 37.7408 18.3415C37.9519 20.4746 37.5613 22.4531 36.4909 24.2971C36.8286 24.3714 37.1498 24.4405 37.4703 24.5128C37.8198 24.5916 38.1665 24.681 38.5019 24.8092C38.5761 24.8376 38.6501 24.8673 38.7224 24.9006C38.8872 24.9767 38.8907 24.9822 38.8269 25.1585C38.4803 26.1157 38.1609 27.0819 37.8488 28.0506C37.7754 28.2783 37.7599 28.5039 37.7813 28.7404C37.8395 29.3812 37.888 30.0229 37.939 30.6644C37.9917 31.3287 38.0425 31.9931 38.0943 32.6574C38.1453 33.3102 38.1961 33.9632 38.2478 34.616C38.3126 35.4333 38.3786 36.2503 38.4434 37.0676C38.479 37.5158 38.5205 37.9637 38.5459 38.4125C38.5777 38.9762 38.6813 39.5281 38.77 40.0842C39.0078 41.5736 38.8011 42.9995 38.0476 44.3233C37.638 45.0428 37.0816 45.63 36.3883 46.0856C36.356 46.1068 36.3155 46.1189 36.2858 46.1809C36.4066 46.1942 36.52 46.2134 36.6339 46.2174C36.8274 46.2243 37.0211 46.2243 37.2144 46.2048C37.305 46.1957 37.3963 46.1921 37.4873 46.1898C37.6217 46.1865 37.6321 46.2004 37.5787 46.3215C37.3869 46.7563 37.109 47.1262 36.738 47.4245C36.2949 47.7806 35.785 47.9979 35.2386 48.1337C34.5632 48.3014 33.8769 48.335 33.186 48.2684C31.9576 48.15 30.8019 47.7939 29.7303 47.18C28.9155 46.7132 28.2061 46.1233 27.6705 45.3417C27.3113 44.8174 27.0821 44.2398 26.9722 43.6146C26.9656 43.5769 26.9506 43.537 26.9727 43.4966C27.0356 43.4765 27.0788 43.5196 27.1258 43.5471C28.0229 44.0706 28.9928 44.3223 30.029 44.3011C31.2854 44.2756 32.4089 43.8931 33.3437 43.0245C34.0095 42.4058 34.4592 41.6508 34.759 40.7998C34.7798 40.7409 34.8031 40.6829 34.8262 40.6249C34.8598 40.5411 34.8929 40.6071 34.926 40.6258C35.0331 40.6852 35.0736 40.7955 35.1225 40.8956C35.4333 41.5313 35.5073 42.2065 35.4418 42.9019C35.4238 43.0934 35.4051 43.286 35.3489 43.4714C35.3442 43.4866 35.3402 43.5025 35.3342 43.5176C35.3257 43.5387 35.3326 43.5102 35.3285 43.5325C35.3281 43.5343 35.3329 43.5242 35.3381 43.5208C35.5218 43.138 35.6789 42.7476 35.7205 42.3215C35.7611 41.9057 35.753 41.4915 35.6633 41.0813C35.6409 40.9788 35.5838 40.9078 35.4903 40.8622C35.3623 40.7999 35.2373 40.7314 35.1068 40.6741C35.0558 40.651 34.9984 40.6355 34.9731 40.5764Z" fill="#011320"/>
<path d="M35.304 43.5183C35.3731 43.1445 35.4185 42.769 35.4139 42.3873C35.4067 41.7856 35.2677 41.2217 34.9613 40.7014C34.9472 40.6774 34.9379 40.6507 34.9264 40.6254C34.9419 40.609 34.9575 40.5927 34.9731 40.5763C35.1835 40.6457 35.3768 40.7535 35.5762 40.8474C35.6488 40.8816 35.6846 40.9435 35.7007 41.02C35.8895 41.919 35.8164 42.7807 35.337 43.5849C35.2763 43.5873 35.2897 43.5531 35.304 43.5183Z" fill="white"/>
<path d="M30.9341 7.31883C30.913 7.34995 30.8816 7.37125 30.8551 7.33749C30.8397 7.3179 30.8605 7.28649 30.8945 7.28186C30.8987 7.30373 30.9165 7.31106 30.9341 7.31883Z" fill="#919196"/>
<path d="M23.989 2.42734C23.9674 2.81502 23.8889 3.19372 23.8019 3.57043C23.4058 5.28632 22.6889 6.86488 21.7526 8.34957C20.8917 9.71452 19.8697 10.9499 18.7446 12.1028C18.6692 12.1802 18.5944 12.2593 18.5288 12.3449C18.4608 12.4335 18.4662 12.5229 18.5286 12.5946C18.593 12.6687 18.6993 12.6857 18.7921 12.6262C18.8489 12.5898 18.897 12.5395 18.9474 12.4936C19.1196 12.337 19.262 12.1502 19.4444 12.0039C19.6584 12.1588 19.7632 12.569 19.6578 12.8394C19.637 12.8924 19.6135 12.9442 19.5838 12.9929C19.4446 13.2294 19.2563 13.4281 19.0825 13.6377C18.8939 13.865 18.6941 14.0835 18.5128 14.3163C18.1733 14.7523 17.9379 15.2402 17.8211 15.7825C17.7775 15.9849 17.79 16.1858 17.8542 16.3374C17.9215 16.3202 17.9199 16.2545 17.9451 16.2093C18.0631 15.9373 18.2657 15.7249 18.4601 15.5117C19.2506 14.6442 20.1261 13.8793 21.1542 13.2979C22.5534 12.5066 24.0457 11.9924 25.6345 11.7518C26.6051 11.6048 27.5799 11.5451 28.5607 11.5903C28.6562 11.5947 28.7523 11.5993 28.8459 11.6226C29.3023 11.6861 29.7586 11.7494 30.2149 11.8132C30.5359 11.8582 30.86 11.8818 31.178 11.9481C32.0331 12.1261 32.7562 12.5461 33.3796 13.1497C34.0933 13.8407 34.5406 14.6871 34.8336 15.6251C34.9873 16.1175 35.0927 16.6182 35.0551 17.1362C35.0014 17.8783 34.7863 18.5759 34.4368 19.2323C34.2895 19.5088 34.1244 19.7747 33.9561 20.0387C33.4633 20.8112 32.9865 21.5934 32.5382 22.3929C32.5268 22.404 32.5136 22.4136 32.5081 22.4296L32.5062 22.4313C32.4097 22.4182 32.4271 22.3325 32.4138 22.2742C32.2629 21.6117 32.0446 20.9726 31.7334 20.3684C31.3991 19.7192 30.9879 19.1233 30.4994 18.5768C30.1875 18.2281 29.8368 17.9236 29.5 17.6028L29.4992 17.6021C29.4828 17.5967 29.4737 17.5829 29.4632 17.5707C29.0823 17.2503 28.6756 16.9631 28.2212 16.7624C27.7746 16.5652 27.3096 16.4097 26.8286 16.3112C26.0099 16.1437 25.1829 16.0957 24.3488 16.1241C23.0154 16.1696 21.7172 16.4219 20.4352 16.7734C20.1549 16.8502 20.1555 16.8506 20.0267 16.5937C19.8831 16.307 19.7167 16.0361 19.4794 15.8154C19.3489 15.6939 19.2054 15.5937 19.0296 15.5473C18.8737 15.5062 18.846 15.534 18.887 15.694C18.8897 15.705 18.8946 15.7154 18.8984 15.7262C18.9662 15.9061 18.9078 16.0728 18.8395 16.2359C18.7466 16.4576 18.6249 16.6633 18.4666 16.8451C18.213 17.1362 17.9511 17.4179 17.6729 17.688C17.171 18.1753 16.6493 18.6426 16.1666 19.1497C15.1229 20.2462 14.1981 21.4324 13.4659 22.7614C13.3314 23.0056 13.1878 23.2442 13.0537 23.4884L13.0532 23.4894C13.0288 23.5048 13.0378 23.5382 13.0172 23.5557C12.4439 24.5169 11.993 25.5361 11.5853 26.5758C11.5063 26.7771 11.4199 26.9753 11.337 27.1749C11.0341 27.9724 10.2202 28.2612 9.40356 28.1736C9.00613 28.131 8.62358 28.0231 8.25477 27.8682C8.15848 27.8277 8.15876 27.8269 8.08697 27.7284C8.2151 27.6828 8.34829 27.7338 8.47286 27.6978C8.79872 27.6843 9.11446 27.607 9.43227 27.5434C9.48568 27.5327 9.54979 27.5244 9.56332 27.453C9.57671 27.3826 9.52407 27.3515 9.47685 27.3197C9.39886 27.2672 9.30848 27.2292 9.24865 27.1285C9.34601 27.1048 9.41774 27.1447 9.4901 27.161C9.83177 27.2376 9.99095 27.1064 9.96937 26.7533C9.95997 26.6 9.93148 26.4479 9.93661 26.2936C9.94088 26.1635 9.95826 26.1474 10.0896 26.1512C10.1464 26.1528 10.2033 26.1584 10.2599 26.1649C10.6072 26.2046 10.8844 26.0817 11.0954 25.8056C11.2416 25.6142 11.3467 25.3996 11.4446 25.181C11.6964 24.6187 11.8765 24.0309 12.06 23.4444C12.3643 22.4725 12.6662 21.4998 13.054 20.5568C13.36 19.8126 13.7144 19.0942 14.1985 18.4457C14.4729 18.0783 14.8087 17.77 15.134 17.4512C15.2683 17.3197 15.4017 17.1872 15.5338 17.0535C15.5595 17.0275 15.6018 17.0075 15.5898 16.9589C15.5576 16.9222 15.5244 16.9479 15.4954 16.9586C14.4299 17.3532 13.4651 17.9083 12.6793 18.7429C12.2228 19.2279 11.8994 19.791 11.7195 20.4343C11.718 20.4397 11.7175 20.4455 11.7159 20.4509C11.6668 20.6177 11.6669 20.6176 11.5105 20.5529C11.4579 20.5312 11.4058 20.508 11.3521 20.4894C11.0328 20.3782 10.7731 20.4573 10.5669 20.7274C10.5078 20.8048 10.4595 20.8891 10.4224 20.9785C10.3892 21.0583 10.3374 21.0768 10.2595 21.0492C10.1038 20.9941 9.9443 20.9521 9.78162 20.9233C8.93383 20.7729 8.16631 20.9688 7.47087 21.4652C6.90328 21.8703 6.48369 22.4042 6.14494 23.0069C6.12543 23.0416 6.10691 23.0769 6.08917 23.1126C6.02657 23.2383 5.92707 23.2986 5.7854 23.2871C5.54145 23.2672 5.29722 23.2505 5.05356 23.2277C4.776 23.2018 4.49915 23.1679 4.22151 23.1427C4.02058 23.1244 3.9839 23.1471 3.92293 23.34C3.68825 24.083 3.42472 24.8172 3.23818 25.5749C3.23547 25.586 3.23405 25.5974 3.23084 25.6083C3.19594 25.7269 3.17699 25.7335 3.08953 25.6516C3.00648 25.5736 2.925 25.4939 2.84473 25.4132C2.47949 25.0452 2.1183 24.6735 1.78604 24.2749C1.67279 24.139 1.56603 23.9989 1.48241 23.8422C1.39444 23.6773 1.34793 23.507 1.38298 23.3169C1.41068 23.1667 1.41246 23.0119 1.45677 22.864C1.48369 22.8812 1.47415 22.9102 1.47977 22.9344C1.47685 22.9132 1.48312 22.8929 1.48632 22.8723C1.61011 22.0653 1.851 21.2933 2.18141 20.5482C2.32977 20.2137 2.52642 19.9114 2.79103 19.6559C2.98511 19.5773 3.17892 19.4981 3.37343 19.4204C3.89117 19.2138 4.39245 18.9715 4.89516 18.7313C5.44872 18.4667 5.90798 18.0863 6.33184 17.6502C7.02628 16.9357 7.68882 16.1926 8.34409 15.4426C8.53127 15.2284 8.71482 15.0107 8.92913 14.8219C9.38668 14.4191 9.92493 14.1938 10.5215 14.0964C10.9142 14.0323 11.3069 13.9684 11.6997 13.9048C11.7333 13.8994 11.7674 13.8924 11.8011 13.8931C11.8656 13.8943 11.8808 13.9229 11.8504 13.9796C11.8141 14.0471 11.7363 14.0924 11.7365 14.1805C11.8132 14.2226 11.8873 14.1786 11.9593 14.1902C12.4773 14.2038 12.8969 14.004 13.2789 13.6548C14.0219 12.9755 14.7714 12.3031 15.5233 11.6335C15.7751 11.4093 16.0306 11.1876 16.2613 10.9402C16.2622 11.0647 16.2457 11.1897 16.2675 11.3137C16.293 11.4585 16.3439 11.5888 16.4893 11.6549C16.5902 11.7008 16.6375 11.6707 16.6459 11.5613C16.6524 11.4776 16.6266 11.3904 16.6722 11.3108C16.741 11.3077 16.7858 11.2612 16.8306 11.2187C17.243 10.8276 17.6643 10.446 18.0754 10.0533C18.4621 9.68397 18.8507 9.31645 19.2207 8.93105C20.3946 7.70818 21.5463 6.46531 22.525 5.07528C23.0303 4.35769 23.498 3.6178 23.8154 2.79337C23.8501 2.70298 23.8804 2.61132 23.9107 2.51944C23.9235 2.48026 23.9224 2.42314 23.989 2.42734Z" fill="#A3B9C4"/>
<path d="M11.8843 39.2794C12.3522 39.1053 12.8332 38.9744 13.3131 38.8394C13.3623 38.8256 13.4118 38.8132 13.4612 38.8002C13.5922 38.7549 13.6463 38.85 13.7022 38.9355C13.9775 39.3564 14.3299 39.698 14.7537 39.9675C14.908 40.0655 15.0686 40.1502 15.2404 40.2129C15.3102 40.2384 15.3821 40.2603 15.4152 40.3372C15.5305 40.4091 15.6641 40.4167 15.792 40.4339C16.7801 40.5666 17.7439 40.4759 18.6804 40.1201C19.9146 39.6512 21.1183 39.11 22.3286 38.5843C23.7322 37.9747 25.1436 37.3856 26.6001 36.9108C27.6022 36.5841 28.6186 36.3159 29.66 36.1487C30.6311 35.9927 31.6076 35.9393 32.5878 36.0378C33.8665 36.1663 35.0546 36.5604 36.1262 37.2809C37.2597 38.0431 37.9177 39.0988 38.0871 40.4578C38.2989 42.1574 37.8175 43.6373 36.6501 44.8809C35.843 45.7406 34.825 46.1123 33.6487 46.0463C33.5241 46.0393 33.4006 46.0134 33.2766 45.9968C33.2119 45.9882 33.1471 45.9807 33.078 45.9881C33.1356 46.0681 33.214 46.1102 33.2927 46.1509C33.69 46.3561 34.1191 46.4375 34.5601 46.4584C34.7636 46.468 34.9509 46.5075 35.1306 46.6076C35.3722 46.7421 35.6409 46.7974 35.912 46.8383C35.9714 46.8473 36.0319 46.8512 36.0892 46.8836C36.0413 46.9459 35.9731 46.9472 35.9163 46.9658C35.2264 47.1919 34.522 47.3413 33.7932 47.3601C32.0843 47.4042 30.5483 46.9273 29.2133 45.8435C28.9957 45.6669 28.8002 45.4683 28.6403 45.2369C28.6051 45.186 28.5617 45.1381 28.5606 45.0695C28.6084 45.0343 28.6596 45.0661 28.7088 45.0621C29.543 45.1558 30.3756 45.2638 31.214 45.3205C31.772 45.3583 32.3277 45.3638 32.8848 45.3165C33.0546 45.3022 33.22 45.2457 33.3931 45.2655C33.4744 45.2585 33.5504 45.2882 33.6289 45.3002C34.0539 45.3651 34.4552 45.2834 34.8418 45.1088C35.4954 44.8136 35.9412 44.3126 36.2492 43.6782C36.4551 43.2538 36.5648 42.8026 36.6121 42.3343C36.6401 42.056 36.6447 41.7776 36.6374 41.4985C36.636 41.4433 36.6372 41.388 36.6512 41.33C36.8881 41.6724 37.0182 42.0534 37.0761 42.4601C37.1343 42.8688 37.0967 43.2751 37.018 43.6818C37.0853 43.6748 37.1013 43.6294 37.1217 43.5898C37.4263 42.9997 37.6141 42.3812 37.6056 41.7087C37.5969 41.0225 37.3837 40.4013 37.0342 39.8205C36.4255 38.8092 35.5343 38.1583 34.4282 37.7809C33.7955 37.565 33.1423 37.5014 32.4784 37.4925C30.7987 37.4698 29.2061 37.8479 27.6738 38.5146C26.6755 38.949 25.7249 39.4757 24.7789 40.0108C23.7934 40.5684 22.8133 41.1361 21.7901 41.6237C20.5374 42.2208 19.2391 42.6853 17.8754 42.9564C16.8777 43.1548 15.8711 43.2561 14.8537 43.2037C13.2428 43.1208 11.7208 42.7266 10.3295 41.8857C9.77146 41.5485 9.25906 41.1524 8.78763 40.7027C8.75052 40.6673 8.71277 40.6323 8.67894 40.5939C8.62039 40.5274 8.62238 40.5062 8.70465 40.4711C9.18022 40.2684 9.65102 40.0534 10.1433 39.8923C10.3665 40.0787 10.5378 40.3143 10.7386 40.5222C11.1849 40.9844 11.6802 41.3805 12.2391 41.6954C12.9996 42.1239 13.8202 42.3638 14.6868 42.446C15.5561 42.5285 16.4124 42.4324 17.259 42.2342C18.8011 41.8732 20.2061 41.1942 21.5507 40.3763C21.9981 40.1041 22.4231 39.7976 22.8638 39.5155C22.9557 39.4512 23.0544 39.397 23.1445 39.3345C23.1421 39.3361 23.1381 39.3378 23.136 39.3391C23.0381 39.3998 22.943 39.4606 22.8471 39.5205C22.6358 39.6673 22.4039 39.7778 22.1769 39.8954C21.4378 40.2784 20.6782 40.6168 19.8926 40.894C19.0356 41.1963 18.1579 41.416 17.2519 41.5054C16.0203 41.6269 14.8301 41.4842 13.7152 40.911C13.0348 40.5612 12.4691 40.0748 12.0267 39.4488C11.9834 39.388 11.9264 39.3402 11.8843 39.2794Z" fill="#A3B9C4"/>
<path d="M32.7127 28.5127C32.7094 28.2109 32.7059 27.9092 32.7029 27.6074C32.7012 27.4252 32.7017 27.2428 32.699 27.0606C32.6966 26.9036 32.6796 26.8859 32.5274 26.865C32.274 26.8303 32.2594 26.8419 32.2598 27.0915C32.2604 27.4334 32.2597 27.7752 32.2655 28.117C32.2672 28.215 32.2408 28.274 32.1433 28.3121C31.5873 28.5293 31.0336 28.7521 30.4789 28.9726C30.469 28.9765 30.457 28.9751 30.4332 28.9774C30.4007 28.9321 30.4113 28.8764 30.4101 28.8216C30.3888 27.9047 30.3887 26.9877 30.3873 26.0707C30.3871 25.9261 30.3476 25.8073 30.2441 25.7019C30.0634 25.5177 29.9585 25.2931 29.9257 25.0359C29.9096 24.9105 29.9219 24.8928 30.0474 24.9022C30.4732 24.9341 30.8991 24.9669 31.3246 25.0039C31.7556 25.0413 32.1861 25.0837 32.6168 25.1246C33.3363 25.1929 34.0554 25.2658 34.7725 25.3568C35.529 25.4527 36.2855 25.5492 37.0422 25.6438C37.3447 25.6816 37.3583 25.697 37.2831 25.9948C37.235 26.1855 37.1529 26.3619 37.0112 26.5001C36.9043 26.6043 36.8685 26.7224 36.8691 26.8679C36.873 27.8821 36.8719 28.8962 36.8725 29.9104C36.8725 29.9389 36.8753 29.9675 36.8737 29.9958C36.8721 30.0227 36.8824 30.0559 36.8522 30.0728C36.8126 30.0949 36.7906 30.0593 36.7653 30.0397C36.3824 29.7435 36.0004 29.4462 35.6168 29.1509C35.4725 29.0398 35.3289 28.9266 35.1769 28.8267C35.0497 28.743 34.9953 28.6408 34.9985 28.4862C35.0061 28.116 34.9993 27.7456 34.9972 27.3753C34.9963 27.2034 34.9891 27.1969 34.8158 27.1777C34.7988 27.1758 34.7819 27.1733 34.7648 27.1721C34.6023 27.1607 34.5849 27.1737 34.5846 27.3343C34.5836 27.7388 34.5851 28.1433 34.5863 28.5479C34.5895 29.5107 34.5931 30.4735 34.5961 31.4363C34.5962 31.4645 34.5908 31.4928 34.5879 31.521C34.525 31.5661 34.456 31.5455 34.3902 31.5351C33.908 31.4587 33.4283 31.3673 32.9455 31.294C32.7343 31.2621 32.7272 31.2452 32.7271 31.031C32.727 30.2532 32.7274 29.4754 32.7264 28.6975C32.7263 28.6359 32.7399 28.5725 32.7127 28.5127Z" fill="white"/>
<path d="M26.2808 30.4956C26.2998 30.7061 26.2923 30.917 26.2752 31.1268C26.2485 31.4536 26.0884 31.7074 25.822 31.894C25.7074 31.9742 25.5875 32.0467 25.47 32.1226C25.5111 32.1865 25.5678 32.1726 25.6163 32.1787C25.7291 32.1929 25.8426 32.2005 25.9532 32.2308C26.1697 32.29 26.2578 32.3871 26.2821 32.6105C26.2944 32.7235 26.3035 32.8375 26.3041 32.9511C26.3082 33.7484 26.3112 34.5459 26.3109 35.3432C26.3108 35.533 26.3014 35.7216 26.4483 35.8661C26.4052 35.9214 26.3515 35.9228 26.3047 35.9393C25.8812 36.0891 25.4565 36.2357 25.0351 36.3912C24.8979 36.4418 24.7629 36.4641 24.6178 36.4513C24.425 36.4342 24.2314 36.4266 24.0384 36.4125C23.9238 36.4041 23.9104 36.3908 23.9228 36.2757C23.9473 36.0469 24.0321 35.8418 24.2124 35.6945C24.3349 35.5943 24.3794 35.4791 24.3776 35.3244C24.3702 34.6752 24.371 34.0258 24.3688 33.3764C24.3687 33.3593 24.3695 33.3422 24.3686 33.3252C24.3629 33.2222 24.3412 33.2035 24.2431 33.2382C24.0718 33.2989 23.9032 33.3674 23.7326 33.4306C23.5993 33.4799 23.4645 33.5252 23.3311 33.574C23.1882 33.6263 23.1752 33.6431 23.1753 33.7982C23.1755 34.1797 23.1787 34.5613 23.1795 34.9429C23.1797 35.0682 23.1803 35.1937 23.1736 35.3187C23.1676 35.4295 23.2033 35.514 23.2869 35.5894C23.4697 35.7541 23.5879 35.9576 23.63 36.2035C23.6609 36.3849 23.6606 36.3885 23.4813 36.3846C22.7868 36.369 22.0926 36.3341 21.3976 36.3447C21.2267 36.3474 21.0559 36.3511 20.8851 36.3499C20.7743 36.3491 20.7656 36.3398 20.7755 36.2321C20.7978 35.9903 20.8909 35.7771 21.0758 35.6188C21.2017 35.511 21.2402 35.3848 21.2388 35.2275C21.2345 34.7548 21.2364 34.2819 21.2374 33.8092C21.2397 32.7099 21.2427 31.6107 21.2461 30.5114C21.2463 30.4606 21.2528 30.4098 21.2564 30.3589C21.3332 30.2924 21.4272 30.3045 21.5173 30.3041C21.9615 30.3026 22.4057 30.3045 22.8499 30.303C23.0691 30.3023 23.0807 30.2912 23.0809 30.0704C23.082 28.8915 23.0805 27.7127 23.083 26.5338C23.0832 26.4361 23.053 26.3253 23.1536 26.2504C23.2572 26.3247 23.2215 26.4365 23.2217 26.5331C23.2243 28.0202 23.2234 29.5073 23.2236 30.9945C23.2236 31.1712 23.2245 31.3478 23.224 31.5244C23.2235 31.6529 23.2784 31.6982 23.4051 31.67C23.5839 31.6303 23.7573 31.5781 23.9225 31.4973C24.1844 31.3692 24.3108 31.1624 24.317 30.8704C24.3204 30.7081 24.2765 30.5395 24.3608 30.3837C24.3937 30.358 24.4325 30.3463 24.4726 30.3492C25.0391 30.3893 25.6079 30.3905 26.1733 30.4484C26.2139 30.4528 26.2503 30.468 26.2808 30.4956Z" fill="#C6D0DA"/>
<path d="M26.2808 30.4956C25.9315 30.4792 25.5815 30.4718 25.2335 30.4323C25.1831 30.4266 25.1316 30.4275 25.0807 30.4286C24.8429 30.4335 24.6063 30.4198 24.3702 30.3927C24.2928 30.3127 24.3151 30.2108 24.3149 30.1167C24.3131 29.0626 24.3136 28.0085 24.3142 26.9544C24.3142 26.823 24.3021 26.6933 24.286 26.5629C24.2671 26.4084 24.1804 26.3337 24.0352 26.3039C23.8147 26.2587 23.5922 26.282 23.3706 26.2768C23.3028 26.2752 23.2335 26.2897 23.1688 26.257C23.1078 26.3124 23.135 26.3855 23.135 26.4501C23.1348 27.6748 23.1373 28.8996 23.1383 30.1244C23.1385 30.3853 23.1642 30.3586 22.8971 30.3589C22.3503 30.3594 21.8034 30.3591 21.2565 30.3591C21.2365 30.2921 21.2459 30.2233 21.246 30.1554C21.2466 28.6867 21.2461 27.2179 21.2514 25.7491C21.2521 25.5718 21.2097 25.4347 21.0671 25.3163C20.8839 25.1641 20.811 24.9468 20.7806 24.7146C20.7705 24.6371 20.7946 24.5935 20.8778 24.5937C20.9005 24.5938 20.9233 24.592 20.946 24.592C22.1185 24.591 23.2911 24.5899 24.4632 24.6267C24.776 24.6365 25.087 24.6653 25.3912 24.7503C25.8776 24.8862 26.1484 25.2029 26.2214 25.7005C26.2504 25.8983 26.2673 26.0971 26.2687 26.2953C26.2788 27.6728 26.2824 29.0503 26.2877 30.4279C26.2878 30.4504 26.2833 30.473 26.2808 30.4956Z" fill="white"/>
<path d="M12.0883 30.077C12.0893 29.5077 12.0899 28.9383 12.0914 28.369C12.0924 27.9875 12.0971 27.6059 12.0951 27.2244C12.0942 27.051 12.1234 26.8889 12.1918 26.7272C12.4111 26.2089 12.6256 25.6888 12.858 25.1759C12.9411 24.9925 13.0522 24.907 13.2569 24.8998C13.6892 24.8846 14.1207 24.8477 14.5525 24.8202C14.8139 24.8036 15.0754 24.7897 15.3367 24.7717C15.6393 24.7508 15.9402 24.7634 16.238 24.8202C16.709 24.91 16.9733 25.1873 17.0534 25.6632C17.1124 26.0136 17.1023 26.367 17.1008 26.7197C17.0981 27.3632 17.0919 28.0066 17.0868 28.65C17.0865 28.6841 17.0835 28.7181 17.0818 28.7521C17.0509 29.0234 17.073 29.2956 17.0689 29.5673C17.0647 29.8398 17.0637 30.1124 17.07 30.3848C17.0726 30.4957 17.0254 30.542 16.9231 30.5456C16.5715 30.5579 16.2216 30.5938 15.8708 30.6167C15.7688 30.6234 15.6674 30.6343 15.5657 30.642C15.4315 30.6522 15.2939 30.6798 15.1655 30.609C15.0991 30.5183 15.1177 30.4127 15.1175 30.312C15.1161 29.2086 15.1167 28.1052 15.1167 27.0018C15.1167 26.9563 15.117 26.9108 15.1164 26.8653C15.1127 26.5826 15.0177 26.494 14.7399 26.5289C14.5705 26.5501 14.4 26.5549 14.2306 26.5779C14.1099 26.5943 14.0597 26.6504 14.0642 26.7668C14.0652 26.7895 14.063 26.8123 14.0631 26.8351C14.0713 28.0405 14.0037 29.2452 14.0278 30.4508C14.0297 30.5462 14.0422 30.6452 13.9892 30.7341C13.7994 30.8511 13.5808 30.817 13.3753 30.8447C13.0203 30.8925 12.6639 30.9319 12.3076 30.9706C12.0903 30.9942 12.0751 30.9826 12.0782 30.7586C12.0813 30.5313 12.0642 30.3039 12.0883 30.077Z" fill="white"/>
<path d="M9.05172 31.3828C9.48513 31.715 9.93548 32.0236 10.3806 32.3396C10.8439 32.6684 11.0863 33.1323 11.1701 33.6853C11.2223 34.0297 11.232 34.3778 11.2273 34.7248C11.22 35.2657 11.2399 35.807 11.2054 36.3476C11.193 36.5413 11.1643 36.7319 11.1147 36.9198C11.017 37.2896 10.8036 37.5736 10.4843 37.7805C10.2345 37.9424 9.96597 38.0655 9.68249 38.1543C8.53698 38.5133 7.41397 38.9345 6.29859 39.3769C6.25756 39.3932 6.2186 39.4226 6.15479 39.4127C6.12708 39.3424 6.13869 39.2644 6.15179 39.1896C6.20037 38.9119 6.29097 38.6483 6.45728 38.4186C6.54916 38.2918 6.5842 38.1578 6.58385 38.0041C6.58192 37.0073 6.58328 36.0105 6.58477 35.0136C6.58484 34.9523 6.57209 34.8894 6.59645 34.8292C6.65101 34.8134 6.68199 34.8535 6.71746 34.8785C7.22003 35.2327 7.72031 35.5902 8.22573 35.9404C8.35179 36.0278 8.4097 36.1302 8.39759 36.2839C8.38734 36.4141 8.39303 36.5458 8.39631 36.6768C8.39887 36.7795 8.41098 36.7901 8.50543 36.7621C8.69624 36.7057 8.88591 36.6454 9.07501 36.5835C9.2634 36.5219 9.35785 36.3964 9.36725 36.1911C9.38869 35.7239 9.38434 35.2572 9.35478 34.7912C9.32573 34.3325 9.12045 33.9689 8.73798 33.7031C8.25172 33.3653 7.77466 33.0143 7.30578 32.6526C7.02829 32.4384 6.82345 32.1723 6.73214 31.8279C6.78783 31.7709 6.86298 31.7624 6.93506 31.7474C7.57067 31.6152 8.20991 31.5023 8.84837 31.385C8.91647 31.3725 8.98377 31.3699 9.05172 31.3828Z" fill="#C6D0DA"/>
<path d="M15.1722 30.5982C15.4853 30.6075 15.7944 30.5556 16.1054 30.54C16.3662 30.527 16.6254 30.4893 16.8875 30.4935C17.0482 30.4962 17.0503 30.491 17.0509 30.3333C17.0527 29.8662 17.0519 29.3992 17.0542 28.9322C17.0545 28.8717 17.0336 28.806 17.0817 28.7521C17.0844 28.974 17.09 29.196 17.0892 29.4178C17.0866 30.09 17.0742 30.7622 17.0796 31.4343C17.0841 32.0072 16.8729 32.4614 16.4015 32.7942C16.206 32.9322 16.0107 33.0697 15.8023 33.1876C15.2575 33.496 14.7149 33.8085 14.1662 34.1098C14.0052 34.1982 13.9437 34.312 13.9462 34.4936C13.9532 34.9834 13.9487 35.4735 13.9406 35.9633C13.9383 36.0999 13.971 36.2009 14.0857 36.286C14.2691 36.4219 14.3558 36.6195 14.3865 36.8417C14.4076 36.9942 14.4016 37.0021 14.2502 37.0322C13.6143 37.1585 12.9789 37.2872 12.3481 37.4375C12.0996 37.4967 11.8513 37.5571 11.5985 37.618C11.5641 37.5307 11.5786 37.4517 11.5972 37.3767C11.6564 37.1376 11.7349 36.9073 11.9148 36.7258C11.9945 36.6455 12.0283 36.5422 12.0306 36.4305C12.0344 36.2426 12.0352 36.0546 12.0366 35.8666C12.0453 34.6875 12.055 33.5084 12.062 32.3293C12.0661 31.6343 12.0656 30.9394 12.0676 30.2444C12.0678 30.1879 12.0595 30.1299 12.0884 30.0769C12.1113 30.3036 12.0957 30.531 12.0978 30.7581C12.0996 30.9531 12.0969 30.9469 12.284 30.919C12.5076 30.8857 12.733 30.8642 12.9577 30.8382C13.244 30.805 13.5304 30.7718 13.817 30.74C13.8677 30.7344 13.9192 30.7358 13.9702 30.7341C14.0392 30.7966 14.0215 30.8809 14.022 30.958C14.0246 31.316 14.0211 31.6742 14.024 32.0322C14.0254 32.2092 14.0507 32.2262 14.2131 32.1656C14.4878 32.063 14.7362 31.9186 14.9385 31.7012C15.0315 31.6013 15.0824 31.4892 15.0901 31.3505C15.1012 31.1522 15.1315 30.9552 15.1244 30.7556C15.1223 30.6997 15.1235 30.6406 15.1722 30.5982Z" fill="#C6D0DA"/>
<path d="M19.8526 26.5984C19.8549 26.6551 19.8595 26.7118 19.8594 26.7685C19.8588 27.9242 19.8585 29.0799 19.8565 30.2356C19.8545 31.3798 19.8513 32.524 19.8475 33.6682C19.8457 34.2146 19.8432 34.761 19.8368 35.3074C19.8352 35.4417 19.8738 35.5474 19.9771 35.6382C20.1415 35.7826 20.2276 35.9737 20.2638 36.187C20.2935 36.3615 20.2837 36.3702 20.1101 36.3797C19.7863 36.3975 19.4627 36.4186 19.1388 36.4348C18.667 36.4583 18.1967 36.4998 17.7265 36.5443C17.6812 36.5486 17.6357 36.5512 17.5902 36.5537C17.4213 36.5634 17.4088 36.5495 17.44 36.3888C17.4865 36.148 17.5863 35.9326 17.767 35.7644C17.8722 35.6665 17.9073 35.5545 17.9067 35.4148C17.9041 34.8398 17.9073 34.2648 17.9098 33.6898C17.9144 32.6425 17.92 31.5951 17.9256 30.5478C17.9259 30.5084 17.9321 30.469 17.9355 30.4295C18.1548 30.3282 18.3929 30.3603 18.6219 30.3437C18.9222 30.322 19.2246 30.3413 19.5259 30.3085C19.7629 30.2827 19.7655 30.2931 19.7656 30.044C19.7663 28.9844 19.7643 27.9248 19.7685 26.8652C19.7688 26.7732 19.7226 26.6545 19.8526 26.5984Z" fill="#C6D0DA"/>
<path d="M29.5001 17.6028C29.6071 17.6372 29.6779 17.7234 29.7576 17.7928C31.1627 19.0156 32.0842 20.5273 32.4719 22.3558C32.4779 22.3841 32.4834 22.4113 32.5062 22.4313C32.3155 22.7863 32.1229 23.1405 31.9355 23.4972C31.8935 23.5772 31.835 23.5979 31.7542 23.5876C31.5405 23.5604 31.3267 23.5339 31.1131 23.5066C30.8883 23.4779 30.6636 23.4479 30.4387 23.4195C30.0901 23.3755 29.7416 23.3308 29.3927 23.2895C29.1505 23.2608 28.9076 23.2386 28.6653 23.2115C28.3724 23.1787 28.0796 23.1447 27.787 23.1093C27.7018 23.0989 27.6868 23.0757 27.7247 22.9962C27.8603 22.7106 27.9195 22.4041 27.9801 22.0976C27.9935 22.0298 27.9951 21.9616 27.9784 21.8944C27.9585 21.8145 27.9853 21.7672 28.0639 21.7367C28.2772 21.6541 28.4323 21.4973 28.5779 21.3269C28.9446 20.8979 29.2601 20.4328 29.5552 19.953C29.621 19.846 29.6413 19.8414 29.7281 19.9453C30.005 20.2769 30.278 20.6122 30.4997 20.9845C30.7535 21.411 30.9754 21.8521 31.0815 22.3424C31.086 22.3633 31.1007 22.3819 31.1142 22.4087C31.1688 22.3833 31.1698 22.3394 31.1708 22.2961C31.1811 21.8183 31.1627 21.3432 31.0816 20.8702C30.996 20.37 30.863 19.8845 30.6858 19.4098C30.4561 18.7943 30.1256 18.2432 29.6548 17.78C29.5992 17.7254 29.5284 17.6821 29.5001 17.6028Z" fill="#465461"/>
<path d="M22.8982 39.5217C22.4549 39.8587 21.9861 40.1577 21.5138 40.451C20.9434 40.8054 20.3501 41.1186 19.7429 41.4044C18.8723 41.8141 17.9712 42.1366 17.0262 42.3294C16.5819 42.42 16.1363 42.4896 15.681 42.5025C15.5297 42.5067 15.3762 42.5362 15.2236 42.5276C14.4111 42.482 13.6135 42.3691 12.8561 42.0431C12.3201 41.8124 11.8182 41.5267 11.3652 41.1616C10.9809 40.852 10.6304 40.5045 10.3156 40.1225C10.2544 40.0482 10.1763 39.9874 10.1432 39.8923C10.5311 39.7208 10.9357 39.5941 11.3357 39.4553C11.517 39.3923 11.6961 39.3212 11.8844 39.2793C11.971 39.266 12.0061 39.3323 12.0406 39.3886C12.2488 39.7275 12.5309 40.0036 12.8254 40.2605C13.2383 40.6207 13.7102 40.8937 14.2234 41.0932C14.6752 41.2688 15.1403 41.3831 15.6217 41.4396C15.9828 41.482 16.345 41.5265 16.7071 41.4989C17.0841 41.4701 17.4614 41.4406 17.8368 41.379C18.4997 41.2704 19.1453 41.1009 19.7784 40.8838C20.321 40.6977 20.8526 40.4825 21.3719 40.2365C21.6444 40.1075 21.917 39.9789 22.1854 39.8418C22.4124 39.7258 22.637 39.6047 22.8626 39.4859C22.898 39.4744 22.9066 39.4895 22.8982 39.5217Z" fill="#C8D5DB"/>
<path d="M27.1404 30.5632C27.136 30.2106 27.1302 29.8581 27.1276 29.5055C27.1188 28.2936 27.1087 27.0817 27.106 25.8698C27.1056 25.7039 27.0641 25.5777 26.938 25.4646C26.7577 25.3029 26.6751 25.084 26.6359 24.8485C26.6147 24.7208 26.6324 24.7005 26.7678 24.7065C27.1657 24.7245 27.5635 24.7418 27.9612 24.7643C28.4042 24.7896 28.8469 24.8193 29.2897 24.8493C29.4413 24.8596 29.4467 24.867 29.4303 25.0116C29.4046 25.2383 29.3293 25.4478 29.1568 25.6021C29.0385 25.7079 29.0032 25.8274 29.0047 25.9792C29.0154 27.066 29.021 28.1528 29.0279 29.2396C29.0282 29.302 29.0247 29.3646 29.023 29.427C29.0472 29.8354 29.0262 30.2443 29.0343 30.6529C29.0368 30.7747 28.9567 30.7749 28.8737 30.768C28.5115 30.7381 28.1495 30.7057 27.7881 30.6685C27.6299 30.6522 27.4697 30.661 27.3133 30.6263C27.2525 30.6128 27.1883 30.6111 27.1404 30.5632Z" fill="white"/>
<path d="M19.8526 26.5984C19.8002 26.6574 19.8241 26.7291 19.824 26.7947C19.8219 27.898 19.8217 29.0014 19.8211 30.1047C19.8211 30.1274 19.8212 30.1502 19.8211 30.1729C19.8203 30.3588 19.8193 30.347 19.6352 30.363C19.2612 30.3955 18.8857 30.3765 18.5125 30.4011C18.3201 30.4138 18.1278 30.4212 17.9354 30.4294C17.9099 30.2765 17.9303 30.1232 17.9307 29.97C17.934 28.5583 17.9361 27.1465 17.9423 25.7348C17.9429 25.6045 17.905 25.5083 17.8033 25.4241C17.6202 25.2725 17.5195 25.0717 17.4954 24.8346C17.4793 24.6752 17.4826 24.6696 17.6412 24.6638C18.0279 24.6494 18.4147 24.6357 18.8016 24.6262C19.2339 24.6156 19.6663 24.6091 20.0987 24.6026C20.3132 24.5994 20.3129 24.6043 20.279 24.8083C20.2432 25.0235 20.1546 25.2096 19.9934 25.3574C19.8935 25.4491 19.8586 25.5618 19.8588 25.6938C19.8592 25.9953 19.8549 26.2968 19.8526 26.5984Z" fill="white"/>
<path d="M15.4152 40.3374C15.3803 40.319 15.3471 40.2961 15.3105 40.283C14.5876 40.0239 14.0485 39.5408 13.634 38.9068C13.591 38.841 13.5496 38.7861 13.4612 38.8004C13.6797 38.7459 13.8979 38.6903 14.1167 38.6369C14.8994 38.446 15.6899 38.2926 16.4835 38.1554C16.9748 38.0705 17.4669 37.9863 17.9612 37.9221C18.3263 37.8747 18.693 37.8349 19.0607 37.8054C19.497 37.7704 19.9331 37.7494 20.3703 37.7338C20.5857 37.7262 20.8018 37.7087 21.017 37.7168C21.2236 37.7247 21.43 37.7451 21.6694 37.7442C21.5571 37.864 21.4405 37.9118 21.3365 37.9739C20.6231 38.3994 19.8971 38.8029 19.1443 39.1549C18.2424 39.5768 17.326 39.9617 16.3498 40.1821C16.073 40.2445 15.7939 40.2935 15.51 40.3093C15.476 40.311 15.4411 40.3088 15.4152 40.3374Z" fill="#465461"/>
<path d="M13.0538 23.4883C13.0831 23.3527 13.1612 23.239 13.2243 23.1195C13.6921 22.2325 14.2314 21.3915 14.8503 20.6017C15.131 20.2435 15.4268 19.8984 15.7318 19.561C16.3773 18.8474 17.0877 18.1994 17.7793 17.5322C18.0617 17.2598 18.3319 16.9744 18.5604 16.6539C18.7063 16.4491 18.8221 16.229 18.8786 15.9799C18.8979 15.8947 18.8933 15.8108 18.8985 15.7261C19.1535 16.2172 19.3501 16.7305 19.4618 17.2732C19.5075 17.4948 19.5407 17.7192 19.5488 17.9473C19.5568 18.169 19.4753 18.3454 19.3216 18.4959C19.0364 18.7751 18.7236 19.0212 18.392 19.2416C17.7196 19.6884 17.0391 20.1231 16.3681 20.5721C15.7164 21.0083 15.0698 21.4529 14.4545 21.9396C14.0061 22.2943 13.6292 22.7195 13.2886 23.1782C13.2113 23.2821 13.1552 23.4026 13.0538 23.4883Z" fill="#465461"/>
<path d="M27.1404 30.5633C27.371 30.5837 27.6022 30.5965 27.8325 30.6241C27.978 30.6415 28.1253 30.6509 28.2717 30.6618C28.486 30.6779 28.6994 30.6979 28.9122 30.7266C28.9974 30.7381 29.0122 30.7252 29.0125 30.6187C29.0138 30.2836 29.0118 29.9484 29.0123 29.6133C29.0124 29.5511 29.004 29.4882 29.0229 29.427C29.0541 29.4797 29.0428 29.538 29.043 29.5941C29.0479 30.8811 29.0509 32.168 29.057 33.455C29.0595 33.9845 29.0692 34.5139 29.0739 35.0434C29.0753 35.2045 29.0732 35.2075 28.9252 35.2364C28.3724 35.3445 27.8282 35.4876 27.2853 35.6362C27.2526 35.6452 27.2214 35.6625 27.1839 35.6447C27.1502 35.5963 27.1622 35.5379 27.1618 35.4823C27.1531 34.0303 27.145 32.5782 27.1372 31.1262C27.1363 30.9387 27.1223 30.7509 27.1404 30.5633Z" fill="#C6D0DA"/>
<path d="M31.6457 5.92427C31.5251 6.06195 31.3804 6.17292 31.2421 6.29101C30.4613 6.92171 29.5536 7.31971 28.6375 7.69785C27.0711 8.34443 25.4523 8.83275 23.815 9.26245C23.3964 9.37228 22.9776 9.48204 22.5549 9.57484C22.4902 9.58902 22.4048 9.65597 22.3538 9.54486C22.7981 9.06936 23.3036 8.66893 23.8523 8.32142C24.8402 8.05262 25.8197 7.75889 26.7656 7.36209C27.4851 7.06024 28.1928 6.73339 28.8546 6.319C29.175 6.11829 29.5355 6.07242 29.8865 5.98631C30.3396 5.87513 30.7983 5.79087 31.2631 5.74265C31.3553 5.7331 31.4441 5.73702 31.5329 5.76337C31.6144 5.78752 31.6622 5.83261 31.6457 5.92427Z" fill="#BDF935"/>
<path d="M35.2781 9.26509C35.5429 9.33061 35.7933 9.43759 36.0466 9.53553C36.6345 9.76288 37.2043 10.0301 37.7642 10.3189C37.7892 10.3318 37.812 10.3489 37.8358 10.3641C37.8047 10.4619 37.7149 10.441 37.6508 10.4404C36.8142 10.4327 35.977 10.4785 35.141 10.4164C34.9931 10.4054 34.8449 10.4151 34.6969 10.4107C33.3539 10.3713 32.0129 10.3054 30.687 10.0682C30.311 10.001 29.9397 9.91209 29.5921 9.74607C29.4732 9.6893 29.361 9.62093 29.2732 9.52071C29.132 9.35932 29.1396 9.16217 29.2887 9.02484C29.6653 8.87783 30.0544 8.77897 30.4547 8.72363C30.9344 8.78866 31.392 8.95006 31.8649 9.04635C32.7129 9.21915 33.5636 9.36259 34.4331 9.35241C34.7176 9.34913 34.9955 9.28496 35.2781 9.26509Z" fill="#BDF935"/>
<path d="M22.3536 9.54474C22.381 9.57722 22.4132 9.56582 22.4471 9.5577C23.3865 9.33342 24.3208 9.09025 25.2475 8.81824C25.793 8.65813 26.337 8.49275 26.8744 8.30713C27.7294 8.01183 28.5773 7.69901 29.3991 7.31767C30.0199 7.02957 30.6234 6.71354 31.1784 6.31012C31.1954 6.2978 31.2207 6.29702 31.242 6.29089C31.0969 6.46896 30.9132 6.60585 30.7307 6.73854C29.8608 7.37116 29.0154 8.0389 28.0924 8.59652C26.6888 9.44453 25.1994 10.0847 23.597 10.4469C23.0199 10.5774 22.4365 10.6774 21.8409 10.6747C21.599 10.6737 21.5924 10.6622 21.7063 10.44C21.8449 10.17 22.0186 9.92401 22.2158 9.69424C22.26 9.64289 22.3076 9.59445 22.3536 9.54474Z" fill="#76A708"/>
<path d="M35.6066 23.1319C35.6208 21.6249 35.7695 20.1346 36.162 18.6747C36.2745 18.2564 36.4188 17.8492 36.6049 17.4574C36.6171 17.4317 36.6284 17.4054 36.6431 17.3812C36.6991 17.2893 36.7158 17.2866 36.7973 17.3596C37.0293 17.5675 37.1456 17.8368 37.1853 18.1377C37.2867 18.9071 37.3096 19.6777 37.2295 20.4524C37.0998 21.7059 36.7095 22.8717 36.0903 23.9648C36.0622 24.0143 36.0319 24.0626 36.0008 24.1102C35.9631 24.1678 35.9106 24.1891 35.8403 24.184C35.6428 24.1696 35.6074 24.1349 35.6069 23.935C35.606 23.6673 35.6066 23.3996 35.6066 23.1319Z" fill="#76A708"/>
<path d="M29.2887 9.02478C29.1561 9.18817 29.2183 9.4443 29.3853 9.56281C29.5944 9.71118 29.8256 9.79907 30.0651 9.86922C30.4902 9.99373 30.9263 10.0655 31.3652 10.1222C31.8432 10.1839 32.322 10.2323 32.8032 10.2637C33.1939 10.2892 33.5849 10.3074 33.9754 10.3323C34.3617 10.3568 34.7484 10.3426 35.1335 10.366C35.9917 10.4182 36.8504 10.381 37.7086 10.3934C37.7524 10.3941 37.801 10.4062 37.8358 10.364C37.8796 10.39 37.8694 10.4221 37.8357 10.4417C37.8024 10.461 37.7622 10.4703 37.7239 10.4793C36.9332 10.6637 36.1462 10.8658 35.3444 10.9982C34.9748 11.0593 34.6016 11.0944 34.2269 11.1203C33.8174 11.1486 33.4084 11.1519 32.9992 11.1409C32.3338 11.1229 31.6736 11.0447 31.0188 10.9279C29.9375 10.7352 28.8791 10.4529 27.8395 10.0992C27.7764 10.0777 27.6831 10.0772 27.6694 10.0062C27.6557 9.93546 27.7423 9.89828 27.7929 9.85669C28.2407 9.48867 28.736 9.20484 29.2887 9.02478Z" fill="#76A708"/>
<path d="M32.7127 28.5128C32.7607 28.5667 32.74 28.6325 32.7402 28.6929C32.7429 29.4726 32.7433 30.2524 32.7453 31.0323C32.7458 31.2398 32.7306 31.2077 32.9145 31.236C33.3565 31.3041 33.796 31.3865 34.2378 31.4548C34.3551 31.4729 34.4712 31.4987 34.5879 31.521C34.5917 31.8056 34.5968 32.0902 34.5992 32.3747C34.6034 32.8588 34.606 33.343 34.6092 33.8271C34.6121 34.2657 34.615 34.7043 34.6179 35.1428C34.6181 35.1713 34.6195 35.1998 34.6185 35.2283C34.6138 35.3556 34.598 35.3697 34.4759 35.3329C34.0777 35.2127 33.6727 35.1235 33.2617 35.0604C33.1492 35.0432 33.0368 35.0259 32.9239 35.0122C32.7454 34.9905 32.7441 34.9914 32.743 34.8179C32.7405 34.4191 32.7391 34.0203 32.7368 33.6216C32.7327 32.9437 32.7356 32.2657 32.7222 31.5881C32.7027 30.6026 32.7137 29.6172 32.7046 28.6317C32.7044 28.592 32.7099 28.5524 32.7127 28.5128Z" fill="#C6D0DA"/>
<path d="M11.7456 21.365C11.9604 21.5121 12.0022 21.4946 12.0281 21.2446C12.0622 20.916 12.0938 20.5883 12.2154 20.2761C12.4896 19.5721 12.9455 19.0081 13.5352 18.5455C13.5431 18.5393 13.5559 18.5392 13.567 18.5361C13.6065 18.5598 13.577 18.5847 13.5648 18.6044C12.8446 19.7566 12.3627 21.0153 11.9254 22.293C11.6362 23.1378 11.3585 23.9866 11.074 24.8331C11.016 25.0056 10.953 25.1765 10.8882 25.3466C10.8065 25.5608 10.6499 25.6705 10.419 25.6788C10.2597 25.6845 10.1007 25.6976 9.94172 25.7093C9.73168 25.7247 9.62342 25.8119 9.55782 26.0133C9.50718 26.1688 9.51523 26.3278 9.52762 26.4871C9.53068 26.5269 9.53873 26.5662 9.54115 26.6059C9.54827 26.7227 9.50575 26.756 9.40148 26.7069C9.27292 26.6462 9.14884 26.5762 9.02156 26.5126C8.79229 26.3981 8.73937 26.4292 8.73488 26.6789C8.73374 26.741 8.73474 26.8032 8.73474 26.8851C8.65219 26.8019 8.65597 26.7076 8.64628 26.6222C8.60468 26.2537 8.65333 25.8948 8.78275 25.548C9.01836 24.9169 9.37676 24.3774 9.91587 23.9565C10.7432 23.3106 11.3498 22.4992 11.6794 21.4935C11.6935 21.4503 11.7036 21.4058 11.7456 21.365Z" fill="#BDF935"/>
<path d="M28.8459 11.6225C28.4362 11.6229 28.0265 11.6173 27.617 11.6248C26.6312 11.643 25.6565 11.7601 24.6944 11.9759C23.5672 12.2286 22.4912 12.6218 21.4755 13.1735C20.6469 13.6236 19.8749 14.1533 19.2006 14.8182C18.7706 15.242 18.3434 15.6678 17.9953 16.1647C17.9828 16.1825 17.962 16.1945 17.9451 16.2092C17.9434 15.9966 18.0427 15.8136 18.128 15.6301C18.3065 15.246 18.5606 14.91 18.8266 14.5828C19.2637 14.0449 19.7274 13.5287 20.1426 12.9727C20.207 12.8863 20.2875 12.8133 20.3741 12.7469C20.5055 12.6462 20.6264 12.5319 20.7256 12.4C20.7815 12.3258 20.8432 12.2853 20.933 12.2686C21.3343 12.1939 21.7339 12.109 22.136 12.0388C22.5776 11.9616 23.015 11.8658 23.4537 11.775C24.1212 11.6369 24.78 11.4643 25.4338 11.2728C25.6688 11.204 25.897 11.1141 26.1095 10.9908C26.2069 10.9342 26.2974 10.9309 26.4014 10.9729C27.111 11.259 27.8583 11.4042 28.6032 11.5594C28.6844 11.5762 28.7732 11.571 28.8459 11.6225Z" fill="#465461"/>
<path d="M9.0517 31.3829C8.91288 31.4504 8.75854 31.4566 8.61131 31.4808C8.08802 31.567 7.56922 31.6758 7.04807 31.7729C6.94294 31.7925 6.84037 31.8266 6.73211 31.8281C6.66018 31.6517 6.64707 31.4638 6.6252 31.2777C6.58062 30.8979 6.58361 30.5162 6.58411 30.1346C6.58518 29.2175 6.5866 28.3004 6.58859 27.3832C6.58895 27.2074 6.58681 27.0311 6.63945 26.8306C6.66395 26.9528 6.67791 27.0497 6.70334 27.1435C6.76516 27.3711 6.87406 27.5768 7.00811 27.7697C7.34579 28.2556 7.75027 28.6782 8.22627 29.0289C8.37428 29.1379 8.44016 29.2624 8.43282 29.4464C8.41986 29.771 8.44522 30.0938 8.49508 30.416C8.55163 30.7818 8.71388 31.0823 8.99351 31.322C9.01473 31.3403 9.0324 31.3625 9.0517 31.3829Z" fill="white"/>
<path d="M36.236 12.8123C36.3226 12.8607 36.409 12.9097 36.4753 12.9861C36.5334 13.0991 36.5302 13.2278 36.5689 13.3464C36.7038 13.7586 36.9445 14.1078 37.2122 14.441C37.5721 14.8889 37.9798 15.29 38.4205 15.6578C38.4951 15.7202 38.5548 15.7958 38.6199 15.8667C38.764 16.2078 38.8475 16.5666 38.9209 16.9271C39.031 17.4674 39.0943 18.0135 39.078 18.5662C39.0763 18.6224 39.1101 18.6935 39.034 18.7319C38.7456 18.5208 38.5432 18.2289 38.3192 17.959C37.6761 17.1836 37.0788 16.3744 36.5756 15.4999C36.2318 14.9022 35.9202 14.2898 35.7986 13.6004C35.7592 13.377 35.7591 13.1585 35.8791 12.9553C35.9662 12.8076 36.0605 12.7705 36.236 12.8123Z" fill="#BDF935"/>
<path d="M14.8687 10.1109C14.9138 10.2391 14.8862 10.3776 14.9262 10.5069C14.9476 10.5761 14.9813 10.6309 15.058 10.6418C15.1213 10.6507 15.1816 10.6417 15.2245 10.5861C15.2605 10.5395 15.2623 10.4822 15.273 10.4277C15.3576 10.27 15.492 10.1508 15.611 10.024C16.078 9.52646 16.5376 9.02211 16.9986 8.51934C17.567 7.89925 18.1405 7.28372 18.7031 6.65808C18.9805 6.34954 19.2605 6.04291 19.5464 5.7422C19.715 5.56485 19.8607 5.3662 20.0457 5.20509C20.1156 5.14419 20.1038 5.0454 20.1657 4.98401C20.2177 5.10587 20.2148 5.23736 20.2268 5.36521C20.2526 5.63736 20.2343 5.91015 20.2243 6.18266C20.1091 6.39569 19.9255 6.55345 19.7627 6.72361C19.0959 7.42076 18.4349 8.12354 17.7588 8.812C17.4968 9.07888 17.2368 9.34897 16.9775 9.61912C16.9183 9.6808 16.8535 9.73444 16.7823 9.78109C16.0511 10.149 15.4384 10.679 14.8266 11.2104C14.6517 11.1253 14.5057 11.1938 14.3605 11.2914C14.0815 11.4791 13.8311 11.7016 13.5802 11.9233C13.0818 12.3635 12.6256 12.8474 12.154 13.3152C12.1048 13.364 12.0511 13.4037 11.9894 13.4338C11.8532 13.4403 11.7199 13.4819 11.582 13.4663C11.5709 13.3622 11.6592 13.32 11.716 13.263C12.6891 12.2868 13.6638 11.3121 14.6397 10.3388C14.7159 10.2626 14.7793 10.1735 14.8687 10.1109Z" fill="#A3B9C4"/>
<path d="M3.20408 27.5512C3.38991 27.32 3.60679 27.1185 3.83114 26.9276C4.81312 26.0924 5.87637 25.3721 6.98926 24.7241C7.7914 24.2571 8.5716 23.7576 9.29461 23.1737C9.71654 22.833 10.1003 22.4542 10.4168 22.0104C10.5965 21.7583 10.7402 21.4892 10.8321 21.193C10.8371 21.1768 10.8447 21.1612 10.8489 21.1447C10.9076 20.9072 11.0801 20.7704 11.379 20.9849C11.3191 21.6553 11.0333 22.2303 10.6188 22.7455C10.0615 23.4384 9.34674 23.946 8.607 24.4213C7.62495 25.0522 6.5909 25.5987 5.62516 26.2559C5.14916 26.5798 4.69454 26.9313 4.28613 27.3391C4.11256 27.5124 3.96612 27.7093 3.8127 27.8999C3.70714 28.0311 3.57887 28.1348 3.42801 28.2053C3.20508 28.3095 3.05686 28.2085 3.06077 27.9642C3.06312 27.8107 3.11918 27.6761 3.20408 27.5512Z" fill="#76A708"/>
<path d="M36.236 12.8123C35.967 12.8353 35.8369 12.9811 35.8219 13.275C35.807 13.5648 35.8838 13.8388 35.972 14.1089C36.1496 14.6527 36.4182 15.1537 36.7106 15.6428C37.2017 16.4648 37.7709 17.2307 38.3828 17.9656C38.5974 18.2232 38.8169 18.4766 39.0341 18.7319C38.9611 18.7405 38.9214 18.6826 38.8748 18.6458C37.6752 17.6997 36.6062 16.6281 35.7502 15.3565C35.1955 14.5326 34.7237 13.6652 34.4326 12.7093C34.3681 12.4973 34.3122 12.2829 34.2735 12.0644C34.2489 11.9251 34.2732 11.9007 34.4123 11.9443C34.6727 12.0259 34.9299 12.1177 35.1784 12.2306C35.5455 12.3974 35.9091 12.5717 36.236 12.8123Z" fill="#76A708"/>
<path d="M28.1981 20.2777C27.9511 20.5792 27.6407 20.7937 27.2769 20.9262C27.0838 20.9966 26.8831 20.9825 26.6947 20.8988C26.4146 20.7744 26.1216 20.7257 25.8175 20.7146C25.2952 20.6954 24.7732 20.6686 24.2511 20.6423C24.1151 20.6355 23.9786 20.6228 23.8486 20.5785C23.7441 20.5428 23.7308 20.5065 23.7996 20.4175C23.9419 20.2334 24.0813 20.0462 24.2613 19.8952C24.7871 19.5323 25.3778 19.3468 26.0049 19.2691C26.537 19.2032 27.0557 19.3067 27.5714 19.4208C27.7328 19.4565 27.8843 19.5225 28.0197 19.6213C28.2546 19.7927 28.3129 20.0059 28.1981 20.2777Z" fill="#BDF935"/>
<path d="M23.3413 19.8288C23.0961 20.0854 22.8231 20.2971 22.449 20.3024C22.095 20.3075 21.7465 20.2597 21.4129 20.1323C21.3069 20.0917 21.2032 20.0459 21.1054 19.987C20.889 19.8565 20.7857 19.6673 20.817 19.4155C20.8516 19.1369 20.9314 18.872 21.0901 18.6358C21.3163 18.3884 21.6259 18.3464 21.9301 18.3196C22.35 18.2825 22.7589 18.3626 23.1425 18.5357C23.696 18.7855 23.8007 19.2672 23.4159 19.7394C23.4015 19.757 23.3883 19.7754 23.3752 19.7939V19.794C23.3643 19.806 23.3539 19.8185 23.3413 19.8288Z" fill="#BDF935"/>
<path d="M3.20405 27.5512C3.17848 27.6963 3.09878 27.8272 3.09999 27.9802C3.10163 28.1893 3.20319 28.2625 3.39379 28.1762C3.54586 28.1073 3.68005 28.0083 3.77876 27.8729C4.19992 27.2959 4.7356 26.8408 5.30961 26.4266C6.01623 25.9167 6.77086 25.4828 7.51858 25.0379C8.2027 24.6308 8.88574 24.2219 9.51787 23.7343C10.0025 23.3606 10.4501 22.9501 10.7932 22.4396C11.0521 22.0542 11.2449 21.6378 11.3102 21.1712C11.3195 21.1052 11.3234 21.035 11.3789 20.985C11.4726 21.0424 11.4768 21.119 11.4496 21.22C11.2392 22.0026 10.8385 22.6733 10.2752 23.2517C9.84315 23.6954 9.34572 24.0549 8.82862 24.39C8.19301 24.8018 7.52691 25.1621 6.87506 25.5465C6.18781 25.9519 5.5173 26.3811 4.91466 26.9088C3.76395 27.9165 3.0653 29.1724 2.83852 30.6863C2.79892 30.9504 2.78339 31.2182 2.75676 31.4843C2.70975 31.543 2.79472 31.64 2.69864 31.6844C2.56979 30.9925 2.59507 30.3023 2.72328 29.6135C2.76096 29.4113 2.84158 29.2219 2.90433 29.0272C2.94436 28.9029 2.99536 28.7814 3.00654 28.6493C2.99322 28.6247 2.97592 28.6398 2.9596 28.6446C2.84465 28.7143 2.76715 28.8203 2.68774 28.9244C2.30426 29.4265 2.03617 29.9903 1.80611 30.5746C1.5955 31.1094 1.41252 31.6534 1.25918 32.2074C1.24764 32.249 1.24265 32.2931 1.19792 32.3379C1.17171 32.2632 1.18289 32.202 1.18375 32.1431C1.20063 30.9989 1.54479 29.9517 2.12399 28.9742C2.40056 28.5076 2.71936 28.072 3.0814 27.6682C3.11922 27.6261 3.15284 27.5794 3.20405 27.5512Z" fill="#BDF935"/>
<path d="M23.989 2.42743C23.9108 2.62715 23.8489 2.83263 23.7626 3.02985C23.5936 3.41589 23.4019 3.78947 23.1832 4.14951C22.8234 4.74203 22.4256 5.3087 22.0005 5.85542C21.771 6.15058 21.5381 6.4436 21.2886 6.72323C21.0093 7.03626 20.7427 7.36048 20.4657 7.67551C20.3308 7.82893 20.1894 7.97757 20.0479 8.12437C19.5109 8.68149 18.9904 9.25535 18.4244 9.78341C18.1581 10.0318 17.9047 10.2933 17.6356 10.5378C17.3752 10.7745 17.1179 11.0148 16.8576 11.2516C16.8158 11.2895 16.7695 11.3239 16.7212 11.3528C16.678 11.3786 16.6838 11.3309 16.6721 11.311C16.6924 10.9684 16.8482 10.6933 17.0958 10.4648C17.3926 10.1909 17.6957 9.92351 17.9868 9.6436C19.4316 8.25457 20.8238 6.81611 22.0603 5.23491C22.6212 4.51767 23.1505 3.77764 23.5893 2.97736C23.7067 2.76333 23.8119 2.5426 23.9227 2.32494C23.9447 2.30713 23.9378 2.27508 23.9566 2.25571L23.9566 2.25549C24.0422 2.26461 23.9996 2.32166 23.997 2.36368C23.9943 2.38491 23.9917 2.40621 23.989 2.42743Z" fill="#C8D5DB"/>
<path d="M33.393 45.2656C33.2697 45.3307 33.1311 45.3418 32.9986 45.3568C32.4373 45.4207 31.8741 45.422 31.3107 45.379C31.1122 45.3638 30.9133 45.356 30.7148 45.3375C30.2731 45.2963 29.8331 45.2432 29.3941 45.1809C29.2028 45.1538 29.0118 45.1234 28.8207 45.095C28.7817 45.0893 28.7403 45.093 28.7086 45.0623C28.9536 45.0535 29.1955 45.0952 29.439 45.1093C29.7405 45.1268 30.0397 45.1328 30.341 45.1072C30.5786 45.0871 30.8155 45.0681 31.0514 45.0291C31.8676 44.8943 32.6162 44.6022 33.2787 44.099C33.8635 43.6548 34.3216 43.1039 34.6762 42.4636C34.7165 42.3908 34.7616 42.3205 34.8135 42.2341C34.8549 42.3794 34.8061 42.4997 34.7889 42.6179C34.6982 43.2398 34.539 43.8423 34.2365 44.3996C34.1301 44.5954 33.9979 44.7733 33.8633 44.9493C33.7865 45.0497 33.6836 45.1004 33.5517 45.0945C33.4179 45.0883 33.2836 45.0931 33.1363 45.0931C33.1899 45.2283 33.3181 45.2047 33.393 45.2656Z" fill="#465461"/>
<path d="M37.5972 13.3656C37.4737 13.2577 37.3676 13.1325 37.2477 13.0203C36.6242 12.4372 35.8904 12.0344 35.1177 11.6926C35.0568 11.6656 34.9872 11.6537 34.9351 11.5898C34.9834 11.542 35.0486 11.5401 35.1046 11.5284C35.4432 11.4575 35.7828 11.3911 36.1223 11.3244C36.2128 11.3066 36.3012 11.3063 36.3888 11.3476C36.97 11.6214 37.5387 11.9183 38.0815 12.2629C38.095 12.2716 38.1041 12.2872 38.1153 12.2995C38.2768 12.4881 38.4523 12.6643 38.5599 12.8954C38.7187 13.2363 38.599 13.4372 38.222 13.4473C38.0092 13.4529 37.8046 13.3996 37.5972 13.3656Z" fill="#76A708"/>
<path d="M8.4729 27.6979C8.36236 27.7564 8.23935 27.7036 8.11528 27.738C8.18529 27.8109 8.27653 27.8276 8.35744 27.8585C8.80552 28.0298 9.26442 28.1494 9.74996 28.1384C10.4213 28.1231 10.9429 27.8526 11.2751 27.2538C11.2915 27.2243 11.3044 27.1918 11.337 27.1749C11.299 27.3771 11.2057 27.5601 11.1325 27.7495C10.9708 28.1678 10.7951 28.5793 10.5728 28.9713C10.3685 29.3312 10.1446 29.3268 9.82496 29.2865C9.70637 29.2715 9.59647 29.2203 9.48729 29.1729C8.75103 28.8526 8.12682 28.3791 7.59213 27.7837C7.56585 27.7544 7.53714 27.7259 7.53615 27.6674C7.69135 27.6375 7.84149 27.71 7.99647 27.6981C8.15431 27.6861 8.31399 27.697 8.4729 27.6979Z" fill="#465461"/>
<path d="M27.2021 5.37741C26.9035 5.81515 26.5309 6.18054 26.1074 6.496C26.0912 6.51708 26.0593 6.50903 26.0434 6.53047L26.0431 6.53061C25.6243 6.80461 25.1671 6.97463 24.6706 7.04094C24.3539 7.08325 24.0488 7.03788 23.7553 6.91943C23.6718 6.88574 23.5674 6.85939 23.5518 6.74087C23.9793 6.40874 24.4294 6.11117 24.9066 5.85518C24.9793 5.8648 25.0361 5.82014 25.0985 5.79692C25.6412 5.59493 26.1918 5.41893 26.7535 5.27826C26.8481 5.25461 26.9441 5.24721 27.0407 5.25703C27.1171 5.2648 27.1879 5.28417 27.2021 5.37741Z" fill="#BDF935"/>
<path d="M24.8995 22.7074C24.8087 22.7639 24.7587 22.84 24.6971 22.9027C24.526 23.0768 24.3516 23.0621 24.2179 22.8605C24.1654 22.7815 24.1199 22.697 24.0234 22.6108C23.9986 22.8741 23.9762 23.1092 23.9544 23.3444C23.9513 23.3784 23.9543 23.4131 23.949 23.4467C23.9397 23.5053 23.9055 23.5361 23.843 23.5324C23.752 23.5271 23.6607 23.5268 23.5701 23.5188C23.4568 23.5087 23.4442 23.4962 23.4495 23.3802C23.4573 23.2097 23.4713 23.0393 23.4835 22.8689C23.5125 22.4656 23.5414 22.0624 23.5716 21.6592C23.583 21.5068 23.5846 21.5103 23.7283 21.5041C23.9208 21.4958 24.0572 21.5812 24.1445 21.7468C24.2376 21.9235 24.3448 22.0911 24.4548 22.2571C24.4702 22.2802 24.4816 22.3082 24.5301 22.3247C24.69 22.1535 24.8562 21.9767 25.0211 21.7988C25.1553 21.654 25.3114 21.6134 25.4934 21.6791C25.5615 21.7037 25.5931 21.7508 25.579 21.8243C25.4873 22.2998 25.4503 22.7832 25.3754 23.261C25.3578 23.3735 25.3418 23.4863 25.3273 23.5992C25.319 23.6636 25.2832 23.6875 25.2221 23.6805C25.1372 23.6708 25.0523 23.6621 24.9678 23.6502C24.8434 23.6326 24.8314 23.6218 24.8424 23.4988C24.8576 23.3288 24.8824 23.1597 24.8989 22.9899C24.9075 22.9027 24.9337 22.8139 24.8995 22.7074Z" fill="white"/>
<path d="M28.1981 20.2778C28.1996 20.2324 28.196 20.1862 28.2034 20.1418C28.2377 19.9348 28.1641 19.7784 27.9949 19.6575C27.814 19.5282 27.6065 19.4679 27.3952 19.425C27.1118 19.3675 26.8239 19.3399 26.5359 19.3102C25.9082 19.2454 25.3352 19.4288 24.7704 19.6622C24.598 19.7333 24.4309 19.8171 24.2614 19.8952C24.5456 19.5627 24.8879 19.301 25.267 19.0882C25.6618 18.8666 26.0794 18.709 26.5335 18.654C26.8731 18.6128 27.2034 18.6609 27.5301 18.74C27.9098 18.832 28.2582 18.999 28.5807 19.2189C28.756 19.3384 28.7743 19.3936 28.6865 19.5895C28.5694 19.8504 28.4241 20.0932 28.1981 20.2778Z" fill="#76A708"/>
<path d="M31.6457 5.92424C31.5956 5.7793 31.4695 5.77659 31.3534 5.78464C31.1558 5.79831 30.9577 5.82046 30.7626 5.85479C30.2543 5.94418 29.7508 6.05672 29.2499 6.18108C29.1709 6.20066 29.0985 6.22894 29.0306 6.27061C28.2828 6.72944 27.4974 7.1127 26.6854 7.44326C25.8005 7.80344 24.8965 8.10415 23.9659 8.32267C23.9266 8.33193 23.89 8.34781 23.8523 8.32118C24.4468 7.92666 25.0825 7.60871 25.7324 7.31826C27.1707 6.67566 28.6683 6.21184 30.198 5.84682C30.7897 5.70558 31.384 5.57502 31.9773 5.43998C32.0102 5.4325 32.044 5.42438 32.0872 5.44475C32.0513 5.55885 31.948 5.6159 31.8758 5.69625C31.8037 5.77645 31.7228 5.8486 31.6457 5.92424Z" fill="#FAFFAD"/>
<path d="M20.5397 21.4522C20.6761 21.4522 20.8127 21.4528 20.9491 21.452C21.0335 21.4515 21.0742 21.4882 21.0704 21.5762C21.0671 21.65 21.0695 21.7243 21.0745 21.798C21.0805 21.8874 21.0393 21.9166 20.9535 21.9184C20.7375 21.9228 20.5216 21.9327 20.3057 21.9431C20.1968 21.9484 20.1877 21.9619 20.1864 22.0804C20.185 22.206 20.2066 22.2445 20.3037 22.2447C20.5024 22.2451 20.7011 22.2345 20.8998 22.2312C21.0587 22.2285 21.0645 22.2354 21.0688 22.3894C21.0705 22.4519 21.0702 22.5145 21.0733 22.577C21.0775 22.6641 21.0369 22.6997 20.9508 22.6997C20.7631 22.6997 20.5753 22.7026 20.3877 22.7074C20.2387 22.7112 20.1684 22.849 20.2468 22.9764C20.2773 23.0257 20.324 23.0162 20.3684 23.0152C20.5618 23.0107 20.7551 23.0042 20.9486 23.0006C21.094 22.9979 21.094 22.9995 21.1098 23.15C21.142 23.457 21.132 23.4552 20.8295 23.4677C20.5288 23.4802 20.2271 23.4822 19.9271 23.5166C19.7674 23.5349 19.7637 23.5257 19.752 23.3705C19.7097 22.8089 19.6669 22.2474 19.6239 21.6859C19.6122 21.5334 19.6208 21.5194 19.7733 21.5084C20.0286 21.4897 20.2833 21.4617 20.5397 21.4522Z" fill="white"/>
<path d="M16.2612 10.9405C16.2164 11.0517 16.2163 11.0516 16.0848 11.1727C15.7845 11.4494 15.4871 11.7293 15.1833 12.0019C14.8332 12.3161 14.4785 12.6249 14.1338 12.9454C13.9182 13.1458 13.6974 13.3417 13.475 13.5346C13.3002 13.6861 13.1435 13.8596 12.9398 13.9795C12.6692 14.1387 12.3854 14.2364 12.0684 14.2231C12.029 14.2215 11.9877 14.2279 11.9592 14.1905C12.166 14.1261 12.3275 13.9947 12.4819 13.8482C13.4565 12.924 14.4483 12.019 15.4783 11.1566C15.7401 10.9375 16.0077 10.7257 16.2863 10.5281C16.3221 10.5028 16.351 10.4621 16.4291 10.4689C16.355 10.6248 16.2978 10.7796 16.2612 10.9405Z" fill="#C8D5DB"/>
<path d="M23.2413 23.48C23.0959 23.5015 22.949 23.476 22.8022 23.4731C22.7394 23.4718 22.7061 23.4327 22.6858 23.3688C22.6278 23.1854 22.5821 23.1581 22.3909 23.1583C22.2772 23.1584 22.1635 23.1534 22.0498 23.1508C21.9165 23.1478 21.8937 23.1623 21.8433 23.2816C21.7712 23.4523 21.7712 23.452 21.5806 23.4508C21.4794 23.4502 21.3782 23.4507 21.28 23.4507C21.2582 23.373 21.3012 23.3271 21.3206 23.2763C21.5354 22.7129 21.7704 22.1579 22.0114 21.6055C22.0923 21.4198 22.2368 21.362 22.4253 21.4377C22.503 21.4689 22.5266 21.5424 22.5538 21.6099C22.7153 22.0107 22.8764 22.4117 23.0343 22.8139C23.1007 22.9832 23.1588 23.1558 23.2202 23.3271C23.2371 23.3745 23.2633 23.4208 23.2413 23.48Z" fill="white"/>
<path d="M35.2781 9.26497C35.1682 9.34951 35.0325 9.34823 34.9065 9.36312C34.5109 9.40977 34.1148 9.41319 33.7163 9.37629C33.4165 9.34852 33.1187 9.3139 32.821 9.27117C32.2698 9.19204 31.727 9.07394 31.1883 8.93563C30.9418 8.87231 30.6904 8.82487 30.4547 8.72359C31.0108 8.61917 31.5717 8.59795 32.1351 8.62922C33.1616 8.68612 34.1596 8.89367 35.1368 9.20742C35.1851 9.22288 35.231 9.2456 35.2781 9.26497Z" fill="#FAFFAD"/>
<path d="M31.5811 7.48997C32.061 7.30792 32.5578 7.19659 33.0676 7.14567C33.1967 7.13278 33.3257 7.10144 33.4572 7.12102C33.7057 7.15243 33.9476 7.21091 34.1737 7.31946C34.2857 7.37323 34.4021 7.43527 34.3767 7.59538C34.1489 7.7577 33.8986 7.87515 33.6359 7.96782C33.0804 8.14453 32.5266 8.13157 31.9762 7.94723C31.83 7.8983 31.6868 7.83548 31.5902 7.70699C31.5409 7.64147 31.4737 7.56668 31.5811 7.48997Z" fill="#BDF935"/>
<path d="M23.375 19.7939C23.3947 19.6965 23.4701 19.628 23.5066 19.5387C23.5651 19.3959 23.6122 19.255 23.5886 19.0946C23.5636 18.9241 23.4737 18.8012 23.3422 18.7024C23.1127 18.53 22.8411 18.4613 22.5678 18.4064C22.23 18.3384 21.8913 18.3406 21.5544 18.4275C21.3866 18.4707 21.242 18.5603 21.09 18.6358C21.2575 18.2449 21.5566 18.0317 21.9755 17.9814C22.4166 17.9283 22.8579 17.8859 23.3021 17.9487C23.4829 17.9743 23.6619 18.0073 23.8269 18.0889C24.0925 18.2202 24.186 18.4135 24.1277 18.7035C24.1187 18.7478 24.1081 18.7929 24.0905 18.8345C23.9309 19.2127 23.6921 19.5326 23.375 19.7939Z" fill="#76A708"/>
<path d="M8.75322 24.8162C8.75308 24.9191 8.71561 24.9829 8.68028 25.0466C8.52402 25.328 8.42623 25.6312 8.37744 25.9463C8.31711 26.3358 8.31825 26.7246 8.47865 27.0979C8.52715 27.2107 8.50607 27.2489 8.38363 27.2796C7.9706 27.3831 7.59588 27.2983 7.25878 27.0419C7.22288 27.0146 7.19289 26.9791 7.16269 26.945C7.13228 26.9107 7.12886 26.8688 7.1607 26.8367C7.34766 26.6481 7.4003 26.4042 7.44268 26.1568C7.4597 26.0574 7.50934 25.9912 7.60286 25.9546C7.82979 25.8656 7.97423 25.6794 8.12815 25.5049C8.24916 25.3677 8.34489 25.2149 8.42573 25.0504C8.48762 24.9244 8.62074 24.8862 8.75322 24.8162Z" fill="#253039"/>
<path d="M23.5517 6.74083C23.7797 6.93655 24.0602 6.98705 24.3437 7.00336C24.741 7.0263 25.1182 6.92238 25.4847 6.77559C25.6273 6.71846 25.7651 6.65208 25.9022 6.58349C25.947 6.56113 25.9875 6.52487 26.0432 6.53064C25.8858 6.69147 25.6905 6.79539 25.4889 6.88527C25.0477 7.08185 24.6128 7.29097 24.1965 7.53598C23.7695 7.78734 23.2958 7.9065 22.8255 8.03591C22.7133 8.06682 22.6024 8.1196 22.47 8.0951C22.6845 7.51939 23.0178 7.05044 23.5517 6.74083Z" fill="#76A708"/>
<path d="M19.0623 21.5604C19.431 21.5219 19.363 21.5786 19.3924 21.8731C19.4012 21.9617 19.3611 21.9952 19.2762 21.9979C19.1741 22.0012 19.0722 22.011 18.9703 22.0197C18.8435 22.0305 18.8205 22.0514 18.8321 22.1784C18.8556 22.4385 18.8863 22.698 18.9136 22.9578C18.9314 23.1273 18.9507 23.2967 18.965 23.4665C18.9746 23.5819 18.9676 23.5888 18.8502 23.6071C18.7774 23.6185 18.7033 23.6222 18.63 23.6313C18.4908 23.6484 18.4781 23.6405 18.4609 23.497C18.4122 23.0912 18.365 22.6853 18.3173 22.2793C18.2977 22.1132 18.2955 22.1098 18.1274 22.1238C18.0256 22.1323 17.924 22.1449 17.8227 22.1588C17.7356 22.1708 17.6975 22.1355 17.6934 22.0479C17.6903 21.9801 17.6715 21.9132 17.6654 21.8454C17.6564 21.7452 17.6729 21.7238 17.7705 21.7112C17.9844 21.6835 18.1988 21.659 18.4129 21.6324C18.627 21.6058 18.8402 21.5709 19.0623 21.5604Z" fill="white"/>
<path d="M16.0078 21.7558C16.0674 22.0025 16.1175 22.2509 16.1584 22.5012C16.1801 22.6335 16.1288 22.7595 16.1217 22.8896C16.1191 22.9359 16.0738 22.9524 16.0376 22.9652C15.8451 23.0332 15.6538 23.1075 15.4493 23.1315C15.0208 23.1817 14.592 23.2293 14.1633 23.2773C14.1355 23.2804 14.1071 23.2777 14.08 23.2777C14.0535 23.2264 14.0935 23.2023 14.1178 23.1752C14.2931 22.9798 14.4914 22.8097 14.7038 22.6563C15.0905 22.3768 15.4784 22.0991 15.8666 21.8217C15.9067 21.7931 15.9431 21.753 16.0078 21.7558Z" fill="white"/>
<path d="M38.6199 15.8668C38.4738 15.7973 38.3701 15.6733 38.2521 15.5698C37.9367 15.2932 37.6329 15.004 37.3595 14.6842C37.075 14.3515 36.8058 14.0085 36.6241 13.6067C36.5354 13.4104 36.4556 13.2095 36.4753 12.9861C36.7457 13.1565 36.9761 13.3748 37.1986 13.6006C37.8033 14.2141 38.2565 14.9272 38.5753 15.7265C38.5858 15.7527 38.5922 15.7805 38.6004 15.8075L38.6051 15.8154C38.61 15.8325 38.6149 15.8496 38.6199 15.8668Z" fill="#FAFFAD"/>
<path d="M16.7825 9.78112C16.793 9.73974 16.8274 9.71631 16.8546 9.68817C17.2464 9.28361 17.6401 8.88091 18.0306 8.475C18.6142 7.86823 19.1963 7.26004 19.7775 6.65092C19.9265 6.49487 20.0573 6.32151 20.2243 6.18262C20.2126 6.30042 20.2091 6.41987 20.1869 6.53561C20.1607 6.67158 20.0934 6.78803 19.9926 6.88831C19.3026 7.57428 18.6152 8.26282 17.927 8.95049C17.7258 9.15156 17.5216 9.34992 17.3243 9.55477C17.1746 9.71018 17.0077 9.81225 16.7825 9.78112Z" fill="#465461"/>
<path d="M21.0187 20.3757C21.2537 20.513 21.4339 20.7054 21.5838 20.9247C21.5579 20.9734 21.5195 20.9586 21.4894 20.9586C20.8801 20.9585 20.2725 20.9999 19.6646 21.0308C19.4999 21.0392 19.3354 21.0534 19.1709 21.065C19.1001 21.0755 19.0021 21.1128 18.9698 21.0443C18.9376 20.9759 19.0239 20.9144 19.0787 20.8678C19.5011 20.5078 19.9687 20.2556 20.5434 20.2606C20.7117 20.2619 20.8715 20.2913 21.0187 20.3757Z" fill="#BDF935"/>
<path d="M7.66247 15.3867C6.95022 16.2169 6.21589 16.9828 5.41112 17.7057C5.38505 17.6485 5.38954 17.6051 5.40172 17.565C5.42971 17.4725 5.45599 17.3788 5.4941 17.2903C5.85093 16.4622 6.42714 15.8441 7.25307 15.4695C7.37123 15.4158 7.49474 15.3691 7.66247 15.3867Z" fill="#A3B9C4"/>
<path d="M31.5811 7.48999C31.538 7.55338 31.5623 7.61015 31.6026 7.6615C31.6558 7.72945 31.7226 7.78102 31.8002 7.82083C32.0522 7.95032 32.3233 8.01328 32.6021 8.0303C32.9198 8.04968 33.2384 8.04547 33.5512 7.96891C33.5779 7.96235 33.6076 7.96791 33.6359 7.96784C33.3145 8.12361 33.0002 8.25431 32.6173 8.22233C31.8073 8.15466 30.9952 8.16271 30.1976 8.36392C30.1208 8.38329 30.0415 8.39355 29.9629 8.40424C29.8848 8.41485 29.8059 8.42062 29.7266 8.42859C29.8281 8.26798 31.038 7.65616 31.5811 7.48999Z" fill="#76A708"/>
<path d="M37.5972 13.3655C37.6502 13.306 37.7111 13.3403 37.7705 13.3502C37.9269 13.3763 38.0824 13.4114 38.2427 13.4006C38.2767 13.3983 38.3114 13.4004 38.3447 13.3943C38.5698 13.3526 38.6465 13.2078 38.558 12.9946C38.465 12.7708 38.3138 12.5868 38.1585 12.4051C38.1345 12.3771 38.0695 12.3586 38.1155 12.2994C38.484 12.5391 38.8323 12.8037 39.1277 13.1318C39.2813 13.3024 39.405 13.493 39.4835 13.7098C39.5276 13.8316 39.511 13.8555 39.3853 13.8877C39.2451 13.9235 39.102 13.9229 38.9607 13.9089C38.7113 13.8843 38.465 13.8373 38.2259 13.7615C37.9831 13.6846 37.7731 13.551 37.5972 13.3655Z" fill="#BDF935"/>
<path d="M14.8687 10.1109C14.8572 10.1984 14.7881 10.2452 14.7327 10.3006C13.7243 11.3098 12.7153 12.3184 11.7069 13.3276C11.6631 13.3715 11.612 13.4095 11.5821 13.4662C11.506 13.4814 11.4306 13.5134 11.354 13.4825C11.3331 13.4255 11.3762 13.4048 11.4007 13.3777C12.3538 12.3266 13.3394 11.3075 14.3901 10.3527C14.5039 10.2493 14.62 10.1481 14.7509 10.0663C14.8049 10.0327 14.8607 10.0137 14.8687 10.1109Z" fill="#C8D5DB"/>
<path d="M11.9895 13.4337C12.685 12.7124 13.3822 11.9932 14.1739 11.3739C14.2729 11.2965 14.3783 11.229 14.4882 11.1691C14.6523 11.0795 14.6997 11.0872 14.8267 11.2103C14.2333 11.7219 13.6472 12.2413 13.0877 12.7904C12.9584 12.9174 12.8095 13.0277 12.6934 13.1663C12.5327 13.3581 12.3255 13.4195 12.0916 13.4324C12.0577 13.4344 12.0235 13.4334 11.9895 13.4337Z" fill="#465461"/>
<path d="M33.9992 23.8862C34.1038 23.659 34.2221 23.4723 34.3326 23.2819C34.5436 22.9184 34.7671 22.5627 35.0043 22.2156C35.0236 22.1875 35.0436 22.16 35.0631 22.132C35.0798 22.108 35.0998 22.084 35.1311 22.0922C35.1645 22.1009 35.1643 22.1337 35.1649 22.1621C35.1682 22.3047 35.1595 22.45 35.1191 22.5838C34.9918 23.0051 34.9653 23.4422 34.8971 23.8727C34.8774 23.9972 34.8616 24.0166 34.7286 23.9987C34.4931 23.9669 34.2587 23.9267 33.9992 23.8862Z" fill="#76A708"/>
<path d="M2.79108 19.6561C2.81067 19.6665 2.86687 19.6688 2.82662 19.7019C2.4898 19.9791 2.3111 20.3585 2.14322 20.7448C1.91409 21.272 1.75383 21.8218 1.62128 22.38C1.57178 22.5884 1.52848 22.7984 1.4814 23.0119C1.44536 22.9638 1.47662 22.9099 1.45689 22.8642C1.49464 22.5596 1.53033 22.2547 1.57064 21.9504C1.64607 21.3808 1.72648 20.8119 1.79963 20.242C1.81964 20.0862 1.88275 19.9734 2.03603 19.9202C2.28788 19.8328 2.53937 19.7442 2.79108 19.6561Z" fill="#C8D5DB"/>
<path d="M20.1658 4.98397C20.1766 5.10035 20.1259 5.1829 20.045 5.26702C19.7301 5.59423 19.4196 5.92592 19.1164 6.26389C18.8777 6.52998 18.636 6.79323 18.3933 7.05569C18.1236 7.34736 17.8557 7.64074 17.5859 7.93233C17.3316 8.20719 17.0812 8.48561 16.8263 8.76011C16.5522 9.05534 16.2795 9.35213 16.0077 9.64957C15.8051 9.87144 15.5979 10.0895 15.4005 10.3162C15.3636 10.3585 15.3272 10.404 15.273 10.4278C15.2525 10.2924 15.3362 10.2022 15.4156 10.1142C15.5795 9.9329 15.7493 9.75691 15.9151 9.5772C16.9518 8.45299 18.0065 7.34537 19.0289 6.2079C19.3671 5.83162 19.6959 5.44708 20.031 5.06795C20.0658 5.02842 20.0842 4.95228 20.1658 4.98397Z" fill="#C6D4DA"/>
<path d="M21.0187 20.3756C20.8771 20.367 20.7435 20.313 20.6006 20.3071C20.0983 20.2867 19.6694 20.4735 19.276 20.7654C19.1679 20.8456 19.0642 20.9297 18.9751 21.0388C19.0481 21.0795 19.1127 21.0434 19.1711 21.0649C19.0741 21.1031 18.9391 21.1384 18.8859 21.0684C18.8216 20.984 18.9459 20.9039 19.001 20.8301C19.1196 20.6713 19.2521 20.5221 19.3628 20.3582C19.5669 20.0557 19.8471 19.9441 20.1992 19.9987C20.5072 20.0464 20.7827 20.1693 21.0187 20.3756Z" fill="#76A708"/>
<path d="M10.3981 29.8365C10.8141 29.6927 11.0155 29.3558 11.2269 29.0231C11.2733 29.5134 11.2723 29.9979 11.2412 30.4842C11.1321 30.4501 10.6178 30.056 10.3981 29.8365Z" fill="#FEFEFE"/>
<path d="M9.50428 22.503C9.48576 22.3971 9.48206 22.2772 9.50414 22.1645C9.53797 21.9919 9.53142 21.8165 9.56233 21.644C9.62743 21.2803 9.64089 21.2851 9.93711 21.3965C10.0376 21.4343 10.1369 21.4753 10.2365 21.5154C10.3078 21.5441 10.3282 21.5871 10.2903 21.6616C10.2412 21.7581 10.1823 21.8477 10.1185 21.9341C9.96354 22.1437 9.80129 22.3468 9.58213 22.4952C9.56382 22.5075 9.54609 22.5233 9.50428 22.503Z" fill="#253039"/>
<path d="M19.5838 12.9928C19.6053 12.889 19.6341 12.7861 19.6466 12.6812C19.6768 12.4278 19.582 12.2086 19.4443 12.0038C19.5929 11.8103 19.761 11.6341 19.932 11.4609C20.0162 11.3755 20.0888 11.3995 20.122 11.5215C20.1753 11.7178 20.1755 11.9155 20.1069 12.1068C19.9893 12.4347 19.8199 12.7339 19.5838 12.9928Z" fill="#465461"/>
<path d="M18.1917 20.485C18.1113 20.5743 18.0493 20.6398 17.9912 20.7087C17.9401 20.7692 17.8782 20.8269 17.8474 20.8973C17.7305 21.1646 17.4916 21.2447 17.2411 21.3002C17.0039 21.3527 16.7625 21.3872 16.5194 21.4303C16.6326 21.2073 17.7989 20.5425 18.1917 20.485Z" fill="#FDFEFE"/>
<path d="M27.2021 5.37752C27.1519 5.31534 27.0879 5.29397 27.0076 5.29568C26.7598 5.3011 26.5274 5.37845 26.2952 5.44996C25.8886 5.57524 25.4862 5.71384 25.0809 5.8434C25.0264 5.86085 24.9685 5.91313 24.9066 5.85523C25.5304 5.51327 26.1752 5.22645 26.8848 5.11399C27.0078 5.09447 27.1319 5.07944 27.2561 5.07118C27.3502 5.06491 27.3809 5.1179 27.3321 5.20003C27.2949 5.26278 27.2459 5.31855 27.2021 5.37752Z" fill="#F8FEAC"/>
<path d="M0.91477 22.1195C0.819399 21.8114 0.7241 21.503 0.667404 21.1852C0.627305 20.9606 0.824171 20.7291 1.05302 20.7198C1.13058 20.7167 1.10822 20.7758 1.10515 20.8163C1.08514 21.0763 1.06883 21.3367 1.03991 21.5957C1.0204 21.7702 1.02161 21.9471 0.981151 22.1192C0.959071 22.1399 0.936992 22.1397 0.91477 22.1195Z" fill="#A2B8C3"/>
<path d="M34.3767 7.59542C34.3521 7.47213 34.2661 7.40547 34.1586 7.35839C33.9826 7.28125 33.7986 7.22833 33.6125 7.18346C33.5565 7.17 33.5046 7.15262 33.4571 7.12107C33.8509 7.09364 34.2384 7.14927 34.625 7.21273C34.7279 7.22961 34.746 7.29079 34.6688 7.36316C34.578 7.44806 34.4874 7.53488 34.3767 7.59542Z" fill="#F6FDAB"/>
<path d="M7.12227 25.7957C7.11266 26.014 7.10803 26.1964 7.03367 26.3663C7.00924 26.4222 7.00454 26.5142 6.91173 26.5026C6.8321 26.4926 6.75091 26.3594 6.76202 26.2783C6.7643 26.2615 6.76793 26.2441 6.77527 26.2291C6.8524 26.0701 6.94906 25.9266 7.12227 25.7957Z" fill="#FAFBFB"/>
<path d="M26.0713 21.2715C25.7115 21.2298 25.3516 21.1882 24.9919 21.1462C24.9093 21.1366 24.827 21.1256 24.7367 21.1143C24.9543 21.0133 25.5464 21.0673 26.1393 21.2374C26.142 21.2994 26.1034 21.279 26.0713 21.2715Z" fill="#6A9A09"/>
<path d="M2.69878 31.6844C2.75156 31.6275 2.70797 31.5425 2.7569 31.4844C2.76894 31.5622 2.76865 31.6397 2.74365 31.7151C2.73917 31.7287 2.72414 31.7482 2.70712 31.7294C2.69843 31.7198 2.7012 31.6998 2.69878 31.6844Z" fill="#5A7726"/>
<path d="M23.9969 2.36365C23.9794 2.32911 23.9985 2.28089 23.9566 2.25546C23.9554 2.22711 23.9572 2.19755 23.992 2.19292C24.0232 2.18872 24.0233 2.21707 24.0239 2.23744C24.025 2.28131 24.0247 2.32562 23.9969 2.36365Z" fill="#7B959F"/>
<path d="M26.0713 21.2715C26.0957 21.2637 26.124 21.2634 26.1392 21.2374C26.1735 21.2383 26.1971 21.257 26.2376 21.2873C26.1658 21.3051 26.1169 21.309 26.0713 21.2715Z" fill="#476C0E"/>
<path d="M0.914758 22.1194C0.936909 22.1194 0.958988 22.1193 0.981139 22.1191C0.987051 22.1506 0.995954 22.2001 0.964971 22.203C0.920242 22.2074 0.909772 22.1613 0.914758 22.1194Z" fill="#92A1AC"/>
<path d="M35.3041 43.5183C35.3179 43.5391 35.3092 43.5711 35.337 43.585C35.3326 43.6135 35.3203 43.6478 35.2917 43.6439C35.2539 43.6387 35.2719 43.6008 35.2764 43.5777C35.2804 43.5569 35.2945 43.538 35.3041 43.5183Z" fill="#9E9DA1"/>
<path d="M7.47315 25.5862C7.48035 25.596 7.49125 25.6044 7.49011 25.6106C7.4869 25.6283 7.47308 25.641 7.45492 25.6397C7.44167 25.6387 7.41347 25.6395 7.4322 25.6125C7.44075 25.6001 7.45926 25.5947 7.47315 25.5862Z" fill="#91979A"/>
<path d="M13.0172 23.5557C13.0145 23.5256 13.0237 23.502 13.0532 23.4894C13.0569 23.52 13.0455 23.5424 13.0172 23.5557Z" fill="#465461"/>
<path d="M2.95969 28.6447C2.96731 28.623 2.98305 28.6119 3.00485 28.6194C3.02258 28.6255 3.02386 28.6383 3.00663 28.6494C2.99096 28.6477 2.97536 28.6462 2.95969 28.6447Z" fill="#5F6324"/>
<path d="M23.9565 2.25574C23.964 2.288 23.9495 2.30951 23.9226 2.32497C23.9193 2.29477 23.9281 2.27048 23.9565 2.25574Z" fill="#7B959F"/>
<path d="M26.0434 6.53036C26.0543 6.49952 26.0784 6.4929 26.1074 6.49589C26.094 6.5221 26.0729 6.534 26.0434 6.53036Z" fill="#76A708"/>
<path d="M23.3413 19.8287C23.3436 19.8085 23.3539 19.7959 23.375 19.7939C23.3742 19.8157 23.3619 19.8262 23.3413 19.8287Z" fill="#76A708"/>
<path d="M38.6051 15.8155L38.5973 15.8149L38.6003 15.8074L38.6094 15.8078L38.6051 15.8155Z" fill="#BDF935"/>
<path d="M32.5082 22.4296C32.5075 22.4086 32.5229 22.4007 32.5383 22.3928C32.5382 22.4133 32.5295 22.4267 32.5082 22.4296Z" fill="#465461"/>
<path d="M29.4633 17.5707C29.4833 17.572 29.496 17.5816 29.4993 17.6021C29.478 17.6022 29.4664 17.5913 29.4633 17.5707Z" fill="#465461"/>
<path d="M34.3603 18.0309C34.1526 17.6333 33.9383 17.2583 33.7018 16.8971C33.5496 16.6648 33.3867 16.4387 33.2156 16.22C32.9844 15.9244 32.7348 15.6435 32.4568 15.3906C32.0909 15.0578 31.7 14.7589 31.2709 14.5085C30.7075 14.1796 30.1104 13.9321 29.4871 13.7477C29.0417 13.616 28.5889 13.5144 28.1313 13.4304C27.814 13.3721 27.4959 13.3186 27.1768 13.2774C26.936 13.2462 26.6947 13.2117 26.4518 13.1913C26.2836 13.1772 26.113 13.1746 25.946 13.1373C25.8246 13.1102 25.6974 13.114 25.5743 13.1044C25.3881 13.09 25.2019 13.0695 25.0151 13.0578C24.7724 13.0427 24.5285 13.0375 24.2879 12.9964C24.2712 12.9936 24.2537 12.9915 24.2369 12.9927C23.9804 13.0108 23.7283 12.9372 23.4719 12.9568C23.4015 12.9623 23.3385 12.9403 23.2464 12.9044C23.6709 12.8266 24.0633 12.7373 24.4628 12.6775C24.7534 12.634 25.0452 12.595 25.3363 12.5572C25.4978 12.5362 25.6642 12.5259 25.8261 12.5064C26.0628 12.4779 26.303 12.5036 26.5371 12.45C26.5806 12.44 26.6279 12.4452 26.6734 12.4452C26.9639 12.4445 27.2544 12.4464 27.5449 12.4435C27.9597 12.4393 28.3718 12.4677 28.7849 12.5071C29.2768 12.5541 29.7618 12.6325 30.2397 12.7528C30.9944 12.9428 31.7136 13.2219 32.355 13.6712C33.0142 14.133 33.5324 14.721 33.8712 15.4556C34.0788 15.9058 34.2143 16.3781 34.2888 16.8703C34.3422 17.2242 34.3697 17.5787 34.3838 17.9353C34.3845 17.9613 34.3925 17.9899 34.3603 18.0309Z" fill="#C8D5DB"/>
<path d="M8.36707 18.8724C8.33003 18.8275 8.29834 18.7831 8.32191 18.7181C8.3353 18.6812 8.33096 18.6379 8.3447 18.6013C8.389 18.4824 8.39036 18.4423 8.23701 18.4255C8.12854 18.4137 8.02775 18.3736 7.93886 18.3074C7.92077 18.2939 7.90069 18.2832 7.90268 18.2844C7.89022 18.2343 7.90646 18.2269 7.92248 18.2239C8.19926 18.1721 8.43181 18.0327 8.64492 17.8568C9.19912 17.3994 9.71977 16.9066 10.1919 16.3645C10.3683 16.1619 10.5813 16.0425 10.8456 15.9971C11.1256 15.949 11.4041 15.8904 11.6812 15.8272C12.071 15.7386 12.3999 15.5474 12.6449 15.2248C12.6518 15.2157 12.6586 15.2065 12.6661 15.198C12.7741 15.0744 12.812 15.0823 12.8849 15.2438C12.9453 15.4668 12.8201 15.6282 12.6933 15.7805C12.5772 15.9201 12.4396 16.0416 12.3098 16.1693C12.2097 16.2678 12.1384 16.383 12.105 16.5183C12.0558 16.7177 11.9889 16.9112 11.9252 17.106C11.9097 17.1534 11.8707 17.2095 11.9062 17.2517C11.9537 17.3082 12.0099 17.2496 12.0618 17.2371C12.0841 17.2317 12.1059 17.2265 12.1289 17.229C12.2457 17.1995 12.3192 17.1107 12.3942 17.0277C12.4815 16.9311 12.5584 16.8252 12.644 16.727C12.7354 16.622 12.7612 16.6233 12.878 16.721C13.0972 16.9448 12.9552 17.3482 12.7087 17.5678C12.5751 17.6869 12.4164 17.7649 12.2497 17.8252C11.8342 17.9756 11.4024 18.0326 10.9634 18.068C10.5132 18.1043 10.0527 18.0647 9.62041 18.256C9.26465 18.4135 8.92925 18.6022 8.61101 18.8243C8.53829 18.875 8.466 18.9462 8.36707 18.8724Z" fill="#011320"/>
<path d="M8.3671 18.8724C8.4394 18.8818 8.49474 18.8533 8.55357 18.8105C8.89396 18.562 9.25521 18.3493 9.6498 18.1974C9.93342 18.0882 10.2262 18.0461 10.5316 18.0424C11.0014 18.0367 11.4702 17.9951 11.9283 17.8793C12.1155 17.8319 12.2972 17.7684 12.4692 17.6777C12.8725 17.4647 13.0078 17.1511 12.8781 16.7211C13.0273 16.8287 13.1531 16.9595 13.2492 17.1159C13.3913 17.3473 13.3494 17.5665 13.1326 17.7322C12.9126 17.9002 12.6591 18.0035 12.3998 18.0901C11.7852 18.2954 11.1685 18.4941 10.553 18.6969C10.169 18.8233 9.80592 19.0028 9.42772 19.1439C9.1879 19.2333 8.94602 19.3181 8.68541 19.3218C8.63427 19.3225 8.58235 19.3236 8.53206 19.3161C8.38918 19.2946 8.32615 19.2172 8.32665 19.0715C8.32679 19.0024 8.33662 18.9354 8.3671 18.8724Z" fill="#465461"/>
<path d="M7.44667 17.713C7.32003 17.8283 7.22872 17.9741 7.11219 18.0981C7.07487 18.1379 7.03641 18.2107 6.97765 18.1721C6.92829 18.1397 6.95635 18.0657 6.97594 18.0129C7.03327 17.858 7.10215 17.7081 7.18584 17.5656C7.56105 16.9266 7.98997 16.3247 8.45158 15.746C8.62886 15.5238 8.85927 15.3669 9.11718 15.2525C9.8961 14.9072 10.7096 14.6826 11.5524 14.562C11.8285 14.5226 12.1047 14.4869 12.3845 14.4944C12.4455 14.4961 12.5106 14.4832 12.5627 14.5352C12.5458 14.606 12.4843 14.6119 12.4327 14.6273C12.3628 14.6479 12.288 14.654 12.2262 14.698C11.9086 14.8387 11.5709 14.9168 11.2408 15.0189C10.6321 15.2073 10.0257 15.4072 9.47601 15.7357C9.08919 15.9669 8.76604 16.2804 8.46255 16.6144C8.16461 16.9422 7.87045 17.2732 7.57943 17.607C7.54175 17.6503 7.4961 17.6842 7.44667 17.713Z" fill="#011320"/>
<path d="M4.06511 22.1242C4.03441 22.1786 4.0087 22.2367 3.9718 22.2864C3.91668 22.3606 3.84054 22.3795 3.75998 22.3501C3.67957 22.3207 3.63391 22.256 3.64146 22.164C3.64602 22.1081 3.66397 22.0529 3.67914 21.9982C3.7384 21.7846 3.82045 21.5779 3.86803 21.3608C3.8978 21.2251 3.89445 21.0908 3.86945 20.9547C3.84759 20.8354 3.77458 20.7804 3.66048 20.7645C3.55029 20.749 3.44495 20.777 3.33975 20.7994C3.26696 20.815 3.19452 20.8267 3.12052 20.8306C3.03655 20.835 2.97964 20.8009 2.95029 20.7193C2.92152 20.6394 2.94139 20.5737 3.0015 20.5188C3.02209 20.5 3.04702 20.4834 3.07294 20.4736C3.37829 20.3572 3.6921 20.2868 4.02152 20.2975C4.20799 20.3035 4.3498 20.3782 4.43462 20.5488C4.50236 20.6266 4.4921 20.7208 4.47344 20.8072C4.37971 21.2419 4.30492 21.6829 4.09089 22.0817L4.09004 22.0834C4.08263 22.0975 4.06974 22.1083 4.06511 22.1242Z" fill="#011320"/>
<path d="M7.44666 17.7131C7.93896 17.1084 8.45065 16.5215 9.03533 16.0029C9.27059 15.7942 9.53434 15.6304 9.82258 15.5008C10.5973 15.1526 11.4064 14.9099 12.2261 14.6981C12.2583 14.7436 12.2103 14.7439 12.1915 14.7515C11.8078 14.9077 11.4194 15.0531 11.0401 15.2193C10.5667 15.4267 10.0847 15.6189 9.64481 15.8947C9.5062 15.9816 9.37914 16.0882 9.25314 16.1934C8.95285 16.4441 8.65392 16.6964 8.35912 16.9534C8.11097 17.1696 7.8698 17.3938 7.62465 17.6135C7.57329 17.6596 7.53526 17.7324 7.44666 17.7131Z" fill="#C7D5DB"/>
<path d="M16.173 12.0173C16.353 12.2094 16.4989 12.403 16.6943 12.5551C17.0397 12.824 17.4015 13.0377 17.8464 13.102C18.0523 13.1318 18.2503 13.1224 18.4551 13.1014C18.3105 13.2133 18.1495 13.2867 17.9774 13.3366C17.7095 13.4144 17.4429 13.4701 17.1587 13.4067C16.8372 13.3351 16.5783 13.18 16.4016 12.9029C16.2342 12.6406 16.1166 12.3605 16.173 12.0173Z" fill="#C8D5DB"/>
<path d="M2.8861 21.727C2.88767 21.601 2.88546 21.4526 2.93119 21.3092C2.99215 21.1183 3.1304 21.0644 3.30213 21.1654C3.41958 21.2345 3.47627 21.3407 3.48546 21.4747C3.4997 21.6822 3.46487 21.8837 3.4022 22.0797C3.36423 22.1986 3.31487 22.3141 3.26573 22.429C3.24294 22.4822 3.20526 22.5278 3.13866 22.5277C3.06495 22.5275 3.02713 22.478 3.0017 22.4176C2.91195 22.2037 2.89222 21.9775 2.8861 21.727Z" fill="#011320"/>
<path d="M12.1289 17.229C12.0736 17.2911 11.9996 17.3189 11.9213 17.3317C11.8412 17.3448 11.8109 17.3131 11.8362 17.2386C11.9255 16.976 12.0091 16.712 12.0815 16.444C12.1125 16.3293 12.1818 16.2303 12.272 16.1466C12.3884 16.0386 12.4967 15.9221 12.6116 15.8124C12.7746 15.6567 12.863 15.4666 12.8849 15.2438C12.9817 15.37 12.9594 15.5134 12.9318 15.6511C12.8855 15.882 12.7771 16.0878 12.6477 16.283C12.5318 16.4578 12.4011 16.6227 12.2979 16.806C12.2227 16.9395 12.1466 17.0725 12.1289 17.229Z" fill="#465461"/>
<path d="M4.09087 22.0816C4.14293 21.9026 4.19137 21.7225 4.24792 21.545C4.32199 21.3126 4.36337 21.0724 4.42427 20.837C4.44884 20.7419 4.43253 20.6449 4.4346 20.5487C4.6705 20.6046 4.7331 20.7031 4.68837 20.9359C4.6284 21.2483 4.46572 21.5139 4.30525 21.7798C4.24165 21.8851 4.18424 21.9967 4.09087 22.0816Z" fill="#465461"/>
<path d="M4.06508 22.1243C4.06287 22.1042 4.07127 22.0906 4.09001 22.0833C4.09271 22.1036 4.08324 22.1166 4.06508 22.1243Z" fill="#465461"/>
<path d="M22.8982 39.5217C22.8863 39.5098 22.8744 39.4979 22.8625 39.486C22.9538 39.4084 23.0503 39.3404 23.1709 39.3162H23.171C23.1072 39.4207 22.998 39.4652 22.8982 39.5217Z" fill="#BACBD3"/>
<path d="M23.1709 39.3162C23.18 39.3026 23.1869 39.2866 23.1987 39.276C23.2137 39.2626 23.2338 39.2415 23.2501 39.273C23.2525 39.2777 23.2321 39.2987 23.2187 39.3058C23.2049 39.3132 23.187 39.313 23.1709 39.3162H23.1709Z" fill="#BACBD3"/>
<path d="M23.1688 26.2568C23.1903 26.2368 23.2154 26.2229 23.245 26.2238C23.5179 26.2321 23.7917 26.2112 24.0635 26.251C24.2631 26.2803 24.3278 26.3484 24.3425 26.5505C24.3496 26.6469 24.3532 26.7437 24.3536 26.8402C24.3573 27.9847 24.3602 29.1291 24.3637 30.2736C24.3638 30.3133 24.368 30.3529 24.3702 30.3926C24.3684 30.563 24.3629 30.7336 24.3654 30.9039C24.3695 31.1885 24.2452 31.393 23.9959 31.5264C23.767 31.6489 23.5164 31.6997 23.2666 31.7541C23.2074 31.767 23.1804 31.7369 23.1754 31.6837C23.1712 31.6385 23.1723 31.5928 23.1723 31.5473C23.1722 30.8021 23.1726 30.0569 23.1721 29.3117C23.1714 28.2934 23.1699 27.2751 23.1688 26.2568Z" fill="#011320"/>
<path d="M15.1722 30.5982C15.1547 30.8535 15.1693 31.1098 15.1416 31.3652C15.1248 31.5201 15.0726 31.648 14.9611 31.7575C14.7025 32.0111 14.39 32.1664 14.0487 32.2715C14.0287 32.2776 14.0052 32.2723 13.9701 32.2723C13.9701 31.757 13.9701 31.2456 13.9701 30.7341C13.9746 30.2731 13.9796 29.8122 13.9835 29.3512C13.991 28.4689 13.9977 27.5865 14.0054 26.7042C14.0068 26.537 14.0085 26.539 14.1785 26.525C14.3599 26.5101 14.5409 26.4896 14.7222 26.4743C14.7901 26.4685 14.8593 26.4633 14.9267 26.4702C15.0929 26.4874 15.1707 26.5687 15.1751 26.7382C15.1807 26.9602 15.1776 27.1823 15.1769 27.4044C15.1736 28.4407 15.1697 29.477 15.1664 30.5133C15.1662 30.5416 15.1701 30.5699 15.1722 30.5982Z" fill="#011320"/>
<path d="M22.4337 22.6975C22.3148 22.7123 22.1898 22.7505 22.1344 22.6893C22.0696 22.6177 22.1655 22.5157 22.1943 22.4278C22.21 22.38 22.2345 22.3352 22.2601 22.2776C22.3711 22.3975 22.3822 22.5441 22.4337 22.6975Z" fill="#091925"/>
<path d="M9.52948 17.7436C9.61445 17.6202 9.7391 17.5372 9.84437 17.4345C10.056 17.228 10.2861 17.0386 10.4223 16.7661C10.4602 16.6903 10.53 16.6478 10.6172 16.6487C10.7368 16.65 10.8568 16.6508 10.9756 16.6615C11.0667 16.6698 11.0826 16.6981 11.0502 16.7881C10.9847 16.9701 10.913 17.1499 10.8446 17.3308C10.8069 17.4305 10.736 17.4861 10.6311 17.5046C10.2835 17.5659 9.94202 17.6533 9.60206 17.7471C9.57713 17.7616 9.55277 17.7632 9.52948 17.7436Z" fill="#BCF835"/>
<path d="M9.52947 17.7437C9.55369 17.7449 9.57791 17.7461 9.60212 17.7474C9.58375 17.7721 9.55818 17.7833 9.52933 17.7748C9.50761 17.7685 9.50853 17.7541 9.52947 17.7437Z" fill="#7DA12A"/>
</svg>
