<svg width="40" height="50" viewBox="0 0 40 50" fill="none" xmlns="http://www.w3.org/2000/svg">
<path d="M37.7755 6.51982C36.3659 3.43612 33.9429 0.837004 31.6522 0C30.7711 2.42291 24.3394 20.6167 24.3394 20.6167L19.6258 12.9956L14.7359 20.7048C14.7359 20.7048 8.34824 2.51101 7.42313 0.0881057C5.13238 0.92511 2.70947 3.52423 1.29978 6.60793C-0.418285 10.3965 -0.418285 14.4934 1.21167 18.1938C2.4892 21.0132 3.01784 22.2907 3.37026 23.0837H1.38788L2.09273 29.8238L7.37907 32.6432L6.10154 34.2291L6.2337 41.7181H8.70066L9.58171 36.4317L10.9914 35.6828L19.6258 50L28.0839 35.5947L29.4936 36.3436L30.3747 41.63H32.8416L32.9738 34.141L31.6963 32.5551L36.9826 29.7357L37.6874 22.9956H35.7051C35.7051 22.9956 36.5861 20.9692 37.8637 18.1498C39.4936 14.4053 39.4496 10.3084 37.7755 6.51982Z" fill="black"/>
<path d="M14.1632 22.511C14.1632 22.511 8.70065 7.35686 6.93853 1.93835C2.79756 3.03968 -1.2553 11.5419 2.53325 18.6784C4.33941 22.1146 9.53765 30.7489 9.53765 30.7489L14.1632 22.511Z" fill="white"/>
<path d="M25.0002 22.511C25.0002 22.511 30.4628 7.35686 32.2249 1.93835C36.4099 3.03968 40.4628 11.5419 36.6743 18.7225C34.8681 22.1586 29.6698 30.793 29.6698 30.793L25.0002 22.511Z" fill="white"/>
<path d="M6.36585 28.9868L4.51563 27.7092L3.28215 24.4053H2.40109L2.84162 28.7225L8.30418 31.9824L6.36585 28.9868Z" fill="white"/>
<path d="M34.7359 27.7092L32.2249 28.7665L30.2866 31.8062L36.4099 28.7225L36.8504 24.4053H35.9694L34.7359 27.7092Z" fill="white"/>
<path d="M19.6258 37.8855L14.2073 36.5199L13.6786 37.6653L19.6258 47.7974L25.5289 37.6653L25.0002 36.5199L19.6258 37.8855Z" fill="white"/>
<path d="M23.6786 22.3349C22.2689 19.6476 19.6258 15.815 19.6258 15.771C19.6258 15.771 16.9385 19.6036 15.5729 22.3349L19.6258 28.8106L23.6786 22.3349Z" fill="#FFC629"/>
<path d="M28.128 31.1014C27.0707 29.4274 25.7051 27.1367 24.3394 24.3613L19.6258 32.4671L14.9121 24.4054C13.5465 27.1367 12.1808 29.4274 11.1236 31.1455L7.46717 34.097L7.02664 41.0133H7.9077L9.14118 35.1543L10.8592 34.4494L19.6258 35.6389L28.3923 34.4494L30.1103 35.1543L31.3438 40.9693H32.2249L31.7844 34.053L28.128 31.1014Z" fill="#FFC629"/>
</svg>
