<svg width="8" height="7" viewBox="0 0 8 7" fill="none" xmlns="http://www.w3.org/2000/svg">
<path d="M0.535278 3.72925V6.53287C0.535278 6.79081 0.745083 7.00015 1.00255 7.00015H3.3389V3.72925H0.535278Z" fill="#2B7BFB"/>
<path d="M7.07706 1.86009H5.59861C5.70468 1.78766 5.7958 1.7157 5.85935 1.65122C6.23644 1.27226 6.23644 0.655464 5.85935 0.276508C5.49301 -0.0926364 4.85472 -0.0917018 4.48884 0.276508C4.28605 0.479771 3.74869 1.30731 3.82298 1.86009H3.78934C3.86317 1.30731 3.32581 0.479771 3.12348 0.276508C2.75714 -0.0917018 2.11885 -0.0917018 1.75297 0.276508C1.37635 0.655464 1.37635 1.27226 1.75251 1.65122C1.81652 1.7157 1.90764 1.78766 2.01371 1.86009H0.535264C0.277798 1.86009 0.0679932 2.06989 0.0679932 2.32736V3.02827C0.0679932 3.15723 0.172662 3.2619 0.301629 3.2619H3.33889V2.32736H4.27343V3.2619H7.31069C7.43966 3.2619 7.54433 3.15723 7.54433 3.02827V2.32736C7.54433 2.06989 7.33499 1.86009 7.07706 1.86009ZM3.31132 1.84467C3.31132 1.84467 3.2917 1.86009 3.22488 1.86009C2.90199 1.86009 2.28566 1.52459 2.08427 1.32179C1.88848 1.1246 1.88848 0.803122 2.08427 0.605934C2.17912 0.510611 2.30482 0.458276 2.43846 0.458276C2.57163 0.458276 2.69733 0.510611 2.79218 0.605934C3.10712 0.922743 3.4202 1.73206 3.31132 1.84467ZM4.38698 1.86009C4.32063 1.86009 4.301 1.84514 4.301 1.84467C4.19213 1.73206 4.5052 0.922743 4.82014 0.605934C5.00845 0.415754 5.33788 0.41482 5.52806 0.605934C5.72431 0.803122 5.72431 1.1246 5.52806 1.32179C5.32666 1.52459 4.71033 1.86009 4.38698 1.86009Z" fill="#2B7BFB"/>
<path d="M4.27344 3.72925V7.00015H6.60979C6.86773 7.00015 7.07706 6.79081 7.07706 6.53287V3.72925H4.27344Z" fill="#2B7BFB"/>
</svg>
