<svg width="11" height="10" viewBox="0 0 11 10" fill="none" xmlns="http://www.w3.org/2000/svg">
<path d="M4.60326 0.816985C4.97008 0.0737394 6.02992 0.0737402 6.39674 0.816986L7.17763 2.39925C7.32329 2.6944 7.60486 2.89897 7.93057 2.94629L9.67671 3.20002C10.4969 3.31921 10.8244 4.32718 10.2309 4.90572L8.9674 6.13734C8.73172 6.36708 8.62417 6.69808 8.67981 7.02247L8.97808 8.76155C9.11819 9.57845 8.26076 10.2014 7.52713 9.81573L5.96534 8.99464C5.67402 8.84149 5.32598 8.84149 5.03466 8.99464L3.47287 9.81573C2.73924 10.2014 1.88181 9.57846 2.02192 8.76155L2.32019 7.02247C2.37583 6.69808 2.26828 6.36708 2.0326 6.13734L0.769082 4.90571C0.175565 4.32718 0.503075 3.31921 1.3233 3.20002L3.06943 2.94629C3.39514 2.89897 3.67671 2.6944 3.82237 2.39925L4.60326 0.816985Z" stroke="#2B7BFB"/>
</svg>
