<svg width="14" height="14" viewBox="0 0 14 14" fill="none" xmlns="http://www.w3.org/2000/svg">
<path d="M12.1134 0H1.88654C0.844654 0 0 0.844614 0 1.88653V12.1134C0 13.1553 0.84462 13.9999 1.88654 13.9999H6.93039L6.93899 8.99711H5.63925C5.47034 8.99711 5.33324 8.86053 5.33259 8.69162L5.32636 7.07901C5.32571 6.90918 5.46321 6.77116 5.63305 6.77116H6.93043V5.21296C6.93043 3.40469 8.03481 2.42007 9.64792 2.42007H10.9716C11.141 2.42007 11.2783 2.55737 11.2783 2.72676V4.08652C11.2783 4.25584 11.1411 4.39311 10.9718 4.39321L10.1594 4.39359C9.28219 4.39359 9.11232 4.81045 9.11232 5.42221V6.77119H11.04C11.2236 6.77119 11.3661 6.93157 11.3445 7.11398L11.1534 8.72659C11.1351 8.88091 11.0042 8.99718 10.8488 8.99718H9.12092L9.11232 14H12.1135C13.1554 14 14 13.1554 14 12.1135V1.88653C14 0.844614 13.1553 0 12.1134 0Z" fill="#173E7C"/>
</svg>
