<svg width="14" height="14" viewBox="0 0 14 14" fill="none" xmlns="http://www.w3.org/2000/svg">
<path d="M7.06592 5.37207C6.22291 5.37207 5.53662 6.05731 5.53662 6.90046C5.53662 7.74285 6.22288 8.42871 7.06592 8.42871C7.90895 8.42871 8.5953 7.74282 8.5953 6.90046C8.59527 6.05734 7.90892 5.37207 7.06592 5.37207Z" fill="#173E7C"/>
<path d="M8.90126 2.9165H5.23069C4.05 2.9165 3.0625 3.88659 3.0625 5.06626V8.73432C3.0625 9.91408 4.05 10.879 5.23069 10.879H8.90126C10.0818 10.879 11.0542 9.91408 11.0542 8.73432V5.06626C11.0542 3.88659 10.0818 2.9165 8.90126 2.9165ZM7.06592 9.34562C5.71457 9.34562 4.61892 8.25077 4.61892 6.90041C4.61892 5.54987 5.71457 4.45499 7.06592 4.45499C8.41733 4.45499 9.51291 5.54987 9.51291 6.90041C9.51291 8.25077 8.41733 9.34562 7.06592 9.34562ZM9.69649 4.59747C9.51635 4.59747 9.37032 4.45152 9.37032 4.27156C9.37032 4.09163 9.51635 3.94574 9.69649 3.94574C9.87642 3.94574 10.0225 4.09163 10.0225 4.27156C10.0225 4.45152 9.87642 4.59747 9.69649 4.59747Z" fill="#173E7C"/>
<path d="M10.5 0H3.5C1.56701 0 0 1.56701 0 3.5V10.5C0 12.433 1.56701 14 3.5 14H10.5C12.433 14 14 12.433 14 10.5V3.5C14 1.56701 12.433 0 10.5 0ZM11.9875 8.73448C11.9875 10.4223 10.5902 11.8125 8.90126 11.8125H5.23069C3.54171 11.8125 2.1875 10.4223 2.1875 8.73448V5.06642C2.1875 3.37875 3.54171 2.0125 5.23069 2.0125H8.90126C10.5902 2.0125 11.9875 3.37875 11.9875 5.06642V8.73448Z" fill="#173E7C"/>
</svg>
