<svg width="23" height="14" viewBox="0 0 23 14" fill="none" xmlns="http://www.w3.org/2000/svg">
<path d="M21.9691 12.4871C21.9095 12.3767 21.541 11.4902 19.7675 9.66827C17.9109 7.76041 18.1603 8.0702 20.3965 4.77132C21.7585 2.76224 22.303 1.53531 22.1326 1.01081C21.9705 0.510836 20.9687 0.64273 20.9687 0.64273L17.638 0.664201C17.638 0.664201 17.3913 0.627393 17.2071 0.748552C17.0283 0.868177 16.9133 1.14423 16.9133 1.14423C16.9133 1.14423 16.3855 2.69936 15.6816 4.02136C14.1977 6.81107 13.6033 6.95831 13.3609 6.785C12.797 6.38165 12.9383 5.1624 12.9383 4.29742C12.9383 1.59359 13.3082 0.46636 12.2164 0.174966C11.8534 0.0783461 11.5874 0.0139328 10.6605 0.00319722C9.47171 -0.0106056 8.46444 0.00779817 7.89499 0.316062C7.51536 0.521571 7.22302 0.980134 7.40175 1.00621C7.62205 1.03841 8.12083 1.15497 8.38547 1.55372C8.72769 2.06749 8.71522 3.22386 8.71522 3.22386C8.71522 3.22386 8.91196 6.40619 8.25661 6.80187C7.80632 7.07333 7.18976 6.51968 5.86659 3.98762C5.18907 2.69169 4.67643 1.25772 4.67643 1.25772C4.67643 1.25772 4.57806 0.990869 4.4021 0.848239C4.18873 0.674937 3.88946 0.619725 3.88946 0.619725L0.722164 0.641196C0.722164 0.641196 0.246932 0.656533 0.0723563 0.885047C-0.0828218 1.08902 0.0598866 1.50924 0.0598866 1.50924C0.0598866 1.50924 2.53996 7.93064 5.34702 11.1682C7.9227 14.1358 10.8461 13.941 10.8461 13.941H12.1707C12.1707 13.941 12.5711 13.8919 12.7748 13.6481C12.9632 13.4242 12.9563 13.004 12.9563 13.004C12.9563 13.004 12.93 11.0363 13.7557 10.7464C14.569 10.4612 15.6137 12.6482 16.7207 13.4901C17.5576 14.1266 18.1936 13.987 18.1936 13.987L21.1544 13.941C21.1544 13.941 22.7034 13.8352 21.9691 12.4871Z" fill="#112648"/>
</svg>
