<svg width="12" height="14" viewBox="0 0 12 14" fill="none" xmlns="http://www.w3.org/2000/svg">
<path d="M11.6251 11.8084L10.6235 10.1389C10.1609 9.36835 9.9165 8.48574 9.9165 7.58742V6.125C9.9165 4.27875 8.6845 2.71717 6.99983 2.21375V1.16668C6.99983 0.52325 6.47658 0 5.83315 0C5.18972 0 4.66647 0.52325 4.66647 1.16668V2.21375C2.98183 2.71717 1.74983 4.27875 1.74983 6.125V7.58742C1.74983 8.48574 1.5054 9.36774 1.0434 10.1383L0.0418293 11.8078C-0.0124207 11.8983 -0.0135964 12.0103 0.0383294 12.1018C0.0902551 12.1934 0.186505 12.25 0.291505 12.25H11.3748C11.4798 12.25 11.5766 12.1934 11.6286 12.1024C11.6805 12.0114 11.6787 11.8982 11.6251 11.8084Z" fill="white"/>
<path d="M3.99628 12.8333C4.32528 13.5205 5.02178 14 5.83317 14C6.64457 14 7.3411 13.5205 7.6701 12.8333H3.99628Z" fill="white"/>
</svg>
