<svg width="18" height="18" viewBox="0 0 18 18" fill="none" xmlns="http://www.w3.org/2000/svg">
<path fill-rule="evenodd" clip-rule="evenodd" d="M10.7257 3.71195H10.2096V3.61588C10.3548 3.61588 10.4354 3.58386 10.3709 3.47178C10.2741 3.27965 10.6935 3.29566 10.758 3.32768C10.8548 3.40774 10.7903 3.61588 10.7257 3.71195ZM10.0161 3.84003H10.6451C10.5806 3.95211 10.387 4.30435 10.258 4.30435C10.1935 4.2243 10.0322 4.00014 10.0161 3.84003ZM12.0483 3.08752C12.0161 3.10353 11.9838 3.11954 11.9515 3.11954C11.758 3.39172 11.8709 3.3597 11.5161 3.59987C11.5161 4.06419 11.5322 4.11222 11.6451 4.52851C11.6451 4.54452 11.6451 4.54452 11.6451 4.56053C11.6451 4.57654 11.629 4.57654 11.629 4.57654C11.5483 4.59255 11.4193 4.62458 11.3548 4.64059C11.3548 4.6566 11.387 4.91278 11.3548 5.12092C11.2903 5.42513 10.5483 6.09759 10.387 6.14562C10.1451 6.19365 9.8709 5.98551 9.43542 5.79337C9.32251 5.74534 8.91929 5.48917 8.70961 5.40911C8.53219 5.34507 8.3709 5.76135 8.58058 5.87343C8.67736 5.92146 8.83864 6.00152 8.88703 6.12961C9.03219 6.51388 8.8709 7.98688 8.56445 8.27508C8.41928 8.27508 8.29026 8.147 8.19348 8.17902C7.99993 8.2911 8.12897 8.8675 8.19348 8.96356C9.3709 10.1644 9.24187 11.061 9.74187 11.7335C9.96768 11.7335 9.82251 11.9736 9.99993 12.2618C10.0483 12.4059 9.9838 12.6461 9.96767 12.7422C9.96767 12.8703 9.96767 12.9823 9.96767 13.1104C9.95154 13.1424 9.93541 13.1905 9.93541 13.2225C9.93541 13.3346 9.93541 13.4306 9.93541 13.5427C9.90316 13.7028 9.85478 13.911 9.82252 14.0551C9.758 14.3593 10.0161 14.5994 9.85477 14.8876C9.85477 15.0638 9.85478 15.0317 9.74187 15.1758C9.74187 15.448 9.67736 16.0404 9.74187 16.2486C9.79026 16.3927 10.3064 17.0011 10.4515 17.0651C10.7741 17.2092 11.2419 17.1772 11.0806 17.6736C10.1451 17.9618 9.56445 17.5134 9.06445 17.5134L9.04832 17.5935C8.72574 17.5935 8.4838 17.5134 8.40316 17.4974C8.40316 17.4174 8.49993 16.7609 8.54832 16.6489C8.58058 16.6008 8.61284 16.5368 8.66123 16.4887C8.69348 16.3767 8.62897 15.5601 8.61284 15.3359C8.41929 15.1919 8.37091 14.7435 8.37091 14.5034C8.30639 14.3112 8.30638 14.0871 8.30638 13.8469C8.30638 13.7348 8.22574 13.5587 8.27413 13.4146C8.30638 13.3186 8.41929 13.2705 8.43541 13.1905C8.43541 13.0944 8.43541 13.0143 8.43541 12.9183C8.4838 12.6301 8.46768 12.502 8.29026 12.3259C7.85478 12.3259 7.79026 12.3579 7.56445 11.9896C7.48381 11.8776 6.88703 10.9169 6.82251 10.9009C6.32251 10.6767 6.41929 10.7728 6.19349 10.3725C6.17736 10.3725 6.04832 10.4206 5.93542 10.5967C5.758 10.8689 5.43541 11.7335 5.33864 12.0377C5.29025 12.2138 5.33864 12.3899 5.258 12.534C5.20961 12.6301 5.01607 12.6621 4.98381 12.7422C4.80639 13.0624 4.93542 13.0304 4.59671 13.2545C4.53219 13.3346 4.53219 13.4466 4.4838 13.5427C4.45155 13.5747 4.43542 13.6068 4.40316 13.6548C4.33864 13.7829 4.46768 13.991 4.43542 14.0711C4.3709 14.2632 4.30639 14.4714 4.22574 14.6475C4.06445 15.0157 4.09671 15.4961 3.93542 15.7202C3.85478 15.8323 3.66122 15.7202 3.51606 15.8163C3.49993 15.8963 3.27413 16.4087 3.22574 16.5528C3.22574 16.825 3.22574 17.0972 3.22574 17.3854C3.27413 17.5295 3.38703 17.6575 3.35477 17.8337C3.32251 18.0258 2.66122 18.0258 2.30638 17.9618C2.06445 17.9297 1.99994 17.7536 1.99994 17.5455C1.99994 17.3053 2.4838 15.7522 2.46768 15.6562C2.09671 15.2399 2.56445 14.8236 2.70961 14.4393C2.77413 14.2472 2.74188 13.991 2.80639 13.8149C2.93542 13.5747 3.06445 13.3506 3.19348 13.1104C3.43542 12.8863 3.32252 12.8702 3.45155 12.6781C3.56446 12.502 3.69349 12.3899 3.61284 12.1177C3.45155 11.5894 3.79026 10.8368 3.82252 10.2765C3.758 10.2124 3.56445 10.2284 3.5322 10.0683C3.48381 9.71608 3.66123 9.10766 3.77413 9.05963C3.82252 9.02761 3.88703 9.05963 3.91929 9.0276C3.91929 8.77143 3.66123 7.33044 3.85478 7.25038C3.98381 7.20235 4.258 7.18633 4.30639 7.15431C4.30639 7.09027 4.258 6.96219 4.20961 6.96219C4.12896 6.94618 3.95154 6.91415 3.80638 6.88213C3.3709 6.78607 3.77413 5.08889 3.77413 5.07288C3.88704 4.91277 4.45155 5.12091 4.51606 4.86474C4.69348 4.62457 4.3709 3.72796 4.99993 2.60719C5.20961 2.23893 5.62896 1.85467 6.09671 2.01478C6.258 2.06281 6.16123 2.30298 6.43542 2.0468C6.43542 1.9027 6.3709 1.79062 6.33864 1.66253C5.8709 0.285582 7.45154 -0.466935 8.56445 0.317606C8.69348 0.365639 8.758 0.39766 8.85478 0.461704C8.91929 0.781924 9.22574 1.3263 8.91929 1.69455C8.79025 1.72658 8.62897 1.79062 8.5322 1.85467C8.5322 1.98275 8.54832 2.09483 8.56445 2.17489C8.58057 2.23893 8.62897 2.27095 8.51606 2.31898C8.49993 2.31898 8.51606 2.36702 8.51606 2.38303C8.77413 2.43106 9.04832 2.335 9.22574 2.27095H9.43542V2.01478H9.4838H9.53219V1.80663H9.62897V2.15887H9.88703V2.27095H13.7096V2.46308H13.8709V1.74259H14.0161V2.335H14.3386V2.67123H15.3548V2.57516H15.5161V2.62319H15.9999V2.89538H15.5161V2.94341H15.3548V2.84735H14.3386V2.94341C14.1935 2.94341 14.0483 2.94341 13.887 2.94341V2.87937H13.6935V3.08752H12.0483Z" fill="#2B7BFB"/>
</svg>
