<svg width="18" height="18" viewBox="0 0 18 18" fill="none" xmlns="http://www.w3.org/2000/svg">
<path d="M18 6.10352e-05H15.7661L14.8359 0.465143L13.9057 6.10352e-05H9.52734L8.47266 0.527405H5.55757L4.50288 6.10352e-05H0V8.47272L0.527344 9.5274V12.4425L0 13.4972V18.0001H9L9.9302 17.535L10.8604 18.0001H18V10.8605L17.5349 9.93026L18 9.00006V6.10352e-05ZM4.74609 14.836L3.16406 13.254V10.0899L7.91016 14.836H4.74609ZM14.3086 14.836H12.1992L10.8322 13.2296L10.5503 12.0846L9.46512 11.6231L9 11.0766L3.16406 4.21881L4.21875 3.16412L9 6.75797L14.8359 11.1446L14.3086 14.836ZM14.8359 7.91022L10.0898 3.16412H13.2539L14.8359 4.74615V7.91022Z" fill="white" fill-opacity="0.5"/>
</svg>
