<svg width="18" height="18" viewBox="0 0 18 18" fill="none" xmlns="http://www.w3.org/2000/svg">
<path d="M8.61733 6.10352e-05H7.04785V14.9817H8.61733V6.10352e-05Z" fill="#25549E"/>
<path d="M4.69367 6.10352e-05H3.12419V14.9817H4.69367V6.10352e-05Z" fill="#25549E"/>
<path d="M2.58947 17.9977H0.7061L3.38893 14.1541L4.69356 14.9864L2.58947 17.9977Z" fill="#25549E"/>
<path d="M14.8511 17.9976H12.9677L16.1165 13.4901H17.9999L14.8511 17.9976Z" fill="#25549E"/>
<path d="M16.2043 14.9827V13.4865L7.04736 13.4865V14.9827L16.2043 14.9827Z" fill="#25549E"/>
<path d="M3.12412 3.47426L0.917038 6.10352e-05H8.6173V1.49635H3.12412V3.47426Z" fill="#25549E"/>
<path d="M14.49 17.9979V16.5016L1.83116 16.5016V17.9979L14.49 17.9979Z" fill="#25549E"/>
<path d="M10.187 3.21702C10.187 3.21702 13.2671 3.73137 14.866 6.61173C16.4649 9.4921 15.2534 12.0031 15.2534 12.0031H16.921C16.921 12.0031 18.2207 9.20219 16.1412 5.68123C14.0616 2.16027 10.187 1.67865 10.187 1.67865V3.21702Z" fill="#25549E"/>
<path d="M1.55477 5.05939V14.4673C1.55477 14.4673 0 12.8027 0 9.60437C0 6.40605 1.55477 5.05939 1.55477 5.05939Z" fill="#25549E"/>
</svg>
