<svg width="13" height="12" viewBox="0 0 13 12" fill="none" xmlns="http://www.w3.org/2000/svg">
<path d="M12.9661 4.53466C12.881 4.2811 12.6475 4.10101 12.3713 4.07703L8.61913 3.74887L7.13543 0.403834C7.02603 0.158687 6.77688 0 6.50005 0C6.22323 0 5.97408 0.158687 5.86468 0.404407L4.38098 3.74887L0.628233 4.07703C0.3525 4.10159 0.119615 4.2811 0.0340186 4.53466C-0.0515776 4.78821 0.0274724 5.06632 0.236057 5.24163L3.07224 7.6375L2.23591 11.186C2.17472 11.4469 2.27985 11.7166 2.5046 11.8731C2.62541 11.9572 2.76675 12 2.90928 12C3.03217 12 3.15406 11.9681 3.26346 11.905L6.50005 10.0418L9.73545 11.905C9.9722 12.0422 10.2706 12.0297 10.4949 11.8731C10.7198 11.7162 10.8248 11.4464 10.7636 11.186L9.92727 7.6375L12.7635 5.24211C12.972 5.06632 13.0517 4.78869 12.9661 4.53466Z" fill="white"/>
</svg>
