<svg width="15" height="14" viewBox="0 0 15 14" fill="none" xmlns="http://www.w3.org/2000/svg">
<path d="M14.3475 1.62435C13.0885 0.878131 11.7697 0.324569 10.3801 0V0.00123322L9.52294 1.60677C9.44305 1.59348 9.36424 1.58134 9.28674 1.57028C9.26335 1.52014 9.23587 1.47609 9.20396 1.43728C8.82239 0.974245 7.68798 0.99837 7.27023 1.20613C7.13697 1.27253 6.99557 1.38687 6.84885 1.54681C6.22068 1.63117 5.6159 1.78975 5.04573 2.01975L3.96751 0C2.57786 0.324569 1.25916 0.878131 0 1.62435L1.75977 4.65992C1.61248 4.82787 1.36818 5.2153 1.23099 5.48271C1.30575 5.62241 1.44757 5.76481 1.5924 5.85819C1.09657 6.51072 0.421569 7.73188 0.0852465 8.565C1.63888 10.2463 2.82493 11.0956 4.9495 10.1623L7.17412 14L14.3468 1.62677L14.3475 1.62435Z" fill="white"/>
<path d="M1.60738 5.45435C1.68215 5.54465 1.82994 5.6731 2.04298 5.76655C1.47974 6.49774 0.841744 7.60852 0.451738 8.49714C2.16912 10.2282 3.02536 10.7143 5.07805 9.76952L7.17411 13.3852L13.9255 1.73889C12.8775 1.13449 11.7403 0.666524 10.5386 0.359143L9.69015 1.94838C9.47711 1.90865 9.26438 1.875 9.05265 1.84942C9.03439 1.75739 9.00614 1.68174 8.9654 1.63233C8.70666 1.31824 7.75426 1.30892 7.40819 1.48114C7.28321 1.54334 7.14143 1.67353 7.00408 1.83704C6.27571 1.92352 5.57177 2.11336 4.90652 2.41358L3.80903 0.35791C2.60706 0.664982 1.46969 1.13264 0.421524 1.73669L2.12757 4.67966C1.94586 4.92145 1.77221 5.17942 1.60738 5.45435Z" fill="#111820"/>
<path d="M4.27979 5.08426C4.36734 5.18057 5.22204 5.36135 5.18601 4.68848C4.84383 4.71484 4.51044 4.87612 4.27979 5.08426Z" fill="#FF5000"/>
<path d="M5.8151 7.97233L5.90397 7.45777L6.49676 7.48362L6.31875 6.79541C5.24153 7.43248 5.00028 8.65041 4.7731 9.12682C5.30643 8.64991 6.15928 8.12567 7.30602 7.9346C7.22078 7.55326 7.01888 7.15582 6.81135 6.89295L6.87023 7.7848L6.14244 7.80264L5.99075 8.12201L5.54541 8.1624L5.29618 8.51737L5.43958 8.05418L5.8151 7.97233Z" fill="white"/>
<path d="M3.49714 2.57036C3.55984 2.4129 3.80907 2.15681 4.24428 2.04852L3.599 0.839844C2.69358 1.09535 1.81826 1.44817 0.988266 1.89221L2.38289 4.29799C2.66252 3.98787 3.01426 3.64662 3.44064 3.31823C3.40164 3.05795 3.4075 2.79539 3.49714 2.57036ZM10.1007 2.05464L10.7486 0.841193C11.6537 1.09697 12.529 1.45021 13.3588 1.89448L12.564 3.26548C12.168 3.01417 11.6018 2.77693 11.1059 2.61079L11.235 2.388C10.926 2.26892 10.5406 2.15461 10.1007 2.05464Z" fill="#FF5000"/>
<path d="M7.58574 3.13399C7.36789 3.08443 7.14899 3.04859 6.9356 3.02651C7.1883 2.5454 7.83902 2.12071 8.16782 2.21794C7.99136 2.31567 7.67111 2.69501 7.58574 3.13399ZM10.4961 2.85702L10.6274 2.63042C10.0816 2.46146 9.56333 2.34724 9.07216 2.27914C9.05339 2.57993 8.98056 2.92242 8.86845 3.19454C9.21113 3.43263 9.57948 3.90117 9.65952 4.31943C9.37519 3.89605 8.87111 3.57082 8.29662 3.34942C8.51775 2.9324 8.7047 2.152 8.56064 1.94497C8.4364 1.76654 7.8611 1.74265 7.55568 1.86863C7.22815 2.00386 6.79255 2.49449 6.39179 2.99294C6.42559 2.80029 6.53257 2.55265 6.67274 2.31167C4.03757 2.78661 2.56942 4.63351 2.10392 5.3119C2.19429 5.36601 2.29977 5.40486 2.41627 5.42836C2.49947 5.13204 3.01708 4.68974 3.25162 4.53362C3.05277 4.76882 2.83815 5.24893 2.87672 5.44663C3.77328 5.43804 4.29736 4.29349 5.72412 4.40872L5.46834 4.57875C5.52476 4.84443 5.45924 5.34223 4.81581 5.43962C4.99598 5.4891 5.14982 5.56633 5.26289 5.6811C3.9065 5.38686 3.29621 5.98443 2.45539 5.85598C1.81947 6.73743 1.3883 7.44349 0.925766 8.38039C1.30024 8.1808 2.17267 8.13802 2.65101 8.31646L2.67513 8.75386C2.21533 8.88116 2.14527 9.46462 2.85711 9.72279C3.32288 9.89167 4.20117 9.90604 4.53402 8.88536C4.8335 7.96722 5.42572 6.53938 6.9815 6.01573L6.79729 6.35987C7.24869 6.75971 7.67396 7.54854 7.77227 8.28154C6.61632 8.30474 5.56569 8.77861 4.77319 9.56794C5.58276 9.1026 6.36871 8.8694 7.38423 8.84289C8.66809 8.80936 9.00626 8.02669 8.63356 6.96723C9.11525 7.33716 9.25637 8.09058 8.93897 8.63339C8.6909 9.05778 8.16004 9.25898 7.4709 9.24307C6.68545 9.22488 5.99458 9.35171 5.51809 9.54428L6.34867 10.9769L6.6184 10.5116L7.49036 12.0178L12.3575 3.62166C11.896 3.32456 11.0971 3.01329 10.4961 2.85702Z" fill="white"/>
</svg>
