<svg width="10" height="7" viewBox="0 0 10 7" fill="none" xmlns="http://www.w3.org/2000/svg">
<path d="M9.99146 6.74951C9.95772 4.15497 7.56139 2.04198 4.57961 1.9476V0.583315C4.57961 0.261661 4.29949 0 3.95512 0C3.80021 0 3.65061 0.0554531 3.53473 0.156078C3.53473 0.156078 0.901367 2.43161 0.143926 3.1412C0.0512305 3.22855 0 3.35577 0 3.49989C0 3.64401 0.0512305 3.77123 0.143926 3.85877C0.901367 4.56816 3.53473 6.8437 3.53473 6.8437C3.65061 6.94435 3.80021 6.99978 3.95512 6.99978C4.29947 6.99978 4.57961 6.73812 4.57961 6.41647V5.05674C7.57725 5.09604 9.57555 5.97919 9.57555 6.80535C9.57555 6.91283 9.66865 6.99978 9.78371 6.99978C9.78697 7.00016 9.79022 6.99996 9.79184 6.99978C9.90689 6.99978 10 6.91281 10 6.80535C10 6.78597 9.99715 6.76718 9.99146 6.74951Z" fill="white"/>
</svg>
