<svg width="14" height="14" viewBox="0 0 14 14" fill="none" xmlns="http://www.w3.org/2000/svg">
<path d="M10.2539 6.01562C9.95187 6.01562 9.70703 5.77079 9.70703 5.46875C9.70703 5.31798 9.58437 5.19531 9.43359 5.19531C9.28282 5.19531 9.16016 5.31798 9.16016 5.46875C9.16016 5.77079 8.91532 6.01562 8.61328 6.01562C8.31124 6.01562 8.06641 5.77079 8.06641 5.46875C8.06641 4.71488 8.67973 4.10156 9.43359 4.10156C10.1875 4.10156 10.8008 4.71488 10.8008 5.46875C10.8008 5.77079 10.5559 6.01562 10.2539 6.01562ZM5.96094 5.46875C5.96094 4.71488 5.34762 4.10156 4.59375 4.10156C3.83988 4.10156 3.22656 4.71488 3.22656 5.46875C3.22656 5.77079 3.4714 6.01562 3.77344 6.01562C4.07548 6.01562 4.32031 5.77079 4.32031 5.46875C4.32031 5.31798 4.44298 5.19531 4.59375 5.19531C4.74452 5.19531 4.86719 5.31798 4.86719 5.46875C4.86719 5.77079 5.11202 6.01562 5.41406 6.01562C5.7161 6.01562 5.96094 5.77079 5.96094 5.46875ZM10.622 12.9912C10.8803 12.8347 10.9629 12.4984 10.8064 12.2401C10.6499 11.9818 10.3136 11.8992 10.0553 12.0557C9.13672 12.6121 8.08021 12.9062 7 12.9062C3.74328 12.9062 1.09375 10.2567 1.09375 7C1.09375 3.74328 3.74328 1.09375 7 1.09375C10.2567 1.09375 12.9062 3.74328 12.9062 7C12.9062 8.16454 12.5599 9.29808 11.9048 10.2781C11.7369 10.5292 11.8044 10.8688 12.0554 11.0367C12.3065 11.2046 12.6462 11.1371 12.814 10.886C13.5899 9.72546 14 8.38171 14 7C14 5.13023 13.2719 3.37239 11.9498 2.05023C10.6276 0.728137 8.86977 0 7 0C5.13023 0 3.37239 0.728137 2.05023 2.05023C0.728137 3.37239 0 5.13023 0 7C0 8.86977 0.728137 10.6276 2.05023 11.9498C3.37239 13.2719 5.13023 14 7 14C8.28004 14 9.5325 13.6512 10.622 12.9912ZM9.35156 7.95703C9.1735 7.95703 9.01578 8.04254 8.91592 8.17428C8.91592 8.17428 8.20449 8.94141 7 8.94141C5.79551 8.94141 5.08408 8.17428 5.08408 8.17428C4.98422 8.04254 4.8265 7.95703 4.64844 7.95703C4.3464 7.95703 4.10156 8.20187 4.10156 8.50391C4.10156 8.65952 4.16686 8.7996 4.2712 8.89919C4.37011 9.00889 5.34032 10.0352 7 10.0352C8.65968 10.0352 9.62989 9.00889 9.7288 8.89919C9.83314 8.7996 9.89844 8.65952 9.89844 8.50391C9.89844 8.20187 9.6536 7.95703 9.35156 7.95703Z" fill="#A7C9FF"/>
</svg>
