<svg width="20" height="25" viewBox="0 0 20 25" fill="none" xmlns="http://www.w3.org/2000/svg">
<path d="M1.5 8.00565C0.671579 8.00565 0 8.67722 0 9.50565V16.5056C0 17.3341 0.671579 18.0056 1.5 18.0056C2.32843 18.0056 3 17.3341 3 16.5056V9.50565C3 8.67722 2.32843 8.00565 1.5 8.00565Z" fill="#1E5EC6"/>
<path d="M18.5 8.00565C17.6716 8.00565 17 8.67722 17 9.50565V16.5056C17 17.3341 17.6716 18.0056 18.5 18.0056C19.3284 18.0056 20 17.3341 20 16.5056V9.50565C20 8.67722 19.3285 8.00565 18.5 8.00565Z" fill="#1E5EC6"/>
<path d="M15.5 8.00565H4.50002C4.22388 8.00565 4 8.22952 4 8.50566V16.5056C3.99977 17.6938 4.83583 18.718 6.00002 18.9557V22.5057C6.00002 23.3341 6.6716 24.0057 7.50002 24.0057C8.32844 24.0057 9.00002 23.3341 9.00002 22.5057V19.0056H11V22.5057C11 23.3341 11.6716 24.0057 12.5 24.0057C13.3285 24.0057 14 23.3341 14 22.5057V18.9557C15.1642 18.718 16.0003 17.6938 16.0001 16.5056V8.50566C16 8.22952 15.7761 8.00565 15.5 8.00565Z" fill="#1E5EC6"/>
<path d="M13.6351 2.07764L14.8541 0.859642C15.0527 0.667782 15.0582 0.351281 14.8664 0.152625C14.6745 -0.0459848 14.358 -0.0514692 14.1594 0.140344C14.1552 0.144375 14.1511 0.148453 14.1471 0.152625L12.7271 1.57266C10.9879 0.817173 9.01322 0.817173 7.27406 1.57266L5.85407 0.15164C5.65546 -0.0402192 5.33892 -0.0346879 5.14706 0.163922C4.95993 0.357703 4.95993 0.664876 5.14706 0.85861L6.36506 2.0776C4.8802 3.0601 3.99088 4.72515 4.00007 6.5056C4.00007 6.78174 4.22395 7.00562 4.50009 7.00562H15.5001C15.7763 7.00562 16.0001 6.78174 16.0001 6.5056C16.0093 4.72519 15.12 3.06015 13.6351 2.07764Z" fill="#1E5EC6"/>
<path d="M7.50002 5.00565C7.77617 5.00565 8.00003 4.78178 8.00003 4.50563C8.00003 4.22948 7.77617 4.00562 7.50002 4.00562C7.22387 4.00562 7 4.22948 7 4.50563C7 4.78178 7.22387 5.00565 7.50002 5.00565Z" fill="#1E5EC6"/>
<path d="M12.5 5.00565C12.7762 5.00565 13 4.78178 13 4.50563C13 4.22948 12.7762 4.00562 12.5 4.00562C12.2239 4.00562 12 4.22948 12 4.50563C12 4.78178 12.2239 5.00565 12.5 5.00565Z" fill="#1E5EC6"/>
</svg>
