<svg width="20" height="25" viewBox="0 0 20 25" fill="none" xmlns="http://www.w3.org/2000/svg">
<path d="M6.63085 24.3836C3.00185 24.3627 0 16.9546 0 13.1819C0 7.01913 4.62311 5.66994 6.40483 5.66994C7.20777 5.66994 8.06515 5.98526 8.82137 6.26429C9.35019 6.45893 9.89711 6.65985 10.2013 6.65985C10.3834 6.65985 10.8124 6.48893 11.1912 6.33896C11.999 6.01735 13.0043 5.61765 14.1749 5.61765C14.177 5.61765 14.1798 5.61765 14.1819 5.61765C15.0559 5.61765 17.7062 5.80948 19.2996 8.2023L19.6728 8.76317L19.1357 9.1685C18.3683 9.74752 16.9682 10.8037 16.9682 12.8959C16.9682 15.3738 18.5538 16.3268 19.3156 16.7851C19.6519 16.9874 20 17.196 20 17.6523C20 17.9502 17.6225 24.3466 14.17 24.3466C13.3252 24.3466 12.728 24.0927 12.2013 23.8687C11.6683 23.642 11.2086 23.4467 10.4489 23.4467C10.0638 23.4467 9.57684 23.6288 9.0613 23.822C8.3568 24.085 7.55938 24.3836 6.65457 24.3836H6.63085Z" fill="#1E5EC6"/>
<path d="M14.5409 0C14.6308 3.24206 12.3122 5.49126 9.99633 5.35019C9.61472 2.76292 12.3119 0 14.5409 0Z" fill="#1E5EC6"/>
</svg>
