<svg width="147" height="70" viewBox="0 0 147 70" fill="none" xmlns="http://www.w3.org/2000/svg">
<path d="M102.64 61.1756C102.64 66.0223 98.7089 69.953 93.8622 69.953H81.251C83.5055 67.7073 84.9057 64.6015 84.9057 61.1756C84.9057 54.3504 79.3516 48.7963 72.5264 48.7963H72.0303V23.3653C72.0303 18.5186 75.961 14.5879 80.8077 14.5879C85.6543 14.5879 89.5851 18.5186 89.5851 23.3653V52.3982H93.8622C98.7089 52.3982 102.64 56.329 102.64 61.1756Z" fill="white"/>
<path d="M81.3041 61.1756C81.3041 66.0223 77.3734 69.953 72.5267 69.953H59.4722C55.38 69.953 51.9453 67.1525 50.9678 63.3685C56.0728 57.7821 59.1904 50.3521 59.1904 42.2029C59.1904 34.0743 56.0845 26.6502 50.9971 21.0697C52.004 17.3327 55.4181 14.5879 59.4692 14.5879C64.3159 14.5879 68.2466 18.5186 68.2466 23.3653V52.3982H72.5238C77.3734 52.3982 81.3041 56.329 81.3041 61.1756Z" fill="white"/>
<path d="M145.849 36.1586C145.843 36.1498 145.843 36.1351 145.84 36.1263C143.981 28.4351 138.474 15.4979 122.261 2.71344C118.395 0.00389535 117.752 3.33872 117.385 10.3107C117.37 10.5984 116.998 10.7012 116.839 10.4634C115.075 7.78908 108.258 -0.565604 106.162 0.0303202C102.948 1.32785 93.4189 12.9175 93.4189 44.1639C93.4923 45.7667 93.6567 47.3138 93.9239 48.7963C100.726 48.8315 106.239 54.3739 106.239 61.1756C106.239 62.9546 105.866 64.6426 105.185 66.172C109.227 68.6173 114.215 69.953 119.995 69.953C134.787 69.953 146.776 57.9612 146.776 43.1746C146.773 41.0639 146.33 38.8123 145.849 36.1586ZM120.015 51.7671C114.64 51.7671 110.275 47.396 110.275 42.0268C110.275 36.6576 114.64 32.2865 120.015 32.2865C125.385 32.2865 129.756 36.6576 129.756 42.0268C129.756 47.396 125.385 51.7671 120.015 51.7671ZM137.244 42.2C134.508 42.2 132.283 39.9778 132.283 37.2448C132.283 34.5117 134.505 32.2895 137.244 32.2895C139.977 32.2895 142.2 34.5117 142.2 37.2448C142.203 39.9748 139.977 42.2 137.244 42.2Z" fill="white"/>
<path d="M27.7971 14.4059C12.4469 14.4059 0 26.8498 0 42.2029C0 57.5531 12.4439 70 27.7971 70C43.1472 70 55.5941 57.5561 55.5941 42.2029C55.5912 26.8498 43.1472 14.4059 27.7971 14.4059ZM27.7971 52.3131C22.2224 52.3131 17.6869 47.7806 17.6869 42.2029C17.6869 36.6283 22.2224 32.0928 27.7971 32.0928C33.3717 32.0928 37.9072 36.6283 37.9072 42.2029C37.9043 47.7776 33.3688 52.3131 27.7971 52.3131Z" fill="white"/>
</svg>
