<svg width="11" height="8" viewBox="0 0 11 8" fill="none" xmlns="http://www.w3.org/2000/svg">
<path d="M9.93759 8V7.98811H9.91382V7.97623H9.87816V7.96434H9.85438V7.95245H9.81872V7.94056H9.79495V7.92868H9.75929V7.91679H9.72362V7.9049H9.69985V7.89302H9.66419V7.88113H9.64042V7.86924H9.60475V7.85736H9.58098V7.84547H9.54532V7.83358H9.52154V7.82169H9.48588V7.80981H9.46211V7.79792H9.42645V7.78603H9.40267V7.77415H9.36701V7.76226H9.34324V7.75037H9.30758V7.73848H9.27192V7.7266H9.24814V7.71471H9.21248V7.70282H9.18871V7.69094H9.15304V7.67905H9.12927V7.66716H9.09361V7.65527H9.06984V7.64339H9.03417V7.6315H9.0104V7.61961H8.97474V7.60773H8.93908V7.59584H8.9153V7.58395H8.87964V7.57207H8.85587V7.56018H8.82021V7.54829H8.79643V7.5364H8.76077V7.52452H8.737V7.51263H8.70134V7.50074H8.67756V7.48886H8.6419V7.47697H8.61813V7.46508H8.58247V7.45319H8.5468V7.44131H8.52303V7.42942H8.48737V7.41753H8.4636V7.40565H8.42793V7.39376H8.40416V7.38187H8.3685V7.36999H8.34472V7.3581H8.30906V7.34621H8.28529V7.33432H8.24963V7.32244H8.21397V7.31055H8.19019V7.29866H8.15453V7.28678H8.13076V7.27489H8.0951V7.263H8.07132V7.25111H8.03566V7.23923H8.01189V7.22734H7.97622V7.21545H7.95245V7.20357H7.91679V7.19168H7.88113V7.17979H7.85735V7.1679H7.82169V7.15602H7.79792V7.14413H7.76226V7.13224H7.73848V7.12036H7.70282V7.10847H7.67905V7.09658H7.64339V7.0847H7.61961V7.07281H7.58395V7.06092H7.54829V7.04903H7.52452V7.03715H7.48886V7.02526H7.46508V7.01337H7.42942V7.00149H7.40565V6.9896H7.36998V6.97771H7.34621V6.96582H7.31055V6.95394H7.28678V6.94205H7.25111V6.93016H7.21545V6.91828H7.19168V6.90639H7.15602V6.8945H7.13224V6.88262H7.09658V6.87073H7.07281V6.85884H7.03715V6.84695H7.01337V6.83507H6.97771V6.82318H6.94205V6.81129H6.91828V6.79941H6.88261V6.78752H6.85884V6.77563H6.82318V6.76374H6.79941V6.75186H6.76374V6.73997H6.73997V6.72808H6.70431V6.7162H6.68053V6.70431H6.64487V6.69242H6.60921V6.68053H6.58544V6.66865H6.54978V6.65676H6.526V6.64487H6.49034V6.63299H6.46657V6.6211H6.43091V6.60921H6.40713V6.59733H6.37147V6.58544H6.33581V6.57355H6.31204V6.56166H6.27637V6.54978H6.2526V6.53789H6.21694V6.526H6.19316V6.51412H6.1575V6.50223H6.13373V6.49034H6.09807V6.47845H6.06241V6.46657H6.03863V6.45468H6.00297V6.44279H5.9792V6.43091H5.94354V6.41902H5.91976V6.40713H5.8841V6.39525H5.86033V6.38336H5.82467V6.37147H5.789V6.35958H5.76523V6.3477H5.72957V6.33581H5.70579V6.32392H5.67013V6.31204H5.64636V6.30015H5.6107V6.28826H5.57504V6.27637H5.55126V6.26449H5.5156V6.2526H5.49183V6.24071H5.45617V6.22883H5.43239V6.21694H5.39673V6.20505H5.37296V6.19316H5.3373V6.18128H5.30163V6.16939H5.27786V6.1575H5.2422V6.14562H5.21842V6.13373H5.18276V6.12184H5.15899V6.10996H5.12333V6.09807H5.08767V6.08618H5.06389V6.07429H5.02823V6.06241H5.00446V6.05052H4.9688V6.03863H4.94502V6.02675H4.90936V6.01486H4.8737V6.00297H4.84993V5.99108H4.81426V5.9792H4.79049V5.96731H4.75483V5.95542H4.73105V5.94354H4.69539V5.93165H4.67162V5.91976H4.63596V5.90788H4.6003V5.89599H4.57652V5.8841H4.54086V5.87221H4.51709V5.86033H4.48143V5.84844H4.45765V5.83655H4.42199V5.82467H4.38633V5.81278H4.36256V5.80089H4.32689V5.789H4.30312V5.77712H4.26746V5.76523H4.24368V5.75334H4.20802V5.74146H4.17236V5.72957H4.14859V5.71768H4.11293V5.7058H4.08915V5.69391H4.05349V5.68202H4.02972V5.67013H3.99406V5.65825H3.95839V5.64636H3.93462V5.63447H3.89896V5.62259H3.87519V5.6107H3.83952V5.59881H3.81575V5.58692H3.78009V5.57504H3.74443V5.56315H3.72065V5.55126H3.68499V5.53938H3.66122V5.52749H3.62556V5.5156H3.5899V5.50371H3.56612V5.49183H3.53046V5.47994H3.50669V5.46805H3.47102V5.45617H3.44725V5.44428H3.41159V5.43239H3.37593V5.42051H3.35215V5.40862H3.31649V5.39673H3.29272V5.38484H3.25706V5.37296H3.23328V5.36107H3.19762V5.34918H3.16196V5.3373H3.13819V5.32541H3.10253V5.31352H3.07875V5.30163H3.04309V5.28975H3.00743V5.27786H2.98365V5.26597H2.94799V5.25409H2.92422V5.2422H2.88856V5.23031H2.8529V5.21843H2.82912V5.20654H2.79346V5.19465H2.76969V5.18276H2.73403V5.17088H2.71025V5.15899H2.67459V5.1471H2.63893V5.13522H2.61516V5.12333H2.57949V5.11144H2.55572V5.09955H2.52006V5.08767H2.4844V5.07578H2.46062V5.06389H2.42496V5.05201H2.40119V5.04012H2.36553V5.02823H2.32987V5.01634H2.30609V5.00446H2.27043V4.99257H2.24666V4.98068H2.211V4.9688H2.17533V4.95691H2.15156V4.94502H2.1159V4.93314H2.09212V4.92125H2.05646V4.90936H2.0208V4.89747H1.99703V4.88559H1.96137V4.8737H1.93759V4.86181H1.90193V4.84993H1.86627V4.83804H1.8425V4.82615H1.80683V4.81426H1.78306V4.80238H1.7474V4.79049H1.71174V4.7786H1.68796V4.76672H1.6523V4.75483H1.62853V4.74294H1.59287V4.73106H1.55721V4.71917H1.53343V4.70728H1.49777V4.69539H1.474V4.68351H1.43834V4.67162H1.40267V4.65973H1.3789V4.64785H1.34324V4.63596H1.30758V4.62407H1.2838V4.61218H1.24814V4.6003H1.22437V4.58841H1.18871V4.57652H1.15305V4.56464H1.12927V4.55275H1.09361V4.54086H1.06984V4.52897H1.03418V4.51709H0.998514V4.5052H0.97474V4.49331H0.939079V4.48143H0.903417V4.46954H0.879643V4.45765H0.843982V4.44577H0.820208V4.43388H0.784547V4.42199H0.748886V4.4101H0.725111V4.39822H0.68945V4.38633H0.653789V4.37444H0.630015V4.36256H0.594354V4.35067H0.570579V4.33878H0.534918V4.32689H0.499257V4.31501H0.475483V4.30312H0.439822V4.29123H0.40416V4.27935H0.380386V4.26746H0.344725V4.25557H0.320951V4.24369H0.28529V4.2318H0.249628V4.21991H0.225854V4.20802H0.190193V4.19614H0.154532V4.18425H0.130758V4.17236H0.0950966V4.16048H0.0594354V4.14859H0.0356612V4.1367H0.0118871V4.11293H0V4.02972H0.0118871V4.01783H0.0237741V4.00594H0.0356612V3.99406H0.0594354V3.98217H7.44131V3.97028H7.45319V3.94651H7.46508V3.92273H7.47697V3.91085H7.48886V3.88707H7.50074V3.87519H7.51263V3.85141H7.52452V3.83952H7.5364V3.81575H7.54829V3.80386H7.56018V3.78009H7.57206V3.75632H7.58395V3.74443H7.59584V3.72065H7.60773V3.70877H7.61961V3.68499H7.6315V3.67311H7.64339V3.64933H7.65527V3.62556H7.66716V3.61367H7.67905V3.5899H7.69094V3.57801H7.70282V3.55423H7.71471V3.54235H7.7266V3.51857H7.73848V3.50669H7.75037V3.48291H7.76226V3.45914H7.77414V3.44725H7.78603V3.42348H7.79792V3.41159H7.80981V3.38782H7.82169V3.37593H7.83358V3.35215H7.84547V3.32838H7.85735V3.31649H7.86924V3.29272H7.88113V3.28083H7.89302V3.25706H7.9049V3.24517H7.91679V3.2214H7.92868V3.20951H7.94056V3.18574H7.95245V3.16196H7.96434V3.15007H7.97622V3.1263H7.98811V3.11441H8V3.09064H8.01189V3.07875H8.02377V3.05498H8.03566V3.04309H8.04755V3.01932H8.05943V2.99554H8.07132V2.98366H8.08321V2.95988H8.0951V2.94799H8.10698V2.92422H8.11887V2.91233H8.13076V2.88856H8.14264V2.87667H8.15453V2.8529H8.16642V2.82912H8.17831V2.81724H8.19019V2.79346H8.20208V2.78158H8.21397V2.7578H8.22585V2.74591H8.23774V2.72214H8.24963V2.71025H8.26151V2.68648H8.2734V2.6627H8.28529V2.65082H8.29718V2.62704H8.30906V2.61516H8.32095V2.59138H8.33284V2.57949H8.34472V2.55572H8.35661V2.54383H8.3685V2.52006H8.38039V2.49629H8.39227V2.4844H8.40416V2.46062H8.41605V2.44874H8.42793V2.42496H8.43982V2.41308H8.45171V2.3893H8.4636V2.37741H8.47548V2.35364H8.48737V2.32987H8.49926V2.31798H8.51114V2.29421H8.52303V2.28232H8.53492V2.25854H8.5468V2.24666H8.55869V2.22288H8.57058V2.211H8.58247V2.18722H8.59435V2.17533H8.60624V2.15156H8.61813V2.12779H8.63001V2.1159H8.6419V2.09212H8.65379V2.08024H8.66568V2.05646H8.67756V2.04458H8.68945V2.0208H8.70134V2.00892H8.71322V1.98514H8.72511V1.97325H8.737V1.94948H8.74889V1.92571H8.76077V1.91382H8.77266V1.89004H8.78455V1.87816H8.79643V1.85438H8.80832V1.8425H8.82021V1.81872H8.83209V1.80684H8.84398V1.78306H8.85587V1.77117H8.86776V1.7474H8.87964V1.72363H8.89153V1.71174H8.90342V1.68796H8.9153V1.67608H8.92719V1.6523H8.93908V1.64042H8.95096V1.61664H8.96285V1.60475H8.97474V1.58098H8.98663V1.56909H8.99851V1.54532H9.0104V1.52155H9.02229V1.50966H9.03417V1.48588H9.04606V1.474H9.05795V1.45022H9.06984V1.43834H9.08172V1.41456H9.09361V1.40267H9.1055V1.3789H9.11738V1.36701H9.12927V1.34324H9.14116V1.31947H9.15304V1.30758H9.16493V1.2838H9.17682V1.27192H9.18871V1.24814H9.20059V1.23626H9.21248V1.21248H9.22437V1.20059H9.23625V1.17682H9.24814V1.16493H9.26003V1.14116H9.27192V1.11738H9.2838V1.1055H9.29569V1.08172H9.30758V1.06984H9.31946V1.04606H9.33135V1.03418H9.34324V1.0104H9.35513V0.998514H9.36701V0.97474H9.3789V0.962853H9.39079V0.939079H9.40267V0.927192H9.41456V0.903418H9.42645V0.879643H9.43833V0.867756H9.45022V0.843982H9.46211V0.832095H9.474V0.808321H9.48588V0.796434H9.49777V0.77266H9.50966V0.760773H9.52154V0.736999H9.53343V0.725111H9.54532V0.701337H9.55721V0.68945H9.56909V0.665676H9.58098V0.641902H9.59287V0.630015H9.60475V0.606241H9.61664V0.594354H9.62853V0.57058H9.64042V0.558692H9.6523V0.534918H9.66419V0.523031H9.67608V0.499257H9.68796V0.48737H9.69985V0.463596H9.71174V0.451709H9.72362V0.427935H9.73551V0.40416H9.7474V0.392273H9.75929V0.368499H9.77117V0.356612H9.78306V0.332838H9.79495V0.320951H9.80683V0.297177H9.81872V0.28529H9.83061V0.261516H9.84249V0.249629H9.85438V0.225854H9.86627V0.213967H9.87816V0.190193H9.89004V0.166419H9.90193V0.154532H9.91382V0.130758H9.9257V0.118871H9.93759V0.0950966H9.94948V0.0832095H9.96137V0.0594354H9.97325V0.0475483H9.98514V0.0237741H9.99703V0.0118871H10.0089V0H10.104V0.0118871H10.1159V0.0356612H10.1278V7.95245H10.1159V7.96434H10.104V7.97623H10.0802V7.98811H10.0565V8" fill="#A7C9FF"/>
</svg>
