<svg width="8" height="8" viewBox="0 0 8 8" fill="none" xmlns="http://www.w3.org/2000/svg">
<path d="M5.5 0H2.5C1.1195 0 0 1.1195 0 2.5V5.5C0 6.8805 1.1195 8 2.5 8H5.5C6.8805 8 8 6.8805 8 5.5V2.5C8 1.1195 6.8805 0 5.5 0ZM7.25 5.5C7.25 6.465 6.465 7.25 5.5 7.25H2.5C1.535 7.25 0.75 6.465 0.75 5.5V2.5C0.75 1.535 1.535 0.75 2.5 0.75H5.5C6.465 0.75 7.25 1.535 7.25 2.5V5.5Z" fill="#A7C9FF"/>
<path d="M4 2C2.8955 2 2 2.8955 2 4C2 5.1045 2.8955 6 4 6C5.1045 6 6 5.1045 6 4C6 2.8955 5.1045 2 4 2ZM4 5.25C3.311 5.25 2.75 4.689 2.75 4C2.75 3.3105 3.311 2.75 4 2.75C4.689 2.75 5.25 3.3105 5.25 4C5.25 4.689 4.689 5.25 4 5.25Z" fill="#A7C9FF"/>
<path d="M6.15001 2.1165C6.2972 2.1165 6.41651 1.99718 6.41651 1.85C6.41651 1.70281 6.2972 1.5835 6.15001 1.5835C6.00283 1.5835 5.88351 1.70281 5.88351 1.85C5.88351 1.99718 6.00283 2.1165 6.15001 2.1165Z" fill="#A7C9FF"/>
</svg>
