<svg width="59" height="12" viewBox="0 0 59 12" fill="none" xmlns="http://www.w3.org/2000/svg">
<path d="M55.25 0H50.75C48.6793 0 47 1.67925 47 3.75V8.25C47 10.3208 48.6793 12 50.75 12H55.25C57.3208 12 59 10.3208 59 8.25V3.75C59 1.67925 57.3208 0 55.25 0ZM57.875 8.25C57.875 9.6975 56.6975 10.875 55.25 10.875H50.75C49.3025 10.875 48.125 9.6975 48.125 8.25V3.75C48.125 2.3025 49.3025 1.125 50.75 1.125H55.25C56.6975 1.125 57.875 2.3025 57.875 3.75V8.25Z" fill="#A7C9FF"/>
<path d="M53 3C51.3432 3 50 4.34325 50 6C50 7.65675 51.3432 9 53 9C54.6568 9 56 7.65675 56 6C56 4.34325 54.6568 3 53 3ZM53 7.875C51.9665 7.875 51.125 7.0335 51.125 6C51.125 4.96575 51.9665 4.125 53 4.125C54.0335 4.125 54.875 4.96575 54.875 6C54.875 7.0335 54.0335 7.875 53 7.875Z" fill="#A7C9FF"/>
<path d="M56.225 3.17474C56.4458 3.17474 56.6248 2.99577 56.6248 2.77499C56.6248 2.55422 56.4458 2.37524 56.225 2.37524C56.0042 2.37524 55.8253 2.55422 55.8253 2.77499C55.8253 2.99577 56.0042 3.17474 56.225 3.17474Z" fill="#A7C9FF"/>
<path d="M36.7692 1.42062C36.22 1.66154 35.6348 1.82123 35.0246 1.89877C35.6523 1.524 36.1314 0.935077 36.3566 0.225231C35.7714 0.574154 35.1252 0.820615 34.4366 0.958154C33.8809 0.366462 33.0889 0 32.2249 0C30.5486 0 29.1991 1.36062 29.1991 3.02862C29.1991 3.26862 29.2194 3.49938 29.2692 3.71908C26.752 3.59631 24.5246 2.38985 23.0283 0.552C22.7671 1.00523 22.6138 1.524 22.6138 2.08246C22.6138 3.13108 23.1538 4.06062 23.9588 4.59877C23.4723 4.58954 22.9951 4.44831 22.5908 4.22585C22.5908 4.23508 22.5908 4.24708 22.5908 4.25908C22.5908 5.73046 23.6403 6.95262 25.0166 7.23415C24.7702 7.30154 24.5015 7.33385 24.2228 7.33385C24.0289 7.33385 23.8332 7.32277 23.6495 7.28215C24.0418 8.48123 25.1551 9.36277 26.4788 9.39138C25.4486 10.1972 24.1406 10.6828 22.7246 10.6828C22.4763 10.6828 22.2382 10.6717 22 10.6412C23.3412 11.5062 24.9308 12 26.6449 12C32.2166 12 35.2628 7.38462 35.2628 3.384C35.2628 3.25015 35.2582 3.12092 35.2517 2.99262C35.8526 2.56615 36.3575 2.03354 36.7692 1.42062Z" fill="#A7C9FF"/>
<path d="M11.6659 7.97391C11.882 7.35545 11.9999 6.69128 11.9999 6C11.9999 5.30872 11.882 4.64455 11.6659 4.02609C11.6607 4.00751 11.6544 3.98939 11.6468 3.97196C10.8135 1.6586 8.5969 0 5.99994 0C3.40298 0 1.18635 1.6586 0.353039 3.97196C0.34547 3.98945 0.339163 4.00751 0.333945 4.02609C0.11789 4.64455 0 5.30872 0 6C0 6.69128 0.11789 7.35545 0.333945 7.97391C0.33922 7.99249 0.34547 8.01061 0.353039 8.02804C1.18641 10.3415 3.40298 12 5.99994 12C8.5969 12 10.8135 10.3414 11.6468 8.02804C11.6544 8.01061 11.6607 7.99255 11.6659 7.97391ZM5.99994 11.14C5.77145 11.14 5.40304 10.7264 5.09513 9.80258C4.9465 9.35677 4.82752 8.84427 4.74083 8.28675H7.25906C7.17236 8.84427 7.05338 9.35671 6.90482 9.80258C6.59685 10.7264 6.22844 11.14 5.99994 11.14ZM4.63647 7.42666C4.59513 6.96806 4.57328 6.48962 4.57328 6C4.57328 5.51038 4.59513 5.03194 4.63647 4.57334H7.36336C7.4047 5.03194 7.42655 5.51038 7.42655 6C7.42655 6.48962 7.4047 6.96806 7.36336 7.42666H4.63647ZM0.860034 6.00006C0.860034 5.50522 0.930505 5.02655 1.06164 4.57339H3.7738C3.7336 5.04146 3.71319 5.52116 3.71319 6.00006C3.71319 6.47896 3.73354 6.95866 3.7738 7.42672H1.06164C0.930505 6.97351 0.860034 6.4949 0.860034 6.00006ZM5.99994 0.860092C6.22844 0.860092 6.5969 1.27362 6.90482 2.19748C7.05338 2.64329 7.17242 3.15579 7.25906 3.71325H4.74077C4.82747 3.15573 4.94645 2.64329 5.09507 2.19748C5.40304 1.27362 5.77145 0.860092 5.99994 0.860092ZM8.22603 4.57339H10.9382C11.0693 5.02655 11.1398 5.50522 11.1398 6.00006C11.1398 6.4949 11.0693 6.97357 10.9382 7.42672H8.22603C8.26623 6.95866 8.28664 6.47896 8.28664 6.00006C8.28664 5.52116 8.26623 5.04146 8.22603 4.57339ZM10.6021 3.7133H8.12735C7.97437 2.65843 7.71193 1.71204 7.34375 1.03876C8.77122 1.42575 9.95384 2.41376 10.6021 3.7133ZM4.65608 1.0387C4.2879 1.71198 4.02546 2.65837 3.87248 3.7133H1.39771C2.04604 2.41376 3.22861 1.42575 4.65608 1.0387ZM1.39771 8.28675H3.87248C4.02546 9.34163 4.2879 10.288 4.65608 10.9614C3.22861 10.5743 2.04604 9.58635 1.39771 8.28675ZM7.34375 10.9614C7.71193 10.2881 7.97437 9.34169 8.12735 8.28675H10.6021C9.95384 9.58635 8.77122 10.5743 7.34375 10.9614Z" fill="#A7C9FF"/>
</svg>
