<svg width="10" height="8" viewBox="0 0 10 8" fill="none" xmlns="http://www.w3.org/2000/svg">
<path d="M6.84099 0C5.56129 0 4.51735 1.0521 4.50742 2.34927L3.05424 4.46712C2.64881 4.42966 2.29918 4.51512 1.99005 4.70673L0 3.88839V6.12332L1.17691 6.60449C1.34695 7.40019 2.04737 8 2.87617 8C3.7772 8 4.52385 7.29639 4.606 6.40039L6.84328 4.73834C8.1268 4.73834 9.17073 3.68039 9.17073 2.36839L9.17035 2.368C9.17035 1.06224 8.12642 0 6.84099 0ZM2.87617 7.52858C2.38439 7.52858 1.96101 7.24722 1.74588 6.83707C1.95451 6.91824 2.16544 7.00761 2.37446 7.09112C2.89681 7.30966 3.49023 7.04937 3.69886 6.51824C3.90979 5.98712 3.65377 5.38771 3.13219 5.17502L2.5999 4.95649C2.69199 4.93541 2.78408 4.92527 2.87617 4.92527C3.58652 4.92527 4.15549 5.504 4.15549 6.22673C4.15549 6.94985 3.58652 7.52858 2.87617 7.52858ZM6.84328 3.95551C5.97932 3.95551 5.27738 3.24722 5.27738 2.36839C5.27738 1.49346 5.97741 0.781268 6.84328 0.781268C7.70112 0.781268 8.40307 1.49346 8.40307 2.36839C8.40307 3.24956 7.70074 3.95785 6.84328 3.95551Z" fill="#A7C9FF"/>
<path d="M6.84749 1.09497C6.15777 1.09497 5.59912 1.66356 5.59912 2.36521C5.59912 3.06687 6.15586 3.63546 6.84749 3.63546C7.533 3.63546 8.09585 3.06882 8.09585 2.36521C8.09585 1.6616 7.533 1.09497 6.84749 1.09497Z" fill="#A7C9FF"/>
</svg>
