<svg width="10" height="8" viewBox="0 0 10 8" fill="none" xmlns="http://www.w3.org/2000/svg">
<path d="M9.84615 0.947077C9.48 1.10769 9.08985 1.21415 8.68308 1.26585C9.10154 1.016 9.42092 0.623385 9.57108 0.150154C9.18092 0.382769 8.75015 0.547077 8.29108 0.638769C7.92062 0.244308 7.39262 0 6.81662 0C5.69908 0 4.79938 0.907077 4.79938 2.01908C4.79938 2.17908 4.81292 2.33292 4.84615 2.47938C3.168 2.39754 1.68308 1.59323 0.685538 0.368C0.511385 0.670154 0.409231 1.016 0.409231 1.38831C0.409231 2.08738 0.769231 2.70708 1.30585 3.06585C0.981538 3.05969 0.663385 2.96554 0.393846 2.81723C0.393846 2.82338 0.393846 2.83138 0.393846 2.83938C0.393846 3.82031 1.09354 4.63508 2.01108 4.82277C1.84677 4.86769 1.66769 4.88923 1.48185 4.88923C1.35262 4.88923 1.22215 4.88185 1.09969 4.85477C1.36123 5.65415 2.10338 6.24185 2.98585 6.26092C2.29908 6.79815 1.42708 7.12185 0.483077 7.12185C0.317538 7.12185 0.158769 7.11446 0 7.09415C0.894154 7.67077 1.95385 8 3.09662 8C6.81108 8 8.84185 4.92308 8.84185 2.256C8.84185 2.16677 8.83877 2.08062 8.83446 1.99508C9.23508 1.71077 9.57169 1.35569 9.84615 0.947077Z" fill="#A7C9FF"/>
</svg>
