<svg width="32" height="32" viewBox="0 0 32 32" fill="none" xmlns="http://www.w3.org/2000/svg">
<path d="M6.80644 24.2258C7.07354 24.2258 7.29031 24.4425 7.29031 24.7096H8.25805C8.25805 23.9093 7.60676 23.258 6.80644 23.258V22.2903H5.8387V23.258H4.38708V24.7096C4.38708 25.51 5.03838 26.1613 5.8387 26.1613H6.80644C7.07354 26.1613 7.29031 26.378 7.29031 26.6451V27.129H5.8387C5.5716 27.129 5.35483 26.9122 5.35483 26.6451H4.38708C4.38708 27.4454 5.03838 28.0967 5.8387 28.0967V29.0645H6.80644V28.0967H8.25805V26.6451C8.25805 25.8448 7.60676 25.1935 6.80644 25.1935H5.8387C5.5716 25.1935 5.35483 24.9767 5.35483 24.7096V24.2258H6.80644Z" fill="#25549E"/>
<path d="M24.7097 5.35493C24.7097 4.55461 24.0584 3.90332 23.2581 3.90332C22.4577 3.90332 21.8065 4.55461 21.8065 5.35493C21.8065 6.15526 22.4577 6.80655 23.2581 6.80655C24.0584 6.80655 24.7097 6.15526 24.7097 5.35493ZM22.7742 5.35493C22.7742 5.08784 22.991 4.87106 23.2581 4.87106C23.5252 4.87106 23.7419 5.08784 23.7419 5.35493C23.7419 5.62203 23.5252 5.8388 23.2581 5.8388C22.991 5.8388 22.7742 5.62203 22.7742 5.35493Z" fill="#25549E"/>
<path d="M27.129 6.8064C26.3287 6.8064 25.6774 7.45769 25.6774 8.25801C25.6774 9.05833 26.3287 9.70962 27.129 9.70962C27.9294 9.70962 28.5807 9.05833 28.5807 8.25801C28.5807 7.45769 27.9294 6.8064 27.129 6.8064ZM27.129 8.74188C26.8619 8.74188 26.6452 8.52511 26.6452 8.25801C26.6452 7.99091 26.8619 7.77414 27.129 7.77414C27.3961 7.77414 27.6129 7.99091 27.6129 8.25801C27.6129 8.52511 27.3961 8.74188 27.129 8.74188Z" fill="#25549E"/>
<path d="M22.8618 9.44434L26.7348 3.63832L27.5399 4.17542L23.6669 9.98143L22.8618 9.44434Z" fill="#25549E"/>
<path d="M22.7742 18.3694H20.8387C20.0108 18.3694 19.3371 19.0431 19.3371 19.871V27.613C19.3371 28.4409 20.0108 29.1146 20.8387 29.1146H22.7742C23.6021 29.1146 24.2758 28.4409 24.2758 27.613V19.871C24.2758 19.0431 23.6021 18.3694 22.7742 18.3694ZM23.2081 27.613C23.2081 27.8525 23.0137 28.0469 22.7742 28.0469H20.8387C20.5992 28.0469 20.4048 27.8525 20.4048 27.613V19.871C20.4048 19.6316 20.5992 19.4372 20.8387 19.4372H22.7742C23.0137 19.4372 23.2081 19.6316 23.2081 19.871V27.613Z" fill="#25549E" stroke="#25549E" stroke-width="0.1"/>
<path d="M16.9677 24.1758H15.0322C14.2043 24.1758 13.5306 24.8495 13.5306 25.6774V27.6129C13.5306 28.4409 14.2043 29.1145 15.0322 29.1145H16.9677C17.7957 29.1145 18.4693 28.4409 18.4693 27.6129V25.6774C18.4693 24.8495 17.7957 24.1758 16.9677 24.1758ZM17.4016 27.6129C17.4016 27.8524 17.2072 28.0468 16.9677 28.0468H15.0322C14.7928 28.0468 14.5984 27.8524 14.5984 27.6129V25.6774C14.5984 25.438 14.7928 25.2436 15.0322 25.2436H16.9677C17.2072 25.2436 17.4016 25.438 17.4016 25.6774V27.6129Z" fill="#25549E" stroke="#25549E" stroke-width="0.1"/>
<path d="M16.9677 18.3694H15.0322C14.2043 18.3694 13.5306 19.0431 13.5306 19.871V21.8065C13.5306 22.6345 14.2043 23.3081 15.0322 23.3081H16.9677C17.7957 23.3081 18.4693 22.6345 18.4693 21.8065V19.871C18.4693 19.0431 17.7957 18.3694 16.9677 18.3694ZM17.4016 21.8065C17.4016 22.046 17.2072 22.2404 16.9677 22.2404H15.0322C14.7928 22.2404 14.5984 22.046 14.5984 21.8065V19.871C14.5984 19.6316 14.7928 19.4372 15.0322 19.4372H16.9677C17.2072 19.4372 17.4016 19.6316 17.4016 19.871V21.8065Z" fill="#25549E" stroke="#25549E" stroke-width="0.1"/>
<path d="M16.9677 12.5628H15.0322C14.2043 12.5628 13.5306 13.2365 13.5306 14.0644V15.9999C13.5306 16.8278 14.2043 17.5015 15.0322 17.5015H16.9677C17.7957 17.5015 18.4693 16.8278 18.4693 15.9999V14.0644C18.4693 13.2365 17.7957 12.5628 16.9677 12.5628ZM17.4016 15.9999C17.4016 16.2394 17.2072 16.4338 16.9677 16.4338H15.0322C14.7928 16.4338 14.5984 16.2394 14.5984 15.9999V14.0644C14.5984 13.8249 14.7928 13.6305 15.0322 13.6305H16.9677C17.2072 13.6305 17.4016 13.8249 17.4016 14.0644V15.9999Z" fill="#25549E" stroke="#25549E" stroke-width="0.1"/>
<path d="M11.1613 12.5628H9.22578C8.39785 12.5628 7.72417 13.2365 7.72417 14.0644V15.9999C7.72417 16.8278 8.39785 17.5015 9.22578 17.5015H11.1613C11.9892 17.5015 12.6629 16.8278 12.6629 15.9999V14.0644C12.6629 13.2365 11.9892 12.5628 11.1613 12.5628ZM11.5951 15.9999C11.5951 16.2394 11.4007 16.4338 11.1613 16.4338H9.22578C8.9863 16.4338 8.79191 16.2394 8.79191 15.9999V14.0644C8.79191 13.8249 8.9863 13.6305 9.22578 13.6305H11.1613C11.4007 13.6305 11.5951 13.8249 11.5951 14.0644V15.9999Z" fill="#25549E" stroke="#25549E" stroke-width="0.1"/>
<path d="M19.3371 14.0644V15.9999C19.3371 16.8278 20.0108 17.5015 20.8387 17.5015H22.7742C23.6021 17.5015 24.2758 16.8278 24.2758 15.9999V14.0644C24.2758 13.2365 23.6021 12.5628 22.7742 12.5628H20.8387C20.0108 12.5628 19.3371 13.2365 19.3371 14.0644ZM23.2081 14.0644V15.9999C23.2081 16.2394 23.0137 16.4338 22.7742 16.4338H20.8387C20.5992 16.4338 20.4048 16.2394 20.4048 15.9999V14.0644C20.4048 13.8249 20.5992 13.6305 20.8387 13.6305H22.7742C23.0137 13.6305 23.2081 13.8249 23.2081 14.0644Z" fill="#25549E" stroke="#25549E" stroke-width="0.1"/>
<path d="M31.05 6.80645C31.05 3.57706 28.4229 0.95 25.1935 0.95H8.25806C6.89642 0.95 5.78871 2.05771 5.78871 3.41935V20.334C3.07621 20.6029 0.95 22.8952 0.95 25.6774C0.95 28.6397 3.36029 31.05 6.32258 31.05H23.7419C25.1036 31.05 26.2113 29.9423 26.2113 28.5806V12.5674C28.956 12.0839 31.05 9.6881 31.05 6.80645ZM2.01774 25.6774C2.01774 23.3036 3.94874 21.3726 6.32258 21.3726C8.69642 21.3726 10.6274 23.3036 10.6274 25.6774C10.6274 28.0513 8.69642 29.9823 6.32258 29.9823C3.94874 29.9823 2.01774 28.0513 2.01774 25.6774ZM8.79194 20.9118V19.871C8.79194 19.6315 8.98632 19.4371 9.22581 19.4371H11.1613C11.4008 19.4371 11.5952 19.6315 11.5952 19.871V21.8065C11.5952 22.0459 11.4008 22.2403 11.1613 22.2403H10.4488C9.99232 21.694 9.42809 21.2429 8.79194 20.9118ZM25.1435 28.5806C25.1435 29.3534 24.5146 29.9823 23.7419 29.9823H9.52762C10.8408 29.0021 11.6952 27.439 11.6952 25.6774C11.6952 24.8266 11.4923 24.0234 11.1389 23.3081H11.1613C11.9892 23.3081 12.6629 22.6344 12.6629 21.8065V19.871C12.6629 19.043 11.9892 18.3694 11.1613 18.3694H9.22581C8.39787 18.3694 7.72419 19.043 7.72419 19.871V20.4952C7.44339 20.419 7.15368 20.3636 6.85645 20.3336V3.41935C6.85645 2.64665 7.48536 2.01774 8.25806 2.01774H21.8294C21.4729 2.2698 21.1479 2.56248 20.8557 2.88548H8.74194C8.18061 2.88548 7.72419 3.3419 7.72419 3.90323V9.70968C7.72419 10.271 8.18061 10.7274 8.74194 10.7274H20.8557C21.9172 11.9008 23.4428 12.6483 25.1435 12.6627V28.5806ZM8.79194 3.95323H20.0863C19.6119 4.79816 19.3371 5.76984 19.3371 6.80645C19.3371 7.84306 19.6119 8.81475 20.0863 9.65968H8.79194V3.95323ZM25.1935 11.5952C22.5531 11.5952 20.4048 9.4469 20.4048 6.80645C20.4048 4.166 22.5531 2.01774 25.1935 2.01774C27.834 2.01774 29.9823 4.166 29.9823 6.80645C29.9823 9.4469 27.834 11.5952 25.1935 11.5952Z" fill="#25549E" stroke="#25549E" stroke-width="0.1"/>
</svg>
