<svg width="26" height="33" viewBox="0 0 26 33" fill="none" xmlns="http://www.w3.org/2000/svg">
<path fill-rule="evenodd" clip-rule="evenodd" d="M16.2051 6.71283H15.2465V6.53909C15.5161 6.53909 15.6659 6.48119 15.5461 6.2785C15.3664 5.93103 16.1452 5.95999 16.265 6.0179C16.4447 6.16268 16.3249 6.5391 16.2051 6.71283ZM14.8871 6.94447H16.0553C15.9355 7.14716 15.576 7.78418 15.3364 7.78418C15.2166 7.6394 14.917 7.23402 14.8871 6.94447ZM18.6613 5.58357C18.6014 5.61252 18.5415 5.64147 18.4816 5.64147C18.1221 6.13372 18.3318 6.07581 17.6728 6.51014C17.6728 7.34984 17.7028 7.43672 17.9124 8.18956C17.9124 8.21851 17.9124 8.21852 17.9124 8.24747C17.9124 8.27643 17.8825 8.27642 17.8825 8.27642C17.7327 8.30538 17.4931 8.36329 17.3733 8.39225C17.3733 8.42121 17.4332 8.88449 17.3733 9.26091C17.2535 9.81107 15.8756 11.0272 15.576 11.1141C15.1267 11.2009 14.6175 10.8245 13.8087 10.477C13.5991 10.3902 12.8502 9.92689 12.4608 9.78211C12.1313 9.66629 11.8318 10.4191 12.2212 10.6218C12.4009 10.7087 12.7004 10.8535 12.7903 11.0851C13.0599 11.78 12.7604 14.4439 12.1912 14.9651C11.9216 14.9651 11.682 14.7335 11.5023 14.7914C11.1428 14.9941 11.3825 16.0365 11.5023 16.2102C13.6889 18.3819 13.4493 20.0034 14.3779 21.2195C14.7972 21.2195 14.5276 21.6538 14.8571 22.175C14.947 22.4356 14.8272 22.87 14.7972 23.0437C14.7972 23.2753 14.7972 23.478 14.7972 23.7097C14.7673 23.7676 14.7373 23.8545 14.7373 23.9124C14.7373 24.1151 14.7373 24.2888 14.7373 24.4915C14.6774 24.781 14.5876 25.1575 14.5277 25.4181C14.4078 25.9682 14.8871 26.4025 14.5875 26.9237C14.5875 27.2422 14.5876 27.1843 14.3779 27.4449C14.3779 27.9372 14.2581 29.0085 14.3779 29.385C14.4677 29.6455 15.4263 30.7458 15.6958 30.8617C16.2949 31.1223 17.1636 31.0644 16.8641 31.962C15.1267 32.4832 14.0484 31.6724 13.1198 31.6724L13.0898 31.8172C12.4908 31.8172 12.0415 31.6724 11.8917 31.6435C11.8917 31.4987 12.0714 30.3115 12.1613 30.1088C12.2212 30.022 12.2811 29.9061 12.371 29.8193C12.4309 29.6166 12.3111 28.1399 12.2811 27.7345C11.9217 27.4739 11.8318 26.6631 11.8318 26.2288C11.712 25.8813 11.712 25.476 11.712 25.0416C11.712 24.8389 11.5622 24.5204 11.6521 24.2598C11.712 24.0861 11.9216 23.9992 11.9516 23.8544C11.9516 23.6807 11.9516 23.5359 11.9516 23.3622C12.0415 22.841 12.0115 22.6094 11.682 22.2909C10.8733 22.2909 10.7535 22.3488 10.3341 21.6828C10.1843 21.4801 9.07603 19.7428 8.95621 19.7138C8.02764 19.3084 8.20737 19.4822 7.78802 18.7583C7.75806 18.7583 7.51842 18.8452 7.30874 19.1637C6.97925 19.6559 6.38017 21.2195 6.20045 21.7697C6.11058 22.0882 6.20045 22.4067 6.05068 22.6673C5.96082 22.841 5.60138 22.8989 5.54148 23.0437C5.21198 23.6228 5.45161 23.5649 4.82257 23.9703C4.70276 24.1151 4.70275 24.3177 4.61289 24.4915C4.55298 24.5494 4.52303 24.6073 4.46312 24.6942C4.34331 24.9258 4.58294 25.3022 4.52303 25.447C4.40322 25.7945 4.28341 26.1709 4.13364 26.4894C3.8341 27.1554 3.89401 28.024 3.59447 28.4294C3.4447 28.6321 3.08524 28.4294 2.81566 28.6032C2.7857 28.7479 2.36635 29.6745 2.27649 29.9351C2.27649 30.4273 2.27649 30.9196 2.27649 31.4408C2.36635 31.7014 2.57603 31.933 2.51612 32.2515C2.45621 32.599 1.2281 32.599 0.569114 32.4832C0.119805 32.4253 0 32.1068 0 31.7303C0 31.296 0.898607 28.4873 0.868653 28.3136C0.179713 27.5608 1.04838 26.8079 1.31796 26.113C1.43778 25.7655 1.37788 25.3022 1.4977 24.9837C1.73733 24.5494 1.97695 24.144 2.21658 23.7097C2.66589 23.3043 2.45622 23.2753 2.69585 22.9279C2.90553 22.6094 3.14516 22.4067 2.99539 21.9144C2.69585 20.9589 3.32488 19.598 3.38479 18.5846C3.26497 18.4687 2.90553 18.4977 2.84562 18.2081C2.75576 17.5711 3.08525 16.4708 3.29493 16.3839C3.38479 16.326 3.5046 16.3839 3.56451 16.326C3.56451 15.8627 3.08526 13.2568 3.4447 13.112C3.68433 13.0251 4.19354 12.9962 4.28341 12.9382C4.28341 12.8224 4.19354 12.5908 4.10367 12.5908C3.9539 12.5618 3.62441 12.5039 3.35482 12.446C2.54607 12.2723 3.29493 9.20299 3.29493 9.17403C3.50461 8.88448 4.55299 9.2609 4.6728 8.79762C5.0023 8.36328 4.40322 6.74179 5.57142 4.7149C5.96082 4.04893 6.73962 3.35399 7.60828 3.64355C7.90782 3.73042 7.72811 4.16475 8.23733 3.70146C8.23733 3.44086 8.1175 3.23817 8.05759 3.00653C7.18893 0.516357 10.1244 -0.844547 12.1912 0.57427C12.4309 0.661136 12.5507 0.719045 12.7304 0.834867C12.8502 1.41398 13.4193 2.39846 12.8502 3.06444C12.6106 3.12235 12.3111 3.23817 12.1313 3.35399C12.1313 3.58564 12.1613 3.78833 12.1912 3.9331C12.2212 4.04893 12.3111 4.10683 12.1014 4.1937C12.0714 4.1937 12.1014 4.28057 12.1014 4.30952C12.5806 4.39639 13.0899 4.22266 13.4194 4.10684H13.8087V3.64355H13.8986H13.9885V3.26713H14.1682V3.90415H14.6475V4.10684H21.7465V4.4543H22.0461V3.1513H22.3157V4.22266H22.9147V4.83072H24.8018V4.65699H25.1014V4.74385H26V5.2361H25.1014V5.32296H24.8018V5.14924H22.9147V5.32296C22.6452 5.32296 22.3756 5.32296 22.076 5.32296V5.20714H21.7166V5.58357H18.6613Z" fill="#2B7BFB"/>
</svg>
