<svg width="30" height="30" viewBox="0 0 30 30" fill="none" xmlns="http://www.w3.org/2000/svg">
<path d="M30 0H26.2769L24.7266 0.775137L23.1762 0H15.8789L14.1211 0.878906H9.26262L7.5048 0H0V14.1211L0.878906 15.8789V20.7374L0 22.4952V30H15L16.5503 29.2249L18.1007 30H30V18.1007L29.2249 16.5503L30 15V0ZM7.91016 24.7266L5.27344 22.0898V16.8164L13.1836 24.7266H7.91016ZM23.8477 24.7266H20.332L18.0536 22.0492L17.5837 20.1409L15.7752 19.3718L15 18.4609L5.27344 7.03125L7.03125 5.27344L15 11.2632L24.7266 18.5742L23.8477 24.7266ZM24.7266 13.1836L16.8164 5.27344H22.0898L24.7266 7.91016V13.1836Z" fill="white"/>
</svg>
