<svg width="30" height="30" viewBox="0 0 30 30" fill="none" xmlns="http://www.w3.org/2000/svg">
<path d="M14.3624 0H11.7466V24.9694H14.3624V0Z" fill="#25549E"/>
<path d="M7.82289 0H5.20709V24.9694H7.82289V0Z" fill="#25549E"/>
<path d="M4.31614 29.9961H1.17719L5.64857 23.5901L7.82295 24.9773L4.31614 29.9961Z" fill="#25549E"/>
<path d="M24.752 29.996H21.613L26.861 22.4834H30L24.752 29.996Z" fill="#25549E"/>
<path d="M27.0072 24.9711V22.4773L11.7457 22.4773V24.9711L27.0072 24.9711Z" fill="#25549E"/>
<path d="M5.20709 5.79033L1.52863 0H14.3624V2.49382H5.20709V5.79033Z" fill="#25549E"/>
<path d="M24.1503 29.9965V27.5027L3.05228 27.5027V29.9965L24.1503 29.9965Z" fill="#25549E"/>
<path d="M16.9781 5.36181C16.9781 5.36181 22.1117 6.21906 24.7765 11.0197C27.4413 15.8203 25.4223 20.0052 25.4223 20.0052H28.2016C28.2016 20.0052 30.3678 15.3371 26.9018 9.46882C23.4359 3.60055 16.9781 2.79785 16.9781 2.79785V5.36181Z" fill="#25549E"/>
<path d="M2.59128 8.43237V24.1123C2.59128 24.1123 0 21.3379 0 16.0073C0 10.6768 2.59128 8.43237 2.59128 8.43237Z" fill="#25549E"/>
</svg>
