<svg width="32" height="18" viewBox="0 0 32 18" fill="none" xmlns="http://www.w3.org/2000/svg">
<path d="M15.9941 2.80462L16.0243 2.89995L16.0244 2.89991L16.0249 2.89974L16.0271 2.89905L16.0358 2.89632L16.0699 2.8856L16.2009 2.84474C16.3146 2.80947 16.4786 2.75892 16.6801 2.69787C17.0831 2.57575 17.6356 2.41166 18.2341 2.24369C19.4349 1.90664 20.808 1.55773 21.5334 1.49628C22.8876 1.38443 23.9186 1.54355 24.6091 1.72935C24.9544 1.82228 25.2148 1.92193 25.388 1.99784C25.4746 2.0358 25.5394 2.06782 25.5822 2.09009C25.5905 2.09446 25.5981 2.09845 25.6047 2.10204L27.3996 12.9001C23.8907 11.7653 20.1125 11.7681 16.605 12.9084V12.6959C16.605 12.3614 16.3344 12.0909 16 12.0909C15.6656 12.0909 15.395 12.3614 15.395 12.6959V12.9084C11.8873 11.7681 8.10913 11.7653 4.60022 12.8945L6.38341 2.09625C6.39002 2.09272 6.39745 2.08881 6.4057 2.08454C6.44843 2.06241 6.51322 2.03061 6.59978 1.99292C6.77291 1.91755 7.03312 1.81862 7.37814 1.72642C8.06798 1.54208 9.09758 1.38442 10.4489 1.49629C11.1772 1.55774 12.5518 1.90666 13.7533 2.2437C14.3521 2.41166 14.9049 2.57576 15.3079 2.69787C15.5095 2.75892 15.6735 2.80947 15.7872 2.84474L15.9182 2.8856L15.9523 2.89632L15.961 2.89905L15.9632 2.89974L15.9637 2.89991L15.9639 2.89995L15.9941 2.80462ZM15.9941 2.80462L16.0242 2.89997L15.9941 2.9095L15.9639 2.89997L15.9941 2.80462ZM6.13403 0.929546C6.13403 0.929551 6.13404 0.929554 6.13405 0.929555L6.12409 0.930913L6.11246 0.935627C5.66715 1.11616 5.28304 1.36024 5.1961 1.84843L5.19609 1.84843L5.19587 1.84974L5.13836 2.19965H4.24302C3.70818 2.19965 3.25087 2.57801 3.15268 3.10067C3.15265 3.1008 3.15263 3.10093 3.1526 3.10106L0.930946 14.5004C0.930928 14.5005 0.93091 14.5006 0.930892 14.5007C0.835904 14.976 0.962744 15.4699 1.27288 15.8434C1.58291 16.2167 2.0388 16.432 2.5261 16.432H13.0462C13.2837 16.7844 13.7185 17.0332 14.2258 17.1958C14.7591 17.3667 15.3891 17.4479 16 17.4479C16.6019 17.4479 17.226 17.3682 17.7571 17.198C18.263 17.0359 18.6989 16.7869 18.9415 16.432H29.4739C29.9612 16.432 30.4171 16.2167 30.7271 15.8434C31.0373 15.4699 31.1641 14.9761 31.0691 14.5007C31.0691 14.5006 31.0691 14.5005 31.0691 14.5004L28.8474 3.107C28.8474 3.10686 28.8473 3.10672 28.8473 3.10658C28.749 2.58324 28.2852 2.20559 27.751 2.20559H26.8557L26.7982 1.85568C26.7175 1.36477 26.3046 1.13211 25.8915 0.943294L25.8804 0.938208L25.8728 0.936788C25.8726 0.936695 25.8723 0.936592 25.872 0.936479C25.8681 0.934981 25.8622 0.932558 25.8537 0.928913C25.8383 0.922288 25.8181 0.913185 25.7921 0.901449L25.7839 0.897769C25.7245 0.871016 25.6413 0.833661 25.5359 0.789992C25.325 0.702632 25.026 0.590179 24.6486 0.484926C23.8938 0.274424 22.8259 0.092828 21.523 0.197894C20.7658 0.258234 19.3733 0.611867 18.1793 0.946871C17.5802 1.11495 17.0279 1.27928 16.6254 1.40158C16.4242 1.46273 16.2603 1.51339 16.1468 1.54877L16.0157 1.58979L16 1.59475L15.9841 1.58973L15.8525 1.54852C15.7385 1.51298 15.574 1.46209 15.3721 1.40066C14.9682 1.2778 14.4143 1.11273 13.8141 0.943918C12.6181 0.607495 11.2257 0.252394 10.4774 0.191981C9.19784 0.08089 8.13864 0.262609 7.38251 0.474565C7.00441 0.580554 6.70218 0.694076 6.48633 0.782183C6.39689 0.818692 6.32209 0.85092 6.26365 0.876095C6.25171 0.88124 6.24046 0.88609 6.2299 0.890621C6.1984 0.904142 6.17406 0.914421 6.15584 0.92155C6.13997 0.92776 6.13399 0.929403 6.13403 0.929546ZM4.3254 3.42148H4.93887L3.36612 12.858L3.36611 12.858L3.3659 12.8593C3.3074 13.2428 3.44391 13.6279 3.7379 13.8827C4.03113 14.1368 4.43577 14.2221 4.80235 14.1043L4.8025 14.1043C7.46121 13.2453 10.2933 13.057 13.0355 13.5621L12.9017 15.2161H2.5261C2.40358 15.2161 2.28764 15.1597 2.2036 15.0664C2.12848 14.9765 2.09565 14.8534 2.11919 14.7357L2.11928 14.7352L4.3254 3.42148ZM15.9864 14.4059L15.9864 14.4061H15.9941C16.0869 14.4061 16.1725 14.3847 16.2558 14.3435C16.7426 14.1358 17.2448 13.9636 17.7576 13.827L17.9169 15.7762C17.8929 15.7992 17.8497 15.8325 17.7809 15.8716C17.6885 15.9242 17.5597 15.982 17.3949 16.0356C17.0655 16.1428 16.5963 16.232 15.9941 16.232C15.3919 16.232 14.9226 16.1428 14.5932 16.0356C14.4284 15.982 14.2997 15.9242 14.2072 15.8716C14.1384 15.8325 14.0952 15.7992 14.0713 15.7762L14.2305 13.8318C14.7431 13.9636 15.2453 14.1357 15.7324 14.3435C15.8195 14.3865 15.9047 14.3996 15.9864 14.4059ZM27.1854 14.1042L27.1854 14.1042L27.1878 14.1049C27.5589 14.2156 27.9563 14.1309 28.2493 13.8835L28.2502 13.8827C28.5442 13.6279 28.6807 13.2428 28.6222 12.8593L28.622 12.858L27.0492 3.41554H27.6627L29.8688 14.7293L29.8689 14.7297C29.8925 14.8474 29.8598 14.9721 29.782 15.0695C29.7073 15.1628 29.5884 15.2161 29.468 15.2161H19.0862L18.9469 13.5562C21.6949 13.051 24.5269 13.2394 27.1854 14.1042Z" fill="#25549E" stroke="#25549E" stroke-width="0.2"/>
<path d="M6.88702 4.65234H11.0204L11.0285 6.80495L10.6439 7.18964L11.0204 7.57432V9.76785H6.88702V4.65234ZM8.06564 5.83096V6.63307H9.84992V5.83096H8.06564ZM8.06564 7.79531V8.59742H9.84992V7.79531H8.06564Z" fill="#25549E"/>
<path d="M11.5524 4.65234H15.6858V5.83096H12.731V6.63307H14.7036V7.79531H12.7802L12.772 8.59742H15.6858V9.77603H11.5524V4.65234Z" fill="#25549E"/>
<path d="M16.2095 4.65234H20.3429V5.83096H18.886V9.77603H17.7155V5.83096H16.2095V4.65234Z" fill="#25549E"/>
<path d="M20.8667 4.65234H24.9918L25 5.83096H22.0453V6.63307H25V9.77603H20.8667V8.59742H23.8296V7.79531H20.8667V4.65234Z" fill="#25549E"/>
</svg>
