<svg width="10" height="10" viewBox="0 0 10 10" fill="none" xmlns="http://www.w3.org/2000/svg">
<path d="M9.76163 3.99136C9.6273 3.89791 9.37171 3.75017 9.18949 3.67147L8.90182 2.97703C8.97282 2.79806 9.05045 2.51173 9.08019 2.34629C9.11237 2.16725 9.05486 1.98381 8.92623 1.85518L8.14482 1.07377C8.01619 0.945108 7.83271 0.887589 7.65371 0.919811C7.49079 0.949107 7.20631 1.02544 7.02297 1.09818L6.32853 0.810516C6.25238 0.634146 6.10479 0.376554 6.00865 0.238369C5.90479 0.0890366 5.73442 0 5.55254 0H4.44747C4.26558 0 4.09521 0.0890366 3.99136 0.238369C3.89791 0.372702 3.75017 0.628294 3.67147 0.810516L2.97703 1.09818C2.79806 1.02718 2.51173 0.949552 2.34629 0.919811C2.16736 0.8877 1.98381 0.945182 1.85518 1.07377L1.07377 1.85518C0.945145 1.98381 0.887627 2.16725 0.919812 2.34629C0.949108 2.50921 1.02544 2.79369 1.09818 2.97703L0.810516 3.67147C0.634146 3.74762 0.376554 3.89521 0.238369 3.99136C0.0890366 4.09521 0 4.26558 0 4.44747V5.55254C0 5.73442 0.0890366 5.90479 0.238369 6.00864C0.372702 6.10209 0.628294 6.24983 0.810516 6.32853L1.09818 7.02297C1.02718 7.20194 0.949552 7.48827 0.919812 7.65371C0.887627 7.83275 0.945145 8.01619 1.07377 8.14482L1.85518 8.92623C1.98377 9.05486 2.16714 9.1123 2.34629 9.08019C2.50921 9.05089 2.79369 8.97456 2.97703 8.90182L3.67147 9.18948C3.74762 9.36585 3.89521 9.62345 3.99136 9.76163C4.09521 9.91096 4.26558 10 4.44747 10H5.55254C5.73442 10 5.90479 9.91096 6.00865 9.76163C6.10209 9.6273 6.24983 9.37171 6.32853 9.18948L7.02297 8.90182C7.20194 8.97282 7.48827 9.05045 7.65371 9.08019C7.83275 9.11237 8.01619 9.05486 8.14482 8.92623L8.92623 8.14482C9.05486 8.01619 9.11237 7.83275 9.08019 7.65371C9.05089 7.49079 8.97456 7.20631 8.90182 7.02297L9.18949 6.32853C9.36586 6.25238 9.62345 6.10479 9.76163 6.00864C9.91096 5.90479 10 5.73442 10 5.55254V4.44747C10 4.26558 9.91096 4.09521 9.76163 3.99136ZM4.99998 7.22227C3.77465 7.22227 2.77777 6.22538 2.77777 5.00006C2.77777 3.77473 3.77465 2.77784 4.99998 2.77784C6.22531 2.77784 7.2222 3.77473 7.2222 5.00006C7.2222 6.22538 6.22531 7.22227 4.99998 7.22227Z" fill="#2B7BFB"/>
</svg>
