<svg width="64" height="26" viewBox="0 0 64 26" fill="none" xmlns="http://www.w3.org/2000/svg">
<path d="M51.3913 0C47.8059 0 44.5683 1.49619 42.2699 3.89991C42.2757 3.96051 42.2757 4.02255 42.2757 4.08315V15.6213H42.5815C45.6792 15.6213 48.1969 18.1404 48.1969 21.2367C48.1969 22.4472 47.8117 23.5711 47.1552 24.4873C48.4783 24.9606 49.9038 25.2188 51.3899 25.2188C58.3529 25.2188 64 19.5731 64 12.6087C64.0014 5.64426 58.3543 0 51.3913 0ZM51.3913 17.1954C48.8635 17.1954 46.8046 15.1394 46.8046 12.6087C46.8046 10.078 48.8635 8.02201 51.3913 8.02201C53.9191 8.02201 55.978 10.078 55.978 12.6087C55.978 15.1394 53.9191 17.1954 51.3913 17.1954Z" fill="white"/>
<path d="M46.5637 21.2366C46.5637 23.4355 44.7804 25.2188 42.5815 25.2188H36.8565C37.8837 24.2016 38.5186 22.7905 38.5186 21.2366C38.5186 18.1404 35.998 15.6212 32.9032 15.6212H32.6781V4.08456C32.6781 1.88572 34.4614 0.102417 36.6602 0.102417C38.8591 0.102417 40.6424 1.88572 40.6424 4.08456V17.2559H42.583C44.7804 17.2545 46.5637 19.0378 46.5637 21.2366Z" fill="white"/>
<path d="M36.8839 21.2366C36.8839 23.4355 35.1006 25.2188 32.9018 25.2188H26.9805C25.1236 25.2188 23.5639 23.9491 23.1224 22.2307C25.4381 19.6971 26.8535 16.3253 26.8535 12.6288C26.8535 8.94103 25.4439 5.57352 23.1354 3.04139C23.5928 1.34898 25.1409 0.100952 26.9805 0.100952C29.1793 0.100952 30.9626 1.88427 30.9626 4.0831V17.2545H32.9032C35.1021 17.2545 36.8839 19.0378 36.8839 21.2366Z" fill="white"/>
<path d="M12.6101 0.0187988C5.6457 0.0187988 0 5.6645 0 12.6289C0 19.5934 5.6457 25.239 12.6101 25.239C19.5746 25.239 25.2203 19.5934 25.2203 12.6289C25.2203 5.6645 19.5746 0.0187988 12.6101 0.0187988ZM12.6101 17.2156C10.0809 17.2156 8.02345 15.1582 8.02345 12.6289C8.02345 10.0997 10.0809 8.04225 12.6101 8.04225C15.1394 8.04225 17.1968 10.0997 17.1968 12.6289C17.1968 15.1582 15.1394 17.2156 12.6101 17.2156Z" fill="white"/>
</svg>
