<svg width="30" height="30" viewBox="0 0 30 30" fill="none" xmlns="http://www.w3.org/2000/svg">
<path d="M24.375 1.875V0.9375C24.375 0.419312 23.9557 0 23.4375 0H6.5625C6.04431 0 5.625 0.419312 5.625 0.9375V1.875H0V6.92229C0 11.5067 2.66076 15.6294 6.79241 17.5608C7.94037 19.675 9.85897 21.2821 12.1875 22.0213V22.9688C12.1875 23.7442 11.5567 24.375 10.7812 24.375C8.97217 24.375 7.5 25.8472 7.5 27.6562V29.0625C7.5 29.5807 7.91931 30 8.4375 30H21.5625C22.0807 30 22.5 29.5807 22.5 29.0625V27.6562C22.5 25.8472 21.0278 24.375 19.2188 24.375C18.4433 24.375 17.8125 23.7442 17.8125 22.9688V22.0213C20.141 21.2821 22.0596 19.675 23.2076 17.5608C27.3392 15.6294 30 11.5067 30 6.92229V1.875H24.375ZM1.875 6.92229V3.75H5.625V13.125C5.625 13.6909 5.6955 14.2391 5.79208 14.7776C3.36765 12.9353 1.875 10.061 1.875 6.92231L1.875 6.92229ZM19.2188 26.25C19.9942 26.25 20.625 26.8808 20.625 27.6562V28.125H9.375V27.6562C9.375 26.8808 10.0058 26.25 10.7812 26.25C12.5903 26.25 14.0625 24.7778 14.0625 22.9687V22.4052C14.3754 22.4369 14.679 22.5 15 22.5C15.321 22.5 15.6246 22.4369 15.9375 22.4052V22.9687C15.9375 24.7778 17.4097 26.25 19.2188 26.25ZM15 20.625C10.8646 20.625 7.5 17.2604 7.5 13.125V1.87498H22.5V13.125C22.5 17.2604 19.1354 20.625 15 20.625ZM28.125 6.92228C28.125 10.0609 26.6323 12.9352 24.2079 14.7776C24.3045 14.239 24.375 13.6909 24.375 13.125V3.74996H28.125V6.92226L28.125 6.92228Z" fill="white"/>
</svg>
