<svg width="12" height="12" viewBox="0 0 12 12" fill="none" xmlns="http://www.w3.org/2000/svg">
<path d="M11.7507 8.65292L7.51165 0.860511C6.83058 -0.286075 5.17034 -0.287599 4.48835 0.860511L0.249536 8.65292C-0.446698 9.82454 0.396232 11.3082 1.76083 11.3082H10.239C11.6025 11.3082 12.4469 9.82573 11.7507 8.65292ZM6 9.90193C5.61239 9.90193 5.29687 9.58641 5.29687 9.1988C5.29687 8.81119 5.61239 8.49568 6 8.49568C6.38761 8.49568 6.70312 8.81119 6.70312 9.1988C6.70312 9.58641 6.38761 9.90193 6 9.90193ZM6.70312 7.08943C6.70312 7.47704 6.38761 7.79255 6 7.79255C5.61239 7.79255 5.29687 7.47704 5.29687 7.08943V3.5738C5.29687 3.18619 5.61239 2.87068 6 2.87068C6.38761 2.87068 6.70312 3.18619 6.70312 3.5738V7.08943Z" fill="#1E62D0"/>
</svg>
