<svg width="371" height="130" viewBox="0 0 371 130" fill="none" xmlns="http://www.w3.org/2000/svg">
<path d="M367.474 11.9861C358.335 -13.6004 330.096 -26.876 304.528 -17.5392C279.152 -8.25803 266.136 19.4988 275.225 44.9555C278.843 55.09 285.459 63.2829 293.713 68.9159C299.779 73.0339 296.632 79.446 292.551 84.3988C290.727 86.6187 292.767 89.8896 295.556 89.2095C366.534 71.7787 378.382 42.4946 367.474 11.9861ZM319.38 44.7206C318.558 45.9881 317.593 47.064 316.48 47.973C313.815 50.0073 310.476 51.4109 306.451 52.2085C300.966 53.2783 295.828 52.1344 290.987 48.7892C286.145 45.4502 283.158 40.8003 282.008 34.8644C280.895 29.1386 282.008 23.9261 285.372 19.2144C288.717 14.5151 293.182 11.6151 298.747 10.5392C302.556 9.80341 306.352 10.1682 310.099 11.646C310.891 11.9861 311.478 12.252 311.874 12.4375C312.27 12.6292 312.684 12.9198 313.086 13.3279C313.481 13.7236 313.729 14.1688 313.834 14.7006C313.982 15.5415 313.766 16.636 313.154 17.9716C312.103 20.1914 310.99 21.4095 309.815 21.6383C309.116 21.7805 308.065 21.5332 306.655 20.9396C304.584 20.1295 302.494 19.9193 300.373 20.3336C297.578 20.8715 295.29 22.3494 293.509 24.7299C291.716 27.1105 291.147 29.893 291.772 33.0774C292.384 36.2371 294.004 38.7227 296.62 40.5035C299.254 42.2967 301.968 42.915 304.769 42.3771C306.785 41.9813 308.529 41.3012 310.013 40.3366L308.838 34.3326L304.509 35.1735C303.811 35.3157 303.291 35.3838 302.97 35.3899C302.648 35.3899 302.271 35.3157 301.844 35.155C301.418 34.9818 301.072 34.6356 300.812 34.0976C300.558 33.5597 300.33 32.793 300.132 31.7913C299.952 30.839 299.884 30.0599 299.934 29.4478C299.983 28.8233 300.206 28.3719 300.608 28.0504C301.004 27.7474 301.356 27.5372 301.659 27.4382C301.962 27.3084 302.45 27.1909 303.162 27.0487L312.838 25.1566C313.828 25.0144 314.65 24.9834 315.306 25.1071C315.955 25.2369 316.449 25.5214 316.802 25.9666C317.136 26.4118 317.352 26.8261 317.494 27.2033C317.624 27.5619 317.767 28.1678 317.927 28.9593L320.271 41.0786C320.499 42.2411 320.197 43.4592 319.38 44.7206ZM359.856 41.8824C359.856 43.15 359.281 44.3805 358.156 45.5491C357.043 46.724 355.794 47.6576 354.433 48.3873C351.212 49.9949 347.391 50.7988 342.957 50.7988C336.966 50.7988 331.759 48.5418 327.326 44.0218C322.923 39.4833 320.697 33.9554 320.697 27.4506C320.697 21.1869 322.948 15.9125 327.443 11.6089C331.951 7.3301 337.262 5.19067 343.378 5.19067C347.564 5.19067 351.478 6.36549 355.157 8.69659C355.911 9.20981 356.493 9.60554 356.87 9.89616C357.247 10.1806 357.618 10.5578 357.946 11.0586C358.298 11.578 358.465 12.1098 358.465 12.6725C358.465 13.5876 358.001 14.7068 357.074 15.9929C355.497 18.12 354.075 19.1773 352.783 19.1773C352.028 19.1773 350.959 18.7259 349.598 17.7984C347.582 16.5123 345.412 15.8692 343.075 15.8692C340.02 15.8692 337.312 16.9451 334.925 19.0908C332.551 21.2364 331.37 24.0621 331.37 27.5681C331.37 31.0245 332.569 33.9678 334.981 36.404C337.392 38.8341 340.125 40.0522 343.192 40.0522C345.406 40.0522 347.391 39.6812 349.165 38.9763V32.391H344.404C343.631 32.391 343.081 32.3601 342.741 32.3045C342.401 32.2365 342.011 32.0881 341.597 31.816C341.17 31.5625 340.886 31.1173 340.719 30.5051C340.546 29.8806 340.472 29.0335 340.472 27.9329C340.472 26.8941 340.564 26.0408 340.744 25.3977C340.923 24.7485 341.263 24.3095 341.727 24.0621C342.215 23.8333 342.642 23.6849 342.976 23.6169C343.328 23.5613 343.872 23.5304 344.627 23.5304H355.25C356.338 23.5613 357.222 23.7097 357.865 23.9817C358.539 24.2352 359.009 24.631 359.263 25.1813C359.516 25.7316 359.689 26.2139 359.745 26.6158C359.813 27.0425 359.838 27.6917 359.838 28.5883V41.8824H359.856Z" fill="#1A4384"/>
<path d="M199.554 128.844C199.554 138.268 191.911 145.91 182.488 145.91H157.965C162.349 141.545 165.07 135.504 165.07 128.844C165.07 115.575 154.267 104.779 141.004 104.779H140.04V55.3311C140.04 45.9077 147.682 38.2651 157.106 38.2651C166.529 38.2651 174.171 45.9077 174.171 55.3311V111.779H182.488C191.911 111.779 199.554 119.415 199.554 128.844Z" fill="#1A4384"/>
<path d="M158.07 128.844C158.07 138.268 150.428 145.91 141.004 145.91H115.628C107.67 145.91 100.998 140.469 99.0938 133.105C109.018 122.247 115.084 107.796 115.084 91.9548C115.084 76.1503 109.043 61.7184 99.1556 50.8667C101.116 43.6013 107.75 38.2651 115.628 38.2651C125.051 38.2651 132.694 45.9077 132.694 55.3311V111.779H141.01C150.428 111.779 158.07 119.415 158.07 128.844Z" fill="#1A4384"/>
<path d="M283.554 80.2005C283.548 80.182 283.548 80.1573 283.536 80.1387C279.918 65.1813 269.221 40.0337 237.699 15.1768C230.18 9.90867 228.931 16.395 228.22 29.9488C228.195 30.5115 227.465 30.7093 227.162 30.2456C223.731 25.0454 210.48 8.80185 206.405 9.95813C200.154 12.4809 181.629 35.0129 181.629 95.7639C181.771 98.8803 182.092 101.892 182.612 104.767C195.838 104.835 206.553 115.612 206.553 128.832C206.553 132.289 205.83 135.572 204.507 138.546C212.366 143.301 222.061 145.898 233.296 145.898C262.055 145.898 285.366 122.587 285.366 93.8347C285.36 89.7414 284.494 85.3636 283.554 80.2005ZM233.333 110.554C222.884 110.554 214.394 102.059 214.394 91.6149C214.394 81.1775 222.884 72.6754 233.333 72.6754C243.771 72.6754 252.273 81.1713 252.273 91.6149C252.273 102.052 243.771 110.554 233.333 110.554ZM266.835 91.9488C261.511 91.9488 257.189 87.6267 257.189 82.3152C257.189 77.0037 261.511 72.6816 266.835 72.6816C272.146 72.6816 276.468 77.0037 276.468 82.3152C276.468 87.6205 272.146 91.9488 266.835 91.9488Z" fill="#1A4384"/>
<path d="M54.0421 37.9126C24.1953 37.9126 0 62.1079 0 91.9547C0 121.802 24.1953 145.997 54.0421 145.997C83.889 145.997 108.084 121.802 108.084 91.9547C108.084 62.1079 83.889 37.9126 54.0421 37.9126ZM54.0421 111.605C43.2028 111.605 34.3854 102.788 34.3854 91.9485C34.3854 81.1092 43.2028 72.2918 54.0421 72.2918C64.8815 72.2918 73.6989 81.1092 73.6989 91.9485C73.6989 102.794 64.8753 111.605 54.0421 111.605Z" fill="#1A4384"/>
</svg>
