<svg width="20" height="18" viewBox="0 0 20 18" fill="none" xmlns="http://www.w3.org/2000/svg">
<path d="M1.20154 9.58911V16.7984C1.20154 17.4616 1.74103 17.9999 2.40308 17.9999H8.41079V9.58911H1.20154Z" fill="#C4C4C4"/>
<path d="M18.0231 4.78304H14.2215C14.4942 4.5968 14.7285 4.41176 14.8919 4.24595C15.8616 3.2715 15.8616 1.68546 14.8919 0.711013C13.9499 -0.238205 12.3086 -0.235802 11.3678 0.711013C10.8463 1.23368 9.46455 3.36161 9.65559 4.78304H9.56908C9.75892 3.36161 8.37715 1.23368 7.85688 0.711013C6.91487 -0.235802 5.27357 -0.235802 4.33276 0.711013C3.36432 1.68546 3.36432 3.2715 4.33156 4.24595C4.49617 4.41176 4.73047 4.5968 5.00322 4.78304H1.20154C0.539492 4.78304 0 5.32253 0 5.98458V7.78689C0 8.11852 0.269145 8.38766 0.600771 8.38766H8.41079V5.98458H10.8139V8.38766H18.6239C18.9555 8.38766 19.2247 8.11852 19.2247 7.78689V5.98458C19.2247 5.32253 18.6864 4.78304 18.0231 4.78304ZM8.3399 4.74339C8.3399 4.74339 8.28944 4.78304 8.11762 4.78304C7.28735 4.78304 5.70252 3.92033 5.18465 3.39886C4.68121 2.89181 4.68121 2.06515 5.18465 1.5581C5.42857 1.31299 5.75178 1.17841 6.09542 1.17841C6.43786 1.17841 6.76108 1.31299 7.00499 1.5581C7.81483 2.37275 8.61986 4.45382 8.3399 4.74339ZM11.1059 4.78304C10.9352 4.78304 10.8848 4.74459 10.8848 4.74339C10.6048 4.45382 11.4098 2.37275 12.2197 1.5581C12.7039 1.06907 13.551 1.06667 14.04 1.5581C14.5447 2.06515 14.5447 2.89181 14.04 3.39886C13.5222 3.92033 11.9373 4.78304 11.1059 4.78304Z" fill="#C4C4C4"/>
<path d="M10.8139 9.58911V17.9999H16.8216C17.4848 17.9999 18.0231 17.4616 18.0231 16.7984V9.58911H10.8139Z" fill="#C4C4C4"/>
</svg>
