<svg width="26" height="26" viewBox="0 0 26 26" fill="none" xmlns="http://www.w3.org/2000/svg">
<path d="M15.736 15.8569C15.7348 15.8539 15.7344 15.8501 15.7327 15.8468C15.1746 13.5381 13.5222 9.65549 8.65537 5.81785C7.49555 5.00446 7.30155 6.00555 7.19321 8.09885C7.18859 8.18577 7.07647 8.21684 7.02902 8.14462C6.49951 7.34215 4.45408 4.83524 3.82462 5.0137C2.85965 5.40213 0 8.88158 0 18.26C0.20618 22.9375 3.18131 26 7.97636 26C12.4157 26 16.0149 22.4004 16.0149 17.9619C16.0136 17.3282 15.8801 16.653 15.736 15.8569ZM7.9814 20.5419C6.36933 20.5419 5.0575 19.2305 5.0575 17.618C5.0575 16.0059 6.36933 14.6941 7.9814 14.6941C9.59389 14.6941 10.9053 16.0059 10.9053 17.618C10.9053 19.2305 9.59389 20.5419 7.9814 20.5419ZM13.154 17.6701C12.333 17.6701 11.6658 17.0024 11.6658 16.1823C11.6658 15.3622 12.333 14.6945 13.154 14.6945C13.9741 14.6945 14.6413 15.3622 14.6413 16.1823C14.6413 17.0024 13.9741 17.6701 13.154 17.6701Z" fill="#C4C4C4"/>
<path d="M16.6047 12.2452C16.2942 12.3214 16.0657 11.9561 16.2698 11.7081C16.725 11.1554 17.0764 10.4406 16.3997 9.98063C15.4788 9.35172 14.7405 8.43766 14.3362 7.30691C13.3215 4.46717 14.7737 1.36956 17.6056 0.333503C20.4581 -0.708501 23.6094 0.77391 24.6298 3.62841C25.8467 7.03254 24.5255 10.2999 16.6047 12.2452Z" fill="#2B7BFB"/>
</svg>
