<svg width="17" height="16" viewBox="0 0 17 16" fill="none" xmlns="http://www.w3.org/2000/svg">
<path d="M12.9137 16C12.7101 16 12.5111 15.9554 12.3265 15.8697C12.2947 15.8572 12.2638 15.8421 12.232 15.8242L8.49889 13.7337L4.76578 15.8251C4.73397 15.843 4.70216 15.8581 4.66943 15.8724C4.22586 16.0758 3.68321 16.0277 3.2869 15.7448C2.8606 15.4414 2.64972 14.9123 2.75425 14.3984L3.62413 10.2565C3.28417 9.95316 2.7497 9.4758 2.16797 8.9565L0.445484 7.41735C0.420942 7.39505 0.395491 7.37007 0.374585 7.34419C0.0337237 6.99085 -0.0880772 6.4787 0.0655374 6.01294C0.222788 5.54539 0.629094 5.1992 1.11993 5.11265C1.15084 5.10551 1.18083 5.10016 1.21265 5.09659L5.48568 4.63172L7.25452 0.786081C7.26997 0.752175 7.28724 0.719161 7.30906 0.687932C7.54721 0.265893 8.00351 0 8.49889 0C8.99246 0 9.44785 0.265893 9.68872 0.68704C9.70781 0.719161 9.72599 0.752175 9.74326 0.786973L11.5139 4.6344L15.787 5.09926C15.8179 5.10194 15.8488 5.10729 15.8815 5.11443C16.3714 5.20366 16.7777 5.54807 16.9341 6.0174C17.0886 6.48227 16.9659 6.9971 16.625 7.35044C16.6032 7.37363 16.5787 7.39862 16.5541 7.42003L13.3746 10.261L14.2444 14.3939C14.3472 14.9177 14.1372 15.445 13.7082 15.7493C13.4791 15.9117 13.2028 16 12.9137 16ZM5.50659 10.1432C5.47114 10.3056 5.08301 12.1472 4.73851 13.7854L8.04986 11.9322C8.32892 11.776 8.67159 11.776 8.94974 11.9322L12.2611 13.7836L11.4894 10.1218C11.4248 9.81307 11.5303 9.49275 11.7693 9.28128L14.5871 6.76333L10.7986 6.352C10.4795 6.3172 10.2041 6.12001 10.0705 5.83092L8.4998 2.42159L6.93093 5.83092C6.79822 6.11822 6.5219 6.31541 6.20285 6.352L2.4143 6.76333L5.23208 9.28128C5.47932 9.50078 5.58112 9.83181 5.50659 10.1432Z" fill="#C4C4C4"/>
</svg>
