<svg width="13" height="15" viewBox="0 0 13 15" fill="none" xmlns="http://www.w3.org/2000/svg">
<path fill-rule="evenodd" clip-rule="evenodd" d="M7.53209 3.09324H7.0904V3.01318C7.21463 3.01318 7.28364 2.9865 7.22843 2.8931C7.14561 2.73299 7.50449 2.74633 7.5597 2.77302C7.64251 2.83973 7.5873 3.01318 7.53209 3.09324ZM6.92477 3.19998H7.46308C7.40787 3.29337 7.24223 3.58691 7.13181 3.58691C7.0766 3.5202 6.93857 3.3334 6.92477 3.19998ZM8.66391 2.57288C8.6363 2.58622 8.60869 2.59956 8.58109 2.59956C8.41545 2.82639 8.51208 2.7997 8.20842 2.99984C8.20842 3.38677 8.22222 3.4268 8.31884 3.77371C8.31884 3.78705 8.31884 3.78705 8.31884 3.80039C8.31884 3.81374 8.30503 3.81373 8.30503 3.81373C8.23602 3.82708 8.1256 3.85376 8.07039 3.86711C8.07039 3.88045 8.098 4.09393 8.07039 4.26738C8.01518 4.52089 7.38027 5.08127 7.24224 5.1213C7.0352 5.16133 6.80055 4.98787 6.42788 4.82776C6.33126 4.78773 5.9862 4.57426 5.80676 4.50755C5.65493 4.45418 5.51691 4.80108 5.69634 4.89447C5.77916 4.9345 5.91718 5.00122 5.95859 5.10796C6.08281 5.42818 5.94479 6.65569 5.68254 6.89585C5.55831 6.89585 5.44789 6.78912 5.36508 6.8158C5.19945 6.9092 5.30987 7.38953 5.36508 7.46959C6.37267 8.47028 6.26225 9.21746 6.69013 9.77784C6.88337 9.77784 6.75914 9.97798 6.91097 10.2181C6.95238 10.3382 6.89717 10.5384 6.88337 10.6184C6.88337 10.7252 6.88337 10.8186 6.88337 10.9253C6.86956 10.952 6.85576 10.992 6.85576 11.0187C6.85576 11.1121 6.85576 11.1921 6.85576 11.2855C6.82815 11.419 6.78675 11.5924 6.75915 11.7125C6.70394 11.966 6.92477 12.1662 6.78675 12.4063C6.78675 12.5531 6.78675 12.5264 6.69013 12.6465C6.69013 12.8733 6.63492 13.367 6.69013 13.5404C6.73154 13.6605 7.17322 14.1675 7.29744 14.2209C7.5735 14.341 7.97377 14.3143 7.83575 14.7279C7.0352 14.9681 6.5383 14.5945 6.11042 14.5945L6.09661 14.6612C5.82056 14.6612 5.61352 14.5945 5.54451 14.5812C5.54451 14.5144 5.62733 13.9674 5.66874 13.874C5.69634 13.834 5.72395 13.7806 5.76536 13.7406C5.79296 13.6472 5.73775 12.9667 5.72395 12.7799C5.55832 12.6598 5.51691 12.2862 5.51691 12.0861C5.4617 11.926 5.4617 11.7392 5.4617 11.5391C5.4617 11.4457 5.39268 11.2989 5.43409 11.1788C5.4617 11.0988 5.55831 11.0587 5.57212 10.992C5.57212 10.912 5.57212 10.8452 5.57212 10.7652C5.61352 10.525 5.59973 10.4183 5.4479 10.2715C5.07523 10.2715 5.02002 10.2982 4.82678 9.99132C4.75777 9.89792 4.24707 9.09737 4.19186 9.08403C3.76398 8.89723 3.8468 8.97729 3.65356 8.64373C3.63976 8.64373 3.52933 8.68375 3.43271 8.83052C3.28088 9.05734 3.00483 9.77784 2.92201 10.0313C2.88061 10.1781 2.92201 10.3249 2.853 10.445C2.81159 10.525 2.64597 10.5517 2.61836 10.6184C2.46653 10.8853 2.57695 10.8586 2.2871 11.0454C2.23189 11.1121 2.23189 11.2055 2.19048 11.2855C2.16287 11.3122 2.14907 11.3389 2.12146 11.3789C2.06625 11.4857 2.17668 11.6591 2.14907 11.7258C2.09386 11.886 2.03865 12.0594 1.96964 12.2062C1.83161 12.5131 1.85922 12.9133 1.72119 13.1001C1.65218 13.1935 1.48654 13.1001 1.36232 13.1802C1.34852 13.2469 1.15528 13.6739 1.11388 13.7939C1.11388 14.0208 1.11388 14.2476 1.11388 14.4878C1.15528 14.6078 1.2519 14.7146 1.22429 14.8613C1.19669 15.0215 0.630782 15.0215 0.327125 14.9681C0.120085 14.9414 0.0648804 14.7946 0.0648804 14.6212C0.0648804 14.421 0.478953 13.1268 0.465151 13.0468C0.147691 12.6999 0.547966 12.3529 0.67219 12.0327C0.7274 11.8726 0.6998 11.6591 0.755011 11.5124C0.865431 11.3122 0.975848 11.1254 1.08627 10.9253C1.29331 10.7385 1.19669 10.7252 1.30712 10.565C1.40373 10.4183 1.51415 10.3249 1.44514 10.0981C1.30711 9.65775 1.59697 9.03066 1.62457 8.56367C1.56936 8.5103 1.40373 8.52364 1.37613 8.39022C1.33472 8.09668 1.48655 7.58967 1.58317 7.54964C1.62457 7.52295 1.67978 7.54964 1.70739 7.52295C1.70739 7.30947 1.48655 6.10865 1.65218 6.04194C1.7626 6.00191 1.99724 5.98856 2.03865 5.96188C2.03865 5.90851 1.99724 5.80177 1.95583 5.80177C1.88682 5.78843 1.73499 5.76175 1.61077 5.73506C1.23809 5.655 1.58317 4.24069 1.58317 4.22735C1.67979 4.09392 2.16287 4.26738 2.21808 4.0539C2.36991 3.85376 2.09386 3.10658 2.63216 2.1726C2.8116 1.86573 3.17046 1.5455 3.57074 1.67893C3.70876 1.71896 3.62595 1.9191 3.8606 1.70562C3.8606 1.58553 3.80538 1.49213 3.77778 1.38539C3.3775 0.237935 4.73016 -0.389163 5.68254 0.264621C5.79296 0.304648 5.84817 0.331332 5.93099 0.384703C5.9862 0.651553 6.24844 1.1052 5.98619 1.41208C5.87577 1.43876 5.73775 1.49213 5.65494 1.5455C5.65494 1.65224 5.66873 1.74564 5.68254 1.81235C5.69634 1.86572 5.73775 1.89241 5.64113 1.93244C5.62733 1.93244 5.64113 1.97246 5.64113 1.98581C5.86197 2.02583 6.09662 1.94578 6.24845 1.89241H6.42788V1.67893H6.46929H6.51069V1.50548H6.59351V1.79901H6.81435V1.89241H10.0856V2.05252H10.2236V1.4521H10.3478V1.94578H10.6239V2.22597H11.4934V2.14592H11.6315V2.18594H12.0455V2.41277H11.6315V2.45279H11.4934V2.37274H10.6239V2.45279C10.4997 2.45279 10.3754 2.45279 10.2374 2.45279V2.39942H10.0718V2.57288H8.66391Z" fill="#979797"/>
</svg>
