<svg width="15" height="15" viewBox="0 0 15 15" fill="none" xmlns="http://www.w3.org/2000/svg">
<path d="M15 0H13.1384L12.3633 0.387568L11.5881 0H7.93945L7.06055 0.439453H4.63131L3.7524 0H0V7.06055L0.439453 7.93945V10.3687L0 11.2476V15H7.5L8.27517 14.6124L9.05033 15H15V9.05033L14.6124 8.27517L15 7.5V0ZM3.95508 12.3633L2.63672 11.0449V8.4082L6.5918 12.3633H3.95508ZM11.9238 12.3633H10.166L9.02681 11.0246L8.79187 10.0704L7.8876 9.6859L7.5 9.23045L2.63672 3.51562L3.51562 2.63672L7.5 5.63159L12.3633 9.28711L11.9238 12.3633ZM12.3633 6.5918L8.4082 2.63672H11.0449L12.3633 3.95508V6.5918Z" fill="#2B7BFB"/>
</svg>
