<svg width="51" height="24" viewBox="0 0 51 24" fill="none" xmlns="http://www.w3.org/2000/svg">
<path d="M35.1902 20.9754C35.1902 22.6372 33.8425 23.9849 32.1807 23.9849H27.8562C28.6293 23.2151 29.1091 22.1498 29.1091 20.9754C29.1091 18.6355 27.2042 16.7316 24.8653 16.7316H24.6952V8.0118C24.6952 6.35005 26.0429 5.00232 27.7047 5.00232C29.3664 5.00232 30.7141 6.35005 30.7141 8.0118V17.966H32.1807C33.8425 17.966 35.1902 19.3126 35.1902 20.9754Z" fill="white"/>
<path d="M27.8747 20.9754C27.8747 22.6372 26.527 23.9849 24.8652 23.9849H20.3903C18.9869 23.9849 17.8104 23.0254 17.4745 21.7267C19.2246 19.812 20.2943 17.2638 20.2943 14.4702C20.2943 11.6831 19.229 9.13817 17.4854 7.22454C17.8311 5.94333 19.0011 5.00232 20.3903 5.00232C22.052 5.00232 23.3997 6.35005 23.3997 8.0118V17.966H24.8663C26.527 17.966 27.8747 19.3126 27.8747 20.9754Z" fill="white"/>
<path d="M50.0032 12.3972C50.0021 12.3939 50.0022 12.3896 50 12.3863C49.3621 9.74864 47.4757 5.31401 41.9169 0.930644C40.591 0.00163157 40.3707 1.14545 40.2453 3.53559C40.241 3.63481 40.1123 3.6697 40.0589 3.58793C39.4537 2.67091 37.117 -0.193549 36.3984 0.0103545C35.296 0.455234 32.0292 4.42862 32.0292 15.1417C32.0543 15.6913 32.111 16.2223 32.2026 16.7293C34.535 16.7413 36.4246 18.6419 36.4246 20.9731C36.4246 21.5826 36.297 22.1616 36.0637 22.6861C37.4496 23.5246 39.1593 23.9826 41.1405 23.9826C46.212 23.9826 50.3227 19.8718 50.3227 14.8015C50.3216 14.0797 50.169 13.3077 50.0032 12.3972ZM41.1471 17.7499C39.3043 17.7499 37.8072 16.2517 37.8072 14.4101C37.8072 12.5695 39.3043 11.0702 41.1471 11.0702C42.9877 11.0702 44.4869 12.5684 44.4869 14.4101C44.4869 16.2506 42.9877 17.7499 41.1471 17.7499ZM47.0548 14.4689C46.116 14.4689 45.3538 13.7067 45.3538 12.7701C45.3538 11.8335 46.116 11.0713 47.0548 11.0713C47.9915 11.0713 48.7536 11.8335 48.7536 12.7701C48.7536 13.7057 47.9915 14.4689 47.0548 14.4689Z" fill="white"/>
<path d="M9.53001 4.94C4.2667 4.94 0 9.2067 0 14.47C0 19.7333 4.2667 24 9.53001 24C14.7933 24 19.06 19.7333 19.06 14.47C19.06 9.2067 14.7933 4.94 9.53001 4.94ZM9.53001 17.9353C7.61856 17.9353 6.06366 16.3804 6.06366 14.4689C6.06366 12.5575 7.61856 11.0026 9.53001 11.0026C11.4415 11.0026 12.9964 12.5575 12.9964 14.4689C12.9964 16.3815 11.4404 17.9353 9.53001 17.9353Z" fill="white"/>
</svg>
