<svg width="751" height="810" viewBox="0 0 751 810" fill="none" xmlns="http://www.w3.org/2000/svg">
<path d="M529.198 496.428C529.154 496.325 529.139 496.193 529.08 496.075C509.461 415.142 451.372 279.037 280.278 144.507C239.505 115.994 232.685 151.087 228.876 224.469C228.714 227.516 224.772 228.605 223.104 226.073C204.489 197.942 132.582 110.062 110.454 116.318C76.5305 129.934 -24 251.907 -24 580.673C-16.7518 744.644 87.8383 852 256.408 852C412.473 852 539 725.817 539 570.222C538.956 548.009 534.261 524.338 529.198 496.428ZM256.585 660.664C199.913 660.664 153.796 614.692 153.796 558.166C153.796 501.654 199.913 455.668 256.585 455.668C313.272 455.668 359.374 501.654 359.374 558.166C359.374 614.692 313.272 660.664 256.585 660.664ZM438.425 559.991C409.565 559.991 386.108 536.586 386.108 507.837C386.108 479.088 409.565 455.682 438.425 455.682C467.256 455.682 490.713 479.088 490.713 507.837C490.713 536.586 467.256 559.991 438.425 559.991Z" fill="#C4C4C4" fill-opacity="0.15"/>
<path d="M733.695 64.2893C707.266 -23.3299 614.586 -72.7199 527.099 -45.5793C440.265 -18.5938 391.877 72.6237 418.161 159.798C428.621 194.502 449.484 223.175 476.282 243.509C495.978 258.379 484.327 279.427 469.784 295.41C463.282 302.574 469.592 313.921 479.077 312.099C720.527 265.317 765.243 168.765 733.695 64.2893ZM566.59 166.39C563.614 170.517 560.192 173.976 556.299 176.849C547.003 183.248 535.547 187.412 521.885 189.423C503.275 192.105 486.198 187.397 470.487 175.332C454.776 163.288 445.518 147.143 442.646 126.978C439.864 107.527 444.477 90.174 456.57 74.883C468.599 59.6305 484.087 50.6194 502.969 47.9298C515.893 46.0908 528.591 47.9531 540.936 53.552C543.539 54.8286 545.468 55.8215 546.767 56.5118C548.065 57.2229 549.408 58.27 550.691 59.7103C551.955 61.108 552.711 62.6473 552.976 64.4542C553.334 67.3085 552.423 70.9547 550.142 75.3462C546.238 82.6395 542.294 86.552 538.307 87.1254C535.935 87.4871 532.444 86.4791 527.806 84.2461C520.98 81.1743 513.992 80.1175 506.795 81.1568C497.312 82.4996 489.376 87.0895 482.993 94.8017C476.569 102.512 474.191 111.779 475.757 122.598C477.285 133.332 482.313 141.966 490.805 148.395C499.357 154.869 508.376 157.404 517.879 156.062C524.72 155.067 530.693 153.07 535.842 150.073L532.899 129.675L518.212 131.781C515.84 132.142 514.083 132.284 513.002 132.251C511.921 132.198 510.666 131.885 509.259 131.273C507.855 130.619 506.749 129.396 505.966 127.542C505.204 125.69 504.564 123.072 504.066 119.668C503.623 116.434 503.525 113.802 503.794 111.75C504.064 109.657 504.888 108.175 506.293 107.161C507.673 106.208 508.893 105.559 509.928 105.277C510.968 104.891 512.629 104.577 515.042 104.217L547.879 99.469C551.228 99.1559 553.997 99.1894 556.179 99.7151C558.339 100.261 559.954 101.3 561.064 102.857C562.111 104.411 562.769 105.841 563.184 107.134C563.56 108.362 563.937 110.425 564.345 113.115L570.191 154.285C570.766 158.234 569.544 162.282 566.59 166.39ZM703.089 163.608C702.877 167.873 700.739 171.917 696.761 175.661C692.824 179.428 688.47 182.361 683.777 184.588C672.681 189.459 659.705 191.525 644.806 190.783C624.67 189.782 607.551 181.317 593.409 165.367C579.373 149.36 572.818 130.389 573.907 108.502C574.955 87.4262 583.402 70.0558 599.23 56.3271C615.094 42.6837 633.302 36.3732 653.853 37.3957C667.921 38.0956 680.878 42.703 692.852 51.1616C695.301 53.0146 697.189 54.4433 698.407 55.4842C699.627 56.5043 700.811 57.8354 701.829 59.5754C702.926 61.382 703.398 63.1991 703.304 65.0924C703.151 68.1715 701.405 71.8597 698.072 76.0321C692.418 82.9254 687.461 86.2452 683.118 86.0292C680.583 85.903 677.064 84.2054 672.647 80.8572C666.089 76.1927 658.902 73.6661 651.048 73.2753C640.782 72.7646 631.501 75.9319 623.121 82.7522C614.782 89.5745 610.34 98.885 609.753 110.681C609.174 122.311 612.713 132.415 620.409 141.016C628.107 149.595 637.087 154.151 647.394 154.663C654.833 155.034 661.566 154.117 667.648 152.042L668.75 129.885L652.75 129.089C650.152 128.959 648.308 128.763 647.174 128.519C646.043 128.234 644.758 127.669 643.412 126.684C642.02 125.76 641.139 124.215 640.681 122.127C640.203 119.997 640.096 117.134 640.28 113.431C640.454 109.935 640.908 107.08 641.618 104.946C642.33 102.792 643.546 101.371 645.146 100.617C646.826 99.9285 648.285 99.5005 649.418 99.3275C650.612 99.1992 652.446 99.1862 654.981 99.3123L690.681 101.088C694.333 101.374 697.279 102.022 699.395 103.044C701.618 104.01 703.131 105.42 703.89 107.314C704.65 109.208 705.151 110.86 705.271 112.222C705.428 113.669 705.403 115.857 705.252 118.874L703.027 163.605L703.089 163.608Z" fill="#C4C4C4" fill-opacity="0.15"/>
</svg>
