<svg width="16" height="15" viewBox="0 0 16 15" fill="none" xmlns="http://www.w3.org/2000/svg">
<path d="M15.5731 0.397018C15.8458 0.647021 15.8826 1.01533 15.8854 1.31332C15.8862 1.39324 15.886 1.4602 15.8854 1.52784C15.8838 1.85619 15.8854 2.76044 15.8854 2.76044V4.20332V5.14485C15.8854 5.14485 15.8874 6.23817 15.8854 6.63549C15.8858 6.82322 15.8866 7.00827 15.8856 7.23461C15.884 7.55649 15.8389 7.88038 15.7087 8.14422C15.5436 8.48708 15.2333 8.70896 14.9104 8.83441C10.3504 10.5579 6.19273 12.1572 1.63277 13.8809C1.41976 13.9693 1.20816 14.0235 0.956569 13.9706C0.755418 13.9233 0.573357 13.8182 0.446959 13.6503C0.164624 13.3005 0.12142 12.9753 0.114186 12.6112C0.113181 12.3492 0.114186 11.6106 0.114186 11.6106L0.114788 10.4148L0.114186 8.11542C0.114186 8.11542 0.114788 7.51809 0.114788 7.21496C0.11097 6.81295 0.119812 6.26183 0.329202 5.92968C0.534574 5.59843 0.888045 5.37789 1.22705 5.24641C5.82138 3.57831 9.02352 2.2178 13.618 0.550368C14.0226 0.409964 13.9566 0.432732 14.1787 0.349919C14.7068 0.152818 15.0729 -0.0549972 15.5731 0.397018Z" fill="black"/>
<path d="M1.1545 14.1176C1.08498 14.1176 1.01223 14.1107 0.935468 14.0947C0.694328 14.038 0.49599 13.9123 0.359746 13.7313C0.0410385 13.3366 0.00747982 12.9627 0.000446556 12.6138C-0.000558195 12.3493 0.000446556 11.6102 0.000446556 11.6102L0.00104941 10.4147L0.000446556 8.11534C0.000446556 8.11511 0.00104941 7.51801 0.00104941 7.21488C-0.0037734 6.71175 0.0213454 6.19812 0.23596 5.85705C0.47911 5.46508 0.888647 5.24365 1.18947 5.1269C3.48412 4.29386 5.46268 3.52532 7.37593 2.78223C9.2956 2.03646 11.2808 1.26547 13.5827 0.43019C13.9271 0.310545 13.9297 0.309652 14.0597 0.260991L14.1423 0.229964C14.1912 0.21166 14.2386 0.193356 14.285 0.175499C14.745 -0.00218209 15.1423 -0.155532 15.6448 0.298715L15.6454 0.299384C15.9531 0.581308 15.9961 0.988456 15.9991 1.31167C15.9999 1.39248 15.9997 1.46011 15.9991 1.52864C15.9975 1.85231 15.9991 2.75076 15.9991 2.75991V5.14454C15.9991 5.15525 16.0011 6.24254 15.9991 6.63608L15.9993 6.75103C15.9997 6.90103 16.0001 7.05505 15.9991 7.23519C15.9971 7.6256 15.933 7.95194 15.8084 8.20485C15.6054 8.62583 15.2283 8.84459 14.9477 8.95374C12.6611 9.81804 10.4396 10.6647 8.29146 11.4837C6.15395 12.2984 3.94349 13.1411 1.66914 14.0007C1.52486 14.0605 1.35405 14.1176 1.1545 14.1176ZM14.9616 0.253178C14.7771 0.253178 14.5884 0.325947 14.3596 0.414341C14.3125 0.432422 14.2643 0.451172 14.2147 0.469699L14.1323 0.500503C14.0023 0.549164 13.9972 0.551173 13.6518 0.671041C11.3535 1.50498 9.36955 2.27575 7.45108 3.02085C5.53663 3.76439 3.55707 4.53337 1.26241 5.36642C0.995753 5.46977 0.631631 5.66463 0.423045 6.00125C0.220085 6.32357 0.225913 6.9247 0.228726 7.21354C0.228726 7.51801 0.228123 8.11534 0.228123 8.11534L0.228726 10.4147L0.228123 11.6105C0.228123 11.6107 0.227119 12.3486 0.228123 12.6105C0.235558 12.9857 0.287605 13.2632 0.53196 13.5656C0.637861 13.7063 0.79199 13.8022 0.980481 13.8467C1.21921 13.8967 1.41614 13.8357 1.59318 13.7623C3.87035 12.9013 6.0806 12.0589 8.21811 11.2442C10.3665 10.4252 12.588 9.57852 14.874 8.71445C15.1153 8.62048 15.4399 8.43454 15.6089 8.08409C15.7158 7.86734 15.7704 7.58162 15.7722 7.2334C15.773 7.05394 15.7728 6.90059 15.7724 6.75126L15.7722 6.63518C15.7742 6.24165 15.7722 5.15548 15.7722 5.14454V2.76013C15.7722 2.75143 15.7706 1.85208 15.7722 1.52686C15.7728 1.45967 15.773 1.39337 15.7722 1.31435C15.7696 1.0293 15.7353 0.708988 15.5016 0.494476C15.3052 0.317688 15.1352 0.253178 14.9616 0.253178Z" fill="white"/>
<path d="M12.7568 1.97182C13.516 1.6832 14.1865 1.43252 14.9459 1.14524C14.9773 1.13341 14.9885 1.14658 14.9885 1.1727C14.9883 1.20685 14.9885 1.3294 14.9885 1.3294V1.87673V2.68879V4.17631C14.9885 4.17631 14.9905 5.3328 14.9885 5.81986C14.9849 6.67947 14.9885 7.28372 14.9885 7.28372C14.9885 7.28372 14.9903 7.6672 14.9897 7.85873C14.9897 7.87212 14.9791 7.8806 14.9686 7.8835C14.2422 8.1565 13.5157 8.42972 12.7891 8.70249C12.7734 8.71231 12.7543 8.6978 12.7568 8.67816C12.7535 8.23931 12.7564 7.36184 12.7564 7.36184V5.15936V2.28253C12.7564 2.28253 12.7572 2.05463 12.7568 1.97182Z" fill="#FFEF00"/>
<path d="M12.3778 2.09682C12.4059 2.08878 12.4437 2.112 12.4437 2.14347C12.4455 2.38655 12.4437 2.93187 12.4437 2.93187V7.33305C12.4437 7.33305 12.4363 7.77725 12.4437 8.09623C12.4459 8.19355 12.4457 8.2911 12.4461 8.36587C12.4495 8.3902 12.4184 8.40159 12.4087 8.37949C11.6718 7.32613 10.9348 6.27277 10.1981 5.21918C10.1862 5.19954 10.1655 5.18347 10.1649 5.15802C10.1645 4.41872 10.1631 3.68612 10.1643 2.94705C10.1643 2.93634 10.1699 2.92607 10.177 2.9225C10.9076 2.64749 11.6477 2.3716 12.3778 2.09682Z" fill="#FFEF00"/>
<path d="M7.70408 3.86796C8.03023 3.7472 8.29186 3.64943 8.61801 3.52867C8.64332 3.51662 8.65518 3.55032 8.66885 3.56729C9.88741 5.30972 11.1062 7.05215 12.3251 8.79436C12.3374 8.8149 12.3617 8.83365 12.3529 8.86133C11.6182 9.14124 10.8821 9.41714 10.1472 9.69616C10.1364 9.7013 10.1235 9.70085 10.1171 9.68857C9.90288 9.37451 9.69007 9.05888 9.47546 8.74503C8.88467 8.9678 8.29367 9.19058 7.70268 9.41312C7.687 9.42228 7.66972 9.40598 7.67273 9.38768C7.66912 8.96602 7.67454 8.55575 7.67113 8.13409C7.67253 8.10061 7.67736 8.08945 7.71252 8.07605C8.07082 7.93676 8.39113 7.81444 8.74963 7.67538C8.38289 7.13363 8.06298 6.65773 7.69584 6.11643C7.66771 6.06911 7.67273 6.06955 7.67273 6.05906C7.67233 6.02826 7.67273 5.92558 7.67273 5.92558V5.65749V4.96909C7.67273 4.96909 7.67193 4.75971 7.67273 4.65614C7.67414 4.44364 7.67153 4.27957 7.67273 4.06484C7.67294 4.02578 7.67233 3.96528 7.67294 3.92287C7.67253 3.87421 7.68097 3.87622 7.70408 3.86796Z" fill="#FFEF00"/>
<path d="M7.30118 4.02779C7.35584 4.00747 7.39261 4.03694 7.39261 4.08158C7.39261 4.30993 7.39261 4.65347 7.39261 4.65347C7.39261 4.65347 7.3906 5.17021 7.39261 5.90884C7.39342 6.22782 7.39181 6.99144 7.39181 6.99144C7.39181 6.99144 7.39201 7.23207 7.39261 7.35283C7.39482 7.83052 7.39302 8.81379 7.39302 8.81379C7.39302 8.81379 7.3908 9.22719 7.39261 9.42719C7.39583 9.75934 7.39362 10.0497 7.39261 10.333C7.39281 10.3567 7.36147 10.3605 7.35303 10.3406C6.63182 9.31692 5.90136 8.2861 5.18176 7.26087C5.18136 7.20171 5.18176 7.06287 5.18176 7.06287L5.18236 6.35527C5.18236 6.35527 5.18156 5.85817 5.18176 5.61642C5.18176 5.49343 5.18256 5.1778 5.18256 5.1778L5.18276 5.08026C5.18276 5.08026 5.18236 4.95927 5.18176 4.9057C5.18176 4.83516 5.18558 4.82824 5.20969 4.81374C5.92608 4.54387 6.58459 4.29721 7.30118 4.02779Z" fill="#FFEF00"/>
<path d="M3.26329 5.56276C3.27836 5.55495 3.29785 5.56879 3.29524 5.58932C3.2868 7.80565 3.30267 9.97643 3.29524 12.193C3.29444 12.222 3.3073 12.2937 3.25706 12.3091C2.5258 12.5843 1.81383 12.8512 1.08258 13.1265C1.03113 13.1454 1.03133 13.1046 1.03113 13.0843C1.03013 12.9267 1.03113 12.6144 1.03113 12.6144V7.85654L1.03194 6.6909C1.03194 6.6909 1.03153 6.52527 1.03113 6.46143C1.03113 6.41277 1.0464 6.39982 1.07474 6.38598C1.83011 6.10183 2.50832 5.84647 3.26329 5.56276Z" fill="#FFEF00"/>
<path d="M3.59543 5.61443C3.60648 5.60685 3.62095 5.61086 3.62798 5.62336C4.83489 7.33388 6.05526 9.04484 7.26217 10.7551C7.27684 10.7685 7.27121 10.7944 7.25212 10.7975C6.52327 11.0721 5.79402 11.3462 5.06498 11.6201C5.04167 11.6328 5.02941 11.6022 5.01735 11.5862C4.54934 10.9087 4.08112 10.2312 3.61291 9.55377C3.60326 9.53859 3.58799 9.5252 3.5888 9.50533C3.59241 8.21558 3.58618 6.92628 3.5888 5.63676C3.58859 5.62872 3.5904 5.62068 3.59543 5.61443Z" fill="#FFEF00"/>
</svg>
