<svg width="18" height="18" viewBox="0 0 18 18" fill="none" xmlns="http://www.w3.org/2000/svg">
<path d="M9.00001 18C13.9624 18 17.9995 13.9626 17.9995 9C17.9995 4.03739 13.9624 0 9.00001 0C4.03761 0 0.000521505 4.03739 0.000521505 9C0.000521505 11.1848 0.77388 13.251 2.19118 14.8858L0.191339 16.8594C-0.213982 17.2595 0.0667923 17.9545 0.638773 17.9572C0.643177 17.9573 8.99565 18 9.00001 18ZM5.17362 5.81473H12.8692C13.2233 5.81473 13.5104 6.10187 13.5104 6.45606C13.5104 6.81024 13.2233 7.09739 12.8692 7.09739H5.17362C4.81943 7.09739 4.53233 6.81024 4.53233 6.45606C4.53233 6.10187 4.81948 5.81473 5.17362 5.81473ZM5.17362 8.38005H12.8692C13.2233 8.38005 13.5104 8.66719 13.5104 9.02138C13.5104 9.37556 13.2233 9.66271 12.8692 9.66271H5.17362C4.81943 9.66271 4.53233 9.37556 4.53233 9.02138C4.53233 8.66719 4.81948 8.38005 5.17362 8.38005ZM4.53233 11.5867C4.53233 11.2325 4.81943 10.9454 5.17362 10.9454H12.8692C13.2233 10.9454 13.5104 11.2325 13.5104 11.5867C13.5104 11.9409 13.2233 12.228 12.8692 12.228H5.17362C4.81948 12.228 4.53233 11.9409 4.53233 11.5867Z" fill="#C4C4C4"/>
</svg>
