<svg width="13" height="80" viewBox="0 0 13 80" fill="none" xmlns="http://www.w3.org/2000/svg">
<path d="M0.547121 51.5888L3.62511 52.0925C3.28545 52.913 3.06288 53.7774 2.96366 54.6601C2.96366 56.5005 4.26288 58.1774 6.1355 58.1774C8.47606 58.1774 9.06109 56.7231 8.98511 55.0761C8.9507 54.4455 8.79785 53.827 8.53461 53.2531L8.19494 52.1863L11.0624 51.717L11.3958 52.5792C11.8919 53.6822 12.1185 54.888 12.0573 56.0965C11.9697 60.1993 8.98511 62.075 5.94779 61.8113C4.0622 61.6308 2.33438 60.6784 1.17327 59.1789C0.371032 57.9825 -0.0379062 56.5644 0.00276414 55.1231C0.0255574 53.9316 0.20835 52.7485 0.547121 51.6058L0.547121 51.5883L0.547121 51.5888ZM0.27226 18.6811L11.8468 20.8969L11.8468 17.4971L7.28812 16.6355L11.8468 14.4196L11.8468 8.03615L4.16321 4.05045L8.54623 3.61692L7.96075 4.9881L10.0971 6.04911L11.8526 3.21201L11.8526 -6.15532e-05L0.27807 1.64106L0.27807 5.31034L10.8635 11.1079L5.90712 13.5928L0.27807 8.18855L0.27807 12.2216L4.06354 16.0138L0.27807 15.2929L0.27226 18.6811ZM0.272261 30.252L0.143544 26.0022C0.102427 24.1148 0.564549 22.0044 2.57751 21.3421C3.81863 20.9479 5.16835 21.4475 5.85438 22.5555C7.13036 20.7499 9.76947 21.1959 10.9453 22.8017C11.9107 24.1206 11.9228 25.3577 11.9053 26.905L11.8468 32.2744L0.272261 30.252ZM2.88232 27.7081L4.725 28.0187L4.725 25.9025C4.725 25.3166 4.725 24.6779 4.04656 24.4196C3.76142 24.3061 3.43785 24.3526 3.19695 24.5421C2.95561 24.732 2.8336 25.0359 2.87606 25.3398L2.88187 27.7081L2.88232 27.7081ZM9.01416 28.816L9.01416 26.5532C9.01416 25.8498 8.88589 24.9649 8.03718 24.7946C7.80254 24.7597 7.56388 24.8196 7.37394 24.9617C7.18354 25.1039 7.05796 25.3157 7.02489 25.5508C7.01595 25.6209 7.01595 25.692 7.02489 25.7622L7.02489 28.4701L9.03785 28.816L9.01461 28.816L9.01416 28.816ZM0.278518 38.2882L11.8468 44.648L11.8468 42.8254C11.7824 41.2893 11.3494 40.9318 10.9865 40.6565C8.69818 39.2732 6.53327 38.2592 4.1574 37.0279L8.61058 36.6176L8.02511 37.9897L10.1793 39.056L11.8231 35.8203L11.8231 32.9658L0.278071 34.6189L0.278071 38.2882L0.278518 38.2882ZM0.278518 50.3284L0.278518 41.5999L3.4964 42.1863L3.4964 44.7302L11.8472 46.3249L11.8472 49.7126L3.51427 48.1184L3.51427 50.8911L0.278518 50.328L0.278518 50.3284Z" fill="#0085CA"/>
<path d="M0.272262 73.3823L10.8868 75.3108L0.295501 64.7598L0.295501 60.0232L5.56209 65.3461L11.841 61.1723L11.841 64.0505L11.8468 64.0505C11.841 65.1325 11.3078 66.1439 10.4189 66.7589L8.42332 68.0715L11.841 71.2778L11.841 79.027C9.81014 78.6637 7.75606 78.2883 5.71405 77.9191L4.73707 77.5911L5.85438 80L2.88768 80L0.272262 75.9906L0.272262 73.3823ZM0.272262 69.9061C0.323659 68.9966 0.746899 68.1484 1.44232 67.5616L1.69975 67.3739L4.60835 70.3048L0.272262 73.1008L0.272262 69.9061Z" fill="#002D72"/>
</svg>
