<svg width="14" height="80" viewBox="0 0 14 80" fill="none" xmlns="http://www.w3.org/2000/svg">
<path fill-rule="evenodd" clip-rule="evenodd" d="M10.5342 6.40231L10.5342 6.80765C10.5342 7.09122 10.5617 7.28012 10.6176 7.37561C10.6739 7.47111 10.7618 7.51948 10.8819 7.51948C10.9612 7.51948 11.0312 7.49029 11.0921 7.43316C11.1526 7.37645 11.1826 7.24885 11.1826 7.0516L11.1826 6.53785L10.5342 6.40231ZM10.1101 5.79557L12.6467 6.33684L12.6467 6.84602L11.5896 6.62083L11.5875 6.67879C11.5875 6.83017 11.6096 6.94735 11.6526 7.03117C11.6959 7.11499 11.7827 7.21256 11.9132 7.32307L12.6467 7.95025L12.6467 8.5937L11.8215 7.89062C11.6572 7.75092 11.56 7.62916 11.5287 7.52615C11.4991 7.69921 11.4257 7.82724 11.3102 7.91106C11.1949 7.99494 11.0554 8.03912 10.9128 8.03699C10.6968 8.03699 10.5091 7.954 10.3498 7.78803C10.1901 7.62248 10.1101 7.3802 10.1101 7.06078L10.1101 5.79557ZM10.1101 10.8017L10.1101 10.3209L11.6826 10.6504L10.1105 9.28593L10.1105 8.80136L12.6467 9.33597L12.6467 9.82387L11.0567 9.48193L12.6467 10.8568L12.6467 11.3397L10.1101 10.8017ZM11.5133 12.5928L11.5133 13.5673L12.6467 13.803L12.6467 14.3221L10.1101 13.7946L10.1101 13.2771L11.0892 13.4802L11.0892 12.5056L10.1101 12.3009L10.1101 11.7838L12.6467 12.3096L12.6467 12.8284L11.5133 12.5928ZM11.6638 15.7266L10.6426 15.8726L11.6643 16.481L11.6643 15.7266L11.6638 15.7266ZM12.0858 15.6624L12.0858 16.6615L12.6467 16.9635L12.6467 17.4964L10.1101 16.0719L10.1101 15.496L12.6467 15.0869L12.6467 15.579L12.0858 15.6624ZM10.1101 19.7357L10.1101 17.7387L12.6467 18.2749L12.6467 18.7924L10.5342 18.3437L10.5342 19.3116L12.6467 19.7599L12.6467 20.2753L10.1101 19.7357ZM12.6467 22.2073L12.6467 22.6994L10.5271 22.7903L12.6467 23.1906L12.6467 23.6581L10.1101 23.1322L10.1101 22.3933L11.8869 22.3162L10.1105 21.4567L10.1105 20.7086L12.6467 21.2365L12.6467 21.7094L10.5425 21.2123L12.6467 22.2073ZM11.6417 26.1597C11.8156 26.1597 11.9616 26.1068 12.0792 26.0013C12.1964 25.8953 12.2556 25.7569 12.2556 25.5851C12.2556 25.4454 12.2089 25.3111 12.1163 25.1818C12.0233 25.053 11.8828 24.9471 11.6939 24.8624C11.5054 24.7786 11.3219 24.7365 11.1434 24.7365C10.9432 24.7365 10.7869 24.7894 10.6734 24.8958C10.6176 24.9476 10.5735 25.0107 10.5441 25.081C10.5146 25.1513 10.5006 25.227 10.5029 25.3032C10.5029 25.5563 10.6213 25.7619 10.8594 25.9212C11.09 26.0779 11.3626 26.1611 11.6413 26.1597L11.6417 26.1597ZM11.6513 26.6714C11.502 26.6714 11.344 26.6485 11.1776 26.6043C10.9549 26.5459 10.7618 26.457 10.598 26.3374C10.4354 26.2185 10.3026 26.0634 10.2102 25.8845C10.1142 25.7019 10.0671 25.4946 10.0671 25.2619C10.0671 24.9504 10.1643 24.6989 10.359 24.5071C10.5542 24.3145 10.8127 24.2186 11.1342 24.2186C11.4024 24.2186 11.6609 24.2811 11.9111 24.4062C12.1613 24.5309 12.354 24.7002 12.4887 24.9145C12.6248 25.1324 12.6952 25.3849 12.6913 25.6418C12.6913 25.8766 12.6376 26.0738 12.5308 26.2331C12.4341 26.3829 12.2953 26.5008 12.1317 26.5717C11.9733 26.6385 11.8135 26.6718 11.6513 26.6718L11.6513 26.6714ZM10.1101 28.8453L10.1101 28.3315L11.1859 28.5584C11.1859 28.4608 11.1659 28.3853 11.1246 28.3315C11.0838 28.2773 10.9645 28.1939 10.7673 28.0809C10.5588 27.9599 10.4149 27.8674 10.3357 27.8023C10.2573 27.7369 10.1993 27.663 10.1639 27.5805C10.1276 27.4975 10.1101 27.3728 10.1101 27.2052L10.1101 27.0684L10.4908 27.181L10.4908 27.266C10.4879 27.3162 10.4985 27.3662 10.5217 27.4108C10.5425 27.4449 10.5934 27.4837 10.6739 27.5271C10.927 27.6639 11.0971 27.7723 11.1843 27.8536C11.2655 27.9241 11.3241 28.0169 11.3528 28.1205C11.4074 27.9483 11.56 27.8344 11.809 27.7781L11.8486 27.7677L12.6467 27.5413L12.6467 28.0738L11.8611 28.2852C11.8053 28.304 11.75 28.3241 11.6951 28.3453C11.5971 28.3911 11.5467 28.4879 11.5446 28.6359L12.6467 28.8711L12.6467 29.3832L10.1101 28.8453ZM10.5342 31.8415L10.5342 32.2468C10.5342 32.5303 10.5617 32.7193 10.6176 32.8148C10.6739 32.9107 10.7619 32.9586 10.8819 32.9586C10.9612 32.9586 11.0312 32.9298 11.0921 32.8723C11.1526 32.8152 11.1826 32.688 11.1826 32.4912L11.1826 31.977L10.5342 31.8415ZM10.1101 31.2351L12.6467 31.7756L12.6467 32.2852L11.5896 32.06L11.5875 32.1179C11.5875 32.2693 11.6096 32.3865 11.6526 32.4703C11.6959 32.5545 11.7827 32.6517 11.9132 32.7626L12.6467 33.3898L12.6467 34.0328L11.8215 33.3297C11.6572 33.1905 11.56 33.0683 11.5287 32.9657C11.4991 33.1388 11.4257 33.2668 11.3102 33.3506C11.1947 33.4341 11.0553 33.478 10.9128 33.4757C10.6968 33.4757 10.5091 33.3931 10.3498 33.2272C10.1901 33.062 10.1101 32.8193 10.1101 32.4995L10.1101 31.2351ZM11.6638 35.2121L10.6426 35.3581L11.6643 35.9669L11.6643 35.2121L11.6638 35.2121ZM12.0858 35.1483L12.0858 36.1471L12.6467 36.4494L12.6467 36.9819L10.1101 35.5574L10.1101 34.9815L12.6467 34.5729L12.6467 35.0641L12.0858 35.1483ZM10.1101 38.8555L10.1101 38.3414L11.1859 38.5682C11.1859 38.471 11.1659 38.3951 11.1246 38.3414C11.0838 38.2871 10.9645 38.2037 10.7673 38.0912C10.5588 37.9702 10.4149 37.8776 10.3357 37.8122C10.2573 37.7471 10.1993 37.6729 10.1639 37.5903C10.1276 37.5078 10.1101 37.3831 10.1101 37.2158L10.1101 37.0782L10.4908 37.1917L10.4908 37.2759C10.4878 37.3262 10.4985 37.3763 10.5217 37.421C10.5425 37.4552 10.5934 37.4936 10.6739 37.5374C10.927 37.6737 11.0971 37.7821 11.1843 37.8639C11.2653 37.9341 11.3239 38.0266 11.3528 38.1299C11.4074 37.9581 11.56 37.8447 11.809 37.788C11.8227 37.7846 11.8365 37.7813 11.8486 37.7776L12.6467 37.5511L12.6467 38.0836L11.8611 38.2951C11.8053 38.314 11.75 38.3341 11.6951 38.3555C11.5971 38.4014 11.5467 38.4981 11.5446 38.6458L12.6467 38.881L12.6467 39.3935L10.1101 38.8555ZM11.7331 40.559L11.8123 40.0365C12.0971 40.1382 12.3152 40.2917 12.4657 40.4952C12.6167 40.6995 12.6913 40.9381 12.6913 41.2124C12.6913 41.5198 12.5979 41.7612 12.4115 41.9347C12.2239 42.1086 11.9528 42.1953 11.5984 42.1953C11.3098 42.1953 11.0463 42.137 10.8061 42.0202C10.5671 41.9043 10.384 41.7429 10.2573 41.5373C10.1316 41.3349 10.0657 41.1012 10.0671 40.863C10.0671 40.5899 10.1401 40.3697 10.2873 40.2012C10.4345 40.0327 10.6351 39.9335 10.8886 39.9035L10.9366 40.4005C10.7894 40.4281 10.6822 40.481 10.6163 40.5598C10.55 40.6382 10.5171 40.7425 10.5171 40.8734C10.5171 41.0169 10.5609 41.1503 10.648 41.2746C10.736 41.3993 10.8732 41.4985 11.0592 41.5727C11.2362 41.6456 11.4257 41.6837 11.6171 41.6849C11.8202 41.6849 11.977 41.6361 12.0879 41.5394C12.198 41.4426 12.2539 41.3217 12.2539 41.1774C12.2539 41.044 12.2101 40.9205 12.1221 40.8088C12.0346 40.697 11.9045 40.6136 11.7331 40.559ZM11.2589 44.3679L11.2589 44.2078C11.2589 43.9343 11.2414 43.7512 11.2068 43.6595C11.1761 43.5733 11.1196 43.4987 11.045 43.4458C10.9704 43.3929 10.8813 43.3642 10.7898 43.3638C10.7367 43.3617 10.6843 43.376 10.6397 43.4047C10.5998 43.4321 10.5698 43.4718 10.5542 43.5177C10.5358 43.5665 10.5271 43.6749 10.5271 43.8433L10.5271 44.2145L11.2589 44.3679ZM12.6467 44.6548L12.6467 45.1736L10.1101 44.6457L10.1101 43.6215C10.1101 43.4397 10.1322 43.2954 10.1751 43.1895C10.2181 43.0836 10.2898 42.9997 10.3895 42.9376C10.4975 42.8736 10.6213 42.8414 10.7468 42.8446C10.8749 42.8446 10.9995 42.8696 11.1205 42.9188C11.2282 42.9597 11.327 43.0211 11.4111 43.0998C11.4799 43.166 11.5359 43.2443 11.5763 43.3308C11.6138 43.4142 11.6426 43.5248 11.6622 43.6649C11.6738 43.7462 11.6789 43.8984 11.6789 44.1219L11.6789 44.4534L12.6463 44.6548L12.6467 44.6548ZM12.6467 47.9601L10.1101 47.4338L10.1101 45.5656L10.5342 45.6532L10.5342 47.0026L11.1096 47.1227L11.1096 45.8187L11.5342 45.9063L11.5342 47.2111L12.2222 47.3687L12.2222 45.9025L12.6467 45.9918L12.6467 47.9601ZM10.1101 50.0171L10.1101 49.503L11.1859 49.7302C11.1859 49.6327 11.1659 49.5572 11.1246 49.503C11.0838 49.4492 10.9645 49.3658 10.7673 49.2528C10.5588 49.1318 10.4149 49.0389 10.3357 48.9738C10.2573 48.9087 10.1993 48.8349 10.1639 48.7524C10.1276 48.669 10.1101 48.5443 10.1101 48.3771L10.1101 48.2403L10.4908 48.3529L10.4908 48.4379C10.4879 48.4881 10.4986 48.5381 10.5217 48.5826C10.5425 48.6164 10.5934 48.6552 10.6739 48.6986C10.927 48.8354 11.0971 48.9438 11.1843 49.0255C11.2655 49.0958 11.3241 49.1885 11.3528 49.292C11.4074 49.1202 11.56 49.0059 11.809 48.95L11.8486 48.9392L12.6467 48.7127L12.6467 49.2457L11.8611 49.4567C11.8053 49.4757 11.75 49.4958 11.6951 49.5172C11.5971 49.563 11.5467 49.6598 11.5446 49.8074L12.6467 50.043L12.6467 50.5551L10.1101 50.0171ZM12.6467 53.3515L10.1101 52.8253L10.1101 50.9575L10.5342 51.0451L10.5342 52.3941L11.1096 52.5146L11.1096 51.2102L11.5342 51.2978L11.5342 52.6026L12.2222 52.7602L12.2222 51.2944L12.6467 51.3833L12.6467 53.3515ZM12.6467 55.2748L12.6467 55.7669L10.5271 55.8573L12.6467 56.2577L12.6467 56.7255L10.1101 56.1993L10.1101 55.4608L11.8869 55.3836L10.1105 54.5242L10.1105 53.7761L12.6467 54.304L12.6467 54.7769L10.5425 54.2798L12.6467 55.2748ZM10.1101 58.781L10.1101 58.2668L11.1859 58.4941C11.1859 58.3965 11.1659 58.321 11.1246 58.2668C11.0838 58.2126 10.9645 58.1296 10.7673 58.0166C10.5588 57.8957 10.4149 57.8027 10.3357 57.7376C10.2573 57.6726 10.1993 57.5988 10.1639 57.5162C10.1276 57.4328 10.1101 57.3081 10.1101 57.1409L10.1101 57.0041L10.4908 57.1167L10.4908 57.2018C10.4879 57.2519 10.4986 57.3019 10.5217 57.3465C10.5425 57.3807 10.5934 57.4195 10.6739 57.4624C10.927 57.5996 11.0971 57.708 11.1843 57.7893C11.2655 57.8596 11.3241 57.9523 11.3528 58.0558C11.4074 57.884 11.56 57.7697 11.809 57.7139C11.8227 57.7101 11.8365 57.7068 11.8486 57.703L12.6467 57.4766L12.6467 58.0095L11.8611 58.2205C11.8053 58.2395 11.75 58.2597 11.6951 58.281C11.5971 58.3269 11.5467 58.4236 11.5446 58.5712L12.6467 58.8068L12.6467 59.3189L10.1101 58.781ZM10.1101 61.8402L10.1101 61.2572L11.404 60.9382L10.1101 60.0629L10.1101 59.4991L12.2451 61.0407C12.4249 61.1717 12.5429 61.2826 12.5996 61.3735C12.6578 61.4712 12.6872 61.5834 12.6843 61.6971C12.6873 61.8084 12.6746 61.9196 12.6467 62.0274L12.2447 61.9644C12.2602 61.886 12.2673 61.8193 12.2673 61.7643C12.2673 61.6988 12.2543 61.63 12.2276 61.5557C12.2014 61.4819 12.0967 61.3898 11.9149 61.2805L10.1101 61.8402ZM12.2314 64.3722L12.2314 63.8568C12.2314 63.7067 12.221 63.5941 12.2014 63.5194C12.179 63.442 12.1331 63.3735 12.07 63.3234C12.0031 63.2678 11.9184 63.2382 11.8315 63.24C11.7576 63.2374 11.6852 63.2607 11.6267 63.3059C11.5712 63.349 11.5325 63.4103 11.5175 63.479C11.5008 63.5511 11.4924 63.66 11.4924 63.8051L11.4924 64.2142L12.2314 64.3722ZM10.5342 64.0148L11.0738 64.1262L11.0738 63.7192C11.0738 63.459 11.0955 63.2634 11.1397 63.1325C11.1801 63.0053 11.2661 62.8975 11.3811 62.8297C11.4979 62.7592 11.6346 62.7242 11.7919 62.7242C12.04 62.7242 12.2443 62.8101 12.4049 62.9832C12.5662 63.1562 12.6467 63.4114 12.6467 63.7484L12.6467 64.9823L10.1101 64.441L10.1101 62.645L10.5342 62.7409L10.5342 64.0148ZM0.740323 55.3632C0.752833 52.6847 3.74653 51.8878 4.54385 55.1255L4.5647 55.1309C4.91415 53.8987 5.25735 53.794 5.78945 53.7598C7.87658 53.6276 8.42369 56.2643 8.42369 58.1267L8.42369 64.3372L0.716555 62.1921L0.716555 62.0512L0.740323 55.3636L0.740323 55.3632ZM7.01129 61.2972L7.01129 58.0174C7.01129 57.9499 7.00461 57.8577 6.99044 57.7401C6.97793 57.6192 6.95499 57.4941 6.91788 57.3611C6.85821 57.1504 6.76179 56.9519 6.63306 56.7748C6.49795 56.5771 6.30571 56.4482 6.05634 56.3778C5.72482 56.2823 5.49463 56.374 5.36536 56.6476C5.23859 56.924 5.17437 57.3202 5.17437 57.834L5.17437 60.7847L7.01129 61.2972ZM3.76113 60.3923L3.76113 57.3999C3.76113 57.3335 3.75696 57.2572 3.74862 57.1726C3.72566 56.8706 3.62978 56.5787 3.46922 56.3219C3.35288 56.1326 3.1819 56.005 2.96131 55.9445C2.71152 55.8761 2.51094 55.932 2.35831 56.1142C2.20652 56.2965 2.13105 56.6125 2.13105 57.0596L2.13105 59.9373L3.76113 60.3923ZM2.29284 42.7958L0.716554 42.3817L0.716553 33.321L2.29284 33.7355L2.29284 36.9444L8.42369 38.6708L8.42369 41.3188L2.29284 39.5911L2.29284 42.7958ZM2.3262 20.3012L0.716553 19.8867L0.716552 10.8259L2.3262 11.2413L2.3262 14.4481L8.56589 16.1766L8.56589 18.8246L2.3262 17.0981L2.3262 20.3012ZM0.716552 2.90696L0.716552 -3.13216e-08L5.51506 5.14254L8.42536 5.95111L8.42536 8.59786L5.51464 7.79095L0.716552 10.2788L0.716552 7.27303L3.94753 5.98114L0.716552 2.90696ZM0.716553 20.4913L1.14357 20.6244L2.38458 23.6176L0.716553 23.1381L0.716553 20.4913ZM1.70069 20.7791L8.56589 22.6348L8.56589 25.284L2.94337 23.7736L1.70069 20.7795L1.70069 20.7791ZM8.53962 26.357L8.53962 30.7189C8.88115 36.5136 1.19111 35.2743 0.769513 29.5371L0.769512 24.2944L2.45422 24.7932L2.45422 28.6922C2.09601 31.6434 6.82738 33.5107 6.82738 30.2681L6.82738 25.9066L8.53962 26.357ZM8.53962 45.0543L8.53962 49.4162C8.88115 55.2085 1.19111 53.975 0.769513 48.2332L0.769513 42.9956L2.45422 43.4918L2.45422 47.39C2.31369 48.5397 2.9488 49.5272 3.77447 50.1085L3.77447 43.8579L5.43541 44.262L5.43541 50.6698C6.20855 50.6447 6.82738 50.1385 6.82738 48.9659L6.82738 44.6031L8.53962 45.0543ZM7.9654 71.6765L7.96373 71.5131C7.96373 71.4588 7.96248 71.4051 7.96206 71.3513L7.9604 71.1911L7.95831 71.0327L7.95831 70.9964C7.12805 70.7987 6.90453 70.7462 5.85617 70.5519C5.96543 70.7708 6.11222 71.0623 6.22022 71.2816C7.08134 71.4651 7.26024 71.5039 7.9654 71.6769L7.9654 71.6765ZM5.72398 66.9852L5.71731 67.0644L5.71106 67.1474L5.7048 67.2333L5.7048 67.2379L5.70438 67.2421L5.70397 67.2467L5.70397 67.2508C5.96668 67.3467 6.3153 67.4831 6.57259 67.5953C6.29904 67.6745 5.93457 67.7804 5.66477 67.8722L5.65851 67.986L5.65268 68.1036L5.64642 68.2245L5.64058 68.3488L5.64058 68.3546L5.64016 68.3609L5.64016 68.3667L5.63975 68.373C6.4379 68.0486 6.50295 68.0223 7.01921 67.868C7.27108 67.9143 7.60802 67.9739 7.85823 68.0298L7.85489 67.9268L7.85156 67.8263L7.84822 67.7283L7.8453 67.6332L7.8453 67.622L7.84488 67.6165L7.84488 67.6107C7.5976 67.5636 7.26858 67.4973 7.01963 67.461C6.32406 67.1124 6.29737 67.0986 5.73066 66.908L5.72398 66.9848L5.72398 66.9852ZM5.60097 69.3371C5.58959 69.6655 5.57986 69.994 5.57178 70.3225L5.57136 70.3308L5.57136 70.3392L5.57094 70.3475L5.57094 70.3559L6.04508 70.428L6.04841 70.2391L6.05175 70.0531C6.05356 69.9329 6.05592 69.8126 6.05884 69.6924C6.86784 69.8317 7.08551 69.8692 7.94455 70.0777C7.9434 69.9826 7.94173 69.8876 7.93954 69.7925L7.93704 69.6536L7.93412 69.5173L7.93412 69.4939L7.93371 69.4856C7.10261 69.2937 6.92997 69.2537 6.07135 69.1269L6.07552 68.9651L6.07969 68.8075L6.08386 68.6532L6.08803 68.5039L5.63516 68.4706L5.61765 68.8884C5.61181 69.0331 5.60639 69.1828 5.60097 69.3371ZM6.17602 73.071C6.07842 72.932 6.03673 72.7614 6.05926 72.5931L6.06134 72.3271L6.06343 72.0643L6.06593 71.8054C6.06676 71.7195 6.06718 71.6344 6.06843 71.5493L5.56385 71.4351C5.56043 71.6629 5.5571 71.8907 5.55384 72.1186L5.54967 72.4697L5.54676 72.8262C5.79571 74.3637 7.30569 74.4229 7.76107 73.8963C7.9679 73.6565 7.97916 73.3279 7.9679 73.1527L7.96707 73.086L7.96707 72.9534L7.96665 72.8867L7.96498 72.6515C7.96402 72.4972 7.96305 72.3429 7.96206 72.1886L7.9604 71.9605L7.42954 71.8354L7.4308 72.0931L7.43163 72.3546C7.43163 72.4422 7.43163 72.5306 7.43246 72.619L7.43246 72.8863C7.43247 72.8982 7.43261 72.9102 7.43288 72.9221L7.43288 73.0293C7.34614 73.8692 6.41205 73.4246 6.17602 73.071ZM5.5601 70.8C5.55798 70.9028 5.5559 71.0057 5.55384 71.1086L5.55384 71.1357L5.55301 71.1448L6.05092 71.2466C5.94375 71.0297 5.80071 70.7399 5.69229 70.5235L5.56719 70.4985L5.56385 70.6486L5.5601 70.8ZM6.43498 78.9604C6.47373 78.9966 6.49703 79.0463 6.50003 79.0993C6.5006 79.1337 6.50144 79.1682 6.50254 79.2027C6.50339 79.2675 6.50478 79.3322 6.50671 79.397L6.50921 79.4883L6.04049 79.3916L6.03632 79.3015L6.03215 79.2081L6.02798 79.1114L6.02381 79.0104C6.02006 78.7786 6.33031 78.852 6.43498 78.9604ZM7.41245 79.0705C7.44224 79.1038 7.4595 79.1464 7.46124 79.191L7.45915 79.3007C7.45831 79.3688 7.45691 79.4369 7.45498 79.505C7.45443 79.5367 7.45373 79.5684 7.4529 79.6001L6.91913 79.55L6.91829 79.4625L6.91829 79.3707L6.91746 79.2748L6.91704 79.1747C6.92079 78.8482 7.30319 78.9525 7.41245 79.0705ZM6.73231 78.7711C6.35075 78.1748 5.68729 78.357 5.62223 78.6335C5.61723 78.6551 5.61765 78.6852 5.61556 78.7069C5.63516 79.146 5.64392 79.3465 5.66143 79.5742L5.66143 79.5784L5.66185 79.5817L5.66185 79.5859L5.66268 79.5897C6.47543 79.7794 6.88368 79.8749 7.84071 79.8761C7.84648 79.7743 7.85163 79.6724 7.85614 79.5705L7.86365 79.392L7.87074 79.1964L7.87074 79.1918L7.87116 79.1873L7.87116 79.1827L7.87157 79.1777C7.86782 78.5063 7.01963 78.427 6.81029 78.6564C6.77609 78.6939 6.75483 78.7315 6.73231 78.7711ZM6.00421 73.9772L5.52465 73.8554C5.52414 74.0528 5.52414 74.2502 5.52465 74.4475C5.52459 74.8262 5.52654 75.2048 5.53049 75.5835C5.53216 75.7657 5.53425 75.9454 5.53675 76.1206L5.53675 76.1552L6.0138 76.2861L6.01214 76.0964L6.01088 75.9033L6.0088 75.7073L6.00755 75.5088C6.88618 75.7328 7.04381 75.7732 7.92787 75.9404L7.92912 75.7874L7.93037 75.6327L7.93037 75.4759C7.9312 75.4233 7.93121 75.3708 7.93162 75.3174L7.93162 75.2807C7.08677 75.1031 6.85991 75.0555 6.00505 74.8312L6.00463 74.621L6.00421 74.4083L6.00421 73.9776L6.00421 73.9772ZM5.56635 76.8879L5.56052 76.5981L5.55593 76.2991L6.06551 76.4513C6.06593 76.5263 6.06718 76.601 6.06801 76.6744L6.07052 76.892L6.07344 77.1047L6.07677 77.3107C6.05676 77.4346 6.08386 77.6735 6.48419 77.8803L6.48085 77.5718C6.47786 77.2329 6.47508 76.894 6.47251 76.5551L6.99169 76.6573L6.99169 77.0167L6.9921 77.3612L6.9921 77.6898L6.99252 78.0009C7.36157 77.985 7.41495 77.8007 7.42329 77.6631L7.42454 77.4412L7.42621 77.2115L7.42746 76.9746L7.42871 76.7307L7.95539 76.8091L7.95247 77.0493L7.94914 77.2819C7.94816 77.3571 7.94691 77.4323 7.94538 77.5075L7.94205 77.7256C7.94955 77.8307 7.93788 77.9859 7.8428 78.1251C7.52337 78.5922 5.8912 78.6923 5.57845 77.4367L5.57219 77.1669L5.56635 76.8875L5.56635 76.8879ZM13.1542 74.7036C13.0808 74.6919 13.0387 74.9388 12.9595 74.9042C12.8828 74.8708 12.8602 74.7457 12.7927 74.6665C12.6517 74.4997 12.9345 74.2787 12.5858 74.0702C12.1259 73.7953 12.7681 73.7541 12.7702 73.5977C12.7739 73.3454 12.223 73.6177 12.6351 73.0581C12.6855 72.9888 12.7276 72.6632 12.7381 72.5964C12.7497 72.518 12.6146 72.4246 12.6401 72.3813C12.7018 72.2749 12.796 72.1098 12.8248 71.9751C12.8465 71.8717 13.0116 71.8012 13.1242 71.7745C13.2977 72.4334 13.3886 73.5076 13.1542 74.7036ZM5.48087 80C3.28449 79.6243 1.40295 78.1026 0.522646 76.0826C0.520978 76.0434 0.694453 75.9137 0.728648 75.905C0.748664 75.8996 0.76201 75.9292 0.784528 75.9279C0.804545 75.9267 0.797037 75.8812 0.818305 75.8983C0.83952 75.916 0.855144 75.9395 0.863285 75.966C0.871426 75.9924 0.871735 76.0206 0.864176 76.0472C0.915468 76.066 0.897954 76.1377 0.882525 76.1777C0.967595 76.1706 0.952582 76.2903 0.99887 76.3391C1.00221 76.3424 1.01638 76.3366 1.01847 76.3399C1.03932 76.372 1.01847 76.4108 1.01638 76.4483C1.01555 76.4679 1.02472 76.4775 1.04683 76.4863C1.07268 76.4971 1.06601 76.5359 1.08644 76.548C1.10604 76.5601 1.12939 76.5372 1.1419 76.5213C1.21655 76.4296 1.18527 76.2949 1.12105 76.1977C1.10771 76.1777 1.11146 76.1527 1.11396 76.1289C1.12231 76.1332 1.13151 76.1356 1.14088 76.1358C1.15026 76.1361 1.15958 76.1343 1.16817 76.1306C1.1982 76.116 1.19361 76.0764 1.1932 76.0451C1.20779 76.0539 1.21488 76.0288 1.22239 76.0368C1.26409 76.0793 1.28494 76.1327 1.27743 76.1948C1.27618 76.2081 1.29161 76.2148 1.3012 76.224C1.3037 76.2182 1.30454 76.2102 1.30829 76.209C1.32046 76.2041 1.33382 76.2029 1.34665 76.2056C1.38335 76.2148 1.37668 76.2553 1.38794 76.2807C1.40503 76.3191 1.38836 76.3704 1.41296 76.4083C1.44257 76.455 1.47926 76.4066 1.51929 76.4058C1.53723 76.405 1.54557 76.4392 1.56934 76.4429C1.5881 76.4454 1.60687 76.4375 1.62355 76.4421C1.70486 76.4646 1.61312 76.5451 1.62355 76.5951C1.62897 76.6202 1.65232 76.5964 1.66692 76.5968C1.71445 76.5993 1.69444 76.6635 1.6836 76.679C1.66024 76.709 1.56475 76.7023 1.57893 76.7624C1.59352 76.7553 1.5906 76.779 1.60311 76.7765C1.60395 76.8203 1.64064 76.8391 1.67484 76.857C1.70028 76.8708 1.7132 76.9275 1.70903 76.9713C1.70528 77.0067 1.74656 77.0238 1.76408 77.0526C1.76491 77.0538 1.75907 77.1302 1.78826 77.1952C1.82121 77.2673 1.88918 77.3286 1.8896 77.3303C1.89293 77.3136 1.90294 77.2999 1.91837 77.2986C1.97008 77.294 2.03847 77.2653 2.06432 77.2936C2.09769 77.3286 2.13396 77.3783 2.18943 77.3603C2.23113 77.3478 2.23238 77.284 2.26949 77.2836C2.29993 77.2836 2.33496 77.3295 2.36249 77.3111C2.39042 77.2924 2.38917 77.2165 2.43671 77.2373C2.48842 77.2603 2.54096 77.2907 2.59059 77.284C2.64355 77.2765 2.69776 77.2924 2.7453 77.2782C2.77532 77.269 2.74196 77.2094 2.71486 77.1915C2.6523 77.1514 2.56599 77.1935 2.51886 77.156C2.47925 77.1247 2.49718 77.0342 2.45881 76.9975C2.41169 76.9525 2.38083 76.8958 2.32871 76.8545C2.31203 76.8412 2.28784 76.8449 2.26824 76.842C2.2328 76.837 2.21987 76.7815 2.17525 76.7811C2.12187 76.7807 2.0735 76.7653 2.02554 76.7482C2.01512 76.7444 2.00261 76.7273 2.00052 76.7144C1.99468 76.666 1.98926 76.626 1.95632 76.586C1.94381 76.5697 1.92046 76.5789 1.90961 76.5651C1.86082 76.5021 1.77742 76.4859 1.74615 76.4204C1.73656 76.4008 1.78284 76.4033 1.78701 76.3933C1.81037 76.3395 1.80536 76.2778 1.81329 76.2161C1.82037 76.1619 1.87834 76.1594 1.92338 76.1598C1.9233 76.1668 1.92512 76.1737 1.92864 76.1798C1.93216 76.1859 1.93726 76.1909 1.94339 76.1944C1.97217 76.2069 1.99635 76.2361 2.03013 76.2273C2.05974 76.219 2.09852 76.2115 2.10811 76.1894C2.12312 76.1548 2.11895 76.1018 2.09185 76.0726C2.06599 76.0455 2.01053 76.0434 2.00719 75.9976C2.00344 75.9425 2.06224 75.9112 2.10936 75.9354C2.12646 75.8883 2.15773 75.8474 2.21278 75.8591C2.27033 75.872 2.31578 75.9175 2.37541 75.9196C2.42962 75.9221 2.47716 75.9421 2.52762 75.9529C2.55931 75.9596 2.63104 75.9654 2.62728 75.9187C2.62603 75.9033 2.59559 75.8854 2.5689 75.8804C2.53554 75.8737 2.51469 75.8378 2.52387 75.8028C2.52887 75.7828 2.55181 75.7682 2.56557 75.772C2.65189 75.7953 2.73237 75.8387 2.82119 75.8216C2.82453 75.8208 2.84079 75.8132 2.84371 75.8007C2.87791 75.8341 2.85956 75.8891 2.85539 75.9325C2.84906 75.9764 2.85618 76.0212 2.87582 76.0609C2.90585 76.1131 2.94087 76.1602 2.97757 76.2111C2.99675 76.2373 3.03679 76.2403 3.04429 76.2761C3.0493 76.302 3.05722 76.3341 3.04012 76.3503C2.98591 76.4025 2.8679 76.4842 2.93962 76.5413C2.9759 76.5705 2.98633 76.6218 3.00509 76.6602C3.00968 76.6685 3.02386 76.6685 3.02761 76.6752C3.07557 76.7628 3.09141 76.8633 3.18941 76.9183C3.22694 76.9396 3.2603 76.9075 3.2628 76.8737C3.26447 76.8483 3.24612 76.8445 3.23069 76.8287C3.17773 76.7744 3.18107 76.7011 3.17315 76.6318C3.17273 76.6264 3.1598 76.6222 3.16022 76.6177C3.16481 76.5297 3.25571 76.5697 3.31201 76.5914C3.33745 76.6014 3.33703 76.6398 3.35246 76.6531C3.39082 76.6848 3.45254 76.6802 3.49049 76.7123C3.54053 76.7544 3.57264 76.832 3.65187 76.8445C3.6673 76.8466 3.6598 76.8987 3.67856 76.9166C3.71067 76.9471 3.71067 76.985 3.72818 77.018C3.73486 77.0305 3.73235 77.048 3.73361 77.0634C3.73235 77.0551 3.73527 77.0451 3.72402 77.0409C3.72735 77.0847 3.71859 77.1339 3.74653 77.1685C3.76858 77.1926 3.78383 77.2221 3.79074 77.254C3.80533 77.3583 3.83202 77.4642 3.92001 77.5305C3.92501 77.5338 3.93877 77.5326 3.94044 77.5288C3.9688 77.4654 3.99882 77.4066 4.01675 77.3387C4.02134 77.3211 4.04219 77.2936 4.05428 77.3007C4.08556 77.3178 4.1381 77.7536 4.31533 77.7894C4.34035 77.7944 4.48631 77.7448 4.36913 77.9354C4.36204 77.9458 4.36245 77.9721 4.37788 77.9754C4.40541 77.9821 4.42709 77.9617 4.44794 77.9475C4.48839 77.9204 4.54635 77.91 4.58972 77.9362C4.60932 77.9479 4.62308 77.9813 4.64101 77.9917C4.79531 78.0801 4.85244 78.2306 4.96211 78.3461L4.95461 78.347C4.98254 78.3449 5.02549 78.3945 5.05802 78.4204C5.08179 78.4391 5.13392 78.4279 5.14726 78.4579C5.15977 78.4883 4.96211 78.5246 4.98463 78.5317C5.01924 78.5426 5.05135 78.5701 5.08638 78.5651C5.12224 78.7782 5.19272 78.5888 5.12141 78.8286C5.05135 78.8724 5.1923 78.9283 5.1898 78.9996C5.18813 79.0455 5.26152 79.088 5.25902 79.1485C5.25485 79.2252 5.18271 79.2631 5.13308 79.3144C5.11974 79.3282 5.12307 79.3478 5.13016 79.3603C5.15935 79.4091 5.21565 79.4258 5.2511 79.4729C5.27028 79.4992 5.31657 79.4979 5.34034 79.5192C5.36953 79.5467 5.37953 79.5913 5.40247 79.6264C5.4179 79.6501 5.42165 79.8144 5.44834 79.8199L5.48087 80ZM0.432156 75.8487C-0.0991116 74.4521 -0.166666 72.7211 0.375861 71.2187C0.566016 71.3996 0.329989 71.6515 0.518477 71.6223C0.670685 71.5985 0.909213 71.8166 0.822892 71.8742C0.61981 72.0097 0.726563 72.0777 0.716138 72.1206C0.81205 72.1332 0.813301 72.2157 0.840823 72.2908C0.847078 72.3095 0.889196 72.3041 0.899204 72.2774C0.909212 72.2482 0.887529 72.2065 0.912549 72.1886C0.967594 72.1486 1.05225 72.1519 1.07185 72.2128C1.08853 72.2666 1.0193 72.2933 0.990946 72.3346C0.941739 72.4063 1.0314 72.5139 0.963006 72.5748C0.880022 72.6482 0.885026 72.6623 0.896285 72.7578C0.897536 72.7666 1.02806 72.7745 1.02931 72.7837C1.04182 72.8846 1.19611 72.742 1.26826 72.8662C1.29828 73.016 1.13356 73.1569 1.13606 73.2257C1.20487 73.4117 1.28744 73.3625 1.30162 73.4059C1.29911 73.4592 1.21738 73.4918 1.21113 73.5689C1.20529 73.6465 1.31454 73.624 1.26492 73.7741C1.20571 73.9096 1.16192 73.8037 1.14607 73.8967C1.19403 73.9676 1.05141 74.1164 0.875435 74.1765C0.90963 74.39 1.03723 74.5689 0.988861 74.6385C0.837904 74.8566 1.06392 74.6952 1.03765 74.9067C1.00304 75.1802 0.797455 74.8595 0.752835 74.9826C0.665264 75.2261 0.518478 75.1702 0.468437 75.2745C0.41506 75.385 0.460096 75.6535 0.432156 75.8487ZM8.79691 67.1904C10.6359 67.81 11.7293 68.9059 12.6334 70.5444C12.5525 70.6015 12.3865 70.6036 12.3386 70.5973C12.2185 70.5527 12.1551 70.4989 12.0266 70.581C11.8527 70.5952 11.8348 70.521 11.6196 70.458C11.2735 70.3559 11.3736 69.9118 11.3477 69.9785C11.329 70.0277 11.2352 70.0047 11.2251 70.0243C11.1972 70.0786 11.0834 70.0385 11.0667 70.0735C11.0358 70.1344 10.9103 70.3383 10.8565 70.3913C10.8636 70.3901 10.9366 70.2587 10.9441 70.2579C10.9458 70.3409 10.5696 69.8584 10.6163 69.9334C10.6372 69.9668 10.6926 69.9793 10.7039 70.0135C10.7485 70.1524 10.5842 70.2116 10.4662 70.1828C10.4416 70.1761 10.3974 70.1957 10.4028 70.2195C10.4195 70.3008 10.4946 70.3796 10.4791 70.448C10.4583 70.5431 10.4278 70.4993 10.4266 70.6157C10.4257 70.7333 10.4499 70.5335 10.3765 70.6048C10.3436 70.6361 10.3511 70.6916 10.3469 70.7258C10.3373 70.8029 10.2677 70.9021 10.2156 70.9126C10.0942 70.9372 9.9587 70.9718 9.82233 70.9234C9.7331 70.8917 9.67346 70.9931 9.60841 71.0581C9.54044 71.1265 9.42326 71.144 9.36112 71.0885C9.20099 70.9434 9.02835 70.8221 8.86197 70.6874C8.82235 70.6553 8.80484 70.5986 8.75188 70.5748C8.54838 70.5281 8.77898 70.4313 8.69766 70.227C8.52669 70.0761 8.34613 70.4343 8.33028 70.1728C8.32653 70.109 8.22519 70.1148 8.16473 70.0752C8.20309 70.0243 8.25355 69.9764 8.2498 69.9076C8.2498 69.9009 8.23604 69.8951 8.2277 69.8888C8.27273 69.8313 8.15347 69.8004 8.13429 69.7441C8.10301 69.6536 8.20476 69.5373 8.15347 69.4843C8.07757 69.4059 8.0684 69.3254 8.06632 69.2366C8.06423 69.1269 8.04213 69.2245 8.05172 69.099C8.05589 69.039 8.00293 68.9322 8.01836 68.8805C8.04171 68.7979 8.03671 68.6803 8.10551 68.6486C8.15889 68.6236 8.22853 68.7141 8.294 68.7279C8.36072 68.7429 8.22311 68.4868 8.30776 68.5027C8.29859 68.5152 8.28107 68.5319 8.28399 68.5377C8.30151 68.569 8.34696 68.6003 8.38407 68.5777C8.58382 68.4906 8.46748 68.5319 8.51919 68.3993C8.52669 68.3801 8.57965 68.3626 8.58382 68.3384C8.59633 68.2729 8.59425 68.1828 8.56005 68.1428C8.52461 68.1011 8.45371 68.2412 8.43203 68.1503C8.41869 68.0948 8.37573 68.0352 8.40201 67.9823C8.44204 67.9022 8.55588 67.873 8.57048 67.7858C8.57757 67.7462 8.52335 67.6966 8.55338 67.6499C8.48082 67.4518 8.73019 67.2529 8.79691 67.1904ZM5.38662 68.1315C5.35535 68.1791 5.35827 68.212 5.26944 68.2721C5.1777 68.3334 5.08971 68.2721 5.05135 68.353C5.03467 68.4756 5.27445 68.3626 5.15977 68.4797C5.14226 68.5903 5.18354 68.6691 5.30072 68.662C5.29863 68.7546 5.21273 68.8092 5.16853 68.8663C5.07012 68.9935 5.02383 69.134 4.88913 69.2554C4.84118 69.2987 4.83909 69.393 4.76278 69.4284C4.68939 69.4622 4.59389 69.4209 4.52425 69.4622C4.46754 69.4956 4.44794 69.5865 4.47213 69.6344C4.51966 69.7283 4.62559 69.7796 4.67396 69.8846C4.71274 69.9689 4.68021 70.0698 4.76653 70.1119C4.82408 70.1407 4.88997 70.2971 4.95043 70.2491C4.98296 70.2233 5.07971 70.4259 5.01632 70.6169C4.87996 70.9547 4.97879 71.2349 4.62058 71.0389C4.53551 70.9918 4.61724 70.6957 4.20941 70.7604C4.14686 70.7946 4.17772 70.7704 4.10016 70.7937C4.0668 70.8037 4.05595 70.8625 4.00007 70.9334C3.92501 71.0277 3.90458 71.0452 3.82743 71.0477C3.65646 71.0531 3.60475 70.5865 3.43086 70.7808C3.28616 70.6878 3.22152 70.4705 3.00551 70.5573C2.92378 70.5898 2.90668 70.4672 2.85622 70.428C2.6277 70.2529 2.62353 70.594 2.77407 70.1645C2.80952 70.0635 2.77824 69.961 2.76907 69.8571C2.76907 69.853 2.74571 69.8509 2.73112 69.8479C2.80701 69.7479 2.792 69.5898 2.71819 69.5352C2.67107 69.5002 2.52762 69.546 2.49426 69.5907C2.43087 69.6757 2.38625 69.7887 2.30452 69.8734C2.21695 69.7816 2.17108 69.8233 2.09977 69.8988C2.03347 69.8613 2.00386 69.9226 2.01929 70.0114C2.05765 70.0514 2.00386 70.1999 2.15064 70.1957C2.27908 70.2458 2.38208 70.1353 2.50135 70.1169C2.51011 70.1157 2.53221 70.1457 2.53054 70.1611C2.52053 70.2516 2.44005 70.3154 2.38876 70.3801C2.33496 70.4468 2.26407 70.5293 2.27741 70.6136C2.29159 70.707 2.4167 70.7199 2.50468 70.7512C2.4267 70.77 2.3408 70.7954 2.31286 70.8688C2.28617 70.9401 2.27033 71.0101 2.19902 71.0364C2.13063 71.0614 2.04639 71.0139 1.9901 71.0368C1.87333 71.0848 1.76324 71.084 1.64857 71.1261C1.59269 71.1469 1.56183 71.0427 1.51512 71.0685C1.41921 71.1227 1.38961 71.2345 1.365 71.3396C1.30078 71.282 1.31121 71.1252 1.20654 71.1636C1.1223 71.1936 1.18319 71.3621 1.1148 71.3567C0.997619 71.3467 0.885443 71.3817 0.76326 71.3525C0.802875 71.1523 0.72698 70.9297 0.832483 70.7541C0.865844 70.6991 0.957169 70.6532 0.932565 70.5756C0.927144 70.5589 0.861673 70.5435 0.841657 70.5585C0.790782 70.5961 0.723227 70.541 0.702793 70.5306C1.34081 69.0994 2.42795 68.1995 3.64687 67.5561C4.12351 67.2833 4.90957 67.0744 4.95377 67.0544C4.95877 67.0782 4.81491 67.3505 4.59973 67.3951C4.54469 67.4497 4.56554 67.5677 4.4617 67.6411C4.35203 67.7179 4.05262 67.4843 3.95712 67.544C3.79282 67.6466 3.7653 67.8359 3.78156 67.8442C3.85162 67.8818 3.93377 67.7967 3.99173 67.8588C4.03093 67.9005 4.00216 67.9685 3.98631 68.0256C3.94378 68.0102 3.89999 68.0094 3.87372 68.0481C3.86204 68.0648 3.85454 68.0932 3.86288 68.1082C3.91751 68.2079 4.02384 68.1365 4.09348 68.119C4.18105 68.0969 4.24653 67.9898 4.31533 67.9314C4.37371 67.8813 4.46337 67.858 4.56011 67.8451C4.63935 67.8342 4.74568 67.8129 4.81241 67.8684C4.83743 67.8888 4.85994 67.9372 4.87662 67.9718C4.91832 68.0569 5.04509 68.0352 5.13809 68.0273C5.18146 68.0231 5.36702 67.9293 5.38662 68.1315ZM9.49248 76.2127C9.50207 76.2115 9.50791 76.2144 9.51583 76.2152C9.53607 76.2184 9.55637 76.2212 9.57672 76.2236C9.60276 76.2265 9.62876 76.2298 9.6547 76.2336C9.66721 76.2357 9.68389 76.2328 9.69765 76.2315C9.71642 76.229 9.73435 76.2265 9.75269 76.2252C9.76812 76.2244 9.77646 76.2294 9.79023 76.2307C9.80732 76.2319 9.82484 76.2307 9.83735 76.2382C9.84152 76.2407 9.85194 76.2432 9.85194 76.2478C9.85194 76.2519 9.84527 76.2544 9.84319 76.2582C9.84068 76.2611 9.84193 76.269 9.84527 76.2707C9.85153 76.2674 9.85653 76.2632 9.86362 76.2607C9.87029 76.2578 9.87821 76.2565 9.88572 76.2549C9.90115 76.2532 9.91908 76.2498 9.93409 76.2498C9.94577 76.2498 9.95327 76.2553 9.9662 76.2444C9.97663 76.2357 9.97788 76.2269 9.98872 76.2186C10.0108 76.2 10.035 76.1842 10.0609 76.1715C10.0955 76.1556 10.1326 76.1456 10.1689 76.1389C10.2439 76.1243 10.319 76.1214 10.3941 76.0985C10.4128 76.0926 10.4349 76.086 10.4508 76.076C10.4862 76.0547 10.5258 76.0409 10.5667 76.0359C10.603 76.0313 10.6376 76.033 10.6714 76.0338C10.6893 76.0338 10.7072 76.0338 10.7247 76.033C10.7448 76.033 10.7648 76.0276 10.7819 76.033C10.7865 76.0343 10.7902 76.0372 10.7935 76.0397C10.8011 76.0452 10.8091 76.0502 10.8173 76.0547C10.8215 76.0572 10.8286 76.0576 10.8323 76.0605C10.8357 76.0622 10.8373 76.068 10.8448 76.0647C10.8507 76.0622 10.8536 76.0551 10.8586 76.0526C10.8669 76.0489 10.8761 76.0514 10.8815 76.0539C10.8903 76.0584 10.8874 76.0618 10.887 76.0693C10.887 76.0776 10.889 76.0814 10.8974 76.0843C10.9036 76.086 10.9057 76.0901 10.9091 76.0939C10.9199 76.111 10.9366 76.1256 10.9503 76.1414C10.9566 76.1489 10.9595 76.1581 10.9658 76.1652C10.9708 76.1731 10.9799 76.1777 10.9837 76.186C10.9845 76.1881 10.9845 76.1923 10.9829 76.1952C10.9724 76.219 10.9979 76.2019 11.0154 76.2056C11.0312 76.209 11.0379 76.2369 11.0613 76.2307C11.0659 76.2286 11.0654 76.2282 11.0692 76.2248C11.0759 76.2198 11.08 76.2182 11.0842 76.2227C11.0905 76.2294 11.0859 76.2394 11.0871 76.2478C11.0892 76.2553 11.0909 76.2653 11.0971 76.2715C11.1009 76.2757 11.1167 76.2836 11.1263 76.2799C11.1309 76.2774 11.1534 76.3003 11.1572 76.302C11.1658 76.3056 11.1749 76.3079 11.1843 76.3086C11.1935 76.3095 11.198 76.3132 11.2051 76.317C11.221 76.3241 11.2356 76.342 11.2568 76.3433C11.2714 76.3441 11.2885 76.3395 11.304 76.3399C11.3186 76.3399 11.4207 76.2765 11.4374 76.272C11.5642 76.3024 11.6 76.3971 11.7318 75.9621C11.7372 75.9446 11.7773 75.9446 11.7948 75.9525C11.8188 75.9614 11.8446 75.964 11.8698 75.96C11.8836 75.9579 11.8969 75.9559 11.909 75.9571C11.9232 75.9584 11.9278 75.9667 11.9361 75.9725C11.9453 75.9784 11.9545 75.983 11.9612 75.9896C11.9639 75.9915 11.9662 75.9938 11.968 75.9965C11.9698 75.9992 11.971 76.0023 11.9716 76.0055C11.9728 76.0117 11.9666 76.0205 11.9683 76.0255C11.9758 76.0505 11.9945 76.0693 11.9991 76.096C12.0029 76.1143 12.005 76.1327 12.0075 76.1514C12.0087 76.1669 12.0133 76.1806 12.0024 76.1965C11.9983 76.2031 11.9974 76.2144 12.0066 76.2165C12.015 76.2194 12.0208 76.2098 12.0233 76.2048C12.03 76.1919 12.0775 76.1381 12.0775 76.1256C12.0859 76.0034 12.1751 75.9855 12.2693 75.9646C12.4591 75.9229 12.6655 76.008 12.6159 75.8495C12.6125 75.8383 12.6117 75.7678 12.6546 75.7836C12.6713 75.7903 12.6897 75.8049 12.7147 75.787C12.7189 75.7841 12.7218 75.7815 12.7276 75.7795C12.7385 75.7753 12.7456 75.7774 12.7506 75.7824C12.7581 75.7895 12.7747 75.7916 12.786 75.7803C12.7952 75.772 12.7885 75.7628 12.7927 75.7536C12.796 75.744 12.7998 75.7344 12.8019 75.7244C12.8027 75.7186 12.8002 75.7098 12.8081 75.7036C12.819 75.6952 12.9374 75.6823 12.9124 75.7052C12.7639 76.3007 11.7752 78.7235 8.68974 79.8686C8.68349 79.8653 8.67139 79.8511 8.6643 79.8495C8.65466 79.8479 8.64488 79.8473 8.63511 79.8478C8.62594 79.8478 8.61635 79.849 8.60676 79.849C8.59967 79.8499 8.59883 79.849 8.59633 79.8449C8.5955 79.8436 8.59216 79.8357 8.59008 79.8357L8.56547 79.8357C8.5551 79.8419 8.54386 79.8466 8.53211 79.8495C8.52127 79.852 8.51418 79.8536 8.50542 79.8603C8.4962 79.8676 8.48502 79.8719 8.47332 79.8728C8.46372 79.8728 8.45247 79.8761 8.44162 79.8761C8.43161 79.877 8.4312 79.8703 8.42494 79.8666C8.42369 79.8653 8.42161 79.8653 8.41952 79.8641C8.40659 79.8595 8.38366 79.862 8.37532 79.8528C8.37115 79.8486 8.37198 79.8395 8.38157 79.8344C8.38825 79.8303 8.39617 79.8336 8.40117 79.8344C8.41285 79.8378 8.4312 79.8148 8.40451 79.8203C8.39784 79.8215 8.392 79.8236 8.38533 79.824C8.38116 79.824 8.37573 79.8249 8.37115 79.824C8.36698 79.8249 8.36281 79.824 8.35905 79.8224C8.35238 79.8207 8.35155 79.8186 8.34988 79.814C8.34738 79.8069 8.34363 79.7998 8.34404 79.7919C8.34237 79.7731 8.30776 79.7694 8.28775 79.7619C8.27808 79.7581 8.26873 79.7535 8.25981 79.7481C8.25564 79.7452 8.24396 79.7427 8.23645 79.7452C8.23103 79.7473 8.22853 79.7523 8.22311 79.7523C8.21852 79.7527 8.20518 79.7544 8.20226 79.7523C8.19434 79.7481 8.18683 79.7377 8.18558 79.7365C8.18391 79.7352 8.18391 79.7331 8.18224 79.7314C8.17807 79.7273 8.17724 79.7252 8.17807 79.7189C8.17807 79.7148 8.17724 79.7081 8.18058 79.7039C8.18766 79.6948 8.19934 79.6897 8.21018 79.6839C8.22186 79.6777 8.22519 79.6802 8.23479 79.6818C8.2401 79.6825 8.2453 79.6839 8.25022 79.686C8.26064 79.691 8.26523 79.7002 8.27607 79.7048C8.28316 79.7085 8.29817 79.7048 8.30693 79.6998C8.31152 79.6968 8.31485 79.6931 8.31944 79.6906C8.32361 79.6872 8.32611 79.6847 8.32861 79.681C8.33278 79.6747 8.3382 79.6656 8.34696 79.6614C8.35572 79.6572 8.36156 79.6606 8.37615 79.6597C8.38866 79.6556 8.39492 79.6376 8.38491 79.6389C8.37657 79.6435 8.3724 79.643 8.36406 79.6435C8.35614 79.6443 8.34988 79.648 8.34238 79.6468C8.33403 79.6447 8.33487 79.6414 8.33237 79.6368C8.32319 79.6218 8.29484 79.6159 8.28233 79.603C8.28133 79.6027 8.28045 79.6022 8.27982 79.6013C8.27273 79.5943 8.26314 79.5876 8.25897 79.5792C8.25689 79.5751 8.25272 79.5701 8.24313 79.5751C8.23645 79.5788 8.23479 79.5842 8.23562 79.5884C8.23645 79.5909 8.24646 79.6009 8.24229 79.6038L8.23645 79.608L8.22645 79.6122L8.21686 79.6193C8.21394 79.6209 8.20226 79.6205 8.19934 79.6205C8.19392 79.6214 8.18808 79.6218 8.18433 79.6197C8.17724 79.6155 8.17599 79.6072 8.18683 79.6013C8.19434 79.5972 8.20518 79.593 8.21185 79.588C8.23854 79.5671 8.23353 79.5484 8.23479 79.5263C8.23645 79.4954 8.25564 79.4683 8.29734 79.4454C8.30985 79.4383 8.32152 79.4316 8.32361 79.4212C8.32588 79.4086 8.32335 79.3957 8.31652 79.3849C8.30943 79.3716 8.29942 79.3599 8.29025 79.3474C8.28066 79.3361 8.27065 79.3232 8.27107 79.3078C8.27171 79.3014 8.27468 79.2954 8.27941 79.2911C8.28483 79.2861 8.29025 79.2827 8.29317 79.2773C8.30151 79.2636 8.30484 79.2481 8.30776 79.2344C8.30985 79.221 8.31193 79.2052 8.30151 79.1956C8.29604 79.1905 8.28895 79.1876 8.28149 79.1873C8.27315 79.1856 8.26773 79.1902 8.26148 79.1856C8.25526 79.1817 8.25033 79.176 8.2473 79.1693C8.24605 79.166 8.24354 79.1631 8.24229 79.1597C8.24146 79.1572 8.24229 79.1543 8.24021 79.1522C8.23771 79.1481 8.23437 79.1422 8.22436 79.1385C8.20309 79.1093 8.22311 79.0672 8.22311 79.0621C8.22603 79.0592 8.22603 79.0555 8.22728 79.053C8.22937 79.0484 8.23228 79.0434 8.23395 79.0388C8.24062 79.0255 8.24354 79.0113 8.25105 78.9979C8.25355 78.9938 8.26022 78.9904 8.26231 78.9863C8.26523 78.98 8.25814 78.9796 8.2523 78.9779C8.24646 78.975 8.24062 78.9696 8.24271 78.9633C8.24354 78.9591 8.24896 78.9541 8.2523 78.95C8.25939 78.9375 8.26481 78.925 8.27315 78.9124C8.27857 78.9033 8.29275 78.882 8.30651 78.8774C8.31318 78.8753 8.31902 78.8787 8.32653 78.8749C8.33362 78.8716 8.3357 78.8649 8.34363 78.8612C8.34905 78.8591 8.3578 78.8612 8.36197 78.8566C8.36781 78.8499 8.35905 78.8399 8.35655 78.8349C8.3531 78.8293 8.35096 78.823 8.3503 78.8165C8.34946 78.8057 8.35864 78.7969 8.36281 78.7865C8.36698 78.7794 8.36573 78.7727 8.36781 78.7657C8.38267 78.7189 8.40956 78.6769 8.44579 78.6439C8.4558 78.636 8.46956 78.6301 8.47915 78.6218C8.48958 78.6109 8.495 78.5901 8.50084 78.578L8.52294 78.5355C8.53753 78.5054 8.56005 78.4696 8.5588 78.4404C8.5588 78.4229 8.54546 78.4112 8.5317 78.3995C8.53128 78.3995 8.4558 78.3136 8.49125 78.2536C8.48291 78.2415 8.48708 78.2215 8.48916 78.2065C8.4925 78.1823 8.5 78.1568 8.51293 78.1322C8.51793 78.1222 8.52461 78.1126 8.52711 78.1026C8.52961 78.0889 8.53128 78.0772 8.54129 78.0634C8.54629 78.0563 8.54963 78.0492 8.55505 78.0426C8.56089 78.0342 8.56756 78.0271 8.57381 78.0188C8.57673 78.015 8.57882 78.0134 8.57632 78.01C8.57465 78.0075 8.57006 78.0067 8.56923 78.0029C8.56589 77.9967 8.5734 77.9896 8.57965 77.9834C8.58632 77.9767 8.59258 77.9704 8.59633 77.9633C8.59967 77.9579 8.60092 77.9517 8.60759 77.9471C8.61301 77.9437 8.61843 77.9425 8.62427 77.9404C8.63303 77.9375 8.64012 77.9341 8.64804 77.9296C8.6739 77.9145 8.69933 77.8999 8.72227 77.8829L8.75354 77.8582C8.7623 77.8512 8.76814 77.8428 8.77606 77.8353C8.78381 77.8289 8.78923 77.8201 8.79149 77.8103C8.79274 77.8036 8.799 77.7965 8.80233 77.7894C8.80609 77.7819 8.81109 77.7748 8.81651 77.7682C8.83102 77.752 8.84939 77.7398 8.86989 77.7327C8.87948 77.7286 8.88865 77.7298 8.89783 77.7294C8.902 77.729 8.90617 77.7277 8.90992 77.7281C8.91618 77.7281 8.92076 77.7294 8.92327 77.7331C8.92327 77.7331 8.93578 77.7381 8.94245 77.7311C8.93578 77.7273 8.94036 77.7223 8.93953 77.7165C8.95204 77.7098 8.95579 77.7131 8.96413 77.7165C8.97456 77.7206 8.98582 77.7131 8.97664 77.7069C8.9683 77.7019 8.95955 77.6981 8.95454 77.6906C8.95037 77.6848 8.9437 77.681 8.95037 77.6731C8.96413 77.6564 8.99874 77.6727 9.00333 77.6806C9.0075 77.6873 9.00333 77.6969 9.00458 77.7044C9.00625 77.7106 9.04003 77.7052 9.0296 77.686C9.01834 77.6752 9.01209 77.6618 9.00333 77.6497C8.99416 77.6372 8.9829 77.6247 8.97873 77.6101C8.97789 77.606 8.97873 77.6018 8.97748 77.5976C8.97539 77.5905 8.97039 77.5847 8.96914 77.5768C8.96746 77.5725 8.96746 77.5677 8.96914 77.5634L8.97331 77.5563C8.97998 77.5467 8.99082 77.5451 9.00333 77.5422C9.01584 77.5201 9.03586 77.4867 8.98081 77.5046C8.97456 77.5017 8.97164 77.4975 8.97164 77.4921C8.97164 77.4838 8.97998 77.4704 8.97373 77.4642C8.97039 77.46 8.96622 77.4579 8.9633 77.4538C8.95579 77.4417 8.96789 77.4358 8.97081 77.4229C8.97247 77.4133 8.9633 77.4133 8.95996 77.4058C8.95788 77.3995 8.9633 77.3887 8.9633 77.3808C8.96288 77.3724 8.95955 77.3633 8.96121 77.3545C8.9633 77.3462 8.96872 77.3399 8.96789 77.3316C8.96705 77.3232 8.96413 77.3149 8.96372 77.3065C8.96413 77.2982 8.96664 77.2928 8.97122 77.2844C8.97831 77.2719 8.96038 77.2711 8.9683 77.2586C8.97247 77.2528 8.97789 77.2477 8.97581 77.2427C8.97331 77.2386 8.9633 77.2332 8.97247 77.2261C8.97789 77.2219 8.99499 77.2198 8.99666 77.2127C8.99749 77.2098 8.99374 77.2086 8.99541 77.2052C8.99708 77.2019 9 77.2006 9.00375 77.1981C9.00778 77.1949 9.01248 77.1926 9.01751 77.1915C9.0221 77.191 9.02627 77.1915 9.03085 77.1902C9.0467 77.1856 9.03127 77.1839 9.02668 77.1814C9.03002 77.1773 9.03336 77.1723 9.03878 77.1689C9.02377 77.1427 9.06004 77.1606 9.01042 77.1206C9.0075 77.1181 9.00125 77.1122 9.00292 77.1089C9.00417 77.1056 9.00875 77.1035 9.01042 77.1005C9.01084 77.0968 9.00833 77.0947 9.00458 77.0939C9.00083 77.0922 8.99874 77.0926 8.99624 77.0897C8.99378 77.0872 8.99193 77.0842 8.99082 77.0809C8.98832 77.0759 8.98915 77.0701 8.98915 77.0643C8.98915 77.0547 8.98915 77.0447 8.99124 77.0342C9.00625 76.9379 8.88532 76.8883 8.91159 76.7882C8.93453 76.6986 8.99708 76.6072 8.99666 76.5192C8.99708 76.5092 8.99541 76.5001 8.99583 76.49C8.99666 76.4767 8.98373 76.4692 8.97373 76.4617C8.96538 76.4554 8.9608 76.445 8.95621 76.4367C8.95079 76.4254 8.94745 76.4125 8.95538 76.3983C8.96227 76.3873 8.97102 76.3776 8.98123 76.3695C8.98874 76.3637 8.99583 76.3579 9.00333 76.3529C9.01 76.3478 9.01668 76.3416 9.02377 76.3383C9.04462 76.3287 9.04086 76.3307 9.05129 76.3149C9.05546 76.3082 9.06713 76.2974 9.07381 76.2915C9.08253 76.2842 9.09257 76.2785 9.10341 76.2749C9.12009 76.2707 9.11676 76.2765 9.12843 76.2657L9.13094 76.2636C9.13719 76.2569 9.14011 76.2532 9.15262 76.2461C9.16726 76.2374 9.18363 76.232 9.20058 76.2302C9.21434 76.229 9.22726 76.2323 9.24228 76.2265C9.25687 76.2207 9.26021 76.2132 9.27772 76.2098C9.29857 76.2056 9.31859 76.2056 9.33902 76.2044C9.35362 76.2031 9.36821 76.2023 9.38156 76.2031C9.38865 76.2031 9.41325 76.2031 9.41575 76.2077C9.41659 76.2107 9.41325 76.2152 9.41992 76.2161C9.42534 76.2161 9.42826 76.2119 9.43368 76.2098C9.43874 76.2081 9.44427 76.2084 9.44911 76.2107C9.45245 76.2132 9.4487 76.219 9.45287 76.2207C9.4562 76.2232 9.46162 76.2211 9.46621 76.2198C9.47497 76.2173 9.48373 76.2136 9.49248 76.2127Z" fill="#006CA8"/>
</svg>
