<svg width="15" height="80" viewBox="0 0 15 80" fill="none" xmlns="http://www.w3.org/2000/svg">
<path d="M14.2719 76.3148C14.3265 76.3746 14.3525 76.5176 14.3525 76.749L14.3525 79.6143C14.3525 79.9237 14.2173 80.0485 13.9495 79.9835L4.05875 77.6694C3.57513 77.555 3.09932 77.3782 2.6339 77.1338C2.17108 76.892 1.76027 76.5774 1.40405 76.19C1.04784 75.8052 0.759229 75.3371 0.54602 74.7885C0.330212 74.2399 0.223608 73.6107 0.223608 72.8983L0.223607 66.7594C0.223607 66.5982 0.24701 66.4994 0.296411 66.463C0.343212 66.4292 0.481017 66.437 0.709826 66.489L2.99011 67.022C3.16692 67.0636 3.28392 67.1182 3.34372 67.1858C3.40353 67.2534 3.43473 67.3627 3.43473 67.5109L3.43473 72.4952C3.43473 72.7657 3.47113 72.9893 3.54653 73.1661C3.61934 73.3455 3.71034 73.4885 3.81954 73.5925C3.92875 73.6991 4.04835 73.7823 4.18356 73.8395C4.31876 73.8967 4.45397 73.9435 4.58657 73.9747L5.83722 74.2659L5.83722 68.9565C5.83722 68.7953 5.86582 68.6965 5.91782 68.6627C5.97242 68.6289 6.11543 68.6393 6.34164 68.6913L8.44252 69.1827C8.75193 69.2555 8.90793 69.4193 8.90793 69.6741L8.90793 74.9861L13.9547 76.1666C14.1081 76.2082 14.2173 76.255 14.2719 76.3148Z" fill="#D42A28"/>
<path d="M7.28547 58.3923C6.76025 58.2831 6.25844 58.2077 5.78262 58.1713C5.3042 58.1323 4.89078 58.1609 4.53977 58.2545C4.18876 58.3481 3.91315 58.5249 3.70254 58.7849C3.49453 59.0449 3.38793 59.4115 3.38793 59.8822C3.38793 60.2722 3.48933 60.6414 3.69214 60.982C3.89495 61.3252 4.16796 61.632 4.51117 61.8998C4.85438 62.1702 5.2548 62.4017 5.71242 62.6045C6.17003 62.8073 6.64845 62.9659 7.14507 63.0829C7.76389 63.2259 8.32291 63.3169 8.81953 63.3533C9.31875 63.3871 9.73997 63.3533 10.0806 63.2441C10.4238 63.1375 10.689 62.9503 10.8788 62.6851C11.0686 62.4199 11.1622 62.0584 11.1622 61.6008C11.1622 61.1562 11.0582 60.7636 10.8476 60.4178C10.6396 60.072 10.3562 59.773 9.99998 59.5129C9.64376 59.2529 9.23035 59.0319 8.75973 58.8499C8.28911 58.6653 7.80029 58.5119 7.28547 58.3923ZM7.26727 54.37C8.39832 54.6352 9.41235 54.9966 10.3146 55.449C11.2168 55.9014 11.9839 56.4604 12.6157 57.1261C13.2475 57.7917 13.7337 58.5769 14.0691 59.4739C14.4045 60.3736 14.5735 61.3954 14.5735 62.5395C14.5735 63.6289 14.4071 64.5389 14.0795 65.2618C13.7493 65.9846 13.2709 66.528 12.6469 66.892C12.0203 67.256 11.2558 67.4588 10.3536 67.4952C9.45396 67.5342 8.43732 67.4198 7.30628 67.1546C6.20383 66.8972 5.2002 66.5228 4.30056 66.0366C3.39833 65.5504 2.6261 64.9654 1.98908 64.2867C1.34945 63.6055 0.858034 62.8281 0.514821 61.9544C0.171608 61.0808 1.58459e-06 60.1188 1.53867e-06 59.0683C1.49094e-06 57.9763 0.171608 57.0715 0.514821 56.3538C0.858034 55.6336 1.34685 55.0824 1.97868 54.6976C2.6131 54.3153 3.37753 54.0995 4.26936 54.0527C5.16379 54.0085 6.16223 54.1125 7.26727 54.37Z" fill="#D42A28"/>
<path d="M9.75036 30.847C9.36034 30.756 9.04053 30.7976 8.79092 30.9744C8.54131 31.1512 8.41651 31.458 8.41651 31.9L8.41651 34.2687L11.0608 34.8875L11.0608 32.5188C11.0608 32.251 11.0192 32.0196 10.9412 31.8272C10.8606 31.6348 10.7514 31.471 10.6188 31.3306C10.4836 31.1928 10.3432 31.0862 10.195 31.0108C10.0442 30.938 9.89856 30.8808 9.75036 30.847ZM5.4316 33.5693L5.4316 31.4632C5.4316 31.198 5.36399 30.9328 5.22879 30.6728C5.09358 30.4153 4.83097 30.2411 4.44096 30.1501C4.13155 30.0773 3.89494 30.1137 3.73373 30.2567C3.57253 30.3997 3.49192 30.626 3.49192 30.9328L3.49192 33.1194L5.4316 33.5693ZM6.64064 28.2625C6.80185 27.9244 7.00725 27.6514 7.25426 27.4486C7.50387 27.2458 7.77948 27.095 8.0837 26.9962C8.38531 26.9 8.70252 26.8532 9.03273 26.8558C9.36294 26.8584 9.68795 26.8974 10.0104 26.9728C10.6578 27.1236 11.2454 27.3862 11.7784 27.7606C12.3089 28.1351 12.7665 28.5875 13.1513 29.1231C13.5335 29.6561 13.8299 30.2463 14.0379 30.8938C14.2459 31.5412 14.3499 32.2172 14.3499 32.9166L14.3499 38.1636C14.3499 38.7149 14.2459 39.0477 14.0379 39.1595C13.8299 39.2713 13.4893 39.2713 13.0187 39.1621L1.55225 36.4788C1.10763 36.3748 0.774822 36.2162 0.553814 36.003C0.330206 35.7897 0.218401 35.4075 0.218401 34.8563L0.218401 29.6067C0.218401 29.0035 0.286005 28.4523 0.42121 27.9582C0.556414 27.4642 0.772221 27.0586 1.06863 26.7362C1.36504 26.4164 1.74206 26.1928 2.19967 26.0706C2.65729 25.951 3.20851 25.964 3.85334 26.1174C4.37856 26.2396 4.88557 26.4996 5.37699 26.8974C5.86841 27.2926 6.24803 27.7398 6.51844 28.2313L6.64064 28.2625Z" fill="#D42A28"/>
<path d="M14.3525 16.2135L14.3525 22.4512C14.3525 23.2598 14.2381 23.889 14.0093 24.3388C13.7805 24.7887 13.4815 25.1163 13.1097 25.3191C12.7379 25.5219 12.3245 25.6233 11.8668 25.6259C11.4092 25.6285 10.9568 25.5739 10.5148 25.4699L4.05615 23.9592C3.57253 23.8448 3.09672 23.668 2.6339 23.4236C2.17108 23.1792 1.76027 22.8646 1.40405 22.4798C1.04784 22.0924 0.759229 21.6243 0.54602 21.0783C0.330212 20.5297 0.223608 19.9005 0.223608 19.1854L0.223607 13.2312C0.223607 13.0674 0.24701 12.9712 0.296411 12.9348C0.343213 12.8984 0.481018 12.9088 0.709826 12.9608L2.99271 13.4938C3.16692 13.5354 3.28392 13.5926 3.34372 13.6602C3.40353 13.7278 3.43473 13.837 3.43473 13.9826L3.43473 18.7876C3.43473 19.058 3.47113 19.2817 3.54653 19.4585C3.61934 19.6379 3.71034 19.7809 3.81954 19.8849C3.92615 19.9915 4.04835 20.0747 4.18096 20.1319C4.31616 20.1891 4.45137 20.2333 4.58397 20.2671L5.4316 20.4647L5.4316 15.0539C5.4316 14.8927 5.4602 14.7939 5.51221 14.7601C5.56681 14.7263 5.70981 14.7367 5.93862 14.7913L8.0369 15.2827C8.34631 15.3555 8.49972 15.5193 8.49972 15.7741L8.49972 21.1849L10.013 21.5385C10.2704 21.5983 10.4732 21.6165 10.6188 21.5905C10.767 21.5645 10.8762 21.5073 10.9516 21.4163C11.0244 21.3253 11.0712 21.2083 11.092 21.0653C11.1128 20.9223 11.1206 20.7611 11.1206 20.5869L11.1206 15.4595C11.1206 15.2983 11.144 15.1995 11.1934 15.1631C11.2402 15.1267 11.378 15.1345 11.6068 15.1891L13.8897 15.7247C14.1965 15.7923 14.3525 15.9587 14.3525 16.2135Z" fill="#D42A28"/>
<path d="M3.43213 1.10429L3.43213 4.55463L13.9287 7.01172C14.0899 7.04812 14.2017 7.10012 14.2615 7.15992C14.3213 7.22233 14.3525 7.36793 14.3525 7.59674L14.3525 10.4646C14.3525 10.7741 14.2121 10.8937 13.9287 10.8261L3.43213 8.36897L3.43213 11.7413C3.43213 12.0247 3.27872 12.1287 2.96931 12.0559L0.707227 11.5281C0.478418 11.4735 0.340612 11.4111 0.293811 11.3383C0.247009 11.2681 0.223608 11.1511 0.223608 10.9899L0.223608 0.350265C0.223607 0.189059 0.247009 0.0850588 0.29381 0.0356575C0.340612 -0.0137447 0.478418 -0.0111459 0.707226 0.040856L2.96931 0.568677C3.27612 0.64408 3.43213 0.820883 3.43213 1.10429Z" fill="#D42A28"/>
<path d="M6.70305 48.6862L13.9287 50.4127C14.0899 50.4491 14.2017 50.5011 14.2615 50.5609C14.3213 50.6233 14.3525 50.7663 14.3525 50.9977L14.3525 53.863C14.3525 54.1724 14.2121 54.2946 13.9287 54.227L1.82006 51.3357C1.18824 51.1849 0.761823 50.9795 0.548614 50.7195C0.332806 50.4621 0.226202 50.0487 0.226202 49.4819L0.226202 48.4314C0.226202 48.2286 0.236603 48.057 0.257405 47.914C0.278206 47.771 0.317205 47.6436 0.379608 47.5292C0.43941 47.4148 0.530413 47.3108 0.652618 47.2198C0.774823 47.1262 0.936029 47.0326 1.13624 46.9312L5.455 45.0747L7.91729 44.0893L7.91729 43.9489L0.650018 42.2146C0.488812 42.1756 0.377007 42.1262 0.317205 42.0638C0.257403 42.0014 0.226201 41.8584 0.226201 41.6296L0.226201 38.7617C0.226201 38.4523 0.369208 38.3301 0.650018 38.4003L12.7587 41.2916C13.2163 41.4008 13.5959 41.5854 13.9001 41.8454C14.2043 42.1054 14.3551 42.5396 14.3551 43.1454L14.3551 44.1959C14.3551 44.3857 14.3447 44.5547 14.3239 44.7029C14.3031 44.8537 14.2641 44.9863 14.2043 45.0981C14.1445 45.2125 14.0535 45.3191 13.9313 45.4179C13.8117 45.5167 13.6479 45.6103 13.4477 45.6961L9.20954 47.5292L6.70565 48.5458L6.70565 48.6862" fill="#D42A28"/>
</svg>
