<svg width="16" height="80" viewBox="0 0 16 80" fill="none" xmlns="http://www.w3.org/2000/svg">
<path fill-rule="evenodd" clip-rule="evenodd" d="M15.4657 41.4907L15.4657 46.5303L10.5594 45.6504L10.5594 40.6107L15.4657 41.4907ZM5.91965 71.7287L8.53282 72.182L8.53282 69.2489L10.506 69.5955C10.826 69.6489 11.8926 69.8622 12.1326 70.1555C12.3192 70.4221 12.3992 70.7155 12.3726 71.0354L12.3726 72.5553C12.3726 73.4086 12.1859 74.1552 11.306 74.5552C10.3994 74.9552 8.58615 74.6352 7.73287 74.5019C6.87959 74.3419 5.33302 74.0486 4.47974 73.3553C4.0531 73.0087 3.70646 72.5553 3.49314 72.0487C3.27982 71.5421 3.17316 70.9821 3.19982 70.4221L3.19982 64.6892L2.97597e-05 62.6626L3.01735e-05 72.1287C3.01922e-05 72.5553 0.0266952 74.6352 1.06663 76.2618C2.5332 78.5283 5.35969 79.2483 7.81286 79.6749C9.86606 80.0482 12.6659 80.3948 14.1591 78.9283C15.0391 78.1017 15.4657 76.5284 15.4657 75.2485L15.4657 67.8623C15.4657 67.2224 15.279 66.6091 14.9324 66.1024C14.5058 65.5158 13.8658 65.1425 13.1459 65.0358L8.53282 64.2092L8.2395 64.1559L6.55961 63.8626L5.89298 63.7559L5.89298 71.7287L5.91965 71.7287ZM5.91965 54.7165L8.53281 55.1698L8.53281 52.2366L10.506 52.5833C10.826 52.6366 11.8926 52.8499 12.1326 53.1433C12.3192 53.4099 12.3992 53.7032 12.3726 54.0232L12.3726 55.5431C12.3726 56.3964 12.1859 57.143 11.306 57.543C10.3994 57.943 8.58614 57.623 7.73287 57.4896C6.87959 57.3297 5.33302 57.0363 4.47974 56.3431C4.0531 55.9964 3.70646 55.5431 3.49314 55.0365C3.27982 54.5298 3.17316 53.9699 3.19982 53.4099L3.19982 47.6769L2.90161e-05 45.6504L2.9431e-05 55.1431C2.94497e-05 55.5698 0.0266945 57.6496 1.06663 59.2495C2.5332 61.5161 5.35969 62.236 7.81286 62.6626C9.8394 63.036 12.6392 63.3559 14.1591 61.916C15.0391 61.0627 15.4657 59.4895 15.4657 58.2363L15.4657 50.8501C15.4657 50.2101 15.279 49.5968 14.9324 49.0902C14.5058 48.5036 13.8658 48.1302 13.1459 48.0236L8.53281 47.197L8.2395 47.1436L6.55961 46.8503L5.89298 46.7437L5.91965 54.7165Z" fill="#FF7D02"/>
<path fill-rule="evenodd" clip-rule="evenodd" d="M15.4657 27.0916C15.4657 27.7315 15.4124 28.3715 14.9324 28.8781C14.3458 29.4914 13.7058 29.3847 12.9859 29.2514L2.39988 27.3582C1.70659 27.2782 1.06663 26.9316 0.639989 26.3716C0.213349 25.785 2.96083e-05 25.0917 0.0266945 24.3717L0.0266941 14.239L3.19982 16.2656L3.19982 21.4386C3.19982 21.7319 3.25315 22.0252 3.41314 22.2652C3.5998 22.4785 3.86645 22.6118 4.15976 22.6385L5.91965 22.9585L5.91965 16.7189L8.53281 17.1722L8.53281 23.4118L11.5993 23.9451C11.7059 23.9717 11.8126 23.9717 11.8926 23.9717C11.9993 23.9451 12.0793 23.8918 12.1592 23.8384C12.3459 23.5718 12.3992 23.2251 12.3459 22.9051L12.3459 15.6789L15.4657 16.2389L15.4657 27.0916ZM15.4657 12.2658L3.17316 10.0793L3.17316 13.8391L2.91177e-05 13.2791L2.85373e-05 -4.57764e-05L3.17316 1.99983L3.17316 5.03963L15.4657 7.22616L15.4657 12.2658ZM6.74626 30.638C6.1063 29.9447 5.25303 29.5181 4.34642 29.4381C3.33315 29.2514 1.91991 29.1181 1.03996 29.838C0.133355 30.5313 0.0266949 31.8379 0.0266949 32.9312L0.0266954 43.7838L2.50654 44.2371L8.55948 45.3037L8.55948 36.211C8.53282 35.9976 8.55948 35.7843 8.63948 35.5977C8.71947 35.411 8.8528 35.251 9.01278 35.1177C9.19944 35.011 9.43942 34.9844 9.62608 35.0377L11.1726 35.3044C11.5193 35.3843 11.8126 35.5177 12.0793 35.7577C12.1859 35.8643 12.3992 36.1843 12.3992 37.1442L12.3992 38.6108L15.4657 40.584L15.4657 35.491C15.4657 34.1578 15.4657 32.9845 14.3724 31.8112C13.3592 30.6647 12.1326 30.478 11.1193 30.2913C10.1594 30.1314 9.17277 29.9714 8.37283 30.638C7.89286 31.0913 7.62621 31.7046 7.57288 32.3445L7.49288 32.3179C7.46622 31.6779 7.19957 31.0913 6.74626 30.638ZM4.1331 34.3711L4.15976 34.3711L4.74639 34.4777L4.82639 34.5044L4.85305 34.5044C5.06637 34.5577 5.27969 34.6377 5.46635 34.7711C5.62634 34.931 5.75966 35.1444 5.83965 35.3577C5.91965 35.571 5.91965 35.811 5.89298 36.051L5.89299 39.7841L5.25303 39.6774L4.63973 39.5707C4.5864 39.5707 4.53307 39.5441 4.45308 39.5441L3.99977 39.4641C3.86645 39.4641 3.75979 39.4374 3.62646 39.3841C3.5198 39.3308 3.41314 39.2508 3.33315 39.1441C3.19982 38.9575 3.11983 38.7175 3.14649 38.4775L3.14649 35.5977C3.14649 35.251 3.14649 34.7711 3.46647 34.5044C3.67979 34.3711 3.91978 34.3444 4.1331 34.3711Z" fill="black"/>
</svg>
