<svg width="9" height="8" viewBox="0 0 9 8" fill="none" xmlns="http://www.w3.org/2000/svg">
<path d="M0.534027 4.26196V7.4661C0.534027 7.76088 0.773804 8.00013 1.06805 8.00013H3.73817V4.26196H0.534027Z" fill="#2B7BFB"/>
<path d="M8.01035 2.12581H6.3207C6.44192 2.04304 6.54606 1.9608 6.61869 1.88711C7.04964 1.45401 7.04964 0.749101 6.61869 0.316008C6.20001 -0.10587 5.47054 -0.104802 5.0524 0.316008C4.82063 0.548309 4.2065 1.49406 4.29141 2.12581H4.25296C4.33734 1.49406 3.72321 0.548309 3.49198 0.316008C3.0733 -0.104802 2.34383 -0.104802 1.92569 0.316008C1.49527 0.749101 1.49527 1.45401 1.92515 1.88711C1.99832 1.9608 2.10245 2.04304 2.22367 2.12581H0.534023C0.239777 2.12581 0 2.36559 0 2.65984V3.46087C0 3.60826 0.119621 3.72788 0.267012 3.72788H3.73816V2.65984H4.80621V3.72788H8.27736C8.42475 3.72788 8.54437 3.60826 8.54437 3.46087V2.65984C8.54437 2.36559 8.30513 2.12581 8.01035 2.12581ZM3.70666 2.10819C3.70666 2.10819 3.68423 2.12581 3.60786 2.12581C3.23885 2.12581 2.53448 1.74238 2.30431 1.51062C2.08056 1.28526 2.08056 0.917853 2.30431 0.692495C2.41272 0.583554 2.55637 0.523744 2.7091 0.523744C2.8613 0.523744 3.00495 0.583554 3.11336 0.692495C3.47329 1.05456 3.83108 1.97949 3.70666 2.10819ZM4.93598 2.12581C4.86015 2.12581 4.83772 2.10872 4.83772 2.10819C4.71329 1.97949 5.07109 1.05456 5.43102 0.692495C5.64623 0.475147 6.02272 0.474079 6.24006 0.692495C6.46435 0.917853 6.46435 1.28526 6.24006 1.51062C6.0099 1.74238 5.30552 2.12581 4.93598 2.12581Z" fill="#2B7BFB"/>
<path d="M4.80621 4.26196V8.00013H7.47633C7.77111 8.00013 8.01035 7.76088 8.01035 7.4661V4.26196H4.80621Z" fill="#2B7BFB"/>
</svg>
