<svg width="14" height="80" viewBox="0 0 14 80" fill="none" xmlns="http://www.w3.org/2000/svg">
<path d="M1.43393e-06 47.3518L2.99753 47.9326L8.69535 49.0668C9.35695 49.2965 9.54598 49.2827 9.8971 49.7014C10.2482 50.1603 10.1669 50.9571 10.1669 51.5105L13.1512 52.0506C13.3941 48.1623 12.3275 46.8929 10.7208 46.5281L2.99753 44.9351L2.99753 41.9645L13.1234 43.9224L13.1234 40.7901L1.03614e-06 38.2515L1.43393e-06 47.3518ZM13.1914 65.8634L13.1914 68.8742L7.22375 67.7131L13.1914 71.9932L13.1914 73.8835L7.22376 75.8277L13.1914 76.9892L13.1914 80L2.74948e-06 77.4481L2.61727e-06 74.4236L8.10132 71.9393L2.26315e-06 66.3223L2.13095e-06 63.2978L13.1914 65.8634Z" fill="black"/>
<path d="M10.1669 35.9294L10.1669 30.8525C10.1669 30.569 10.0724 30.3124 9.87016 30.0695C9.66743 29.8398 9.42453 29.6914 9.14098 29.6375C8.85744 29.5832 8.60083 29.6375 8.4118 29.7859C8.20907 29.948 8.11455 30.164 8.11455 30.4475L8.12826 33.7962L5.10379 33.2829L5.10379 29.8667C5.10379 28.7732 5.49555 27.9089 6.29184 27.2879C7.0886 26.6669 8.03374 26.4642 9.15421 26.6802C10.2752 26.8966 11.2203 27.4769 12.0171 28.3951C12.8133 29.3266 13.2051 30.3393 13.2051 31.4333L13.2051 39.467L0.0269375 36.9014L0.026937 25.8163L3.03865 26.3961L3.03865 34.5244L10.1674 35.9289L10.1669 35.9294ZM13.1782 15.6087L13.1782 26.6939L2.83195e-07 24.1283L-2.01352e-07 13.0431L3.01076 13.6239L3.01076 21.7522L5.07685 22.1572L5.07685 15.8786L8.10132 16.4726L8.10132 22.7512L10.1669 23.1562L10.1669 15.0279L13.1782 15.6087ZM3.01076 0.59412L3.01076 5.1176L13.1782 7.0887L13.1782 10.0593L3.01076 8.08819L3.01076 12.6112L-2.46198e-07 12.0172L-7.7148e-07 0.000102997L3.01076 0.59412Z" fill="#FDBA01"/>
<path d="M13.1914 53.0902L13.1914 64.3914L1.7964e-06 61.8532L1.30241e-06 50.5521L3.01076 51.1324L3.01076 59.4227L5.09009 59.8277L5.09009 53.4144L8.10132 53.9947L8.10132 60.4085L10.1806 60.8135L10.1806 52.5232L13.1914 53.0902Z" fill="black"/>
</svg>
