<svg width="28" height="80" viewBox="0 0 28 80" fill="none" xmlns="http://www.w3.org/2000/svg">
<path fill-rule="evenodd" clip-rule="evenodd" d="M-2.03147e-07 75.3525L16.2527 80L16.2527 70.3578L27.9719 73.7005L27.983 4.64162L11.6257 7.12122e-06L11.6257 26.3438L0.0111041 23.045L-2.03147e-07 75.3525Z" fill="black"/>
<path fill-rule="evenodd" clip-rule="evenodd" d="M5.77279 57.3746L5.77279 60.6676L7.97668 61.2966L7.97668 57.9867L5.77279 57.3746ZM13.2304 62.7955L13.2304 75.9832L3.01471 73.0684L3.01471 57.36C3.01471 54.9556 4.45923 53.8624 6.79406 54.5329L7.8013 54.8246C9.64041 55.349 10.5015 56.5147 10.5015 58.4093L10.5015 62.0162L13.2304 62.7955ZM5.78741 48.9776L9.04179 50.8202L9.04179 47.757L5.7874 47.757L5.78741 48.9776ZM13.2304 53.1925L13.2304 56.6024L3.01413 50.5841L3.01413 44.813L13.2304 44.813L13.2304 47.757L11.5228 47.757L11.5228 52.2256L13.2304 53.1925ZM5.77279 38.7076L7.97668 39.336L7.97668 36.0261L5.77279 35.4141L5.77279 38.7076ZM7.71361 32.8349C9.0681 33.2184 9.88477 33.9438 10.2262 35.0464L13.2304 34.1321L13.2304 37.2795L10.4138 38.1371L10.4138 40.0311L13.2304 40.8355L13.2304 43.8952L3.01471 40.9811L3.01471 35.4C3.01471 32.9956 4.43 31.9025 6.79406 32.573L7.71361 32.8349ZM13.2304 29.9645L13.2304 33.0243L3.01413 30.1101L3.01413 27.0498L13.2304 29.9645ZM14.6901 48.6894L14.6901 44.7259L24.9057 47.6401L24.9057 50.7004L19.0651 49.0203L22.4101 51.8661L22.4101 53.8332L19.251 54.9053L24.9057 56.5147L24.9057 69.7029L14.6901 66.7882L14.6901 53.5567L18.774 52.1414L14.6901 48.6894ZM20.7171 40.8776L20.7171 37.8144L17.4628 37.8144L17.4628 39.0344L20.7171 40.8776ZM14.6901 40.6408L14.6901 34.8704L24.9057 34.8704L24.9057 37.8138L23.1981 37.8138L23.1981 42.2824L24.9057 43.2493L24.9057 46.6592L14.6901 40.6408ZM17.6083 24.539L17.6083 27.4117L24.9057 29.4928L24.9057 32.5537L17.6083 30.4714L17.6083 33.8211L14.6895 32.9909L14.6895 23.7077L17.6083 24.539ZM17.6083 20.4732L21.9869 21.7266L21.9869 17.0925L24.9057 17.9227L24.9057 21.7698C24.9057 24.1742 23.5191 25.282 21.1258 24.5969L17.3903 23.5189C15.5512 22.9939 14.6895 21.8283 14.6895 19.9342L14.6895 14.9945L17.6083 15.8392L17.6083 20.4732ZM14.6901 7.09612L14.6901 4.03582L24.9057 6.94998L24.9057 10.0103L21.2573 8.96973L21.2573 12.4667L24.9051 13.5073L24.9051 16.5676L14.6901 13.6534L14.6901 10.5931L18.3379 11.6337L18.3379 8.1367L14.6901 7.09612Z" fill="#F8FF13"/>
</svg>
