<svg width="20" height="80" viewBox="0 0 20 80" fill="none" xmlns="http://www.w3.org/2000/svg">
<path d="M-3.0736e-06 9.68421L-4.2331e-07 70.3158C-1.89522e-07 75.6642 4.33577 80 9.68421 80C15.0327 80 19.3684 75.6642 19.3684 70.3158L19.3684 9.68421C19.3684 4.33577 15.0326 -6.57098e-07 9.68421 -4.2331e-07C4.33577 -1.89522e-07 -3.30739e-06 4.33577 -3.0736e-06 9.68421Z" fill="white"/>
<path fill-rule="evenodd" clip-rule="evenodd" d="M17.229 70.9508C17.1848 71.1192 17.1608 71.3205 17.1322 71.4922C16.4476 75.5647 12.5032 78.4741 8.58105 77.7967C4.71157 77.1285 2.10694 73.9457 2.1061 69.8661C2.10357 52.1672 2.10525 16.9348 2.10525 16.9348L2.1061 15.8906C2.1061 15.8906 2.25346 16.1727 2.35452 16.3432C2.44715 16.4981 2.58357 16.6733 2.65178 16.7402C5.54862 19.5882 8.92967 20.4447 12.7638 19.2935C14.5351 18.7617 15.9785 17.6628 17.2627 16.3226L17.2286 70.9508L17.229 70.9508Z" fill="#161616"/>
<path fill-rule="evenodd" clip-rule="evenodd" d="M11.7343 68.842C10.3314 68.338 8.99074 67.8353 7.63453 67.3801C7.04927 67.1839 6.9259 66.7931 6.92464 66.2433C6.92295 65.6866 6.99201 65.2588 7.61685 65.039C8.96211 64.5658 10.2855 64.0285 11.7208 63.4782C9.71116 62.9658 7.81643 62.4828 5.92169 61.9986C5.17643 61.8083 4.78443 60.9342 5.23537 60.3127C5.37558 60.1186 5.83032 60.0159 6.09432 60.0778C7.048 60.3005 7.98106 60.6117 8.92253 60.8887C10.4472 61.3376 11.9688 61.7995 13.4994 62.2277C14.0796 62.3894 14.3411 62.6879 14.3234 63.3224C14.2897 64.5241 14.3187 64.5254 13.192 64.9043C11.9688 65.3161 10.7453 65.7258 9.38274 66.183C10.8497 66.6811 12.1764 67.13 13.5019 67.5818C14.2825 67.8483 14.2973 67.9241 14.3124 69.1009C14.32 69.7216 14.0122 69.9683 13.4737 70.1254C11.0817 70.8247 8.69727 71.5498 6.30864 72.2618C5.58443 72.4774 5.25474 72.3763 5.12758 71.9195C4.8779 71.0226 5.12253 70.4934 5.87874 70.3043C7.81432 69.8201 9.75032 69.3371 11.7343 68.8416L11.7343 68.842ZM11.4421 27.9851C12.7293 27.9068 13.3352 26.9119 12.9339 25.578C12.8219 25.2049 12.6253 24.8508 12.4244 24.514C12.1558 24.0651 12.3663 23.8285 12.7284 23.6011C13.1006 23.3675 13.419 23.1624 13.7811 23.6534C14.7011 24.9001 14.8636 27.1906 14.0602 28.5089C13.2808 29.7868 12.0324 30.047 10.6771 29.9814C8.24674 29.8635 6.78948 27.8967 7.33895 25.5102C7.69137 23.9797 9.52042 22.8306 10.9907 23.2205C11.4021 23.33 11.4442 23.6584 11.4434 24.0159C11.44 25.3211 11.4421 26.6268 11.4421 27.9851ZM8.13053 52.4651C7.30232 51.6403 7.05937 50.7106 7.33306 49.6445C7.55327 48.7889 8.25348 48.1089 9.11916 48.0689C10.6867 47.9965 12.2577 47.9957 13.8274 47.9776C14.2198 47.9734 14.4531 48.1776 14.4518 48.599C14.4518 48.7771 14.4463 48.9557 14.4552 49.1338C14.4813 49.6593 14.2446 49.8866 13.7162 49.879C12.5773 49.8614 11.4383 49.8719 10.2998 49.874C9.24253 49.8765 8.90864 50.1089 8.87243 50.8593C8.82779 51.7683 9.38485 52.4277 10.3065 52.463C11.3651 52.5035 12.4274 52.4588 13.4863 52.4976C13.7895 52.5085 14.2905 52.6155 14.3453 52.7906C14.4716 53.1982 14.4181 53.679 14.3537 54.1182C14.3368 54.231 14.0084 54.3717 13.8227 54.3738C11.8787 54.3923 9.93474 54.383 7.99116 54.3872C7.58906 54.3881 7.37264 54.2176 7.33516 53.8003C7.24969 52.8487 7.34358 52.6677 8.13053 52.4651ZM8.16043 35.8748C7.33221 35.0378 7.056 34.1186 7.32548 33.0479C7.55327 32.1435 8.28 31.4576 9.20042 31.4214C10.7301 31.3611 12.2619 31.3666 13.7928 31.3485C14.2585 31.343 14.475 31.586 14.4547 32.0538C14.4478 32.212 14.4478 32.3705 14.4547 32.5287C14.4762 33.0298 14.243 33.2458 13.7453 33.2399C12.6063 33.2268 11.4674 33.2315 10.328 33.2374C9.22737 33.2433 8.89685 33.4803 8.87116 34.2597C8.84085 35.1691 9.39706 35.794 10.3394 35.8273C11.4181 35.8651 12.4994 35.8454 13.579 35.8567C14.3705 35.8647 14.4615 35.9759 14.4547 36.8854C14.4488 37.6475 14.3545 37.7468 13.6059 37.7481C11.7996 37.7506 9.99242 37.7439 8.18611 37.7523C7.73474 37.754 7.36295 37.7186 7.33179 37.1249C7.28169 36.1544 7.36337 35.994 8.16043 35.8748ZM9.68969 45.8433C8.37264 45.8433 7.05558 45.8475 5.73853 45.8416C5.06695 45.8382 4.97137 45.7195 4.96843 44.9565C4.96506 44.0925 5.06527 43.9426 5.73264 43.9409C8.36716 43.9338 11.0013 43.9342 13.6358 43.9401C14.3402 43.9418 14.443 44.0891 14.4375 44.9851C14.4328 45.727 14.3347 45.8399 13.6417 45.842C12.3242 45.847 11.0072 45.8437 9.68969 45.8433ZM10.9053 56.522C11.8286 56.522 12.752 56.5148 13.675 56.5241C14.3347 56.5308 14.4404 56.6833 14.4371 57.5472C14.4345 58.3161 14.336 58.4441 13.6808 58.4445C11.8341 58.4466 9.98737 58.442 8.14106 58.4327C7.48085 58.4294 7.35453 58.2677 7.35453 57.4875C7.35453 56.7199 7.50021 56.53 8.13516 56.5241C9.05853 56.5157 9.9819 56.522 10.9053 56.522ZM10.8918 41.7683C9.96842 41.7683 9.04464 41.7746 8.12127 41.7662C7.50316 41.7607 7.35916 41.5801 7.35495 40.8546C7.35032 40.0592 7.48548 39.8622 8.096 39.8597C9.96253 39.8521 11.8291 39.8639 13.6956 39.8525C14.2177 39.8496 14.4665 40.0672 14.4383 40.5986C14.4291 40.7763 14.4354 40.9553 14.4362 41.1334C14.4387 41.5776 14.2168 41.7809 13.7802 41.7788C12.8173 41.7746 11.8543 41.7776 10.8918 41.7776L10.8918 41.7683ZM6.63958 40.831C6.63958 41.6504 6.53348 41.7708 5.81264 41.7729C5.04337 41.7755 4.95369 41.6744 4.95369 40.8079C4.95369 39.9843 5.05769 39.8651 5.77685 39.8626C6.52969 39.8597 6.64043 39.9839 6.64 40.831L6.63958 40.831ZM4.95411 57.4748C4.95453 56.6559 5.06695 56.5258 5.77432 56.522C6.5179 56.5182 6.64043 56.6559 6.64 57.4938C6.63916 58.3228 6.544 58.431 5.81474 58.434C5.04 58.4369 4.95327 58.3401 4.95411 57.4748ZM10.0063 25.1633C9.19706 25.1826 8.70274 25.6529 8.67158 26.4205C8.63832 27.2449 9.14316 27.8243 10.0063 27.9233L10.0063 25.1633Z" fill="url(#paint0_linear)"/>
<mask id="mask0" mask-type="alpha" maskUnits="userSpaceOnUse" x="2" y="2" width="16" height="16">
<path d="M17.2632 10.1054C17.2632 5.91964 13.87 2.52643 9.68422 2.52643C5.49848 2.52643 2.10527 5.91964 2.10527 10.1054C2.10527 14.2911 5.49848 17.6843 9.68422 17.6843C13.87 17.6843 17.2632 14.2911 17.2632 10.1054Z" fill="white"/>
</mask>
<g mask="url(#mask0)">
<path d="M17.2632 10.1054C17.2632 5.91964 13.87 2.52643 9.68422 2.52643C5.49848 2.52643 2.10527 5.91964 2.10527 10.1054C2.10527 14.2911 5.49848 17.6843 9.68422 17.6843C13.87 17.6843 17.2632 14.2911 17.2632 10.1054Z" fill="#F26C23"/>
<path d="M17.2632 10.1054C17.2632 5.91964 13.87 2.52643 9.68422 2.52643C5.49848 2.52643 2.10527 5.91964 2.10527 10.1054C2.10527 14.2911 5.49848 17.6843 9.68422 17.6843C13.87 17.6843 17.2632 14.2911 17.2632 10.1054Z" fill="url(#paint1_radial)"/>
<path fill-rule="evenodd" clip-rule="evenodd" d="M12.5979 8.24421C12.56 9.52211 11.2354 9.74442 10.2889 9.74442L7.5297 9.74442C7.42682 9.74464 7.3249 9.72459 7.22977 9.68541C7.13464 9.64623 7.04816 9.58869 6.97528 9.51608C6.90239 9.44347 6.84453 9.35721 6.80499 9.26223C6.76546 9.16725 6.74502 9.06541 6.74486 8.96253C6.74502 8.85965 6.76546 8.7578 6.80499 8.66282C6.84453 8.56784 6.90239 8.48158 6.97528 8.40897C7.04816 8.33636 7.13464 8.27882 7.22977 8.23964C7.3249 8.20046 7.42682 8.18041 7.5297 8.18063L10.6497 8.18063C11.1053 8.18063 11.3326 7.91958 11.3326 7.39832C11.3326 6.61642 10.5891 6.61642 10.3642 6.61642L7.5297 6.61642C7.42682 6.61664 7.3249 6.59659 7.22977 6.55741C7.13464 6.51823 7.04816 6.46069 6.97528 6.38808C6.90239 6.31547 6.84453 6.22921 6.80499 6.13423C6.76546 6.03925 6.74502 5.93741 6.74486 5.83453C6.74502 5.73165 6.76546 5.6298 6.80499 5.53482C6.84453 5.43984 6.90239 5.35358 6.97528 5.28097C7.04816 5.20836 7.13464 5.15082 7.22977 5.11164C7.3249 5.07246 7.42682 5.05241 7.5297 5.05263L11.8468 5.05263C11.9496 5.05241 12.0515 5.07246 12.1467 5.11164C12.2418 5.15082 12.3283 5.20836 12.4012 5.28097C12.4741 5.35358 12.5319 5.43984 12.5715 5.53482C12.611 5.6298 12.6314 5.73165 12.6316 5.83453C12.6312 6.0167 12.5674 6.19306 12.451 6.33323C12.3347 6.47341 12.1731 6.56864 11.9941 6.60253C12.4194 6.95663 12.6206 7.504 12.5983 8.24463L12.5979 8.24421ZM7.5297 12.1082C7.24061 11.9943 7.00696 11.7728 6.87791 11.4901C6.67159 11.0543 6.67159 10.6585 7.01307 10.3924C7.17725 10.2647 7.38533 10.2071 7.59182 10.2324C7.79831 10.2576 7.98639 10.3636 8.11496 10.5272C8.26275 10.7158 8.26275 11.1116 8.37854 11.3731C8.49433 11.6341 8.74065 11.7318 9.06191 11.9394C9.32128 12.1069 9.85138 12.0817 9.85686 12.0893L11.8468 12.0901C11.9496 12.0899 12.0515 12.1099 12.1467 12.1491C12.2418 12.1883 12.3283 12.2458 12.4012 12.3184C12.4741 12.3911 12.5319 12.4773 12.5715 12.5723C12.611 12.6673 12.6314 12.7691 12.6316 12.872C12.6315 12.9749 12.6111 13.0768 12.5716 13.1718C12.5321 13.2669 12.4742 13.3532 12.4013 13.4258C12.3284 13.4985 12.2419 13.5561 12.1468 13.5953C12.0516 13.6345 11.9497 13.6545 11.8468 13.6543L7.5297 13.6543C7.42678 13.6545 7.32483 13.6345 7.22967 13.5953C7.13452 13.5561 7.04802 13.4985 6.97513 13.4258C6.90224 13.3532 6.84439 13.2669 6.80487 13.1718C6.76536 13.0768 6.74497 12.9749 6.74486 12.872C6.74486 12.4973 7.11622 12.1082 7.5297 12.1082ZM11.0619 15.2181C11.0619 14.7861 11.4118 14.4362 11.8438 14.4362L11.8497 14.4362C12.0571 14.4362 12.2559 14.5186 12.4026 14.6652C12.5492 14.8119 12.6316 15.0107 12.6316 15.2181C12.6316 15.4255 12.5492 15.6244 12.4026 15.771C12.2559 15.9176 12.0571 16 11.8497 16L11.8438 16C11.4118 16 11.0619 15.6501 11.0619 15.2181Z" fill="url(#paint2_linear)"/>
<path d="M17.2632 10.1054C17.2632 5.91964 13.87 2.52643 9.68422 2.52643C5.49848 2.52643 2.10527 5.91964 2.10527 10.1054C2.10527 14.2911 5.49848 17.6843 9.68422 17.6843C13.87 17.6843 17.2632 14.2911 17.2632 10.1054Z" fill="url(#paint3_radial)"/>
<path d="M12.209 10.8013C13.5264 7.69747 12.7724 4.40794 10.5249 3.4539C8.27729 2.49986 5.38724 4.24259 4.06975 7.34638C2.75227 10.4502 3.50626 13.7397 5.75383 14.6938C8.00141 15.6478 10.8915 13.9051 12.209 10.8013Z" fill="url(#paint4_linear)"/>
</g>
<defs>
<linearGradient id="paint0_linear" x1="14.5775" y1="47.7571" x2="4.95369" y2="47.7571" gradientUnits="userSpaceOnUse">
<stop stop-color="#999999"/>
<stop offset="0.69251" stop-color="white"/>
<stop offset="1" stop-color="white"/>
</linearGradient>
<radialGradient id="paint1_radial" cx="0" cy="0" r="1" gradientUnits="userSpaceOnUse" gradientTransform="translate(10.8933 23.4642) scale(5.81487 6.70193)">
<stop stop-color="#FFDA36"/>
<stop offset="1" stop-color="#FFDA36" stop-opacity="0"/>
</radialGradient>
<linearGradient id="paint2_linear" x1="6.73691" y1="10.5263" x2="12.6316" y2="10.5263" gradientUnits="userSpaceOnUse">
<stop stop-color="#352A1E"/>
<stop offset="1" stop-color="#161616"/>
</linearGradient>
<radialGradient id="paint3_radial" cx="0" cy="0" r="1" gradientUnits="userSpaceOnUse" gradientTransform="translate(-5.75839 49.0719) rotate(23.276) scale(2.30855 5.23987)">
<stop stop-color="#FFDA36" stop-opacity="0.58"/>
<stop offset="1" stop-color="#FFDA36" stop-opacity="0"/>
</radialGradient>
<linearGradient id="paint4_linear" x1="7.33349" y1="8.73176" x2="4.10882" y2="7.36297" gradientUnits="userSpaceOnUse">
<stop stop-color="#FFD169" stop-opacity="0"/>
<stop offset="0.8319" stop-color="#FFDA85" stop-opacity="0.29"/>
<stop offset="1" stop-color="#FFDA85" stop-opacity="0.26"/>
</linearGradient>
</defs>
</svg>
