<svg width="10" height="10" viewBox="0 0 10 10" fill="none" xmlns="http://www.w3.org/2000/svg">
<path d="M6.96674 5.93405C8.19114 4.23899 7.78164 1.89184 6.05268 0.691736C4.32372 -0.508367 1.92962 -0.107185 0.70551 1.58816C-0.518598 3.28321 -0.109392 5.63008 1.61986 6.83018C2.85391 7.68674 4.48547 7.75269 5.78709 6.99908L8.61526 9.75516C8.92063 10.0703 9.4287 10.0829 9.75016 9.78355C10.0716 9.48446 10.0845 8.98635 9.77941 8.6712C9.76976 8.66116 9.7604 8.65198 9.75016 8.64252L6.96674 5.93405ZM3.83379 6.19098C2.46752 6.19127 1.35983 5.10616 1.35895 3.76669C1.35866 2.42722 2.46548 1.34125 3.83203 1.34068C5.19654 1.34011 6.30365 2.4235 6.30628 3.76124C6.30862 5.101 5.20239 6.18869 3.83554 6.19098C3.83496 6.19098 3.83466 6.19098 3.83379 6.19098Z" fill="white"/>
</svg>
